<?xml version="1.0" encoding="utf-8"?>
<!-- Generator: Adobe Illustrator 19.0.0, SVG Export Plug-In . SVG Version: 6.00 Build 0)  -->
<svg version="1.1" id="Layer_1" xmlns="http://www.w3.org/2000/svg" xmlns:xlink="http://www.w3.org/1999/xlink" x="0px" y="0px"
	 viewBox="250 235.2 1096.6 370.7" enable-background="new 250 235.2 1096.6 370.7" xml:space="preserve">
<g id="XMLID_153_">
	<path id="XMLID_175_" fill="#FFFFFF" d="M470,235.2v269h-6.1v-252L377.5,477h-7.7l-86.5-224.9v252h-6.2V235.2h6.5l89.9,234l90-234
		H470z"/>
	<path id="XMLID_173_" fill="#FFFFFF" d="M1096.3,498v6.1H938.8V235.2h6.5V498H1096.3z"/>
	<path id="XMLID_171_" fill="#FFFFFF" d="M1320.1,235.2v6.2H1246v262.8h-6.1V241.4h-74.1v-6.2H1320.1z"/>
	<g id="XMLID_154_">
		<g id="XMLID_156_">
			<g id="XMLID_166_">
				<g id="XMLID_167_">
					<path id="XMLID_168_" fill="#FFFFFF" d="M810.1,271H598.7v-35.3h211.4V271z M604.9,264.6H804v-22.5H604.9V264.6z"/>
				</g>
			</g>
			<g id="XMLID_164_">
				<path id="XMLID_165_" fill="none" stroke="#FFFFFF" stroke-width="6.3935" stroke-miterlimit="10" d="M807,371.5"/>
			</g>
			<g id="XMLID_162_">
				<path id="XMLID_163_" fill="none" stroke="#FFFFFF" stroke-width="6.3935" stroke-miterlimit="10" d="M601.8,371.5"/>
			</g>
			<g id="XMLID_157_">
				<g id="XMLID_158_">
					<path id="XMLID_159_" fill="#FFFFFF" d="M810.1,504.4H598.7v-35.2h211.4V504.4z M604.9,498H804v-22.4H604.9V498z"/>
				</g>
			</g>
		</g>
		<path id="XMLID_155_" fill="none" stroke="#FFFFFF" stroke-width="6.3935" stroke-linecap="round" stroke-miterlimit="10" d="
			M601.1,371.2c0,0,45.9-34.7,101.4,3.1s105.1-3.1,105.1-3.1"/>
	</g>
</g>
<path id="XMLID_85_" fill="#FFFFFF" d="M320,591.1v8.1c-2.2,1.1-4.9,2.2-7,2.2c-6,0-10.3-4.9-10.3-10.8c0-5.4,4.3-10.3,10.3-10.3
	c3.2,0,6.5,1.6,8.6,3.3l2.7-3.3c-2.7-2.7-7-4.3-11.3-4.3c-8.7,0-15.7,6.5-15.7,14.6c0,8.6,7,15.1,15.7,15.1c3.8,0,8.1-1.6,11.3-3.8
	v-10.8H320z"/>
<path id="XMLID_82_" fill="#FFFFFF" d="M351.4,592.2v-11.4h7c4.3,0,7,1.6,7,5.4c0,3.8-2.7,5.9-7,5.9H351.4z M364.9,605.2h5.4
	l-6.5-9.7c3.8-1.1,6-4.9,6-9.2c0-6.5-4.4-10.3-11.4-10.3h-11.9v29.2h4.9v-8.6h7c0,0,0.5,0,1.1,0L364.9,605.2z"/>
<rect id="XMLID_81_" x="391.5" y="576" fill="#FFFFFF" width="5.4" height="29.2"/>
<polygon id="XMLID_80_" fill="#FFFFFF" points="424.4,600.8 424.4,576 419.5,576 419.5,605.2 436.9,605.2 436.9,600.8 "/>
<polygon id="XMLID_79_" fill="#FFFFFF" points="461.8,600.8 461.8,576 456.9,576 456.9,605.2 474.7,605.2 474.7,600.8 "/>
<polygon id="XMLID_78_" fill="#FFFFFF" points="515.3,580.8 515.3,576 494.2,576 494.2,605.2 515.9,605.2 515.9,600.8 499.1,600.8 
	499.1,592.7 513.7,592.7 513.7,588.4 499.1,588.4 499.1,580.8 "/>
<path id="XMLID_73_" fill="#FFFFFF" d="M541.8,580.8h7c6,0,10.3,3.8,10.3,9.8c0,5.9-4.3,10.3-10.3,10.3h-7V580.8z M537,576v29.2
	h11.9c8.7,0,15.2-5.9,15.2-14.6c0-8.1-6.5-14.6-15.2-14.6H537z"/>
<path id="XMLID_71_" fill="#FFFFFF" d="M623.5,576c-8.6,0-15.7,6.5-15.7,14.6c0,8.6,7,15.1,15.1,15.1c4.4,0,8.7-2.2,11.4-4.9
	l-2.7-3.2c-2.2,2.2-5.4,3.2-8.1,3.2c-5.9,0-10.3-4.3-10.3-10.3c0-5.4,4.3-10.3,10.3-10.3c2.7,0,6,1.6,8.1,3.8l2.7-3.3
	C631.6,577.6,627.3,576,623.5,576z"/>
<polygon id="XMLID_69_" fill="#FFFFFF" points="679.8,605.2 679.8,576 674.9,576 674.9,589 659.7,589 659.7,576 654.9,576 
	654.9,605.2 659.7,605.2 659.7,593.3 674.9,593.3 674.9,605.2 "/>
<polygon id="XMLID_67_" fill="#FFFFFF" points="723.6,580.8 723.6,576 703,576 703,605.2 724.1,605.2 724.1,600.8 707.9,600.8 
	707.9,592.7 722,592.7 722,588.4 707.9,588.4 707.9,580.8 "/>
<polygon id="XMLID_65_" fill="#FFFFFF" points="766.3,580.8 766.3,576 745.2,576 745.2,605.2 766.9,605.2 766.9,600.8 750.1,600.8 
	750.1,592.7 764.7,592.7 764.7,588.4 750.1,588.4 750.1,580.8 "/>
<path id="XMLID_64_" fill="#FFFFFF" d="M797.7,576c-6.5,0-10.8,3.2-10.8,8.1c0,10.3,15.7,7,15.7,13.5c0,2.2-2.2,3.2-5.4,3.2
	c-3.2,0-7.1-1.6-9.8-4.3l-2.2,4.3c2.7,2.7,7.1,4.9,11.9,4.9c6.5,0,10.8-3.2,10.8-8.6c0-10.3-15.7-7-15.7-13.5c0-1.7,2.2-2.7,4.9-2.7
	c2.2,0,5.4,0.5,8.6,2.7l2.2-4.4C805.3,577.1,801.5,576,797.7,576z"/>
<polygon id="XMLID_62_" fill="#FFFFFF" points="850.2,580.8 850.2,576 829.1,576 829.1,605.2 850.2,605.2 850.2,600.8 834,600.8 
	834,592.7 848,592.7 848,588.4 834,588.4 834,580.8 "/>
<polygon id="XMLID_60_" fill="#FFFFFF" points="917.3,580.8 917.3,576 897.8,576 897.8,605.2 902.7,605.2 902.7,593.3 915.6,593.3 
	915.6,589 902.7,589 902.7,580.8 "/>
<path id="XMLID_55_" fill="#FFFFFF" d="M949.7,580.3c6,0,10.3,4.9,10.3,10.3c0,5.9-4.3,10.8-10.3,10.8c-5.4,0-10.3-4.9-10.3-10.8
	C939.5,585.2,944.3,580.3,949.7,580.3z M949.7,576c-8.6,0-15.2,6.5-15.2,14.6c0,8.6,6.5,15.1,15.2,15.1c8.7,0,15.7-6.5,15.7-15.1
	C965.4,582.5,958.4,576,949.7,576z"/>
<path id="XMLID_51_" fill="#FFFFFF" d="M997.9,580.3c5.4,0,10.3,4.9,10.3,10.3c0,5.9-4.9,10.8-10.3,10.8c-6,0-10.8-4.9-10.8-10.8
	C987.1,585.2,991.9,580.3,997.9,580.3z M997.9,576c-9.2,0-15.7,6.5-15.7,14.6c0,8.6,6.5,15.1,15.7,15.1c8.6,0,15.2-6.5,15.2-15.1
	C1013,582.5,1006.5,576,997.9,576z"/>
<path id="XMLID_48_" fill="#FFFFFF" d="M1038.5,580.8h7c6,0,10.3,3.8,10.3,9.8c0,5.9-4.3,10.3-10.3,10.3h-7V580.8z M1033.6,576v29.2
	h11.9c8.7,0,15.2-5.9,15.2-14.6c0-8.1-6.5-14.6-15.2-14.6H1033.6z"/>
<polygon id="XMLID_47_" fill="#FFFFFF" points="1100.1,580.8 1100.1,576 1076.9,576 1076.9,580.8 1086.1,580.8 1086.1,605.2 
	1090.9,605.2 1090.9,580.8 "/>
<path id="XMLID_44_" fill="#FFFFFF" d="M1124.5,592.2v-11.4h7c4.9,0,7,1.6,7,5.4c0,3.8-2.2,5.9-7,5.9H1124.5z M1138.5,605.2h5.4
	l-6.5-9.7c3.8-1.1,6-4.9,6-9.2c0-6.5-4.4-10.3-11.9-10.3h-11.9v29.2h4.9v-8.6h7c0.5,0,1.1,0,1.6,0L1138.5,605.2z"/>
<path id="XMLID_43_" fill="#FFFFFF" d="M1189.9,576h-4.9v17.3c0,4.9-3.2,8.1-7.6,8.1c-4.9,0-8.1-3.2-8.1-8.1V576h-4.9v17.3
	c0,7.6,4.9,12.4,13,12.4c7.6,0,12.4-4.9,12.4-12.4V576z"/>
<path id="XMLID_42_" fill="#FFFFFF" d="M1225.1,576c-8.6,0-15.2,6.5-15.2,14.6c0,8.6,6.5,15.1,15.2,15.1c3.8,0,8.1-2.2,11.4-4.9
	l-3.2-3.2c-2.2,2.2-4.9,3.2-8.1,3.2c-5.9,0-10.3-4.3-10.3-10.3c0-5.4,4.3-10.3,10.3-10.3c3.2,0,5.9,1.6,8.1,3.8l3.2-3.3
	C1233.2,577.6,1229.4,576,1225.1,576z"/>
<polygon id="XMLID_41_" fill="#FFFFFF" points="1276,605.2 1281.9,605.2 1270,588.4 1281.4,576 1275.4,576 1261.3,591.1 1261.3,576 
	1256.5,576 1256.5,605.2 1261.3,605.2 1261.3,598.1 1266.2,592.7 "/>
<path id="XMLID_40_" fill="none" stroke="#FFFFFF" stroke-width="1.0834" stroke-miterlimit="10" d="M320,591.1v8.1
	c-2.2,1.1-4.9,2.2-7,2.2c-6,0-10.3-4.9-10.3-10.8c0-5.4,4.3-10.3,10.3-10.3c3.2,0,6.5,1.6,8.6,3.3l2.7-3.3c-2.7-2.7-7-4.3-11.3-4.3
	c-8.7,0-15.7,6.5-15.7,14.6c0,8.6,7,15.1,15.7,15.1c3.8,0,8.1-1.6,11.3-3.8v-10.8H320z"/>
<path id="XMLID_37_" fill="none" stroke="#FFFFFF" stroke-width="1.0834" stroke-miterlimit="10" d="M351.4,592.2v-11.4h7
	c4.3,0,7,1.6,7,5.4c0,3.8-2.7,5.9-7,5.9H351.4z M364.9,605.2h5.4l-6.5-9.7c3.8-1.1,6-4.9,6-9.2c0-6.5-4.4-10.3-11.4-10.3h-11.9v29.2
	h4.9v-8.6h7c0,0,0.5,0,1.1,0L364.9,605.2z"/>
<rect id="XMLID_36_" x="392" y="576" fill="none" stroke="#FFFFFF" stroke-width="1.0834" stroke-miterlimit="10" width="4.9" height="29.2"/>
<polygon id="XMLID_35_" fill="none" stroke="#FFFFFF" stroke-width="1.0834" stroke-miterlimit="10" points="424.4,600.8 424.4,576 
	419.5,576 419.5,605.2 436.9,605.2 436.9,600.8 "/>
<polygon id="XMLID_34_" fill="none" stroke="#FFFFFF" stroke-width="1.0834" stroke-miterlimit="10" points="461.8,600.8 461.8,576 
	456.9,576 456.9,605.2 474.7,605.2 474.7,600.8 "/>
<polygon id="XMLID_33_" fill="none" stroke="#FFFFFF" stroke-width="1.0834" stroke-miterlimit="10" points="515.3,580.8 515.3,576 
	494.2,576 494.2,605.2 515.9,605.2 515.9,600.8 499.1,600.8 499.1,592.7 513.7,592.7 513.7,588.4 499.1,588.4 499.1,580.8 "/>
<path id="XMLID_30_" fill="none" stroke="#FFFFFF" stroke-width="1.0834" stroke-miterlimit="10" d="M541.8,580.8h7
	c6,0,10.3,3.8,10.3,9.8c0,5.9-4.3,10.3-10.3,10.3h-7V580.8z M537,576v29.2h11.9c8.7,0,15.2-5.9,15.2-14.6c0-8.1-6.5-14.6-15.2-14.6
	H537z"/>
<path id="XMLID_29_" fill="none" stroke="#FFFFFF" stroke-width="1.0834" stroke-miterlimit="10" d="M623.5,576
	c-8.6,0-15.7,6.5-15.7,14.6c0,8.6,7,15.1,15.1,15.1c4.4,0,8.7-2.2,11.4-4.9l-2.7-3.2c-2.2,2.2-5.4,3.2-8.1,3.2
	c-5.9,0-10.3-4.3-10.3-10.3c0-5.4,4.3-10.3,10.3-10.3c2.7,0,6,1.6,8.1,3.8l2.7-3.3C631.6,577.6,627.3,576,623.5,576z"/>
<polygon id="XMLID_27_" fill="none" stroke="#FFFFFF" stroke-width="1.0834" stroke-miterlimit="10" points="679.8,605.2 679.8,576 
	674.9,576 674.9,589 659.7,589 659.7,576 654.9,576 654.9,605.2 659.7,605.2 659.7,593.3 674.9,593.3 674.9,605.2 "/>
<polygon id="XMLID_25_" fill="none" stroke="#FFFFFF" stroke-width="1.0834" stroke-miterlimit="10" points="723.6,580.8 723.6,576 
	703,576 703,605.2 724.1,605.2 724.1,600.8 707.9,600.8 707.9,592.7 722,592.7 722,588.4 707.9,588.4 707.9,580.8 "/>
<polygon id="XMLID_24_" fill="none" stroke="#FFFFFF" stroke-width="1.0834" stroke-miterlimit="10" points="766.3,580.8 766.3,576 
	745.2,576 745.2,605.2 766.9,605.2 766.9,600.8 750.1,600.8 750.1,592.7 764.7,592.7 764.7,588.4 750.1,588.4 750.1,580.8 "/>
<path id="XMLID_23_" fill="none" stroke="#FFFFFF" stroke-width="1.0834" stroke-miterlimit="10" d="M797.7,576
	c-6.5,0-10.8,3.2-10.8,8.1c0,10.3,15.7,7,15.7,13.5c0,2.2-2.2,3.2-5.4,3.2c-3.2,0-7.1-1.6-9.8-4.3l-2.2,4.3
	c2.7,2.7,7.1,4.9,11.9,4.9c6.5,0,10.8-3.2,10.8-8.6c0-10.3-15.7-7-15.7-13.5c0-1.7,2.2-2.7,4.9-2.7c2.2,0,5.4,0.5,8.6,2.7l2.2-4.4
	C805.3,577.1,801.5,576,797.7,576z"/>
<polygon id="XMLID_21_" fill="none" stroke="#FFFFFF" stroke-width="1.0834" stroke-miterlimit="10" points="850.2,580.8 850.2,576 
	829.1,576 829.1,605.2 850.2,605.2 850.2,600.8 834,600.8 834,592.7 848,592.7 848,588.4 834,588.4 834,580.8 "/>
<polygon id="XMLID_20_" fill="none" stroke="#FFFFFF" stroke-width="1.0834" stroke-miterlimit="10" points="917.3,580.8 917.3,576 
	897.8,576 897.8,605.2 902.7,605.2 902.7,593.3 915.6,593.3 915.6,589 902.7,589 902.7,580.8 "/>
<path id="XMLID_1_" fill="none" stroke="#FFFFFF" stroke-width="1.0834" stroke-miterlimit="10" d="M949.7,580.3
	c6,0,10.3,4.9,10.3,10.3c0,5.9-4.3,10.8-10.3,10.8c-5.4,0-10.3-4.9-10.3-10.8C939.5,585.2,944.3,580.3,949.7,580.3z M949.7,576
	c-8.6,0-15.2,6.5-15.2,14.6c0,8.6,6.5,15.1,15.2,15.1c8.7,0,15.7-6.5,15.7-15.1C965.4,582.5,958.4,576,949.7,576z"/>
<path id="XMLID_12_" fill="none" stroke="#FFFFFF" stroke-width="1.0834" stroke-miterlimit="10" d="M997.9,580.3
	c5.4,0,10.3,4.9,10.3,10.3c0,5.9-4.9,10.8-10.3,10.8c-6,0-10.8-4.9-10.8-10.8C987.1,585.2,991.9,580.3,997.9,580.3z M997.3,576
	c-8.7,0-15.2,6.5-15.2,14.6c0,8.6,6.5,15.1,15.2,15.1c9.2,0,15.7-6.5,15.7-15.1C1013,582.5,1006.5,576,997.3,576z"/>
<path id="XMLID_9_" fill="none" stroke="#FFFFFF" stroke-width="1.0834" stroke-miterlimit="10" d="M1038.5,580.8h7
	c6,0,10.3,3.8,10.3,9.8c0,5.9-4.3,10.3-10.3,10.3h-7V580.8z M1033.6,576v29.2h11.9c8.7,0,15.2-5.9,15.2-14.6
	c0-8.1-6.5-14.6-15.2-14.6H1033.6z"/>
<polygon id="XMLID_8_" fill="none" stroke="#FFFFFF" stroke-width="1.0834" stroke-miterlimit="10" points="1100.1,580.8 
	1100.1,576 1076.9,576 1076.9,580.8 1086.1,580.8 1086.1,605.2 1090.9,605.2 1090.9,580.8 "/>
<path id="XMLID_5_" fill="none" stroke="#FFFFFF" stroke-width="1.0834" stroke-miterlimit="10" d="M1124.5,592.2v-11.4h7
	c4.9,0,7,1.6,7,5.4c0,3.8-2.2,5.9-7,5.9H1124.5z M1138.5,605.2h5.4l-6.5-9.7c3.8-1.1,6-4.9,6-9.2c0-6.5-4.4-10.3-11.9-10.3h-11.9
	v29.2h4.9v-8.6h7c0.5,0,1.1,0,1.6,0L1138.5,605.2z"/>
<path id="XMLID_4_" fill="none" stroke="#FFFFFF" stroke-width="1.0834" stroke-miterlimit="10" d="M1189.9,576h-4.9v17.3
	c0,4.9-3.2,8.1-7.6,8.1c-4.9,0-8.1-3.2-8.1-8.1V576h-4.9v17.3c0,7.6,4.9,12.4,13,12.4c7.6,0,12.4-4.9,12.4-12.4V576z"/>
<path id="XMLID_3_" fill="none" stroke="#FFFFFF" stroke-width="1.0834" stroke-miterlimit="10" d="M1225.1,576
	c-8.6,0-15.2,6.5-15.2,14.6c0,8.6,6.5,15.1,15.2,15.1c3.8,0,8.1-2.2,11.4-4.9l-3.2-3.2c-2.2,2.2-4.9,3.2-8.1,3.2
	c-5.9,0-10.3-4.3-10.3-10.3c0-5.4,4.3-10.3,10.3-10.3c3.2,0,5.9,1.6,8.1,3.8l3.2-3.3C1233.2,577.6,1229.4,576,1225.1,576z"/>
<polygon id="XMLID_2_" fill="none" stroke="#FFFFFF" stroke-width="1.0834" stroke-miterlimit="10" points="1276,605.2 
	1281.9,605.2 1270,588.4 1280.8,576 1275.4,576 1261.3,591.1 1261.3,576 1256.5,576 1256.5,605.2 1261.3,605.2 1261.3,598.1 
	1266.2,592.7 "/>
</svg>
