<!-- Generator: Adobe Illustrator 19.0.0, SVG Export Plug-In  -->
<svg version="1.1"
	 xmlns="http://www.w3.org/2000/svg" xmlns:xlink="http://www.w3.org/1999/xlink" xmlns:a="http://ns.adobe.com/AdobeSVGViewerExtensions/3.0/"
	 x="0px" y="0px" width="1096.6px" height="370.7px" viewBox="0 0 1096.6 370.7" style="enable-background:new 0 0 1096.6 370.7;"
	 xml:space="preserve">
<style type="text/css">
	.st0{fill:#FFFFFF;}
	.st1{fill:none;stroke:#FFFFFF;stroke-width:6.3935;stroke-miterlimit:10;}
	.st2{fill:none;stroke:#FFFFFF;stroke-width:6.3935;stroke-linecap:round;stroke-miterlimit:10;}
	.st3{fill:#FFFFFF;stroke:#FFFFFF;stroke-width:0.9402;stroke-miterlimit:10;}
</style>
<defs>
</defs>
<g id="XMLID_153_">
	<path id="XMLID_175_" class="st0" d="M220,0V269h-6.1v-252l-86.4,224.8h-7.7L33.3,16.9v252h-6.2V0h6.5l89.9,234L213.5,0H220z"/>
	<path id="XMLID_173_" class="st0" d="M846.3,262.8v6.1H688.8V0h6.5v262.8H846.3z"/>
	<path id="XMLID_171_" class="st0" d="M1070.1,0v6.2H996v262.8h-6.1V6.2h-74.1V0H1070.1z"/>
	<g id="XMLID_154_">
		<g id="XMLID_156_">
			<g id="XMLID_166_">
				<g id="XMLID_167_">
					<path id="XMLID_168_" class="st0" d="M560.1,35.8H348.7V0.5h211.4V35.8z M354.9,29.4h199.1V6.9H354.9V29.4z"/>
				</g>
			</g>
			<g id="XMLID_164_">
				<path id="XMLID_165_" class="st1" d="M557,136.3"/>
			</g>
			<g id="XMLID_162_">
				<path id="XMLID_163_" class="st1" d="M351.8,136.3"/>
			</g>
			<g id="XMLID_157_">
				<g id="XMLID_158_">
					<path id="XMLID_159_" class="st0" d="M560.1,269.2H348.7V234h211.4V269.2z M354.9,262.8h199.1v-22.4H354.9V262.8z"/>
				</g>
			</g>
		</g>
		<path id="XMLID_155_" class="st2" d="M351.1,136c0,0,45.9-34.7,101.4,3.1c55.5,37.8,105.1-3.1,105.1-3.1"/>
	</g>
</g>
<g id="XMLID_15_">
	<path id="XMLID_151_" class="st3" d="M27,355.8v10.7c-2.9,2.2-7.3,3.8-11.3,3.8c-8.6,0-15.3-6.4-15.3-14.7
		c0-8.3,6.8-14.6,15.6-14.6c4.1,0,8.3,1.6,11.2,4.1l-2.8,3.6c-2.2-2.1-5.4-3.3-8.4-3.3c-5.9,0-10.6,4.5-10.6,10.3
		c0,5.8,4.7,10.3,10.6,10.3c2.2,0,4.6-0.7,6.7-2v-8.1H27z"/>
	<path id="XMLID_148_" class="st3" d="M62.1,361.3c-0.4,0-0.9,0-1.3,0h-6.9v8.8H49v-29h11.8c7.4,0,11.7,3.6,11.7,9.9
		c0,4.6-2.2,7.9-6,9.4l6.5,9.7h-5.6L62.1,361.3z M60.8,356.9c4.5,0,7.1-1.9,7.1-5.8c0-3.8-2.6-5.6-7.1-5.6h-6.9v11.5H60.8z"/>
	<path id="XMLID_146_" class="st3" d="M94.1,370.1v-29H99v29H94.1z"/>
	<path id="XMLID_144_" class="st3" d="M139.2,365.6v4.4h-17.5v-29h4.9v24.6H139.2z"/>
	<path id="XMLID_142_" class="st3" d="M176.5,365.6v4.4H159v-29h4.9v24.6H176.5z"/>
	<path id="XMLID_140_" class="st3" d="M201.1,345.4v7.8h14.2v4.4h-14.2v8h16.3v4.4h-21.2v-29H217v4.4H201.1z"/>
	<path id="XMLID_137_" class="st3" d="M250.5,341c8.7,0,15,6.1,15,14.5c0,8.4-6.3,14.5-15.1,14.5h-11.8v-29H250.5z M243.4,365.7h7.1
		c5.6,0,10-4.2,10-10.1c0-5.9-4.4-10.2-10.2-10.2h-6.9V365.7z"/>
	<path id="XMLID_135_" class="st3" d="M335.5,345.4l-2.9,3.6c-2.1-2.3-5.1-3.7-8.1-3.7c-5.8,0-10.4,4.5-10.4,10.2
		c0,5.7,4.6,10.2,10.4,10.2c2.9,0,5.9-1.3,8.1-3.4l2.9,3.2c-2.9,2.9-7.1,4.8-11.2,4.8c-8.5,0-15.1-6.4-15.1-14.8
		c0-8.3,6.7-14.6,15.3-14.6C328.6,340.9,332.7,342.6,335.5,345.4z"/>
	<path id="XMLID_76_" class="st3" d="M375.9,370.1v-12h-15.4v12h-4.9v-29h4.9v12.6h15.4V341h4.9v29H375.9z"/>
	<path id="XMLID_74_" class="st3" d="M408.4,345.4v7.8h14.2v4.4h-14.2v8h16.3v4.4h-21.2v-29h20.7v4.4H408.4z"/>
	<path id="XMLID_72_" class="st3" d="M450.7,345.4v7.8h14.2v4.4h-14.2v8H467v4.4h-21.2v-29h20.7v4.4H450.7z"/>
	<path id="XMLID_70_" class="st3" d="M507.8,343.8l-2,4.3c-3.2-1.9-6.3-2.7-8.5-2.7c-2.9,0-4.7,1.1-4.7,3c0,6.3,15.7,2.9,15.6,13.4
		c0,5.2-4.6,8.4-10.9,8.4c-4.6,0-8.9-1.9-11.9-4.6l2.1-4.2c3,2.7,6.7,4.2,9.8,4.2c3.4,0,5.4-1.3,5.4-3.5c0-6.5-15.7-2.9-15.7-13.2
		c0-5,4.3-8.1,10.6-8.1C501.4,340.8,505.1,342,507.8,343.8z"/>
	<path id="XMLID_68_" class="st3" d="M533.9,345.4v7.8h14.2v4.4h-14.2v8h16.3v4.4H529v-29h20.7v4.4H533.9z"/>
	<path id="XMLID_66_" class="st3" d="M616.8,343.8l-2,4.3c-3.2-1.9-6.3-2.7-8.5-2.7c-2.9,0-4.7,1.1-4.7,3c0,6.3,15.7,2.9,15.6,13.4
		c0,5.2-4.6,8.4-10.9,8.4c-4.6,0-8.9-1.9-11.9-4.6l2.1-4.2c3,2.7,6.7,4.2,9.8,4.2c3.4,0,5.4-1.3,5.4-3.5c0-6.5-15.7-2.9-15.7-13.2
		c0-5,4.3-8.1,10.6-8.1C610.4,340.8,614.1,342,616.8,343.8z"/>
	<path id="XMLID_63_" class="st3" d="M641.9,363.5l-2.8,6.6H634l12.8-29h5l12.7,29h-5.2l-2.8-6.6H641.9z M649.2,346.2l-5.5,12.9
		h10.9L649.2,346.2z"/>
	<path id="XMLID_61_" class="st3" d="M703.8,370.1l-15.5-20.8v20.8h-4.9v-29h4.8l15.6,20.9V341h4.8v29H703.8z"/>
	<path id="XMLID_58_" class="st3" d="M743.3,341c8.7,0,15,6.1,15,14.5c0,8.4-6.3,14.5-15.1,14.5h-11.8v-29H743.3z M736.3,365.7h7.1
		c5.6,0,10-4.2,10-10.1c0-5.9-4.4-10.2-10.2-10.2h-6.9V365.7z"/>
	<path id="XMLID_56_" class="st3" d="M803.1,370.1l-6.9-22.6l-7,22.6h-5.1l-9.6-29h5.3l7.1,23.6l7-23.6l4.8,0l7.1,23.6l7-23.6h5.1
		l-9.7,29H803.1z"/>
	<path id="XMLID_54_" class="st3" d="M836.3,370.1v-29h4.9v29H836.3z"/>
	<path id="XMLID_28_" class="st3" d="M887.8,345.4l-2.9,3.6c-2.1-2.3-5.1-3.7-8.1-3.7c-5.8,0-10.4,4.5-10.4,10.2
		c0,5.7,4.6,10.2,10.4,10.2c2.9,0,5.9-1.3,8.1-3.4l2.9,3.2c-2.9,2.9-7.1,4.8-11.2,4.8c-8.5,0-15.1-6.4-15.1-14.8
		c0-8.3,6.7-14.6,15.3-14.6C880.9,340.9,885,342.6,887.8,345.4z"/>
	<path id="XMLID_26_" class="st3" d="M928.2,370.1v-12h-15.4v12H908v-29h4.9v12.6h15.4V341h4.9v29H928.2z"/>
	<path id="XMLID_22_" class="st3" d="M994.3,341c6,0,9.7,2.7,9.7,7.3c0,3.3-1.9,5.7-5.1,6.5c3.9,0.7,6.2,3.4,6.2,7.3c0,5-4,8-10.6,8
		h-12.9v-29H994.3z M986.5,353.1h7.5c3.1,0,5-1.5,5-3.9c0-2.4-1.9-3.8-5-3.8h-7.5V353.1z M986.5,365.7h7.5c3.8,0,6.1-1.5,6.1-4.2
		c0-2.6-2.3-4.1-6.1-4.1h-7.5V365.7z"/>
	<path id="XMLID_19_" class="st3" d="M1030.1,363.5l-2.8,6.6h-5.1l12.8-29h5l12.7,29h-5.2l-2.8-6.6H1030.1z M1037.4,346.2l-5.5,12.9
		h10.9L1037.4,346.2z"/>
	<path id="XMLID_16_" class="st3" d="M1084.8,361.3c-0.4,0-0.9,0-1.3,0h-6.9v8.8h-4.9v-29h11.8c7.4,0,11.7,3.6,11.7,9.9
		c0,4.6-2.2,7.9-6,9.4l6.5,9.7h-5.6L1084.8,361.3z M1083.5,356.9c4.5,0,7.1-1.9,7.1-5.8c0-3.8-2.6-5.6-7.1-5.6h-6.9v11.5H1083.5z"/>
</g>
</svg>
