<svg xmlns="http://www.w3.org/2000/svg">
    <symbol id="logo_sandwichbar" viewBox="0 0 1096.6 370.7">
      <g id="XMLID_153_"><path id="XMLID_175_" class="st0" d="M220 0v269h-6.1V17l-86.4 224.8h-7.7L33.3 16.9v252h-6.2V0h6.5l89.9 234 90-234h6.5z"/><path id="XMLID_173_" class="st0" d="M846.3 262.8v6.1H688.8V0h6.5v262.8h151z"/><path id="XMLID_171_" class="st0" d="M1070.1 0v6.2H996V269h-6.1V6.2h-74.1V0h154.3z"/><g id="XMLID_154_"><g id="XMLID_156_"><g id="XMLID_166_"><g id="XMLID_167_"><path id="XMLID_168_" class="st0" d="M560.1 35.8H348.7V.5h211.4v35.3zm-205.2-6.4H554V6.9H354.9v22.5z"/></g></g><g id="XMLID_157_"><g id="XMLID_158_"><path id="XMLID_159_" class="st0" d="M560.1 269.2H348.7V234h211.4v35.2zm-205.2-6.4H554v-22.4H354.9v22.4z"/></g></g></g><path id="XMLID_155_" class="st2" d="M351.1 136s45.9-34.7 101.4 3.1c55.5 37.8 105.1-3.1 105.1-3.1"/></g></g><g id="XMLID_15_"><path id="XMLID_151_" class="st3" d="M27 355.8v10.7c-2.9 2.2-7.3 3.8-11.3 3.8-8.6 0-15.3-6.4-15.3-14.7C.4 347.3 7.2 341 16 341c4.1 0 8.3 1.6 11.2 4.1l-2.8 3.6c-2.2-2.1-5.4-3.3-8.4-3.3-5.9 0-10.6 4.5-10.6 10.3 0 5.8 4.7 10.3 10.6 10.3 2.2 0 4.6-.7 6.7-2v-8.1H27z"/><path id="XMLID_148_" class="st3" d="M62.1 361.3H53.9v8.8H49v-29h11.8c7.4 0 11.7 3.6 11.7 9.9 0 4.6-2.2 7.9-6 9.4l6.5 9.7h-5.6l-5.3-8.8zm-1.3-4.4c4.5 0 7.1-1.9 7.1-5.8 0-3.8-2.6-5.6-7.1-5.6h-6.9V357h6.9z"/><path id="XMLID_146_" class="st3" d="M94.1 370.1v-29H99v29h-4.9z"/><path id="XMLID_144_" class="st3" d="M139.2 365.6v4.4h-17.5v-29h4.9v24.6h12.6z"/><path id="XMLID_142_" class="st3" d="M176.5 365.6v4.4H159v-29h4.9v24.6h12.6z"/><path id="XMLID_140_" class="st3" d="M201.1 345.4v7.8h14.2v4.4h-14.2v8h16.3v4.4h-21.2v-29H217v4.4h-15.9z"/><path id="XMLID_137_" class="st3" d="M250.5 341c8.7 0 15 6.1 15 14.5s-6.3 14.5-15.1 14.5h-11.8v-29h11.9zm-7.1 24.7h7.1c5.6 0 10-4.2 10-10.1 0-5.9-4.4-10.2-10.2-10.2h-6.9v20.3z"/><path id="XMLID_135_" class="st3" d="M335.5 345.4l-2.9 3.6c-2.1-2.3-5.1-3.7-8.1-3.7-5.8 0-10.4 4.5-10.4 10.2 0 5.7 4.6 10.2 10.4 10.2 2.9 0 5.9-1.3 8.1-3.4l2.9 3.2c-2.9 2.9-7.1 4.8-11.2 4.8-8.5 0-15.1-6.4-15.1-14.8 0-8.3 6.7-14.6 15.3-14.6 4.1 0 8.2 1.7 11 4.5z"/><path id="XMLID_76_" class="st3" d="M375.9 370.1v-12h-15.4v12h-4.9v-29h4.9v12.6h15.4V341h4.9v29h-4.9z"/><path id="XMLID_74_" class="st3" d="M408.4 345.4v7.8h14.2v4.4h-14.2v8h16.3v4.4h-21.2v-29h20.7v4.4h-15.8z"/><path id="XMLID_72_" class="st3" d="M450.7 345.4v7.8h14.2v4.4h-14.2v8H467v4.4h-21.2v-29h20.7v4.4h-15.8z"/><path id="XMLID_70_" class="st3" d="M507.8 343.8l-2 4.3c-3.2-1.9-6.3-2.7-8.5-2.7-2.9 0-4.7 1.1-4.7 3 0 6.3 15.7 2.9 15.6 13.4 0 5.2-4.6 8.4-10.9 8.4-4.6 0-8.9-1.9-11.9-4.6l2.1-4.2c3 2.7 6.7 4.2 9.8 4.2 3.4 0 5.4-1.3 5.4-3.5 0-6.5-15.7-2.9-15.7-13.2 0-5 4.3-8.1 10.6-8.1 3.8 0 7.5 1.2 10.2 3z"/><path id="XMLID_68_" class="st3" d="M533.9 345.4v7.8h14.2v4.4h-14.2v8h16.3v4.4H529v-29h20.7v4.4h-15.8z"/><path id="XMLID_66_" class="st3" d="M616.8 343.8l-2 4.3c-3.2-1.9-6.3-2.7-8.5-2.7-2.9 0-4.7 1.1-4.7 3 0 6.3 15.7 2.9 15.6 13.4 0 5.2-4.6 8.4-10.9 8.4-4.6 0-8.9-1.9-11.9-4.6l2.1-4.2c3 2.7 6.7 4.2 9.8 4.2 3.4 0 5.4-1.3 5.4-3.5 0-6.5-15.7-2.9-15.7-13.2 0-5 4.3-8.1 10.6-8.1 3.8 0 7.5 1.2 10.2 3z"/><path id="XMLID_63_" class="st3" d="M641.9 363.5l-2.8 6.6H634l12.8-29h5l12.7 29h-5.2l-2.8-6.6h-14.6zm7.3-17.3l-5.5 12.9h10.9l-5.4-12.9z"/><path id="XMLID_61_" class="st3" d="M703.8 370.1l-15.5-20.8v20.8h-4.9v-29h4.8l15.6 20.9v-21h4.8v29h-4.8z"/><path id="XMLID_58_" class="st3" d="M743.3 341c8.7 0 15 6.1 15 14.5S752 370 743.2 370h-11.8v-29h11.9zm-7 24.7h7.1c5.6 0 10-4.2 10-10.1 0-5.9-4.4-10.2-10.2-10.2h-6.9v20.3z"/><path id="XMLID_56_" class="st3" d="M803.1 370.1l-6.9-22.6-7 22.6h-5.1l-9.6-29h5.3l7.1 23.6 7-23.6h4.8l7.1 23.6 7-23.6h5.1l-9.7 29h-5.1z"/><path id="XMLID_54_" class="st3" d="M836.3 370.1v-29h4.9v29h-4.9z"/><path id="XMLID_28_" class="st3" d="M887.8 345.4l-2.9 3.6c-2.1-2.3-5.1-3.7-8.1-3.7-5.8 0-10.4 4.5-10.4 10.2 0 5.7 4.6 10.2 10.4 10.2 2.9 0 5.9-1.3 8.1-3.4l2.9 3.2c-2.9 2.9-7.1 4.8-11.2 4.8-8.5 0-15.1-6.4-15.1-14.8 0-8.3 6.7-14.6 15.3-14.6 4.1 0 8.2 1.7 11 4.5z"/><path id="XMLID_26_" class="st3" d="M928.2 370.1v-12h-15.4v12H908v-29h4.9v12.6h15.4V341h4.9v29h-5z"/><path id="XMLID_22_" class="st3" d="M994.3 341c6 0 9.7 2.7 9.7 7.3 0 3.3-1.9 5.7-5.1 6.5 3.9.7 6.2 3.4 6.2 7.3 0 5-4 8-10.6 8h-12.9v-29h12.7zm-7.8 12.1h7.5c3.1 0 5-1.5 5-3.9s-1.9-3.8-5-3.8h-7.5v7.7zm0 12.6h7.5c3.8 0 6.1-1.5 6.1-4.2 0-2.6-2.3-4.1-6.1-4.1h-7.5v8.3z"/><path id="XMLID_19_" class="st3" d="M1030.1 363.5l-2.8 6.6h-5.1l12.8-29h5l12.7 29h-5.2l-2.8-6.6h-14.6zm7.3-17.3l-5.5 12.9h10.9l-5.4-12.9z"/><path id="XMLID_16_" class="st3" d="M1084.8 361.3H1076.6v8.8h-4.9v-29h11.8c7.4 0 11.7 3.6 11.7 9.9 0 4.6-2.2 7.9-6 9.4l6.5 9.7h-5.6l-5.3-8.8zm-1.3-4.4c4.5 0 7.1-1.9 7.1-5.8 0-3.8-2.6-5.6-7.1-5.6h-6.9V357h6.9z"/></g>
    </symbol></svg>