<?xml version="1.0" encoding="utf-8"?>
<!-- Generator: Adobe Illustrator 19.0.0, SVG Export Plug-In . SVG Version: 6.00 Build 0)  -->
<svg version="1.1" id="Layer_1" xmlns="http://www.w3.org/2000/svg" xmlns:xlink="http://www.w3.org/1999/xlink" x="0px" y="0px"
	 viewBox="0 0 2485 1470.9" style="enable-background:new 0 0 2485 1470.9;" xml:space="preserve">
<style type="text/css">
	.st0{fill:#FFFFFF;}
</style>
<g id="XMLID_1108_">
	<path id="XMLID_1113_" class="st0" d="M2016.2,325.8v-7.6h-9.7v7.6h-3.1v-18.2h3.1v7.9h9.7v-7.9h3.1v18.2H2016.2z"/>
	<path id="XMLID_1111_" class="st0" d="M2036.6,310.3v4.9h8.9v2.8h-8.9v5h10.3v2.8h-13.3v-18.2h13v2.8H2036.6z"/>
	<path id="XMLID_1109_" class="st0" d="M2071.2,323v2.8h-11v-18.2h3.1V323H2071.2z"/>
</g>
<g id="XMLID_1096_">
	<path id="XMLID_1105_" class="st0" d="M2036.5,81.5l-2.8,5.6c-4-2.3-9.3-3.7-14-3.7c-13,0-19.5,10.7-18.6,27.1
		c2.7-7.1,9.2-11.1,18.2-11.1c11.9,0,19.3,7.4,19.3,19.1c0,12.4-8.1,20.2-20.6,20.2c-14.8,0-23.7-10.7-23.7-29.4
		c0-19.3,9.6-32,25-32C2024.9,77.2,2031.6,78.9,2036.5,81.5z M2002.8,118.9c-0.1,5.8,4.4,13.3,14.8,13.3c8.6,0,14.5-5.2,14.5-13.8
		c0-8.1-5.4-13.1-14-13.1C2008.5,105.2,2002.7,111.7,2002.8,118.9z"/>
	<path id="XMLID_1101_" class="st0" d="M2088.5,92.5c0,6.3-3.7,10.9-9.9,13.3c7.9,2.3,12.8,7.8,12.8,15.5c0,10.9-8.6,17.4-22.3,17.4
		c-13.9,0-22.5-6.5-22.5-17.2c0-7.7,5-13.3,13.1-15.6c-6.3-2.5-10.2-7.2-10.2-13.5c0-9.5,7.6-15.1,19.5-15.1
		C2081,77.2,2088.5,82.9,2088.5,92.5z M2053.1,120.6c0,7.6,5.9,12.1,15.9,12.1c9.8,0,15.8-4.4,15.8-12.1c0-7.2-5.9-11.6-15.9-11.6
		C2059,109,2053.1,113.4,2053.1,120.6z M2055.5,92.9c0,6.5,5,10.3,13.6,10.3c8.4,0,13.5-3.8,13.5-10.3c0-6.5-5-10.3-13.5-10.3
		C2060.5,82.6,2055.5,86.4,2055.5,92.9z"/>
	<path id="XMLID_1099_" class="st0" d="M2108.6,134.5c0,1.4-0.5,2.5-1.3,3.7l-4.1,6.3h-3.8l2.9-6.3c-1.3-0.8-1.9-2.2-1.9-3.7
		c0-2.5,1.7-4.3,4.1-4.3C2106.7,130.1,2108.6,131.7,2108.6,134.5z"/>
	<path id="XMLID_1097_" class="st0" d="M2118.4,114.4v-5h20.4v5H2118.4z"/>
</g>
<g id="XMLID_1085_">
	<path id="XMLID_1094_" class="st0" d="M1977.8,278.9v-54.2h-12.3v-6.6h19.2v60.8H1977.8z"/>
	<path id="XMLID_1092_" class="st0" d="M2038.7,232.8c0,5.8-4.3,12.9-10.8,19.7l-18.7,19.8h32.9v6.6h-41.8v-5.7l22.8-24.8
		c5.1-5.1,8.3-10.8,8.3-14.7c0-5.9-4.5-9.5-12.2-9.5c-5.6,0-11.7,2.9-16.6,7.6l-3-5.6c5.9-5.3,13.3-8.4,20.5-8.4
		C2031.4,217.8,2038.7,223.6,2038.7,232.8z"/>
	<path id="XMLID_1090_" class="st0" d="M2060.3,224.8v17.1c3.1-0.5,7.5-0.9,10.3-0.9c12.8,0,20.9,7.6,20.9,18
		c0,12.2-8.4,20.1-21.5,20.1c-6.7,0-14.8-2.6-20.5-6.6l2.9-5.9c5,3.8,11.5,6.1,16.9,6.1c9.1,0,14.8-5,14.8-13.2
		c0-7.2-5.6-11.7-14.6-11.7c-4,0-11.3,0.6-15.6,1.5v-31.1h35.3v6.7H2060.3z"/>
	<path id="XMLID_1088_" class="st0" d="M2108.6,275.2c0,1.4-0.5,2.5-1.3,3.7l-4.1,6.3h-3.8l2.9-6.3c-1.3-0.8-1.9-2.2-1.9-3.7
		c0-2.5,1.7-4.3,4.1-4.3C2106.7,270.7,2108.6,272.4,2108.6,275.2z"/>
	<path id="XMLID_1086_" class="st0" d="M2118.4,255.1v-5h20.4v5H2118.4z"/>
</g>
<g id="XMLID_1064_">
	<path id="XMLID_1083_" class="st0" d="M1986.6,181.6V174h-9.7v7.6h-3.1v-18.2h3.1v7.9h9.7v-7.9h3.1v18.2H1986.6z"/>
	<path id="XMLID_1069_" class="st0" d="M2006.5,177.5l-1.7,4.1h-3.2l8.1-18.2h3.2l8,18.2h-3.3l-1.7-4.1H2006.5z M2011.1,166.6
		l-3.4,8.1h6.9L2011.1,166.6z"/>
	<path id="XMLID_1067_" class="st0" d="M2043.7,178.8v2.8h-11v-18.2h3.1v15.5H2043.7z"/>
	<path id="XMLID_1065_" class="st0" d="M2061.1,181.6l-7.3-18.2h3.3l5.6,14.8l5.7-14.8h3.2l-7.4,18.2H2061.1z"/>
</g>
<g id="XMLID_1057_">
	<path id="XMLID_1062_" class="st0" d="M2016.2,677.6V670h-9.7v7.6h-3.1v-18.2h3.1v7.9h9.7v-7.9h3.1v18.2H2016.2z"/>
	<path id="XMLID_1060_" class="st0" d="M2036.6,662.1v4.9h8.9v2.8h-8.9v5h10.3v2.8h-13.3v-18.2h13v2.8H2036.6z"/>
	<path id="XMLID_1058_" class="st0" d="M2071.2,674.8v2.8h-11v-18.2h3.1v15.5H2071.2z"/>
</g>
<g id="XMLID_1046_">
	<path id="XMLID_1054_" class="st0" d="M2037.7,433.3l-2.8,5.6c-4-2.3-9.3-3.7-14-3.7c-13,0-19.5,10.7-18.6,27.1
		c2.7-7.1,9.2-11.1,18.2-11.1c11.9,0,19.3,7.4,19.3,19.1c0,12.4-8.1,20.2-20.6,20.2c-14.8,0-23.7-10.7-23.7-29.4
		c0-19.3,9.6-32,25-32C2026,428.9,2032.7,430.7,2037.7,433.3z M2004,470.6c-0.1,5.8,4.4,13.3,14.8,13.3c8.6,0,14.5-5.2,14.5-13.8
		c0-8.1-5.4-13.1-14-13.1C2009.6,457,2003.9,463.4,2004,470.6z"/>
	<path id="XMLID_1051_" class="st0" d="M2090.1,433.3l-2.8,5.6c-4-2.3-9.3-3.7-14-3.7c-13,0-19.5,10.7-18.6,27.1
		c2.7-7.1,9.2-11.1,18.2-11.1c11.9,0,19.3,7.4,19.3,19.1c0,12.4-8.1,20.2-20.6,20.2c-14.8,0-23.7-10.7-23.7-29.4
		c0-19.3,9.6-32,25-32C2078.5,428.9,2085.2,430.7,2090.1,433.3z M2056.4,470.6c-0.1,5.8,4.4,13.3,14.8,13.3
		c8.6,0,14.5-5.2,14.5-13.8c0-8.1-5.4-13.1-14-13.1C2062.1,457,2056.3,463.4,2056.4,470.6z"/>
	<path id="XMLID_1049_" class="st0" d="M2108.6,486.3c0,1.4-0.5,2.5-1.3,3.7l-4.1,6.3h-3.8l2.9-6.3c-1.3-0.8-1.9-2.2-1.9-3.7
		c0-2.5,1.7-4.3,4.1-4.3C2106.7,481.8,2108.6,483.5,2108.6,486.3z"/>
	<path id="XMLID_1047_" class="st0" d="M2118.4,466.2v-5h20.4v5H2118.4z"/>
</g>
<g id="XMLID_1034_">
	<path id="XMLID_1044_" class="st0" d="M1967.5,630.7v-54.2h-12.3v-6.6h19.2v60.8H1967.5z"/>
	<path id="XMLID_1042_" class="st0" d="M2028.4,584.5c0,5.8-4.3,12.9-10.8,19.7l-18.7,19.8h32.9v6.6h-41.8v-5.7l22.8-24.8
		c5.1-5.1,8.3-10.8,8.3-14.7c0-5.9-4.5-9.5-12.2-9.5c-5.6,0-11.7,2.9-16.6,7.6l-3-5.6c5.9-5.3,13.3-8.4,20.5-8.4
		C2021.1,569.6,2028.4,575.4,2028.4,584.5z"/>
	<path id="XMLID_1039_" class="st0" d="M2091.2,600.3c0,19.6-8.9,30.6-25.1,30.6c-16.2,0-25.1-10.9-25.1-30.6
		c0-19.6,8.9-30.6,25.1-30.6C2082.2,569.7,2091.2,580.6,2091.2,600.3z M2048,600.3c0,16.4,6.3,24.7,18.1,24.7
		c11.8,0,18.1-8.3,18.1-24.7c0-16.5-6.3-24.7-18.1-24.7C2054.2,575.6,2048,583.8,2048,600.3z"/>
	<path id="XMLID_1037_" class="st0" d="M2108.6,626.9c0,1.4-0.5,2.5-1.3,3.7l-4.1,6.3h-3.8l2.9-6.3c-1.3-0.8-1.9-2.2-1.9-3.7
		c0-2.5,1.7-4.3,4.1-4.3C2106.7,622.5,2108.6,624.2,2108.6,626.9z"/>
	<path id="XMLID_1035_" class="st0" d="M2118.4,606.9v-5h20.4v5H2118.4z"/>
</g>
<g id="XMLID_1024_">
	<path id="XMLID_1032_" class="st0" d="M1986.6,533.4v-7.6h-9.7v7.6h-3.1v-18.2h3.1v7.9h9.7v-7.9h3.1v18.2H1986.6z"/>
	<path id="XMLID_1029_" class="st0" d="M2006.5,529.3l-1.7,4.1h-3.2l8.1-18.2h3.2l8,18.2h-3.3l-1.7-4.1H2006.5z M2011.1,518.4
		l-3.4,8.1h6.9L2011.1,518.4z"/>
	<path id="XMLID_1027_" class="st0" d="M2043.7,530.6v2.8h-11v-18.2h3.1v15.5H2043.7z"/>
	<path id="XMLID_1025_" class="st0" d="M2061.1,533.4l-7.3-18.2h3.3l5.6,14.8l5.7-14.8h3.2l-7.4,18.2H2061.1z"/>
</g>
<g id="XMLID_1017_">
	<path id="XMLID_1022_" class="st0" d="M2016.2,1028.6v-7.6h-9.7v7.6h-3.1v-18.2h3.1v7.9h9.7v-7.9h3.1v18.2H2016.2z"/>
	<path id="XMLID_1020_" class="st0" d="M2036.6,1013.1v4.9h8.9v2.8h-8.9v5h10.3v2.8h-13.3v-18.2h13v2.8H2036.6z"/>
	<path id="XMLID_1018_" class="st0" d="M2071.2,1025.8v2.8h-11v-18.2h3.1v15.5H2071.2z"/>
</g>
<g id="XMLID_1006_">
	<path id="XMLID_1014_" class="st0" d="M2030.7,784.3l-2.8,5.6c-4-2.3-9.3-3.7-14-3.7c-13,0-19.5,10.7-18.6,27.1
		c2.7-7.1,9.2-11.1,18.2-11.1c11.9,0,19.3,7.4,19.3,19.1c0,12.4-8.1,20.2-20.6,20.2c-14.8,0-23.7-10.7-23.7-29.4
		c0-19.3,9.6-32,25-32C2019.1,779.9,2025.8,781.7,2030.7,784.3z M1997,821.6c-0.1,5.8,4.4,13.3,14.8,13.3c8.6,0,14.5-5.2,14.5-13.8
		c0-8.1-5.4-13.1-14-13.1C2002.7,808,1996.9,814.4,1997,821.6z"/>
	<path id="XMLID_1011_" class="st0" d="M2091.2,810.6c0,19.6-8.9,30.6-25.1,30.6s-25.1-10.9-25.1-30.6c0-19.6,8.9-30.6,25.1-30.6
		S2091.2,791,2091.2,810.6z M2048,810.6c0,16.4,6.3,24.7,18.1,24.7c11.8,0,18.1-8.3,18.1-24.7c0-16.5-6.3-24.7-18.1-24.7
		C2054.2,785.9,2048,794.1,2048,810.6z"/>
	<path id="XMLID_1009_" class="st0" d="M2108.6,837.3c0,1.4-0.5,2.5-1.3,3.7l-4.1,6.3h-3.8l2.9-6.3c-1.3-0.8-1.9-2.2-1.9-3.7
		c0-2.5,1.7-4.3,4.1-4.3C2106.7,832.8,2108.6,834.5,2108.6,837.3z"/>
	<path id="XMLID_1007_" class="st0" d="M2118.4,817.2v-5h20.4v5H2118.4z"/>
</g>
<g id="XMLID_994_">
	<path id="XMLID_1004_" class="st0" d="M1985.7,981.7v-54.2h-12.3v-6.6h19.2v60.8H1985.7z"/>
	<path id="XMLID_1002_" class="st0" d="M2017.9,981.7v-54.2h-12.3v-6.6h19.2v60.8H2017.9z"/>
	<path id="XMLID_999_" class="st0" d="M2091.2,951.3c0,19.6-8.9,30.6-25.1,30.6c-16.2,0-25.1-10.9-25.1-30.6
		c0-19.6,8.9-30.6,25.1-30.6C2082.2,920.7,2091.2,931.6,2091.2,951.3z M2048,951.3c0,16.4,6.3,24.7,18.1,24.7
		c11.8,0,18.1-8.3,18.1-24.7c0-16.5-6.3-24.7-18.1-24.7C2054.2,926.6,2048,934.8,2048,951.3z"/>
	<path id="XMLID_997_" class="st0" d="M2108.6,977.9c0,1.4-0.5,2.5-1.3,3.7l-4.1,6.3h-3.8l2.9-6.3c-1.3-0.8-1.9-2.2-1.9-3.7
		c0-2.5,1.7-4.3,4.1-4.3C2106.7,973.5,2108.6,975.1,2108.6,977.9z"/>
	<path id="XMLID_995_" class="st0" d="M2118.4,957.9v-5h20.4v5H2118.4z"/>
</g>
<g id="XMLID_984_">
	<path id="XMLID_992_" class="st0" d="M1986.6,884.4v-7.6h-9.7v7.6h-3.1v-18.2h3.1v7.9h9.7v-7.9h3.1v18.2H1986.6z"/>
	<path id="XMLID_989_" class="st0" d="M2006.5,880.3l-1.7,4.1h-3.2l8.1-18.2h3.2l8,18.2h-3.3l-1.7-4.1H2006.5z M2011.1,869.4
		l-3.4,8.1h6.9L2011.1,869.4z"/>
	<path id="XMLID_987_" class="st0" d="M2043.7,881.6v2.8h-11v-18.2h3.1v15.5H2043.7z"/>
	<path id="XMLID_985_" class="st0" d="M2061.1,884.4l-7.3-18.2h3.3l5.6,14.8l5.7-14.8h3.2l-7.4,18.2H2061.1z"/>
</g>
<g id="XMLID_977_">
	<path id="XMLID_982_" class="st0" d="M2016.2,1379.3v-7.6h-9.7v7.6h-3.1V1361h3.1v7.9h9.7v-7.9h3.1v18.2H2016.2z"/>
	<path id="XMLID_980_" class="st0" d="M2036.6,1363.8v4.9h8.9v2.8h-8.9v5h10.3v2.8h-13.3V1361h13v2.8H2036.6z"/>
	<path id="XMLID_978_" class="st0" d="M2071.2,1376.5v2.8h-11V1361h3.1v15.5H2071.2z"/>
</g>
<g id="XMLID_968_">
	<path id="XMLID_975_" class="st0" d="M2011.2,1137.6v17.1c3.1-0.5,7.5-0.9,10.3-0.9c12.8,0,20.9,7.6,20.9,18
		c0,12.2-8.4,20.1-21.5,20.1c-6.7,0-14.8-2.6-20.5-6.6l2.9-5.9c5,3.8,11.5,6.1,16.9,6.1c9.1,0,14.8-5,14.8-13.2
		c0-7.2-5.6-11.7-14.6-11.7c-4,0-11.3,0.6-15.6,1.5v-31.1h35.3v6.7H2011.2z"/>
	<path id="XMLID_973_" class="st0" d="M2060.3,1137.6v17.1c3.1-0.5,7.5-0.9,10.3-0.9c12.8,0,20.9,7.6,20.9,18
		c0,12.2-8.4,20.1-21.5,20.1c-6.7,0-14.8-2.6-20.5-6.6l2.9-5.9c5,3.8,11.5,6.1,16.9,6.1c9.1,0,14.8-5,14.8-13.2
		c0-7.2-5.6-11.7-14.6-11.7c-4,0-11.3,0.6-15.6,1.5v-31.1h35.3v6.7H2060.3z"/>
	<path id="XMLID_971_" class="st0" d="M2108.6,1188c0,1.4-0.5,2.5-1.3,3.7l-4.1,6.3h-3.8l2.9-6.3c-1.3-0.8-1.9-2.2-1.9-3.7
		c0-2.5,1.7-4.3,4.1-4.3C2106.7,1183.5,2108.6,1185.2,2108.6,1188z"/>
	<path id="XMLID_969_" class="st0" d="M2118.4,1167.9v-5h20.4v5H2118.4z"/>
</g>
<g id="XMLID_955_">
	<path id="XMLID_966_" class="st0" d="M1958.5,1332.4v-54.2h-12.3v-6.6h19.2v60.8H1958.5z"/>
	<path id="XMLID_963_" class="st0" d="M2031.8,1302c0,19.6-8.9,30.6-25.1,30.6c-16.2,0-25.1-10.9-25.1-30.6
		c0-19.6,8.9-30.6,25.1-30.6C2022.8,1271.4,2031.8,1282.3,2031.8,1302z M1988.6,1302c0,16.4,6.3,24.7,18.1,24.7s18.1-8.3,18.1-24.7
		c0-16.5-6.3-24.7-18.1-24.7S1988.6,1285.5,1988.6,1302z"/>
	<path id="XMLID_960_" class="st0" d="M2091.2,1302c0,19.6-8.9,30.6-25.1,30.6c-16.2,0-25.1-10.9-25.1-30.6
		c0-19.6,8.9-30.6,25.1-30.6C2082.2,1271.4,2091.2,1282.3,2091.2,1302z M2048,1302c0,16.4,6.3,24.7,18.1,24.7
		c11.8,0,18.1-8.3,18.1-24.7c0-16.5-6.3-24.7-18.1-24.7C2054.2,1277.3,2048,1285.5,2048,1302z"/>
	<path id="XMLID_958_" class="st0" d="M2108.6,1328.6c0,1.4-0.5,2.5-1.3,3.7l-4.1,6.3h-3.8l2.9-6.3c-1.3-0.8-1.9-2.2-1.9-3.7
		c0-2.5,1.7-4.3,4.1-4.3C2106.7,1324.2,2108.6,1325.9,2108.6,1328.6z"/>
	<path id="XMLID_956_" class="st0" d="M2118.4,1308.6v-5h20.4v5H2118.4z"/>
</g>
<g id="XMLID_945_">
	<path id="XMLID_953_" class="st0" d="M1986.6,1235.1v-7.6h-9.7v7.6h-3.1v-18.2h3.1v7.9h9.7v-7.9h3.1v18.2H1986.6z"/>
	<path id="XMLID_950_" class="st0" d="M2006.5,1231l-1.7,4.1h-3.2l8.1-18.2h3.2l8,18.2h-3.3l-1.7-4.1H2006.5z M2011.1,1220.1
		l-3.4,8.1h6.9L2011.1,1220.1z"/>
	<path id="XMLID_948_" class="st0" d="M2043.7,1232.3v2.8h-11v-18.2h3.1v15.5H2043.7z"/>
	<path id="XMLID_946_" class="st0" d="M2061.1,1235.1l-7.3-18.2h3.3l5.6,14.8l5.7-14.8h3.2l-7.4,18.2H2061.1z"/>
</g>
<g id="XMLID_938_">
	<path id="XMLID_943_" class="st0" d="M2307.9,325.8v-7.6h-9.7v7.6h-3.1v-18.2h3.1v7.9h9.7v-7.9h3.1v18.2H2307.9z"/>
	<path id="XMLID_941_" class="st0" d="M2328.4,310.3v4.9h8.9v2.8h-8.9v5h10.3v2.8h-13.3v-18.2h13v2.8H2328.4z"/>
	<path id="XMLID_939_" class="st0" d="M2362.9,323v2.8h-11v-18.2h3.1V323H2362.9z"/>
</g>
<g id="XMLID_929_">
	<path id="XMLID_936_" class="st0" d="M2305,138.2h-7.4l25-54.1h-28.3V93h-6.3V77.4h42.2v5.8L2305,138.2z"/>
	<path id="XMLID_934_" class="st0" d="M2346.4,84.1v17.1c3.1-0.5,7.5-0.9,10.2-0.9c12.8,0,20.9,7.6,20.9,18
		c0,12.2-8.4,20.1-21.5,20.1c-6.7,0-14.8-2.6-20.5-6.6l2.9-5.9c5,3.8,11.5,6.1,16.9,6.1c9.1,0,14.8-5,14.8-13.2
		c0-7.2-5.6-11.7-14.6-11.7c-4,0-11.3,0.6-15.6,1.5V77.4h35.3v6.7H2346.4z"/>
	<path id="XMLID_932_" class="st0" d="M2394.7,134.5c0,1.4-0.5,2.5-1.3,3.7l-4.1,6.3h-3.8l2.9-6.3c-1.3-0.8-1.9-2.2-1.9-3.7
		c0-2.5,1.7-4.3,4.1-4.3C2392.8,130.1,2394.7,131.7,2394.7,134.5z"/>
	<path id="XMLID_930_" class="st0" d="M2404.5,114.4v-5h20.4v5H2404.5z"/>
</g>
<g id="XMLID_916_">
	<path id="XMLID_927_" class="st0" d="M2264.1,278.9v-54.2h-12.3v-6.6h19.2v60.8H2264.1z"/>
	<path id="XMLID_925_" class="st0" d="M2305.3,244.1c10.9,0.5,18.3,6.4,18.3,16.2c0,11.2-8.3,19-21.3,19c-7,0-14.2-2.5-19.3-6.2
		l3-5.8c4.3,3.6,10.1,5.7,15.7,5.7c9.5,0,15-5.1,15-12.5c0-7.6-5.6-11.6-15.1-11.6h-7.5v-4.4l17.8-19.7h-26.3v-6.6h35v4.7
		l-18.8,20.9L2305.3,244.1z"/>
	<path id="XMLID_921_" class="st0" d="M2374.6,233.1c0,6.3-3.7,10.9-9.9,13.3c7.9,2.3,12.8,7.8,12.8,15.5c0,10.9-8.6,17.4-22.3,17.4
		c-13.9,0-22.5-6.5-22.5-17.2c0-7.7,5-13.3,13.1-15.6c-6.3-2.5-10.2-7.2-10.2-13.5c0-9.5,7.6-15.1,19.5-15.1
		C2367.1,217.8,2374.6,223.6,2374.6,233.1z M2339.2,261.3c0,7.6,5.9,12.1,15.9,12.1c9.8,0,15.8-4.4,15.8-12.1
		c0-7.2-5.9-11.6-15.9-11.6C2345.1,249.7,2339.2,254,2339.2,261.3z M2341.5,233.5c0,6.5,5,10.3,13.6,10.3c8.4,0,13.5-3.8,13.5-10.3
		c0-6.5-5-10.3-13.5-10.3C2346.6,223.2,2341.5,227,2341.5,233.5z"/>
	<path id="XMLID_919_" class="st0" d="M2394.7,275.2c0,1.4-0.5,2.5-1.3,3.7l-4.1,6.3h-3.8l2.9-6.3c-1.3-0.8-1.9-2.2-1.9-3.7
		c0-2.5,1.7-4.3,4.1-4.3C2392.8,270.7,2394.7,272.4,2394.7,275.2z"/>
	<path id="XMLID_917_" class="st0" d="M2404.5,255.1v-5h20.4v5H2404.5z"/>
</g>
<g id="XMLID_906_">
	<path id="XMLID_914_" class="st0" d="M2278.3,181.6V174h-9.7v7.6h-3.1v-18.2h3.1v7.9h9.7v-7.9h3.1v18.2H2278.3z"/>
	<path id="XMLID_911_" class="st0" d="M2298.3,177.5l-1.7,4.1h-3.2l8.1-18.2h3.2l8,18.2h-3.3l-1.7-4.1H2298.3z M2302.8,166.6
		l-3.4,8.1h6.9L2302.8,166.6z"/>
	<path id="XMLID_909_" class="st0" d="M2335.4,178.8v2.8h-11v-18.2h3.1v15.5H2335.4z"/>
	<path id="XMLID_907_" class="st0" d="M2352.8,181.6l-7.3-18.2h3.3l5.6,14.8l5.7-14.8h3.2l-7.4,18.2H2352.8z"/>
</g>
<g id="XMLID_899_">
	<path id="XMLID_904_" class="st0" d="M2307.9,677.6V670h-9.7v7.6h-3.1v-18.2h3.1v7.9h9.7v-7.9h3.1v18.2H2307.9z"/>
	<path id="XMLID_902_" class="st0" d="M2328.4,662.1v4.9h8.9v2.8h-8.9v5h10.3v2.8h-13.3v-18.2h13v2.8H2328.4z"/>
	<path id="XMLID_900_" class="st0" d="M2362.9,674.8v2.8h-11v-18.2h3.1v15.5H2362.9z"/>
</g>
<g id="XMLID_890_">
	<path id="XMLID_897_" class="st0" d="M2308.3,490h-7.4l25-54.1h-28.3v8.9h-6.3v-15.5h42.2v5.8L2308.3,490z"/>
	<path id="XMLID_895_" class="st0" d="M2358.9,455.2c10.9,0.5,18.3,6.4,18.3,16.2c0,11.2-8.3,19-21.3,19c-7,0-14.2-2.5-19.3-6.2
		l3-5.8c4.3,3.6,10.1,5.7,15.7,5.7c9.5,0,15-5.1,15-12.5c0-7.6-5.6-11.6-15.1-11.6h-7.5v-4.4l17.8-19.7h-26.3v-6.6h35v4.7
		l-18.8,20.9L2358.9,455.2z"/>
	<path id="XMLID_893_" class="st0" d="M2394.7,486.3c0,1.4-0.5,2.5-1.3,3.7l-4.1,6.3h-3.8l2.9-6.3c-1.3-0.8-1.9-2.2-1.9-3.7
		c0-2.5,1.7-4.3,4.1-4.3C2392.8,481.8,2394.7,483.5,2394.7,486.3z"/>
	<path id="XMLID_891_" class="st0" d="M2404.5,466.2v-5h20.4v5H2404.5z"/>
</g>
<g id="XMLID_879_">
	<path id="XMLID_888_" class="st0" d="M2267.2,630.7v-54.2h-12.3v-6.6h19.2v60.8H2267.2z"/>
	<path id="XMLID_886_" class="st0" d="M2308.5,595.8c10.9,0.5,18.3,6.4,18.3,16.2c0,11.2-8.3,19-21.3,19c-7,0-14.2-2.5-19.3-6.2
		l3-5.8c4.3,3.6,10.1,5.7,15.7,5.7c9.5,0,15-5.1,15-12.5c0-7.6-5.6-11.6-15.1-11.6h-7.5v-4.4l17.8-19.7h-26.3v-6.6h35v4.7
		l-18.8,20.9L2308.5,595.8z"/>
	<path id="XMLID_884_" class="st0" d="M2373.9,584.5c0,5.8-4.3,12.9-10.8,19.7l-18.7,19.8h32.9v6.6h-41.8v-5.7l22.8-24.8
		c5.1-5.1,8.3-10.8,8.3-14.7c0-5.9-4.5-9.5-12.2-9.5c-5.6,0-11.7,2.9-16.6,7.6l-3-5.6c5.9-5.3,13.3-8.4,20.5-8.4
		C2366.6,569.6,2373.9,575.4,2373.9,584.5z"/>
	<path id="XMLID_882_" class="st0" d="M2394.7,626.9c0,1.4-0.5,2.5-1.3,3.7l-4.1,6.3h-3.8l2.9-6.3c-1.3-0.8-1.9-2.2-1.9-3.7
		c0-2.5,1.7-4.3,4.1-4.3C2392.8,622.5,2394.7,624.2,2394.7,626.9z"/>
	<path id="XMLID_880_" class="st0" d="M2404.5,606.9v-5h20.4v5H2404.5z"/>
</g>
<g id="XMLID_869_">
	<path id="XMLID_877_" class="st0" d="M2278.3,533.4v-7.6h-9.7v7.6h-3.1v-18.2h3.1v7.9h9.7v-7.9h3.1v18.2H2278.3z"/>
	<path id="XMLID_874_" class="st0" d="M2298.3,529.3l-1.7,4.1h-3.2l8.1-18.2h3.2l8,18.2h-3.3l-1.7-4.1H2298.3z M2302.8,518.4
		l-3.4,8.1h6.9L2302.8,518.4z"/>
	<path id="XMLID_872_" class="st0" d="M2335.4,530.6v2.8h-11v-18.2h3.1v15.5H2335.4z"/>
	<path id="XMLID_870_" class="st0" d="M2352.8,533.4l-7.3-18.2h3.3l5.6,14.8l5.7-14.8h3.2l-7.4,18.2H2352.8z"/>
</g>
<g id="XMLID_862_">
	<path id="XMLID_867_" class="st0" d="M2307.9,1028.6v-7.6h-9.7v7.6h-3.1v-18.2h3.1v7.9h9.7v-7.9h3.1v18.2H2307.9z"/>
	<path id="XMLID_865_" class="st0" d="M2328.4,1013.1v4.9h8.9v2.8h-8.9v5h10.3v2.8h-13.3v-18.2h13v2.8H2328.4z"/>
	<path id="XMLID_863_" class="st0" d="M2362.9,1025.8v2.8h-11v-18.2h3.1v15.5H2362.9z"/>
</g>
<g id="XMLID_851_">
	<path id="XMLID_859_" class="st0" d="M2323.7,784.3l-2.8,5.6c-4-2.3-9.3-3.7-14-3.7c-13,0-19.5,10.7-18.6,27.1
		c2.7-7.1,9.2-11.1,18.2-11.1c11.9,0,19.3,7.4,19.3,19.1c0,12.4-8.1,20.2-20.6,20.2c-14.8,0-23.7-10.7-23.7-29.4
		c0-19.3,9.6-32,25-32C2312.1,779.9,2318.8,781.7,2323.7,784.3z M2290,821.6c-0.1,5.8,4.4,13.3,14.8,13.3c8.6,0,14.5-5.2,14.5-13.8
		c0-8.1-5.4-13.1-14-13.1C2295.7,808,2290,814.4,2290,821.6z"/>
	<path id="XMLID_856_" class="st0" d="M2376.2,784.3l-2.8,5.6c-4-2.3-9.3-3.7-14-3.7c-13,0-19.5,10.7-18.6,27.1
		c2.7-7.1,9.2-11.1,18.2-11.1c11.9,0,19.3,7.4,19.3,19.1c0,12.4-8.1,20.2-20.6,20.2c-14.8,0-23.7-10.7-23.7-29.4
		c0-19.3,9.6-32,25-32C2364.6,779.9,2371.3,781.7,2376.2,784.3z M2342.5,821.6c-0.1,5.8,4.4,13.3,14.8,13.3
		c8.6,0,14.5-5.2,14.5-13.8c0-8.1-5.4-13.1-14-13.1C2348.1,808,2342.4,814.4,2342.5,821.6z"/>
	<path id="XMLID_854_" class="st0" d="M2394.7,837.3c0,1.4-0.5,2.5-1.3,3.7l-4.1,6.3h-3.8l2.9-6.3c-1.3-0.8-1.9-2.2-1.9-3.7
		c0-2.5,1.7-4.3,4.1-4.3C2392.8,832.8,2394.7,834.5,2394.7,837.3z"/>
	<path id="XMLID_852_" class="st0" d="M2404.5,817.2v-5h20.4v5H2404.5z"/>
</g>
<g id="XMLID_840_">
	<path id="XMLID_849_" class="st0" d="M2280.7,981.7v-54.2h-12.3v-6.6h19.2v60.8H2280.7z"/>
	<path id="XMLID_847_" class="st0" d="M2341.6,935.5c0,5.8-4.3,12.9-10.8,19.7l-18.7,19.8h32.9v6.6h-41.8v-5.7l22.8-24.8
		c5.1-5.1,8.3-10.8,8.3-14.7c0-5.9-4.5-9.5-12.2-9.5c-5.6,0-11.7,2.9-16.6,7.6l-3-5.6c5.9-5.3,13.3-8.4,20.5-8.4
		C2334.3,920.6,2341.6,926.4,2341.6,935.5z"/>
	<path id="XMLID_845_" class="st0" d="M2363.4,981.7v-54.2h-12.3v-6.6h19.2v60.8H2363.4z"/>
	<path id="XMLID_843_" class="st0" d="M2394.7,977.9c0,1.4-0.5,2.5-1.3,3.7l-4.1,6.3h-3.8l2.9-6.3c-1.3-0.8-1.9-2.2-1.9-3.7
		c0-2.5,1.7-4.3,4.1-4.3C2392.8,973.5,2394.7,975.1,2394.7,977.9z"/>
	<path id="XMLID_841_" class="st0" d="M2404.5,957.9v-5h20.4v5H2404.5z"/>
</g>
<g id="XMLID_830_">
	<path id="XMLID_838_" class="st0" d="M2278.3,884.4v-7.6h-9.7v7.6h-3.1v-18.2h3.1v7.9h9.7v-7.9h3.1v18.2H2278.3z"/>
	<path id="XMLID_835_" class="st0" d="M2298.3,880.3l-1.7,4.1h-3.2l8.1-18.2h3.2l8,18.2h-3.3l-1.7-4.1H2298.3z M2302.8,869.4
		l-3.4,8.1h6.9L2302.8,869.4z"/>
	<path id="XMLID_833_" class="st0" d="M2335.4,881.6v2.8h-11v-18.2h3.1v15.5H2335.4z"/>
	<path id="XMLID_831_" class="st0" d="M2352.8,884.4l-7.3-18.2h3.3l5.6,14.8l5.7-14.8h3.2l-7.4,18.2H2352.8z"/>
</g>
<g id="XMLID_823_">
	<path id="XMLID_828_" class="st0" d="M2307.9,1379.3v-7.6h-9.7v7.6h-3.1V1361h3.1v7.9h9.7v-7.9h3.1v18.2H2307.9z"/>
	<path id="XMLID_826_" class="st0" d="M2328.4,1363.8v4.9h8.9v2.8h-8.9v5h10.3v2.8h-13.3V1361h13v2.8H2328.4z"/>
	<path id="XMLID_824_" class="st0" d="M2362.9,1376.5v2.8h-11V1361h3.1v15.5H2362.9z"/>
</g>
<g id="XMLID_813_">
	<path id="XMLID_820_" class="st0" d="M2344,1135l-2.8,5.6c-4-2.3-9.3-3.7-14-3.7c-13,0-19.5,10.7-18.6,27.1
		c2.7-7.1,9.2-11.1,18.2-11.1c11.9,0,19.3,7.4,19.3,19.1c0,12.4-8.1,20.2-20.6,20.2c-14.8,0-23.7-10.7-23.7-29.4
		c0-19.3,9.6-32,25-32C2332.3,1130.6,2339,1132.4,2344,1135z M2310.3,1172.3c-0.1,5.8,4.4,13.3,14.8,13.3c8.6,0,14.5-5.2,14.5-13.8
		c0-8.1-5.4-13.1-14-13.1C2315.9,1158.7,2310.2,1165.1,2310.3,1172.3z"/>
	<path id="XMLID_818_" class="st0" d="M2363.4,1191.7v-54.2h-12.3v-6.6h19.2v60.8H2363.4z"/>
	<path id="XMLID_816_" class="st0" d="M2394.7,1188c0,1.4-0.5,2.5-1.3,3.7l-4.1,6.3h-3.8l2.9-6.3c-1.3-0.8-1.9-2.2-1.9-3.7
		c0-2.5,1.7-4.3,4.1-4.3C2392.8,1183.5,2394.7,1185.2,2394.7,1188z"/>
	<path id="XMLID_814_" class="st0" d="M2404.5,1167.9v-5h20.4v5H2404.5z"/>
</g>
<g id="XMLID_801_">
	<path id="XMLID_811_" class="st0" d="M2271.8,1332.4v-54.2h-12.3v-6.6h19.2v60.8H2271.8z"/>
	<path id="XMLID_809_" class="st0" d="M2304,1332.4v-54.2h-12.3v-6.6h19.2v60.8H2304z"/>
	<path id="XMLID_806_" class="st0" d="M2377.3,1302c0,19.6-8.9,30.6-25.1,30.6c-16.2,0-25.1-10.9-25.1-30.6
		c0-19.6,8.9-30.6,25.1-30.6C2368.3,1271.4,2377.3,1282.3,2377.3,1302z M2334.1,1302c0,16.4,6.3,24.7,18.1,24.7
		c11.8,0,18.1-8.3,18.1-24.7c0-16.5-6.3-24.7-18.1-24.7C2340.3,1277.3,2334.1,1285.5,2334.1,1302z"/>
	<path id="XMLID_804_" class="st0" d="M2394.7,1328.6c0,1.4-0.5,2.5-1.3,3.7l-4.1,6.3h-3.8l2.9-6.3c-1.3-0.8-1.9-2.2-1.9-3.7
		c0-2.5,1.7-4.3,4.1-4.3C2392.8,1324.2,2394.7,1325.9,2394.7,1328.6z"/>
	<path id="XMLID_802_" class="st0" d="M2404.5,1308.6v-5h20.4v5H2404.5z"/>
</g>
<g id="XMLID_791_">
	<path id="XMLID_799_" class="st0" d="M2278.3,1235.1v-7.6h-9.7v7.6h-3.1v-18.2h3.1v7.9h9.7v-7.9h3.1v18.2H2278.3z"/>
	<path id="XMLID_796_" class="st0" d="M2298.3,1231l-1.7,4.1h-3.2l8.1-18.2h3.2l8,18.2h-3.3l-1.7-4.1H2298.3z M2302.8,1220.1
		l-3.4,8.1h6.9L2302.8,1220.1z"/>
	<path id="XMLID_794_" class="st0" d="M2335.4,1232.3v2.8h-11v-18.2h3.1v15.5H2335.4z"/>
	<path id="XMLID_792_" class="st0" d="M2352.8,1235.1l-7.3-18.2h3.3l5.6,14.8l5.7-14.8h3.2l-7.4,18.2H2352.8z"/>
</g>
<g id="XMLID_779_">
	<path id="XMLID_789_" class="st0" d="M103.9,81.7l-4.3,9c-6.6-4-13.2-5.6-17.8-5.6c-6,0-9.9,2.3-9.9,6.3c0,13.3,32.8,6.2,32.7,28.1
		c0,10.9-9.6,17.5-22.9,17.5c-9.6,0-18.6-3.9-24.8-9.6l4.4-8.9c6.3,5.7,14.1,8.9,20.6,8.9c7.1,0,11.4-2.7,11.4-7.4
		c0-13.6-32.8-6-32.8-27.6c0-10.4,8.9-16.9,22.2-16.9C90.5,75.4,98.3,77.9,103.9,81.7z"/>
	<path id="XMLID_787_" class="st0" d="M170.6,85.1v51.6h-10.3V85.1h-19.2v-9.2h48.7v9.2H170.6z"/>
	<path id="XMLID_785_" class="st0" d="M240.6,85.1v16.4h29.7v9.2h-29.7v16.8h34.2v9.2h-44.5V75.9h43.4v9.2H240.6z"/>
	<path id="XMLID_782_" class="st0" d="M346.5,118.3c-0.9,0.1-1.8,0.1-2.8,0.1h-14.4v18.3h-10.3V75.9h24.7c15.5,0,24.5,7.6,24.5,20.8
		c0,9.7-4.5,16.6-12.6,19.7l13.6,20.3h-11.6L346.5,118.3z M343.7,109.1c9.4,0,14.8-4,14.8-12.2c0-8-5.4-11.8-14.8-11.8h-14.4v24.1
		H343.7z"/>
	<path id="XMLID_780_" class="st0" d="M434.2,109.8l-10.3,11.4v15.5h-10.3V75.9h10.3v31.4l29-31.4h12.1l-23.5,26l25.1,34.8h-12.3
		L434.2,109.8z"/>
</g>
<g id="XMLID_639_">
	<path id="XMLID_777_" class="st0" d="M91.8,197.3v11.2c-3.1,2.3-7.6,4-11.8,4c-9,0-16-6.7-16-15.4c0-8.7,7.1-15.3,16.3-15.3
		c4.3,0,8.7,1.7,11.7,4.3l-2.9,3.8c-2.3-2.2-5.6-3.5-8.8-3.5c-6.2,0-11.1,4.7-11.1,10.8c0,6.1,4.9,10.8,11.1,10.8
		c2.3,0,4.8-0.8,7-2.1v-8.5H91.8z"/>
	<path id="XMLID_774_" class="st0" d="M128.6,203.1c-0.4,0-0.9,0-1.4,0H120v9.2h-5.1v-30.4h12.3c7.8,0,12.2,3.8,12.2,10.4
		c0,4.9-2.3,8.3-6.3,9.9l6.8,10.2h-5.8L128.6,203.1z M127.2,198.5c4.7,0,7.4-2,7.4-6.1c0-4-2.7-5.9-7.4-5.9H120v12H127.2z"/>
	<path id="XMLID_772_" class="st0" d="M162.1,212.3v-30.4h5.1v30.4H162.1z"/>
	<path id="XMLID_770_" class="st0" d="M209.4,207.6v4.6h-18.3v-30.4h5.1v25.8H209.4z"/>
	<path id="XMLID_768_" class="st0" d="M248.4,207.6v4.6h-18.3v-30.4h5.1v25.8H248.4z"/>
	<path id="XMLID_766_" class="st0" d="M274.3,186.5v8.2h14.9v4.6h-14.9v8.4h17.1v4.6h-22.2v-30.4h21.7v4.6H274.3z"/>
	<path id="XMLID_764_" class="st0" d="M324.6,186.5v25.8h-5.1v-25.8h-9.6v-4.6h24.4v4.6H324.6z"/>
	<path id="XMLID_762_" class="st0" d="M402.2,184.8l-2.1,4.5c-3.3-2-6.6-2.8-8.9-2.8c-3,0-5,1.1-5,3.2c0,6.6,16.4,3.1,16.4,14
		c0,5.4-4.8,8.8-11.5,8.8c-4.8,0-9.3-2-12.4-4.8l2.2-4.4c3.1,2.9,7,4.4,10.3,4.4c3.6,0,5.7-1.3,5.7-3.7c0-6.8-16.4-3-16.4-13.8
		c0-5.2,4.5-8.5,11.1-8.5C395.5,181.6,399.4,182.9,402.2,184.8z"/>
	<path id="XMLID_760_" class="st0" d="M450.3,199.7c0,7.9-5,12.8-13.2,12.8s-13.2-4.9-13.2-12.8v-17.8h5.1v17.8
		c0,5.1,3.2,8.2,8.2,8.2c5,0,8-3,8-8.2v-17.8h5.1V199.7z"/>
	<path id="XMLID_757_" class="st0" d="M487.2,203.1c-0.4,0-0.9,0-1.4,0h-7.2v9.2h-5.1v-30.4h12.3c7.8,0,12.2,3.8,12.2,10.4
		c0,4.9-2.3,8.3-6.3,9.9l6.8,10.2h-5.8L487.2,203.1z M485.8,198.5c4.7,0,7.4-2,7.4-6.1c0-4-2.7-5.9-7.4-5.9h-7.2v12H485.8z"/>
	<path id="XMLID_754_" class="st0" d="M533.2,181.9c9.1,0,15.7,6.4,15.7,15.2c0,8.8-6.6,15.2-15.9,15.2h-12.3v-30.4H533.2z
		 M525.9,207.7h7.5c5.9,0,10.4-4.4,10.4-10.6c0-6.2-4.6-10.6-10.6-10.6h-7.3V207.7z"/>
	<path id="XMLID_752_" class="st0" d="M575.4,186.5v8.2h14.9v4.6h-14.9v8.4h17.1v4.6h-22.2v-30.4H592v4.6H575.4z"/>
	<path id="XMLID_750_" class="st0" d="M614.6,212.3v-30.4h5.1v30.4H614.6z"/>
	<path id="XMLID_748_" class="st0" d="M668.8,197.3v11.2c-3.1,2.3-7.6,4-11.8,4c-9,0-16-6.7-16-15.4c0-8.7,7.1-15.3,16.3-15.3
		c4.3,0,8.7,1.7,11.7,4.3l-2.9,3.8c-2.3-2.2-5.6-3.5-8.8-3.5c-6.2,0-11.1,4.7-11.1,10.8c0,6.1,4.9,10.8,11.1,10.8
		c2.3,0,4.8-0.8,7-2.1v-8.5H668.8z"/>
	<path id="XMLID_746_" class="st0" d="M712.6,184.8l-2.1,4.5c-3.3-2-6.6-2.8-8.9-2.8c-3,0-5,1.1-5,3.2c0,6.6,16.4,3.1,16.4,14
		c0,5.4-4.8,8.8-11.5,8.8c-4.8,0-9.3-2-12.4-4.8l2.2-4.4c3.1,2.9,7,4.4,10.3,4.4c3.6,0,5.7-1.3,5.7-3.7c0-6.8-16.4-3-16.4-13.8
		c0-5.2,4.5-8.5,11.1-8.5C705.9,181.6,709.7,182.9,712.6,184.8z"/>
	<path id="XMLID_742_" class="st0" d="M748,181.9c6.3,0,10.2,2.9,10.2,7.6c0,3.4-2,6-5.3,6.8c4.1,0.7,6.5,3.6,6.5,7.7
		c0,5.2-4.2,8.3-11.1,8.3h-13.5v-30.4H748z M739.9,194.5h7.8c3.3,0,5.2-1.5,5.2-4.1s-2-4-5.2-4h-7.8V194.5z M739.9,207.7h7.8
		c4,0,6.4-1.6,6.4-4.4c0-2.7-2.4-4.3-6.4-4.3h-7.8V207.7z"/>
	<path id="XMLID_739_" class="st0" d="M795,203.1c-0.4,0-0.9,0-1.4,0h-7.2v9.2h-5.1v-30.4h12.3c7.8,0,12.2,3.8,12.2,10.4
		c0,4.9-2.3,8.3-6.3,9.9l6.8,10.2h-5.8L795,203.1z M793.7,198.5c4.7,0,7.4-2,7.4-6.1c0-4-2.7-5.9-7.4-5.9h-7.2v12H793.7z"/>
	<path id="XMLID_735_" class="st0" d="M847.9,182.7c6.1,2.1,10.3,7.6,10.3,14.4c0,8.7-7,15.4-16.1,15.4c-1.4,0-2.9-0.2-4.2-0.5
		l-1.9,5.6h-3l2.2-6.5c-5.5-2.4-9.3-7.7-9.3-14c0-8.7,7-15.3,16.1-15.3c1,0,2,0.1,3,0.3l1.7-5h3L847.9,182.7z M836.8,206.5l6.8-20.1
		c-0.5,0-1-0.1-1.4-0.1c-6,0-10.9,4.7-10.9,10.7C831.3,201.1,833.5,204.6,836.8,206.5z M853,197.1c0-4.5-2.7-8.3-6.6-9.9l-6.9,20.4
		c0.9,0.2,1.8,0.3,2.7,0.3C848.2,207.9,853,203.1,853,197.1z"/>
	<path id="XMLID_732_" class="st0" d="M892.1,181.9c9.1,0,15.7,6.4,15.7,15.2c0,8.8-6.6,15.2-15.9,15.2h-12.3v-30.4H892.1z
		 M884.7,207.7h7.5c5.9,0,10.4-4.4,10.4-10.6c0-6.2-4.6-10.6-10.6-10.6h-7.3V207.7z"/>
	<path id="XMLID_730_" class="st0" d="M983.6,212.3l0-22.7l-9.6,19.5h-3.3l-9.6-19.5v22.7h-4.8v-30.4h6.1l10,20.2l10-20.2h6v30.4
		H983.6z"/>
	<path id="XMLID_728_" class="st0" d="M1017.3,186.5v8.2h14.9v4.6h-14.9v8.4h17.1v4.6h-22.2v-30.4h21.7v4.6H1017.3z"/>
	<path id="XMLID_725_" class="st0" d="M1069,181.9c9.1,0,15.7,6.4,15.7,15.2c0,8.8-6.6,15.2-15.9,15.2h-12.3v-30.4H1069z
		 M1061.7,207.7h7.5c5.9,0,10.4-4.4,10.4-10.6c0-6.2-4.6-10.6-10.6-10.6h-7.3V207.7z"/>
	<path id="XMLID_723_" class="st0" d="M91.5,238.5l-3,3.7c-2.2-2.4-5.4-3.9-8.5-3.9c-6.1,0-10.9,4.7-10.9,10.7
		c0,6,4.8,10.7,10.9,10.7c3,0,6.2-1.4,8.5-3.6l3,3.4c-3.1,3-7.5,5-11.8,5c-8.9,0-15.8-6.7-15.8-15.5c0-8.6,7-15.3,16-15.3
		C84.2,233.9,88.5,235.6,91.5,238.5z"/>
	<path id="XMLID_721_" class="st0" d="M133.8,264.4v-12.6h-16.1v12.6h-5.1V234h5.1v13.2h16.1V234h5.1v30.4H133.8z"/>
	<path id="XMLID_719_" class="st0" d="M162.8,264.4V234h5.1v30.4H162.8z"/>
	<path id="XMLID_717_" class="st0" d="M210.1,259.7v4.6h-18.3V234h5.1v25.8H210.1z"/>
	<path id="XMLID_715_" class="st0" d="M230.8,264.4V234h5.1v30.4H230.8z"/>
	<path id="XMLID_713_" class="st0" d="M311.9,238.5l-3,3.7c-2.2-2.4-5.4-3.9-8.5-3.9c-6.1,0-10.9,4.7-10.9,10.7
		c0,6,4.8,10.7,10.9,10.7c3,0,6.2-1.4,8.5-3.6l3,3.4c-3.1,3-7.5,5-11.8,5c-8.9,0-15.8-6.7-15.8-15.5c0-8.6,7-15.3,16-15.3
		C304.6,233.9,308.9,235.6,311.9,238.5z"/>
	<path id="XMLID_710_" class="st0" d="M362,249.2c0,8.7-7,15.4-16.1,15.4c-9.1,0-16.1-6.7-16.1-15.4c0-8.7,7-15.3,16.1-15.3
		C355,233.9,362,240.5,362,249.2z M335,249.2c0,6,5,10.8,10.9,10.8s10.8-4.8,10.8-10.8s-4.9-10.7-10.8-10.7
		C340,238.5,335,243.1,335,249.2z"/>
	<path id="XMLID_708_" class="st0" d="M404.7,264.4l-16.2-21.8v21.8h-5.1V234h5l16.3,21.8V234h5v30.4H404.7z"/>
	<path id="XMLID_706_" class="st0" d="M485.7,238.5l-3,3.7c-2.2-2.4-5.4-3.9-8.5-3.9c-6.1,0-10.9,4.7-10.9,10.7
		c0,6,4.8,10.7,10.9,10.7c3,0,6.2-1.4,8.5-3.6l3,3.4c-3.1,3-7.5,5-11.8,5c-8.9,0-15.8-6.7-15.8-15.5c0-8.6,7-15.3,16-15.3
		C478.4,233.9,482.7,235.6,485.7,238.5z"/>
	<path id="XMLID_703_" class="st0" d="M510.9,257.5l-2.9,6.9h-5.3L516,234h5.3l13.3,30.4h-5.5l-2.9-6.9H510.9z M518.5,239.5
		l-5.7,13.5h11.5L518.5,239.5z"/>
	<path id="XMLID_700_" class="st0" d="M568.2,255.2c-0.4,0-0.9,0-1.4,0h-7.2v9.2h-5.1V234h12.3c7.8,0,12.2,3.8,12.2,10.4
		c0,4.9-2.3,8.3-6.3,9.9l6.8,10.2h-5.8L568.2,255.2z M566.8,250.6c4.7,0,7.4-2,7.4-6.1c0-4-2.7-5.9-7.4-5.9h-7.2v12H566.8z"/>
	<path id="XMLID_698_" class="st0" d="M623.1,264.4l-16.2-21.8v21.8h-5.1V234h5l16.3,21.8V234h5v30.4H623.1z"/>
	<path id="XMLID_696_" class="st0" d="M657.1,238.6v8.2H672v4.6h-14.9v8.4h17.1v4.6H652V234h21.7v4.6H657.1z"/>
	<path id="XMLID_694_" class="st0" d="M699.7,261.9c0,0.9-0.3,1.6-0.8,2.3l-2.5,3.7h-2.6l1.7-3.8c-0.8-0.5-1.2-1.3-1.2-2.3
		c0-1.6,1.1-2.8,2.7-2.8C698.5,259.1,699.7,260.2,699.7,261.9z"/>
	<path id="XMLID_691_" class="st0" d="M762.3,255.2c-0.4,0-0.9,0-1.4,0h-7.2v9.2h-5.1V234h12.3c7.8,0,12.2,3.8,12.2,10.4
		c0,4.9-2.3,8.3-6.3,9.9l6.8,10.2h-5.8L762.3,255.2z M760.9,250.6c4.7,0,7.4-2,7.4-6.1c0-4-2.7-5.9-7.4-5.9h-7.2v12H760.9z"/>
	<path id="XMLID_687_" class="st0" d="M815.2,234.8c6.1,2.1,10.3,7.6,10.3,14.4c0,8.7-7,15.4-16.1,15.4c-1.4,0-2.9-0.2-4.2-0.5
		l-1.9,5.6h-3l2.2-6.5c-5.5-2.4-9.3-7.7-9.3-14c0-8.7,7-15.3,16.1-15.3c1,0,2,0.1,3,0.3l1.7-5h3L815.2,234.8z M804,258.6l6.8-20.1
		c-0.5,0-1-0.1-1.4-0.1c-6,0-10.9,4.7-10.9,10.7C798.5,253.3,800.7,256.7,804,258.6z M820.2,249.2c0-4.5-2.7-8.3-6.6-9.9l-6.9,20.4
		c0.9,0.2,1.8,0.3,2.7,0.3C815.4,260,820.2,255.2,820.2,249.2z"/>
	<path id="XMLID_685_" class="st0" d="M857.1,251l-5.2,5.7v7.7h-5.1V234h5.1v15.7l14.5-15.7h6l-11.8,13l12.6,17.4h-6.2L857.1,251z"
		/>
	<path id="XMLID_683_" class="st0" d="M905,238.6v25.8h-5.1v-25.8h-9.6V234h24.4v4.6H905z"/>
	<path id="XMLID_681_" class="st0" d="M986.9,238.5l-3,3.7c-2.2-2.4-5.4-3.9-8.5-3.9c-6.1,0-10.9,4.7-10.9,10.7
		c0,6,4.8,10.7,10.9,10.7c3,0,6.2-1.4,8.5-3.6l3,3.4c-3.1,3-7.5,5-11.8,5c-8.9,0-15.8-6.7-15.8-15.5c0-8.6,7-15.3,16-15.3
		C979.7,233.9,984,235.6,986.9,238.5z"/>
	<path id="XMLID_679_" class="st0" d="M1029.3,264.4v-12.6h-16.1v12.6h-5.1V234h5.1v13.2h16.1V234h5.1v30.4H1029.3z"/>
	<path id="XMLID_677_" class="st0" d="M1063.4,238.6v8.2h14.9v4.6h-14.9v8.4h17.1v4.6h-22.2V234h21.7v4.6H1063.4z"/>
	<path id="XMLID_674_" class="st0" d="M1115,234c9.1,0,15.7,6.4,15.7,15.2c0,8.8-6.6,15.2-15.9,15.2h-12.3V234H1115z M1107.7,259.8
		h7.5c5.9,0,10.4-4.4,10.4-10.6c0-6.2-4.6-10.6-10.6-10.6h-7.3V259.8z"/>
	<path id="XMLID_671_" class="st0" d="M1164.6,234c9.1,0,15.7,6.4,15.7,15.2c0,8.8-6.6,15.2-15.9,15.2h-12.3V234H1164.6z
		 M1157.2,259.8h7.5c5.9,0,10.4-4.4,10.4-10.6c0-6.2-4.6-10.6-10.6-10.6h-7.3V259.8z"/>
	<path id="XMLID_668_" class="st0" d="M1205.1,257.5l-2.9,6.9h-5.3l13.4-30.4h5.3l13.3,30.4h-5.5l-2.9-6.9H1205.1z M1212.8,239.5
		L1207,253h11.5L1212.8,239.5z"/>
	<path id="XMLID_665_" class="st0" d="M1262.5,255.2c-0.4,0-0.9,0-1.4,0h-7.2v9.2h-5.1V234h12.3c7.8,0,12.2,3.8,12.2,10.4
		c0,4.9-2.3,8.3-6.3,9.9l6.8,10.2h-5.8L1262.5,255.2z M1261.1,250.6c4.7,0,7.4-2,7.4-6.1c0-4-2.7-5.9-7.4-5.9h-7.2v12H1261.1z"/>
	<path id="XMLID_662_" class="st0" d="M1352.7,249.2c0,8.7-7,15.4-16.1,15.4c-9.1,0-16.1-6.7-16.1-15.4c0-8.7,7-15.3,16.1-15.3
		C1345.7,233.9,1352.7,240.5,1352.7,249.2z M1325.7,249.2c0,6,5,10.8,10.9,10.8s10.8-4.8,10.8-10.8s-4.9-10.7-10.8-10.7
		C1330.7,238.5,1325.7,243.1,1325.7,249.2z"/>
	<path id="XMLID_660_" class="st0" d="M1398.1,249.4v11.2c-3.1,2.3-7.6,4-11.8,4c-9,0-16-6.7-16-15.4c0-8.7,7.1-15.3,16.3-15.3
		c4.3,0,8.7,1.7,11.7,4.3l-2.9,3.8c-2.3-2.2-5.6-3.5-8.8-3.5c-6.2,0-11.1,4.7-11.1,10.8c0,6.1,4.9,10.8,11.1,10.8
		c2.3,0,4.8-0.8,7-2.1v-8.5H1398.1z"/>
	<path id="XMLID_657_" class="st0" d="M1460.4,234c7.6,0,12,3.8,12,10.4c0,6.9-4.4,10.9-12,10.9h-7v9.2h-5.1V234H1460.4z
		 M1453.4,250.6h6.8c4.7,0,7.3-2,7.3-6.1c0-4-2.6-5.9-7.3-5.9h-6.8V250.6z"/>
	<path id="XMLID_654_" class="st0" d="M1495.8,257.5l-2.9,6.9h-5.3l13.4-30.4h5.3l13.3,30.4h-5.5l-2.9-6.9H1495.8z M1503.4,239.5
		l-5.7,13.5h11.5L1503.4,239.5z"/>
	<path id="XMLID_651_" class="st0" d="M1553.1,255.2c-0.4,0-0.9,0-1.4,0h-7.2v9.2h-5.1V234h12.3c7.8,0,12.2,3.8,12.2,10.4
		c0,4.9-2.3,8.3-6.3,9.9l6.8,10.2h-5.8L1553.1,255.2z M1551.7,250.6c4.7,0,7.4-2,7.4-6.1c0-4-2.7-5.9-7.4-5.9h-7.2v12H1551.7z"/>
	<path id="XMLID_649_" class="st0" d="M1614,264.4l0-22.7l-9.6,19.5h-3.3l-9.6-19.5v22.7h-4.8V234h6.1l10,20.2l10-20.2h6v30.4H1614z
		"/>
	<path id="XMLID_647_" class="st0" d="M1647.8,238.6v8.2h14.9v4.6h-14.9v8.4h17.1v4.6h-22.2V234h21.7v4.6H1647.8z"/>
	<path id="XMLID_645_" class="st0" d="M1707.6,236.9l-2.1,4.5c-3.3-2-6.6-2.8-8.9-2.8c-3,0-5,1.1-5,3.2c0,6.6,16.4,3.1,16.4,14
		c0,5.4-4.8,8.8-11.5,8.8c-4.8,0-9.3-2-12.4-4.8l2.2-4.4c3.1,2.9,7,4.4,10.3,4.4c3.6,0,5.7-1.3,5.7-3.7c0-6.8-16.4-3-16.4-13.8
		c0-5.2,4.5-8.5,11.1-8.5C1700.9,233.8,1704.8,235,1707.6,236.9z"/>
	<path id="XMLID_642_" class="st0" d="M1733.9,257.5l-2.9,6.9h-5.3l13.4-30.4h5.3l13.3,30.4h-5.5l-2.9-6.9H1733.9z M1741.5,239.5
		l-5.7,13.5h11.5L1741.5,239.5z"/>
	<path id="XMLID_640_" class="st0" d="M1798.8,264.4l-16.2-21.8v21.8h-5.1V234h5l16.3,21.8V234h5v30.4H1798.8z"/>
</g>
<g id="XMLID_590_">
	<path id="XMLID_636_" class="st0" d="M67.5,323.6l-1.7,4.1h-3.2l8.1-18.2h3.2l8,18.2h-3.3l-1.7-4.1H67.5z M72,312.7l-3.4,8.1h6.9
		L72,312.7z"/>
	<path id="XMLID_634_" class="st0" d="M104.6,324.9v2.8h-11v-18.2h3.1v15.5H104.6z"/>
	<path id="XMLID_632_" class="st0" d="M128,324.9v2.8h-11v-18.2h3.1v15.5H128z"/>
	<path id="XMLID_630_" class="st0" d="M143.6,312.2v4.9h8.9v2.8h-8.9v5h10.3v2.8h-13.3v-18.2h13v2.8H143.6z"/>
	<path id="XMLID_627_" class="st0" d="M175.3,322.2c-0.3,0-0.5,0-0.8,0h-4.3v5.5h-3.1v-18.2h7.4c4.7,0,7.3,2.3,7.3,6.2
		c0,2.9-1.4,5-3.8,5.9l4.1,6.1h-3.5L175.3,322.2z M174.5,319.4c2.8,0,4.4-1.2,4.4-3.7c0-2.4-1.6-3.5-4.4-3.5h-4.3v7.2H174.5z"/>
	<path id="XMLID_625_" class="st0" d="M210.6,318.7v6.7c-1.9,1.4-4.6,2.4-7.1,2.4c-5.4,0-9.6-4-9.6-9.3c0-5.2,4.2-9.2,9.8-9.2
		c2.6,0,5.2,1,7,2.6l-1.7,2.3c-1.4-1.3-3.4-2.1-5.3-2.1c-3.7,0-6.6,2.8-6.6,6.5c0,3.6,2.9,6.5,6.7,6.5c1.4,0,2.9-0.5,4.2-1.3v-5.1
		H210.6z"/>
	<path id="XMLID_623_" class="st0" d="M227.5,312.2v4.9h8.9v2.8h-8.9v5h10.3v2.8h-13.3v-18.2h13v2.8H227.5z"/>
	<path id="XMLID_621_" class="st0" d="M263.9,327.7l-9.7-13.1v13.1h-3.1v-18.2h3l9.8,13.1v-13.1h3v18.2H263.9z"/>
	<path id="XMLID_619_" class="st0" d="M284.3,312.2v4.9h8.9v2.8h-8.9v5h10.3v2.8h-13.3v-18.2h13v2.8H284.3z"/>
	<path id="XMLID_616_" class="st0" d="M316.1,322.2c-0.3,0-0.5,0-0.8,0h-4.3v5.5h-3.1v-18.2h7.4c4.7,0,7.3,2.3,7.3,6.2
		c0,2.9-1.4,5-3.8,5.9l4.1,6.1h-3.5L316.1,322.2z M315.2,319.4c2.8,0,4.4-1.2,4.4-3.7c0-2.4-1.6-3.5-4.4-3.5h-4.3v7.2H315.2z"/>
	<path id="XMLID_613_" class="st0" d="M338.3,318.5c0,1-0.7,1.7-1.6,1.7c-0.9,0-1.6-0.7-1.6-1.7c0-1,0.7-1.7,1.6-1.7
		C337.6,316.8,338.3,317.5,338.3,318.5z M338.3,326.2c0,1-0.7,1.7-1.6,1.7c-0.9,0-1.6-0.7-1.6-1.7c0-1,0.7-1.7,1.6-1.7
		C337.6,324.5,338.3,325.2,338.3,326.2z"/>
	<path id="XMLID_611_" class="st0" d="M383.9,327.7l0-13.6l-5.8,11.7h-2l-5.8-11.7v13.6h-2.9v-18.2h3.6l6,12.1l6-12.1h3.6v18.2
		H383.9z"/>
	<path id="XMLID_609_" class="st0" d="M404.1,312.2v4.9h8.9v2.8h-8.9v5h10.3v2.8h-13.3v-18.2h13v2.8H404.1z"/>
	<path id="XMLID_607_" class="st0" d="M438.6,324.9v2.8h-11v-18.2h3.1v15.5H438.6z"/>
	<path id="XMLID_605_" class="st0" d="M457.3,319.7l-3.1,3.4v4.6h-3.1v-18.2h3.1v9.4l8.7-9.4h3.6l-7.1,7.8l7.5,10.4h-3.7
		L457.3,319.7z"/>
	<path id="XMLID_603_" class="st0" d="M481.4,326.2c0,0.5-0.2,1-0.5,1.4l-1.5,2.2h-1.5l1-2.3c-0.5-0.3-0.7-0.8-0.7-1.4
		c0-1,0.7-1.7,1.6-1.7C480.6,324.6,481.4,325.2,481.4,326.2z"/>
	<path id="XMLID_601_" class="st0" d="M525.8,318.7v6.7c-1.8,1.4-4.6,2.4-7.1,2.4c-5.4,0-9.6-4-9.6-9.3c0-5.2,4.2-9.2,9.8-9.2
		c2.6,0,5.2,1,7,2.6l-1.7,2.3c-1.4-1.3-3.4-2.1-5.3-2.1c-3.7,0-6.6,2.8-6.6,6.5c0,3.6,2.9,6.5,6.7,6.5c1.4,0,2.9-0.5,4.2-1.3v-5.1
		H525.8z"/>
	<path id="XMLID_599_" class="st0" d="M550.6,324.9v2.8h-11v-18.2h3.1v15.5H550.6z"/>
	<path id="XMLID_597_" class="st0" d="M578.6,320.1c0,4.8-3,7.7-7.9,7.7c-4.9,0-7.9-2.9-7.9-7.7v-10.7h3.1v10.7
		c0,3.1,1.9,4.9,4.9,4.9c3,0,4.8-1.8,4.8-4.9v-10.7h3.1V320.1z"/>
	<path id="XMLID_595_" class="st0" d="M599.2,312.2v15.5h-3.1v-15.5h-5.8v-2.8H605v2.8H599.2z"/>
	<path id="XMLID_593_" class="st0" d="M620.2,312.2v4.9h8.9v2.8h-8.9v5h10.3v2.8h-13.3v-18.2h13v2.8H620.2z"/>
	<path id="XMLID_591_" class="st0" d="M656.5,327.7l-9.7-13.1v13.1h-3.1v-18.2h3l9.8,13.1v-13.1h3v18.2H656.5z"/>
</g>
<g id="XMLID_575_">
	<path id="XMLID_588_" class="st0" d="M62.7,487.6v-60.8h10.3v60.8H62.7z"/>
	<path id="XMLID_586_" class="st0" d="M142.8,436v51.6h-10.3V436h-19.2v-9.2h48.7v9.2H142.8z"/>
	<path id="XMLID_583_" class="st0" d="M205.2,473.9l-5.8,13.7h-10.7l26.8-60.8H226l26.6,60.8h-10.9l-5.8-13.7H205.2z M220.5,437.7
		l-11.5,27H232L220.5,437.7z"/>
	<path id="XMLID_581_" class="st0" d="M329,478.3v9.3h-36.6v-60.8h10.3v51.5H329z"/>
	<path id="XMLID_579_" class="st0" d="M370.5,487.6v-60.8h10.3v60.8H370.5z"/>
	<path id="XMLID_576_" class="st0" d="M437,473.9l-5.8,13.7h-10.7l26.8-60.8h10.5l26.6,60.8h-10.9l-5.8-13.7H437z M452.3,437.7
		l-11.5,27h22.9L452.3,437.7z"/>
</g>
<g id="XMLID_439_">
	<path id="XMLID_573_" class="st0" d="M91.8,547.4v11.2c-3.1,2.3-7.6,4-11.8,4c-9,0-16-6.7-16-15.4c0-8.7,7.1-15.3,16.3-15.3
		c4.3,0,8.7,1.7,11.7,4.3l-2.9,3.8c-2.3-2.2-5.6-3.5-8.8-3.5c-6.2,0-11.1,4.7-11.1,10.8c0,6.1,4.9,10.8,11.1,10.8
		c2.3,0,4.8-0.8,7-2.1v-8.5H91.8z"/>
	<path id="XMLID_570_" class="st0" d="M128.6,553.1c-0.4,0-0.9,0-1.4,0H120v9.2h-5.1V532h12.3c7.8,0,12.2,3.8,12.2,10.4
		c0,4.9-2.3,8.3-6.3,9.9l6.8,10.2h-5.8L128.6,553.1z M127.2,548.6c4.7,0,7.4-2,7.4-6.1c0-4-2.7-5.9-7.4-5.9H120v12H127.2z"/>
	<path id="XMLID_568_" class="st0" d="M162.1,562.4V532h5.1v30.4H162.1z"/>
	<path id="XMLID_566_" class="st0" d="M209.4,557.7v4.6h-18.3V532h5.1v25.8H209.4z"/>
	<path id="XMLID_564_" class="st0" d="M248.4,557.7v4.6h-18.3V532h5.1v25.8H248.4z"/>
	<path id="XMLID_562_" class="st0" d="M274.3,536.6v8.2h14.9v4.6h-14.9v8.4h17.1v4.6h-22.2V532h21.7v4.6H274.3z"/>
	<path id="XMLID_560_" class="st0" d="M324.6,536.6v25.8h-5.1v-25.8h-9.6V532h24.4v4.6H324.6z"/>
	<path id="XMLID_558_" class="st0" d="M402.2,534.9l-2.1,4.5c-3.3-2-6.6-2.8-8.9-2.8c-3,0-5,1.1-5,3.2c0,6.6,16.4,3.1,16.4,14
		c0,5.4-4.8,8.8-11.5,8.8c-4.8,0-9.3-2-12.4-4.8l2.2-4.4c3.1,2.9,7,4.4,10.3,4.4c3.6,0,5.7-1.3,5.7-3.7c0-6.8-16.4-3-16.4-13.8
		c0-5.2,4.5-8.5,11.1-8.5C395.5,531.7,399.4,533,402.2,534.9z"/>
	<path id="XMLID_556_" class="st0" d="M450.3,549.8c0,7.9-5,12.8-13.2,12.8s-13.2-4.9-13.2-12.8V532h5.1v17.8c0,5.1,3.2,8.2,8.2,8.2
		c5,0,8-3,8-8.2V532h5.1V549.8z"/>
	<path id="XMLID_553_" class="st0" d="M487.2,553.1c-0.4,0-0.9,0-1.4,0h-7.2v9.2h-5.1V532h12.3c7.8,0,12.2,3.8,12.2,10.4
		c0,4.9-2.3,8.3-6.3,9.9l6.8,10.2h-5.8L487.2,553.1z M485.8,548.6c4.7,0,7.4-2,7.4-6.1c0-4-2.7-5.9-7.4-5.9h-7.2v12H485.8z"/>
	<path id="XMLID_550_" class="st0" d="M533.2,532c9.1,0,15.7,6.4,15.7,15.2c0,8.8-6.6,15.2-15.9,15.2h-12.3V532H533.2z M525.9,557.8
		h7.5c5.9,0,10.4-4.4,10.4-10.6c0-6.2-4.6-10.6-10.6-10.6h-7.3V557.8z"/>
	<path id="XMLID_548_" class="st0" d="M575.4,536.6v8.2h14.9v4.6h-14.9v8.4h17.1v4.6h-22.2V532H592v4.6H575.4z"/>
	<path id="XMLID_546_" class="st0" d="M614.6,562.4V532h5.1v30.4H614.6z"/>
	<path id="XMLID_544_" class="st0" d="M668.8,547.4v11.2c-3.1,2.3-7.6,4-11.8,4c-9,0-16-6.7-16-15.4c0-8.7,7.1-15.3,16.3-15.3
		c4.3,0,8.7,1.7,11.7,4.3l-2.9,3.8c-2.3-2.2-5.6-3.5-8.8-3.5c-6.2,0-11.1,4.7-11.1,10.8c0,6.1,4.9,10.8,11.1,10.8
		c2.3,0,4.8-0.8,7-2.1v-8.5H668.8z"/>
	<path id="XMLID_542_" class="st0" d="M712.6,534.9l-2.1,4.5c-3.3-2-6.6-2.8-8.9-2.8c-3,0-5,1.1-5,3.2c0,6.6,16.4,3.1,16.4,14
		c0,5.4-4.8,8.8-11.5,8.8c-4.8,0-9.3-2-12.4-4.8l2.2-4.4c3.1,2.9,7,4.4,10.3,4.4c3.6,0,5.7-1.3,5.7-3.7c0-6.8-16.4-3-16.4-13.8
		c0-5.2,4.5-8.5,11.1-8.5C705.9,531.7,709.7,533,712.6,534.9z"/>
	<path id="XMLID_538_" class="st0" d="M748,532c6.3,0,10.2,2.9,10.2,7.6c0,3.4-2,6-5.3,6.8c4.1,0.7,6.5,3.6,6.5,7.7
		c0,5.2-4.2,8.3-11.1,8.3h-13.5V532H748z M739.9,544.6h7.8c3.3,0,5.2-1.5,5.2-4.1c0-2.6-2-4-5.2-4h-7.8V544.6z M739.9,557.8h7.8
		c4,0,6.4-1.6,6.4-4.4c0-2.7-2.4-4.3-6.4-4.3h-7.8V557.8z"/>
	<path id="XMLID_535_" class="st0" d="M795,553.1c-0.4,0-0.9,0-1.4,0h-7.2v9.2h-5.1V532h12.3c7.8,0,12.2,3.8,12.2,10.4
		c0,4.9-2.3,8.3-6.3,9.9l6.8,10.2h-5.8L795,553.1z M793.7,548.6c4.7,0,7.4-2,7.4-6.1c0-4-2.7-5.9-7.4-5.9h-7.2v12H793.7z"/>
	<path id="XMLID_531_" class="st0" d="M847.9,532.8c6.1,2.1,10.3,7.6,10.3,14.4c0,8.7-7,15.4-16.1,15.4c-1.4,0-2.9-0.2-4.2-0.5
		l-1.9,5.6h-3l2.2-6.5c-5.5-2.4-9.3-7.7-9.3-14c0-8.7,7-15.3,16.1-15.3c1,0,2,0.1,3,0.3l1.7-5h3L847.9,532.8z M836.8,556.6l6.8-20.1
		c-0.5,0-1-0.1-1.4-0.1c-6,0-10.9,4.7-10.9,10.7C831.3,551.2,833.5,554.7,836.8,556.6z M853,547.2c0-4.5-2.7-8.3-6.6-9.9l-6.9,20.4
		c0.9,0.2,1.8,0.3,2.7,0.3C848.2,558,853,553.2,853,547.2z"/>
	<path id="XMLID_528_" class="st0" d="M892.1,532c9.1,0,15.7,6.4,15.7,15.2c0,8.8-6.6,15.2-15.9,15.2h-12.3V532H892.1z M884.7,557.8
		h7.5c5.9,0,10.4-4.4,10.4-10.6c0-6.2-4.6-10.6-10.6-10.6h-7.3V557.8z"/>
	<path id="XMLID_526_" class="st0" d="M983.6,562.4l0-22.7l-9.6,19.5h-3.3l-9.6-19.5v22.7h-4.8V532h6.1l10,20.2l10-20.2h6v30.4
		H983.6z"/>
	<path id="XMLID_524_" class="st0" d="M1017.3,536.6v8.2h14.9v4.6h-14.9v8.4h17.1v4.6h-22.2V532h21.7v4.6H1017.3z"/>
	<path id="XMLID_521_" class="st0" d="M1069,532c9.1,0,15.7,6.4,15.7,15.2c0,8.8-6.6,15.2-15.9,15.2h-12.3V532H1069z M1061.7,557.8
		h7.5c5.9,0,10.4-4.4,10.4-10.6c0-6.2-4.6-10.6-10.6-10.6h-7.3V557.8z"/>
	<path id="XMLID_519_" class="st0" d="M71.6,588.7v8.8h13.8v4.6H71.6v12.5h-5.1v-30.4h20.4l0,4.6H71.6z"/>
	<path id="XMLID_517_" class="st0" d="M112.4,588.7v8.2h14.9v4.6h-14.9v8.4h17.1v4.6h-22.2v-30.4H129v4.6H112.4z"/>
	<path id="XMLID_515_" class="st0" d="M173,614.5l-16.2-21.8v21.8h-5.1v-30.4h5l16.3,21.8v-21.8h5v30.4H173z"/>
	<path id="XMLID_513_" class="st0" d="M223.2,614.5L207,592.7v21.8h-5.1v-30.4h5l16.3,21.8v-21.8h5v30.4H223.2z"/>
	<path id="XMLID_511_" class="st0" d="M252.1,614.5v-30.4h5.1v30.4H252.1z"/>
	<path id="XMLID_509_" class="st0" d="M291.4,601.1l-5.2,5.7v7.7h-5.1v-30.4h5.1v15.7l14.5-15.7h6l-11.8,13l12.6,17.4h-6.2
		L291.4,601.1z"/>
	<path id="XMLID_507_" class="st0" d="M333.3,588.7v8.2h14.9v4.6h-14.9v8.4h17.1v4.6h-22.2v-30.4h21.7v4.6H333.3z"/>
	<path id="XMLID_505_" class="st0" d="M390.8,609.8v4.6h-18.3v-30.4h5.1v25.8H390.8z"/>
	<path id="XMLID_503_" class="st0" d="M432.2,587l-2.1,4.5c-3.3-2-6.6-2.8-8.9-2.8c-3,0-5,1.1-5,3.2c0,6.6,16.4,3.1,16.4,14
		c0,5.4-4.8,8.8-11.5,8.8c-4.8,0-9.3-2-12.4-4.8l2.2-4.4c3.1,2.9,7,4.4,10.3,4.4c3.6,0,5.7-1.3,5.7-3.7c0-6.8-16.4-3-16.4-13.8
		c0-5.2,4.5-8.5,11.1-8.5C425.5,583.9,429.3,585.1,432.2,587z"/>
	<path id="XMLID_500_" class="st0" d="M458.4,607.6l-2.9,6.9h-5.3l13.4-30.4h5.3l13.3,30.4h-5.5l-2.9-6.9H458.4z M466.1,589.5
		l-5.7,13.5h11.5L466.1,589.5z"/>
	<path id="XMLID_498_" class="st0" d="M520.3,609.8v4.6h-18.3v-30.4h5.1v25.8H520.3z"/>
	<path id="XMLID_495_" class="st0" d="M545.7,607.6l-2.9,6.9h-5.3l13.4-30.4h5.3l13.3,30.4h-5.5l-2.9-6.9H545.7z M553.3,589.5
		l-5.7,13.5H559L553.3,589.5z"/>
	<path id="XMLID_493_" class="st0" d="M616.7,614.5l0-22.7l-9.6,19.5h-3.3l-9.6-19.5v22.7h-4.8v-30.4h6.1l10,20.2l10-20.2h6v30.4
		H616.7z"/>
	<path id="XMLID_491_" class="st0" d="M645.3,614.5v-30.4h5.1v30.4H645.3z"/>
	<path id="XMLID_489_" class="st0" d="M677.6,612c0,0.9-0.3,1.6-0.8,2.3l-2.5,3.7h-2.6l1.7-3.8c-0.8-0.5-1.2-1.3-1.2-2.3
		c0-1.6,1.1-2.8,2.7-2.8C676.4,609.2,677.6,610.3,677.6,612z"/>
	<path id="XMLID_487_" class="st0" d="M753.9,614.5l0-22.7l-9.6,19.5h-3.3l-9.6-19.5v22.7h-4.8v-30.4h6.1l10,20.2l10-20.2h6v30.4
		H753.9z"/>
	<path id="XMLID_484_" class="st0" d="M812.2,599.3c0,8.7-7,15.4-16.1,15.4c-9.1,0-16.1-6.7-16.1-15.4c0-8.7,7-15.3,16.1-15.3
		C805.2,583.9,812.2,590.6,812.2,599.3z M785.2,599.3c0,6,5,10.8,10.9,10.8c5.9,0,10.8-4.8,10.8-10.8c0-6-4.9-10.7-10.8-10.7
		C790.1,588.5,785.2,593.2,785.2,599.3z"/>
	<path id="XMLID_482_" class="st0" d="M838.1,609.9h18.7v4.6h-25.7v-3.7l18.5-22.1h-18v-4.6h24.9v3.7L838.1,609.9z"/>
	<path id="XMLID_480_" class="st0" d="M882.9,609.9h18.7v4.6h-25.7v-3.7l18.5-22.1h-18v-4.6h24.9v3.7L882.9,609.9z"/>
	<path id="XMLID_477_" class="st0" d="M927.4,607.6l-2.9,6.9h-5.3l13.4-30.4h5.3l13.3,30.4h-5.5l-2.9-6.9H927.4z M935,589.5
		l-5.7,13.5h11.5L935,589.5z"/>
	<path id="XMLID_474_" class="st0" d="M984.7,605.3c-0.4,0-0.9,0-1.4,0h-7.2v9.2H971v-30.4h12.3c7.8,0,12.2,3.8,12.2,10.4
		c0,4.9-2.3,8.3-6.3,9.9l6.8,10.2h-5.8L984.7,605.3z M983.3,600.7c4.7,0,7.4-2,7.4-6.1c0-4-2.7-5.9-7.4-5.9h-7.2v12H983.3z"/>
	<path id="XMLID_472_" class="st0" d="M1023.4,588.7v8.2h14.9v4.6h-14.9v8.4h17.1v4.6h-22.2v-30.4h21.7v4.6H1023.4z"/>
	<path id="XMLID_470_" class="st0" d="M1080.9,609.8v4.6h-18.3v-30.4h5.1v25.8H1080.9z"/>
	<path id="XMLID_468_" class="st0" d="M1119.9,609.8v4.6h-18.3v-30.4h5.1v25.8H1119.9z"/>
	<path id="XMLID_465_" class="st0" d="M1145.2,607.6l-2.9,6.9h-5.3l13.4-30.4h5.3l13.3,30.4h-5.5l-2.9-6.9H1145.2z M1152.9,589.5
		l-5.7,13.5h11.5L1152.9,589.5z"/>
	<path id="XMLID_462_" class="st0" d="M1245.6,599.3c0,8.7-7,15.4-16.1,15.4c-9.1,0-16.1-6.7-16.1-15.4c0-8.7,7-15.3,16.1-15.3
		C1238.6,583.9,1245.6,590.6,1245.6,599.3z M1218.6,599.3c0,6,5,10.8,10.9,10.8c5.9,0,10.8-4.8,10.8-10.8c0-6-4.9-10.7-10.8-10.7
		C1223.5,588.5,1218.6,593.2,1218.6,599.3z"/>
	<path id="XMLID_460_" class="st0" d="M1291,599.5v11.2c-3.1,2.3-7.6,4-11.8,4c-9,0-16-6.7-16-15.4c0-8.7,7.1-15.3,16.3-15.3
		c4.3,0,8.7,1.7,11.7,4.3l-2.9,3.8c-2.3-2.2-5.6-3.5-8.8-3.5c-6.2,0-11.1,4.7-11.1,10.8c0,6.1,4.9,10.8,11.1,10.8
		c2.3,0,4.8-0.8,7-2.1v-8.5H1291z"/>
	<path id="XMLID_457_" class="st0" d="M1353.3,584.1c7.6,0,12,3.8,12,10.4c0,6.9-4.4,10.9-12,10.9h-7v9.2h-5.1v-30.4H1353.3z
		 M1346.3,600.7h6.8c4.7,0,7.3-2,7.3-6.1c0-4-2.6-5.9-7.3-5.9h-6.8V600.7z"/>
	<path id="XMLID_454_" class="st0" d="M1388.6,607.6l-2.9,6.9h-5.3l13.4-30.4h5.3l13.3,30.4h-5.5l-2.9-6.9H1388.6z M1396.3,589.5
		l-5.7,13.5h11.5L1396.3,589.5z"/>
	<path id="XMLID_451_" class="st0" d="M1445.9,605.3c-0.4,0-0.9,0-1.4,0h-7.2v9.2h-5.1v-30.4h12.3c7.8,0,12.2,3.8,12.2,10.4
		c0,4.9-2.3,8.3-6.3,9.9l6.8,10.2h-5.8L1445.9,605.3z M1444.6,600.7c4.7,0,7.4-2,7.4-6.1c0-4-2.7-5.9-7.4-5.9h-7.2v12H1444.6z"/>
	<path id="XMLID_449_" class="st0" d="M1506.9,614.5l0-22.7l-9.6,19.5h-3.3l-9.6-19.5v22.7h-4.8v-30.4h6.1l10,20.2l10-20.2h6v30.4
		H1506.9z"/>
	<path id="XMLID_447_" class="st0" d="M1540.6,588.7v8.2h14.9v4.6h-14.9v8.4h17.1v4.6h-22.2v-30.4h21.7v4.6H1540.6z"/>
	<path id="XMLID_445_" class="st0" d="M1600.5,587l-2.1,4.5c-3.3-2-6.6-2.8-8.9-2.8c-3,0-5,1.1-5,3.2c0,6.6,16.4,3.1,16.4,14
		c0,5.4-4.8,8.8-11.5,8.8c-4.8,0-9.3-2-12.4-4.8l2.2-4.4c3.1,2.9,7,4.4,10.3,4.4c3.6,0,5.7-1.3,5.7-3.7c0-6.8-16.4-3-16.4-13.8
		c0-5.2,4.5-8.5,11.1-8.5C1593.8,583.9,1597.7,585.1,1600.5,587z"/>
	<path id="XMLID_442_" class="st0" d="M1626.8,607.6l-2.9,6.9h-5.3l13.4-30.4h5.3l13.3,30.4h-5.5l-2.9-6.9H1626.8z M1634.4,589.5
		l-5.7,13.5h11.5L1634.4,589.5z"/>
	<path id="XMLID_440_" class="st0" d="M1691.7,614.5l-16.2-21.8v21.8h-5.1v-30.4h5l16.3,21.8v-21.8h5v30.4H1691.7z"/>
</g>
<g id="XMLID_390_">
	<path id="XMLID_436_" class="st0" d="M67.5,676.3l-1.7,4.1h-3.2l8.1-18.2h3.2l8,18.2h-3.3l-1.7-4.1H67.5z M72,665.4l-3.4,8.1h6.9
		L72,665.4z"/>
	<path id="XMLID_434_" class="st0" d="M104.6,677.6v2.8h-11v-18.2h3.1v15.5H104.6z"/>
	<path id="XMLID_432_" class="st0" d="M128,677.6v2.8h-11v-18.2h3.1v15.5H128z"/>
	<path id="XMLID_430_" class="st0" d="M143.6,664.9v4.9h8.9v2.8h-8.9v5h10.3v2.8h-13.3v-18.2h13v2.8H143.6z"/>
	<path id="XMLID_427_" class="st0" d="M175.3,674.9c-0.3,0-0.5,0-0.8,0h-4.3v5.5h-3.1v-18.2h7.4c4.7,0,7.3,2.3,7.3,6.2
		c0,2.9-1.4,5-3.8,5.9l4.1,6.1h-3.5L175.3,674.9z M174.5,672.1c2.8,0,4.4-1.2,4.4-3.7c0-2.4-1.6-3.5-4.4-3.5h-4.3v7.2H174.5z"/>
	<path id="XMLID_425_" class="st0" d="M210.6,671.4v6.7c-1.9,1.4-4.6,2.4-7.1,2.4c-5.4,0-9.6-4-9.6-9.3s4.2-9.2,9.8-9.2
		c2.6,0,5.2,1,7,2.6l-1.7,2.3c-1.4-1.3-3.4-2.1-5.3-2.1c-3.7,0-6.6,2.8-6.6,6.5c0,3.6,2.9,6.5,6.7,6.5c1.4,0,2.9-0.5,4.2-1.3v-5.1
		H210.6z"/>
	<path id="XMLID_423_" class="st0" d="M227.5,664.9v4.9h8.9v2.8h-8.9v5h10.3v2.8h-13.3v-18.2h13v2.8H227.5z"/>
	<path id="XMLID_421_" class="st0" d="M263.9,680.4l-9.7-13.1v13.1h-3.1v-18.2h3l9.8,13.1v-13.1h3v18.2H263.9z"/>
	<path id="XMLID_419_" class="st0" d="M284.3,664.9v4.9h8.9v2.8h-8.9v5h10.3v2.8h-13.3v-18.2h13v2.8H284.3z"/>
	<path id="XMLID_416_" class="st0" d="M316.1,674.9c-0.3,0-0.5,0-0.8,0h-4.3v5.5h-3.1v-18.2h7.4c4.7,0,7.3,2.3,7.3,6.2
		c0,2.9-1.4,5-3.8,5.9l4.1,6.1h-3.5L316.1,674.9z M315.2,672.1c2.8,0,4.4-1.2,4.4-3.7c0-2.4-1.6-3.5-4.4-3.5h-4.3v7.2H315.2z"/>
	<path id="XMLID_413_" class="st0" d="M338.3,671.2c0,1-0.7,1.7-1.6,1.7c-0.9,0-1.6-0.7-1.6-1.7c0-1,0.7-1.7,1.6-1.7
		C337.6,669.5,338.3,670.2,338.3,671.2z M338.3,678.9c0,1-0.7,1.7-1.6,1.7c-0.9,0-1.6-0.7-1.6-1.7c0-1,0.7-1.7,1.6-1.7
		C337.6,677.2,338.3,677.9,338.3,678.9z"/>
	<path id="XMLID_411_" class="st0" d="M383.9,680.4l0-13.6l-5.8,11.7h-2l-5.8-11.7v13.6h-2.9v-18.2h3.6l6,12.1l6-12.1h3.6v18.2
		H383.9z"/>
	<path id="XMLID_409_" class="st0" d="M404.1,664.9v4.9h8.9v2.8h-8.9v5h10.3v2.8h-13.3v-18.2h13v2.8H404.1z"/>
	<path id="XMLID_407_" class="st0" d="M438.6,677.6v2.8h-11v-18.2h3.1v15.5H438.6z"/>
	<path id="XMLID_405_" class="st0" d="M457.3,672.4l-3.1,3.4v4.6h-3.1v-18.2h3.1v9.4l8.7-9.4h3.6l-7.1,7.8l7.5,10.4h-3.7
		L457.3,672.4z"/>
	<path id="XMLID_403_" class="st0" d="M481.4,678.9c0,0.5-0.2,1-0.5,1.4l-1.5,2.2h-1.5l1-2.3c-0.5-0.3-0.7-0.8-0.7-1.4
		c0-1,0.7-1.7,1.6-1.7C480.6,677.3,481.4,677.9,481.4,678.9z"/>
	<path id="XMLID_401_" class="st0" d="M525.8,671.4v6.7c-1.8,1.4-4.6,2.4-7.1,2.4c-5.4,0-9.6-4-9.6-9.3s4.2-9.2,9.8-9.2
		c2.6,0,5.2,1,7,2.6l-1.7,2.3c-1.4-1.3-3.4-2.1-5.3-2.1c-3.7,0-6.6,2.8-6.6,6.5c0,3.6,2.9,6.5,6.7,6.5c1.4,0,2.9-0.5,4.2-1.3v-5.1
		H525.8z"/>
	<path id="XMLID_399_" class="st0" d="M550.6,677.6v2.8h-11v-18.2h3.1v15.5H550.6z"/>
	<path id="XMLID_397_" class="st0" d="M578.6,672.8c0,4.8-3,7.7-7.9,7.7c-4.9,0-7.9-2.9-7.9-7.7v-10.7h3.1v10.7
		c0,3.1,1.9,4.9,4.9,4.9c3,0,4.8-1.8,4.8-4.9v-10.7h3.1V672.8z"/>
	<path id="XMLID_395_" class="st0" d="M599.2,664.9v15.5h-3.1v-15.5h-5.8v-2.8H605v2.8H599.2z"/>
	<path id="XMLID_393_" class="st0" d="M620.2,664.9v4.9h8.9v2.8h-8.9v5h10.3v2.8h-13.3v-18.2h13v2.8H620.2z"/>
	<path id="XMLID_391_" class="st0" d="M656.5,680.4l-9.7-13.1v13.1h-3.1v-18.2h3l9.8,13.1v-13.1h3v18.2H656.5z"/>
</g>
<g id="XMLID_378_">
	<path id="XMLID_388_" class="st0" d="M103.9,782.7l-4.3,9c-6.6-4-13.2-5.6-17.8-5.6c-6,0-9.9,2.3-9.9,6.3
		c0,13.3,32.8,6.2,32.7,28.1c0,10.9-9.6,17.5-22.9,17.5c-9.6,0-18.6-3.9-24.8-9.6l4.4-8.9c6.3,5.7,14.1,8.9,20.6,8.9
		c7.1,0,11.4-2.7,11.4-7.4c0-13.6-32.8-6-32.8-27.6c0-10.4,8.9-16.9,22.2-16.9C90.5,776.4,98.3,778.9,103.9,782.7z"/>
	<path id="XMLID_385_" class="st0" d="M207.8,807.3c0,17.4-14.1,30.8-32.2,30.8c-18.2,0-32.2-13.5-32.2-30.8
		c0-17.5,14.1-30.7,32.2-30.7C193.7,776.6,207.8,789.9,207.8,807.3z M153.8,807.3c0,12.1,10,21.6,21.9,21.6
		c11.9,0,21.6-9.6,21.6-21.6c0-12.1-9.7-21.5-21.6-21.5C163.7,785.8,153.8,795.2,153.8,807.3z"/>
	<path id="XMLID_382_" class="st0" d="M274.7,776.9c15.3,0,24.1,7.6,24.1,20.8c0,13.7-8.8,21.7-24.1,21.7h-14v18.3h-10.3v-60.8
		H274.7z M260.7,810.1h13.6c9.4,0,14.7-4,14.7-12.2c0-8-5.3-11.8-14.7-11.8h-13.6V810.1z"/>
	<path id="XMLID_379_" class="st0" d="M364.9,776.9c15.3,0,24.1,7.6,24.1,20.8c0,13.7-8.8,21.7-24.1,21.7h-14v18.3h-10.3v-60.8
		H364.9z M350.9,810.1h13.6c9.4,0,14.7-4,14.7-12.2c0-8-5.3-11.8-14.7-11.8h-13.6V810.1z"/>
</g>
<g id="XMLID_276_">
	<path id="XMLID_376_" class="st0" d="M91.8,898.4v11.2c-3.1,2.3-7.6,4-11.8,4c-9,0-16-6.7-16-15.4c0-8.7,7.1-15.3,16.3-15.3
		c4.3,0,8.7,1.7,11.7,4.3l-2.9,3.8c-2.3-2.2-5.6-3.5-8.8-3.5c-6.2,0-11.1,4.7-11.1,10.8c0,6.1,4.9,10.8,11.1,10.8
		c2.3,0,4.8-0.8,7-2.1v-8.5H91.8z"/>
	<path id="XMLID_373_" class="st0" d="M128.6,904.1c-0.4,0-0.9,0-1.4,0H120v9.2h-5.1v-30.4h12.3c7.8,0,12.2,3.8,12.2,10.4
		c0,4.9-2.3,8.3-6.3,9.9l6.8,10.2h-5.8L128.6,904.1z M127.2,899.5c4.7,0,7.4-2,7.4-6.1c0-4-2.7-5.9-7.4-5.9H120v12H127.2z"/>
	<path id="XMLID_371_" class="st0" d="M162.1,913.3v-30.4h5.1v30.4H162.1z"/>
	<path id="XMLID_369_" class="st0" d="M209.4,908.7v4.6h-18.3v-30.4h5.1v25.8H209.4z"/>
	<path id="XMLID_367_" class="st0" d="M248.4,908.7v4.6h-18.3v-30.4h5.1v25.8H248.4z"/>
	<path id="XMLID_365_" class="st0" d="M274.3,887.5v8.2h14.9v4.6h-14.9v8.4h17.1v4.6h-22.2v-30.4h21.7v4.6H274.3z"/>
	<path id="XMLID_363_" class="st0" d="M324.6,887.5v25.8h-5.1v-25.8h-9.6v-4.6h24.4v4.6H324.6z"/>
	<path id="XMLID_361_" class="st0" d="M402.2,885.8l-2.1,4.5c-3.3-2-6.6-2.8-8.9-2.8c-3,0-5,1.1-5,3.2c0,6.6,16.4,3.1,16.4,14
		c0,5.4-4.8,8.8-11.5,8.8c-4.8,0-9.3-2-12.4-4.8l2.2-4.4c3.1,2.9,7,4.4,10.3,4.4c3.6,0,5.7-1.3,5.7-3.7c0-6.8-16.4-3-16.4-13.8
		c0-5.2,4.5-8.5,11.1-8.5C395.5,882.7,399.4,884,402.2,885.8z"/>
	<path id="XMLID_359_" class="st0" d="M450.3,900.7c0,7.9-5,12.8-13.2,12.8s-13.2-4.9-13.2-12.8v-17.8h5.1v17.8
		c0,5.1,3.2,8.2,8.2,8.2c5,0,8-3,8-8.2v-17.8h5.1V900.7z"/>
	<path id="XMLID_356_" class="st0" d="M487.2,904.1c-0.4,0-0.9,0-1.4,0h-7.2v9.2h-5.1v-30.4h12.3c7.8,0,12.2,3.8,12.2,10.4
		c0,4.9-2.3,8.3-6.3,9.9l6.8,10.2h-5.8L487.2,904.1z M485.8,899.5c4.7,0,7.4-2,7.4-6.1c0-4-2.7-5.9-7.4-5.9h-7.2v12H485.8z"/>
	<path id="XMLID_353_" class="st0" d="M533.2,882.9c9.1,0,15.7,6.4,15.7,15.2c0,8.8-6.6,15.2-15.9,15.2h-12.3v-30.4H533.2z
		 M525.9,908.7h7.5c5.9,0,10.4-4.4,10.4-10.6c0-6.2-4.6-10.6-10.6-10.6h-7.3V908.7z"/>
	<path id="XMLID_351_" class="st0" d="M575.4,887.5v8.2h14.9v4.6h-14.9v8.4h17.1v4.6h-22.2v-30.4H592v4.6H575.4z"/>
	<path id="XMLID_349_" class="st0" d="M614.6,913.3v-30.4h5.1v30.4H614.6z"/>
	<path id="XMLID_347_" class="st0" d="M668.8,898.4v11.2c-3.1,2.3-7.6,4-11.8,4c-9,0-16-6.7-16-15.4c0-8.7,7.1-15.3,16.3-15.3
		c4.3,0,8.7,1.7,11.7,4.3l-2.9,3.8c-2.3-2.2-5.6-3.5-8.8-3.5c-6.2,0-11.1,4.7-11.1,10.8c0,6.1,4.9,10.8,11.1,10.8
		c2.3,0,4.8-0.8,7-2.1v-8.5H668.8z"/>
	<path id="XMLID_345_" class="st0" d="M712.6,885.8l-2.1,4.5c-3.3-2-6.6-2.8-8.9-2.8c-3,0-5,1.1-5,3.2c0,6.6,16.4,3.1,16.4,14
		c0,5.4-4.8,8.8-11.5,8.8c-4.8,0-9.3-2-12.4-4.8l2.2-4.4c3.1,2.9,7,4.4,10.3,4.4c3.6,0,5.7-1.3,5.7-3.7c0-6.8-16.4-3-16.4-13.8
		c0-5.2,4.5-8.5,11.1-8.5C705.9,882.7,709.7,884,712.6,885.8z"/>
	<path id="XMLID_341_" class="st0" d="M748,882.9c6.3,0,10.2,2.9,10.2,7.6c0,3.4-2,6-5.3,6.8c4.1,0.7,6.5,3.6,6.5,7.7
		c0,5.2-4.2,8.3-11.1,8.3h-13.5v-30.4H748z M739.9,895.5h7.8c3.3,0,5.2-1.5,5.2-4.1c0-2.6-2-4-5.2-4h-7.8V895.5z M739.9,908.8h7.8
		c4,0,6.4-1.6,6.4-4.4c0-2.7-2.4-4.3-6.4-4.3h-7.8V908.8z"/>
	<path id="XMLID_338_" class="st0" d="M795,904.1c-0.4,0-0.9,0-1.4,0h-7.2v9.2h-5.1v-30.4h12.3c7.8,0,12.2,3.8,12.2,10.4
		c0,4.9-2.3,8.3-6.3,9.9l6.8,10.2h-5.8L795,904.1z M793.7,899.5c4.7,0,7.4-2,7.4-6.1c0-4-2.7-5.9-7.4-5.9h-7.2v12H793.7z"/>
	<path id="XMLID_334_" class="st0" d="M847.9,883.7c6.1,2.1,10.3,7.6,10.3,14.4c0,8.7-7,15.4-16.1,15.4c-1.4,0-2.9-0.2-4.2-0.5
		l-1.9,5.6h-3l2.2-6.5c-5.5-2.4-9.3-7.7-9.3-14c0-8.7,7-15.3,16.1-15.3c1,0,2,0.1,3,0.3l1.7-5h3L847.9,883.7z M836.8,907.5l6.8-20.1
		c-0.5,0-1-0.1-1.4-0.1c-6,0-10.9,4.7-10.9,10.7C831.3,902.2,833.5,905.7,836.8,907.5z M853,898.1c0-4.5-2.7-8.3-6.6-9.9l-6.9,20.4
		c0.9,0.2,1.8,0.3,2.7,0.3C848.2,908.9,853,904.2,853,898.1z"/>
	<path id="XMLID_331_" class="st0" d="M892.1,882.9c9.1,0,15.7,6.4,15.7,15.2c0,8.8-6.6,15.2-15.9,15.2h-12.3v-30.4H892.1z
		 M884.7,908.7h7.5c5.9,0,10.4-4.4,10.4-10.6c0-6.2-4.6-10.6-10.6-10.6h-7.3V908.7z"/>
	<path id="XMLID_329_" class="st0" d="M983.6,913.3l0-22.7l-9.6,19.5h-3.3l-9.6-19.5v22.7h-4.8v-30.4h6.1l10,20.2l10-20.2h6v30.4
		H983.6z"/>
	<path id="XMLID_327_" class="st0" d="M1017.3,887.5v8.2h14.9v4.6h-14.9v8.4h17.1v4.6h-22.2v-30.4h21.7v4.6H1017.3z"/>
	<path id="XMLID_324_" class="st0" d="M1069,882.9c9.1,0,15.7,6.4,15.7,15.2c0,8.8-6.6,15.2-15.9,15.2h-12.3v-30.4H1069z
		 M1061.7,908.7h7.5c5.9,0,10.4-4.4,10.4-10.6c0-6.2-4.6-10.6-10.6-10.6h-7.3V908.7z"/>
	<path id="XMLID_322_" class="st0" d="M87.1,937.9l-2.1,4.5c-3.3-2-6.6-2.8-8.9-2.8c-3,0-5,1.1-5,3.2c0,6.6,16.4,3.1,16.4,14
		c0,5.4-4.8,8.8-11.5,8.8c-4.8,0-9.3-2-12.4-4.8l2.2-4.4c3.1,2.9,7,4.4,10.3,4.4c3.6,0,5.7-1.3,5.7-3.7c0-6.8-16.4-3-16.4-13.8
		c0-5.2,4.5-8.5,11.1-8.5C80.4,934.8,84.3,936.1,87.1,937.9z"/>
	<path id="XMLID_319_" class="st0" d="M139.1,950.2c0,8.7-7,15.4-16.1,15.4c-9.1,0-16.1-6.7-16.1-15.4c0-8.7,7-15.3,16.1-15.3
		C132,934.9,139.1,941.5,139.1,950.2z M112,950.2c0,6,5,10.8,10.9,10.8c5.9,0,10.8-4.8,10.8-10.8c0-6-4.9-10.7-10.8-10.7
		C117,939.5,112,944.2,112,950.2z"/>
	<path id="XMLID_316_" class="st0" d="M172.5,935c7.6,0,12,3.8,12,10.4c0,6.9-4.4,10.9-12,10.9h-7v9.2h-5.1V935H172.5z M165.5,951.7
		h6.8c4.7,0,7.3-2,7.3-6.1c0-4-2.6-5.9-7.3-5.9h-6.8V951.7z"/>
	<path id="XMLID_313_" class="st0" d="M217.6,935c7.6,0,12,3.8,12,10.4c0,6.9-4.4,10.9-12,10.9h-7v9.2h-5.1V935H217.6z M210.6,951.7
		h6.8c4.7,0,7.3-2,7.3-6.1c0-4-2.6-5.9-7.3-5.9h-6.8V951.7z"/>
	<path id="XMLID_311_" class="st0" d="M271.2,937.9l-2.1,4.5c-3.3-2-6.6-2.8-8.9-2.8c-3,0-5,1.1-5,3.2c0,6.6,16.4,3.1,16.4,14
		c0,5.4-4.8,8.8-11.5,8.8c-4.8,0-9.3-2-12.4-4.8l2.2-4.4c3.1,2.9,7,4.4,10.3,4.4c3.6,0,5.7-1.3,5.7-3.7c0-6.8-16.4-3-16.4-13.8
		c0-5.2,4.5-8.5,11.1-8.5C264.5,934.8,268.3,936.1,271.2,937.9z"/>
	<path id="XMLID_309_" class="st0" d="M304.5,939.6v25.8h-5.1v-25.8h-9.6V935h24.4v4.6H304.5z"/>
	<path id="XMLID_307_" class="st0" d="M360.2,952.8c0,7.9-5,12.8-13.2,12.8s-13.2-4.9-13.2-12.8V935h5.1v17.8c0,5.1,3.2,8.2,8.2,8.2
		c5,0,8-3,8-8.2V935h5.1V952.8z"/>
	<path id="XMLID_305_" class="st0" d="M383.4,965.4V935h5.1v30.4H383.4z"/>
	<path id="XMLID_303_" class="st0" d="M433.7,965.4l-16.2-21.8v21.8h-5.1V935h5l16.3,21.8V935h5v30.4H433.7z"/>
	<path id="XMLID_301_" class="st0" d="M487.9,950.5v11.2c-3.1,2.3-7.6,4-11.8,4c-9,0-16-6.7-16-15.4c0-8.7,7.1-15.3,16.3-15.3
		c4.3,0,8.7,1.7,11.7,4.3l-2.9,3.8c-2.3-2.2-5.6-3.5-8.8-3.5c-6.2,0-11.1,4.7-11.1,10.8c0,6.1,4.9,10.8,11.1,10.8
		c2.3,0,4.8-0.8,7-2.1v-8.5H487.9z"/>
	<path id="XMLID_298_" class="st0" d="M567.8,950.2c0,8.7-7,15.4-16.1,15.4c-9.1,0-16.1-6.7-16.1-15.4c0-8.7,7-15.3,16.1-15.3
		C560.8,934.9,567.8,941.5,567.8,950.2z M540.8,950.2c0,6,5,10.8,10.9,10.8c5.9,0,10.8-4.8,10.8-10.8c0-6-4.9-10.7-10.8-10.7
		C545.7,939.5,540.8,944.2,540.8,950.2z"/>
	<path id="XMLID_296_" class="st0" d="M613.2,950.5v11.2c-3.1,2.3-7.6,4-11.8,4c-9,0-16-6.7-16-15.4c0-8.7,7.1-15.3,16.3-15.3
		c4.3,0,8.7,1.7,11.7,4.3l-2.9,3.8c-2.3-2.2-5.6-3.5-8.8-3.5c-6.2,0-11.1,4.7-11.1,10.8c0,6.1,4.9,10.8,11.1,10.8
		c2.3,0,4.8-0.8,7-2.1v-8.5H613.2z"/>
	<path id="XMLID_294_" class="st0" d="M684.7,965.4l-16.2-21.8v21.8h-5.1V935h5l16.3,21.8V935h5v30.4H684.7z"/>
	<path id="XMLID_291_" class="st0" d="M743.3,950.2c0,8.7-7,15.4-16.1,15.4c-9.1,0-16.1-6.7-16.1-15.4c0-8.7,7-15.3,16.1-15.3
		C736.3,934.9,743.3,941.5,743.3,950.2z M716.3,950.2c0,6,5,10.8,10.9,10.8s10.8-4.8,10.8-10.8c0-6-4.9-10.7-10.8-10.7
		C721.3,939.5,716.3,944.2,716.3,950.2z"/>
	<path id="XMLID_288_" class="st0" d="M778.4,956.2c-0.4,0-0.9,0-1.4,0h-7.2v9.2h-5.1V935H777c7.8,0,12.2,3.8,12.2,10.4
		c0,4.9-2.3,8.3-6.3,9.9l6.8,10.2h-5.8L778.4,956.2z M777,951.7c4.7,0,7.4-2,7.4-6.1c0-4-2.7-5.9-7.4-5.9h-7.2v12H777z"/>
	<path id="XMLID_286_" class="st0" d="M819.8,965.4L807.7,935h5.5l9.4,24.7L832,935h5.3l-12.3,30.4H819.8z"/>
	<path id="XMLID_284_" class="st0" d="M862.5,939.6v8.2h14.9v4.6h-14.9v8.4h17.1v4.6h-22.2V935h21.7v4.6H862.5z"/>
	<path id="XMLID_282_" class="st0" d="M927,950.5v11.2c-3.1,2.3-7.6,4-11.8,4c-9,0-16-6.7-16-15.4c0-8.7,7.1-15.3,16.3-15.3
		c4.3,0,8.7,1.7,11.7,4.3l-2.9,3.8c-2.3-2.2-5.6-3.5-8.8-3.5c-6.2,0-11.1,4.7-11.1,10.8c0,6.1,4.9,10.8,11.1,10.8
		c2.3,0,4.8-0.8,7-2.1v-8.5H927z"/>
	<path id="XMLID_280_" class="st0" d="M950.1,965.4V935h5.1v30.4H950.1z"/>
	<path id="XMLID_277_" class="st0" d="M983.4,958.6l-2.9,6.9h-5.3l13.4-30.4h5.3l13.3,30.4h-5.5l-2.9-6.9H983.4z M991,940.5
		l-5.7,13.5h11.5L991,940.5z"/>
</g>
<g id="XMLID_227_">
	<path id="XMLID_273_" class="st0" d="M67.5,1023.8l-1.7,4.1h-3.2l8.1-18.2h3.2l8,18.2h-3.3l-1.7-4.1H67.5z M72,1012.9l-3.4,8.1h6.9
		L72,1012.9z"/>
	<path id="XMLID_271_" class="st0" d="M104.6,1025.1v2.8h-11v-18.2h3.1v15.5H104.6z"/>
	<path id="XMLID_269_" class="st0" d="M128,1025.1v2.8h-11v-18.2h3.1v15.5H128z"/>
	<path id="XMLID_267_" class="st0" d="M143.6,1012.4v4.9h8.9v2.8h-8.9v5h10.3v2.8h-13.3v-18.2h13v2.8H143.6z"/>
	<path id="XMLID_264_" class="st0" d="M175.3,1022.4c-0.3,0-0.5,0-0.8,0h-4.3v5.5h-3.1v-18.2h7.4c4.7,0,7.3,2.3,7.3,6.2
		c0,2.9-1.4,5-3.8,5.9l4.1,6.1h-3.5L175.3,1022.4z M174.5,1019.6c2.8,0,4.4-1.2,4.4-3.7c0-2.4-1.6-3.5-4.4-3.5h-4.3v7.2H174.5z"/>
	<path id="XMLID_262_" class="st0" d="M210.6,1018.9v6.7c-1.9,1.4-4.6,2.4-7.1,2.4c-5.4,0-9.6-4-9.6-9.3c0-5.2,4.2-9.2,9.8-9.2
		c2.6,0,5.2,1,7,2.6l-1.7,2.3c-1.4-1.3-3.4-2.1-5.3-2.1c-3.7,0-6.6,2.8-6.6,6.5c0,3.6,2.9,6.5,6.7,6.5c1.4,0,2.9-0.5,4.2-1.3v-5.1
		H210.6z"/>
	<path id="XMLID_260_" class="st0" d="M227.5,1012.4v4.9h8.9v2.8h-8.9v5h10.3v2.8h-13.3v-18.2h13v2.8H227.5z"/>
	<path id="XMLID_258_" class="st0" d="M263.9,1027.9l-9.7-13.1v13.1h-3.1v-18.2h3l9.8,13.1v-13.1h3v18.2H263.9z"/>
	<path id="XMLID_256_" class="st0" d="M284.3,1012.4v4.9h8.9v2.8h-8.9v5h10.3v2.8h-13.3v-18.2h13v2.8H284.3z"/>
	<path id="XMLID_253_" class="st0" d="M316.1,1022.4c-0.3,0-0.5,0-0.8,0h-4.3v5.5h-3.1v-18.2h7.4c4.7,0,7.3,2.3,7.3,6.2
		c0,2.9-1.4,5-3.8,5.9l4.1,6.1h-3.5L316.1,1022.4z M315.2,1019.6c2.8,0,4.4-1.2,4.4-3.7c0-2.4-1.6-3.5-4.4-3.5h-4.3v7.2H315.2z"/>
	<path id="XMLID_250_" class="st0" d="M338.3,1018.6c0,1-0.7,1.7-1.6,1.7c-0.9,0-1.6-0.7-1.6-1.7c0-1,0.7-1.7,1.6-1.7
		C337.6,1016.9,338.3,1017.6,338.3,1018.6z M338.3,1026.4c0,1-0.7,1.7-1.6,1.7c-0.9,0-1.6-0.7-1.6-1.7c0-1,0.7-1.7,1.6-1.7
		C337.6,1024.7,338.3,1025.4,338.3,1026.4z"/>
	<path id="XMLID_248_" class="st0" d="M383.9,1027.9l0-13.6l-5.8,11.7h-2l-5.8-11.7v13.6h-2.9v-18.2h3.6l6,12.1l6-12.1h3.6v18.2
		H383.9z"/>
	<path id="XMLID_246_" class="st0" d="M404.1,1012.4v4.9h8.9v2.8h-8.9v5h10.3v2.8h-13.3v-18.2h13v2.8H404.1z"/>
	<path id="XMLID_244_" class="st0" d="M438.6,1025.1v2.8h-11v-18.2h3.1v15.5H438.6z"/>
	<path id="XMLID_242_" class="st0" d="M457.3,1019.8l-3.1,3.4v4.6h-3.1v-18.2h3.1v9.4l8.7-9.4h3.6l-7.1,7.8l7.5,10.4h-3.7
		L457.3,1019.8z"/>
	<path id="XMLID_240_" class="st0" d="M481.4,1026.4c0,0.5-0.2,1-0.5,1.4l-1.5,2.2h-1.5l1-2.3c-0.5-0.3-0.7-0.8-0.7-1.4
		c0-1,0.7-1.7,1.6-1.7C480.6,1024.7,481.4,1025.4,481.4,1026.4z"/>
	<path id="XMLID_238_" class="st0" d="M525.8,1018.9v6.7c-1.8,1.4-4.6,2.4-7.1,2.4c-5.4,0-9.6-4-9.6-9.3c0-5.2,4.2-9.2,9.8-9.2
		c2.6,0,5.2,1,7,2.6l-1.7,2.3c-1.4-1.3-3.4-2.1-5.3-2.1c-3.7,0-6.6,2.8-6.6,6.5c0,3.6,2.9,6.5,6.7,6.5c1.4,0,2.9-0.5,4.2-1.3v-5.1
		H525.8z"/>
	<path id="XMLID_236_" class="st0" d="M550.6,1025.1v2.8h-11v-18.2h3.1v15.5H550.6z"/>
	<path id="XMLID_234_" class="st0" d="M578.6,1020.3c0,4.8-3,7.7-7.9,7.7c-4.9,0-7.9-2.9-7.9-7.7v-10.7h3.1v10.7
		c0,3.1,1.9,4.9,4.9,4.9c3,0,4.8-1.8,4.8-4.9v-10.7h3.1V1020.3z"/>
	<path id="XMLID_232_" class="st0" d="M599.2,1012.4v15.5h-3.1v-15.5h-5.8v-2.8H605v2.8H599.2z"/>
	<path id="XMLID_230_" class="st0" d="M620.2,1012.4v4.9h8.9v2.8h-8.9v5h10.3v2.8h-13.3v-18.2h13v2.8H620.2z"/>
	<path id="XMLID_228_" class="st0" d="M656.5,1027.9l-9.7-13.1v13.1h-3.1v-18.2h3l9.8,13.1v-13.1h3v18.2H656.5z"/>
</g>
<g id="XMLID_213_">
	<path id="XMLID_225_" class="st0" d="M84.9,1136.8v51.6H74.6v-51.6H55.4v-9.2h48.7v9.2H84.9z"/>
	<path id="XMLID_223_" class="st0" d="M144.7,1188.4v-60.8h10.3v60.8H144.7z"/>
	<path id="XMLID_220_" class="st0" d="M227.5,1127.6c18.2,0,31.4,12.8,31.4,30.4c0,17.5-13.3,30.4-31.7,30.4h-24.7v-60.8H227.5z
		 M212.8,1179.2h14.9c11.8,0,20.8-8.8,20.8-21.1c0-12.4-9.3-21.3-21.3-21.3h-14.5V1179.2z"/>
	<path id="XMLID_218_" class="st0" d="M338.2,1179.1v9.3h-36.6v-60.8h10.3v51.5H338.2z"/>
	<path id="XMLID_216_" class="st0" d="M379.7,1188.4v-60.8H390v60.8H379.7z"/>
	<path id="XMLID_214_" class="st0" d="M488.2,1158.5v22.4c-6.2,4.7-15.3,7.9-23.6,7.9c-18,0-32-13.5-32-30.8
		c0-17.4,14.2-30.7,32.6-30.7c8.7,0,17.4,3.3,23.4,8.5l-5.8,7.6c-4.7-4.3-11.2-7-17.5-7c-12.4,0-22.2,9.5-22.2,21.5
		c0,12.2,9.8,21.6,22.2,21.6c4.5,0,9.6-1.6,14-4.2v-16.9H488.2z"/>
</g>
<g id="XMLID_108_">
	<path id="XMLID_211_" class="st0" d="M91.8,1249.1v11.2c-3.1,2.3-7.6,4-11.8,4c-9,0-16-6.7-16-15.4c0-8.7,7.1-15.3,16.3-15.3
		c4.3,0,8.7,1.7,11.7,4.3l-2.9,3.8c-2.3-2.2-5.6-3.5-8.8-3.5c-6.2,0-11.1,4.7-11.1,10.8c0,6.1,4.9,10.8,11.1,10.8
		c2.3,0,4.8-0.8,7-2.1v-8.5H91.8z"/>
	<path id="XMLID_208_" class="st0" d="M128.6,1254.8c-0.4,0-0.9,0-1.4,0H120v9.2h-5.1v-30.4h12.3c7.8,0,12.2,3.8,12.2,10.4
		c0,4.9-2.3,8.3-6.3,9.9l6.8,10.2h-5.8L128.6,1254.8z M127.2,1250.3c4.7,0,7.4-2,7.4-6.1c0-4-2.7-5.9-7.4-5.9H120v12H127.2z"/>
	<path id="XMLID_206_" class="st0" d="M162.1,1264v-30.4h5.1v30.4H162.1z"/>
	<path id="XMLID_204_" class="st0" d="M209.4,1259.4v4.6h-18.3v-30.4h5.1v25.8H209.4z"/>
	<path id="XMLID_202_" class="st0" d="M248.4,1259.4v4.6h-18.3v-30.4h5.1v25.8H248.4z"/>
	<path id="XMLID_200_" class="st0" d="M274.3,1238.2v8.2h14.9v4.6h-14.9v8.4h17.1v4.6h-22.2v-30.4h21.7v4.6H274.3z"/>
	<path id="XMLID_198_" class="st0" d="M324.6,1238.2v25.8h-5.1v-25.8h-9.6v-4.6h24.4v4.6H324.6z"/>
	<path id="XMLID_196_" class="st0" d="M402.2,1236.5l-2.1,4.5c-3.3-2-6.6-2.8-8.9-2.8c-3,0-5,1.1-5,3.2c0,6.6,16.4,3.1,16.4,14
		c0,5.4-4.8,8.8-11.5,8.8c-4.8,0-9.3-2-12.4-4.8l2.2-4.4c3.1,2.9,7,4.4,10.3,4.4c3.6,0,5.7-1.3,5.7-3.7c0-6.8-16.4-3-16.4-13.8
		c0-5.2,4.5-8.5,11.1-8.5C395.5,1233.4,399.4,1234.7,402.2,1236.5z"/>
	<path id="XMLID_194_" class="st0" d="M450.3,1251.4c0,7.9-5,12.8-13.2,12.8s-13.2-4.9-13.2-12.8v-17.8h5.1v17.8
		c0,5.1,3.2,8.2,8.2,8.2c5,0,8-3,8-8.2v-17.8h5.1V1251.4z"/>
	<path id="XMLID_191_" class="st0" d="M487.2,1254.8c-0.4,0-0.9,0-1.4,0h-7.2v9.2h-5.1v-30.4h12.3c7.8,0,12.2,3.8,12.2,10.4
		c0,4.9-2.3,8.3-6.3,9.9l6.8,10.2h-5.8L487.2,1254.8z M485.8,1250.3c4.7,0,7.4-2,7.4-6.1c0-4-2.7-5.9-7.4-5.9h-7.2v12H485.8z"/>
	<path id="XMLID_188_" class="st0" d="M533.2,1233.6c9.1,0,15.7,6.4,15.7,15.2c0,8.8-6.6,15.2-15.9,15.2h-12.3v-30.4H533.2z
		 M525.9,1259.4h7.5c5.9,0,10.4-4.4,10.4-10.6c0-6.2-4.6-10.6-10.6-10.6h-7.3V1259.4z"/>
	<path id="XMLID_186_" class="st0" d="M575.4,1238.2v8.2h14.9v4.6h-14.9v8.4h17.1v4.6h-22.2v-30.4H592v4.6H575.4z"/>
	<path id="XMLID_184_" class="st0" d="M614.6,1264v-30.4h5.1v30.4H614.6z"/>
	<path id="XMLID_182_" class="st0" d="M668.8,1249.1v11.2c-3.1,2.3-7.6,4-11.8,4c-9,0-16-6.7-16-15.4c0-8.7,7.1-15.3,16.3-15.3
		c4.3,0,8.7,1.7,11.7,4.3l-2.9,3.8c-2.3-2.2-5.6-3.5-8.8-3.5c-6.2,0-11.1,4.7-11.1,10.8c0,6.1,4.9,10.8,11.1,10.8
		c2.3,0,4.8-0.8,7-2.1v-8.5H668.8z"/>
	<path id="XMLID_180_" class="st0" d="M712.6,1236.5l-2.1,4.5c-3.3-2-6.6-2.8-8.9-2.8c-3,0-5,1.1-5,3.2c0,6.6,16.4,3.1,16.4,14
		c0,5.4-4.8,8.8-11.5,8.8c-4.8,0-9.3-2-12.4-4.8l2.2-4.4c3.1,2.9,7,4.4,10.3,4.4c3.6,0,5.7-1.3,5.7-3.7c0-6.8-16.4-3-16.4-13.8
		c0-5.2,4.5-8.5,11.1-8.5C705.9,1233.4,709.7,1234.7,712.6,1236.5z"/>
	<path id="XMLID_176_" class="st0" d="M748,1233.6c6.3,0,10.2,2.9,10.2,7.6c0,3.4-2,6-5.3,6.8c4.1,0.7,6.5,3.6,6.5,7.7
		c0,5.2-4.2,8.3-11.1,8.3h-13.5v-30.4H748z M739.9,1246.2h7.8c3.3,0,5.2-1.5,5.2-4.1c0-2.6-2-4-5.2-4h-7.8V1246.2z M739.9,1259.5
		h7.8c4,0,6.4-1.6,6.4-4.4c0-2.7-2.4-4.3-6.4-4.3h-7.8V1259.5z"/>
	<path id="XMLID_173_" class="st0" d="M795,1254.8c-0.4,0-0.9,0-1.4,0h-7.2v9.2h-5.1v-30.4h12.3c7.8,0,12.2,3.8,12.2,10.4
		c0,4.9-2.3,8.3-6.3,9.9l6.8,10.2h-5.8L795,1254.8z M793.7,1250.3c4.7,0,7.4-2,7.4-6.1c0-4-2.7-5.9-7.4-5.9h-7.2v12H793.7z"/>
	<path id="XMLID_169_" class="st0" d="M847.9,1234.4c6.1,2.1,10.3,7.6,10.3,14.4c0,8.7-7,15.4-16.1,15.4c-1.4,0-2.9-0.2-4.2-0.5
		l-1.9,5.6h-3l2.2-6.5c-5.5-2.4-9.3-7.7-9.3-14c0-8.7,7-15.3,16.1-15.3c1,0,2,0.1,3,0.3l1.7-5h3L847.9,1234.4z M836.8,1258.2
		l6.8-20.1c-0.5,0-1-0.1-1.4-0.1c-6,0-10.9,4.7-10.9,10.7C831.3,1252.9,833.5,1256.4,836.8,1258.2z M853,1248.8
		c0-4.5-2.7-8.3-6.6-9.9l-6.9,20.4c0.9,0.2,1.8,0.3,2.7,0.3C848.2,1259.6,853,1254.9,853,1248.8z"/>
	<path id="XMLID_166_" class="st0" d="M892.1,1233.6c9.1,0,15.7,6.4,15.7,15.2c0,8.8-6.6,15.2-15.9,15.2h-12.3v-30.4H892.1z
		 M884.7,1259.4h7.5c5.9,0,10.4-4.4,10.4-10.6c0-6.2-4.6-10.6-10.6-10.6h-7.3V1259.4z"/>
	<path id="XMLID_164_" class="st0" d="M983.6,1264l0-22.7l-9.6,19.5h-3.3l-9.6-19.5v22.7h-4.8v-30.4h6.1l10,20.2l10-20.2h6v30.4
		H983.6z"/>
	<path id="XMLID_162_" class="st0" d="M1017.3,1238.2v8.2h14.9v4.6h-14.9v8.4h17.1v4.6h-22.2v-30.4h21.7v4.6H1017.3z"/>
	<path id="XMLID_159_" class="st0" d="M1069,1233.6c9.1,0,15.7,6.4,15.7,15.2c0,8.8-6.6,15.2-15.9,15.2h-12.3v-30.4H1069z
		 M1061.7,1259.4h7.5c5.9,0,10.4-4.4,10.4-10.6c0-6.2-4.6-10.6-10.6-10.6h-7.3V1259.4z"/>
	<path id="XMLID_157_" class="st0" d="M71.6,1290.3v8.2h14.9v4.6H71.6v8.4h17.1v4.6H66.5v-30.4h21.7v4.6H71.6z"/>
	<path id="XMLID_155_" class="st0" d="M136.1,1301.2v11.2c-3.1,2.3-7.6,4-11.8,4c-9,0-16-6.7-16-15.4s7.1-15.3,16.3-15.3
		c4.3,0,8.7,1.7,11.7,4.3l-2.9,3.8c-2.3-2.2-5.6-3.5-8.8-3.5c-6.2,0-11.1,4.7-11.1,10.8c0,6.1,4.9,10.8,11.1,10.8
		c2.3,0,4.8-0.8,7-2.1v-8.5H136.1z"/>
	<path id="XMLID_153_" class="st0" d="M184.5,1301.2v11.2c-3.1,2.3-7.6,4-11.8,4c-9,0-16-6.7-16-15.4s7.1-15.3,16.3-15.3
		c4.3,0,8.7,1.7,11.7,4.3l-2.9,3.8c-2.3-2.2-5.6-3.5-8.8-3.5c-6.2,0-11.1,4.7-11.1,10.8c0,6.1,4.9,10.8,11.1,10.8
		c2.3,0,4.8-0.8,7-2.1v-8.5H184.5z"/>
	<path id="XMLID_151_" class="st0" d="M211,1313.7c0,0.9-0.3,1.6-0.8,2.3l-2.5,3.7h-2.6l1.7-3.8c-0.8-0.5-1.2-1.3-1.2-2.3
		c0-1.6,1.1-2.8,2.7-2.8C209.7,1310.9,211,1311.9,211,1313.7z"/>
	<path id="XMLID_147_" class="st0" d="M273,1285.7c6.3,0,10.2,2.9,10.2,7.6c0,3.4-2,6-5.3,6.8c4.1,0.7,6.5,3.6,6.5,7.7
		c0,5.2-4.2,8.3-11.1,8.3h-13.5v-30.4H273z M264.9,1298.3h7.8c3.3,0,5.2-1.5,5.2-4.1c0-2.6-2-4-5.2-4h-7.8V1298.3z M264.9,1311.6
		h7.8c4,0,6.4-1.6,6.4-4.4c0-2.7-2.4-4.3-6.4-4.3h-7.8V1311.6z"/>
	<path id="XMLID_144_" class="st0" d="M310.6,1309.3l-2.9,6.9h-5.3l13.4-30.4h5.3l13.3,30.4h-5.5l-2.9-6.9H310.6z M318.3,1291.2
		l-5.7,13.5H324L318.3,1291.2z"/>
	<path id="XMLID_142_" class="st0" d="M378.4,1290.3l-3,3.7c-2.2-2.4-5.4-3.9-8.5-3.9c-6.1,0-10.9,4.7-10.9,10.7
		c0,6,4.8,10.7,10.9,10.7c3,0,6.2-1.4,8.5-3.6l3,3.4c-3.1,3-7.5,5-11.8,5c-8.9,0-15.8-6.7-15.8-15.5c0-8.6,7-15.3,16-15.3
		C371.2,1285.6,375.5,1287.4,378.4,1290.3z"/>
	<path id="XMLID_139_" class="st0" d="M428.6,1300.9c0,8.7-7,15.4-16.1,15.4c-9.1,0-16.1-6.7-16.1-15.4c0-8.7,7-15.3,16.1-15.3
		C421.6,1285.6,428.6,1292.3,428.6,1300.9z M401.6,1300.9c0,6,5,10.8,10.9,10.8s10.8-4.8,10.8-10.8s-4.9-10.7-10.8-10.7
		C406.5,1290.2,401.6,1294.9,401.6,1300.9z"/>
	<path id="XMLID_137_" class="st0" d="M471.3,1316.1l-16.2-21.8v21.8h-5.1v-30.4h5l16.3,21.8v-21.8h5v30.4H471.3z"/>
	<path id="XMLID_134_" class="st0" d="M556.9,1300.9c0,8.7-7,15.4-16.1,15.4c-9.1,0-16.1-6.7-16.1-15.4c0-8.7,7-15.3,16.1-15.3
		C549.9,1285.6,556.9,1292.3,556.9,1300.9z M529.9,1300.9c0,6,5,10.8,10.9,10.8c5.9,0,10.8-4.8,10.8-10.8s-4.9-10.7-10.8-10.7
		C534.9,1290.2,529.9,1294.9,529.9,1300.9z"/>
	<path id="XMLID_132_" class="st0" d="M602.3,1301.2v11.2c-3.1,2.3-7.6,4-11.8,4c-9,0-16-6.7-16-15.4s7.1-15.3,16.3-15.3
		c4.3,0,8.7,1.7,11.7,4.3l-2.9,3.8c-2.3-2.2-5.6-3.5-8.8-3.5c-6.2,0-11.1,4.7-11.1,10.8c0,6.1,4.9,10.8,11.1,10.8
		c2.3,0,4.8-0.8,7-2.1v-8.5H602.3z"/>
	<path id="XMLID_130_" class="st0" d="M666.8,1306.8c0,6.1-3.6,9.6-9.5,9.6c-3.6,0-6.7-1.6-8.9-4.4l2.4-3.9c2,2.2,4.4,3.3,6.5,3.3
		c2.7,0,4.3-1.7,4.3-4.8v-16.2h-10.5v-4.6h15.7V1306.8z"/>
	<path id="XMLID_127_" class="st0" d="M693.5,1309.3l-2.9,6.9h-5.3l13.4-30.4h5.3l13.3,30.4h-5.5l-2.9-6.9H693.5z M701.1,1291.2
		l-5.7,13.5h11.5L701.1,1291.2z"/>
	<path id="XMLID_124_" class="st0" d="M750.8,1306.9c-0.4,0-0.9,0-1.4,0h-7.2v9.2h-5.1v-30.4h12.3c7.8,0,12.2,3.8,12.2,10.4
		c0,4.9-2.3,8.3-6.3,9.9l6.8,10.2h-5.8L750.8,1306.9z M749.4,1302.4c4.7,0,7.4-2,7.4-6.1c0-4-2.7-5.9-7.4-5.9h-7.2v12H749.4z"/>
	<path id="XMLID_122_" class="st0" d="M802.6,1311.5v4.6h-18.3v-30.4h5.1v25.8H802.6z"/>
	<path id="XMLID_120_" class="st0" d="M844,1288.7l-2.1,4.5c-3.3-2-6.6-2.8-8.9-2.8c-3,0-5,1.1-5,3.2c0,6.6,16.4,3.1,16.4,14
		c0,5.4-4.8,8.8-11.5,8.8c-4.8,0-9.3-2-12.4-4.8l2.2-4.4c3.1,2.9,7,4.4,10.3,4.4c3.6,0,5.7-1.3,5.7-3.7c0-6.8-16.4-3-16.4-13.8
		c0-5.2,4.5-8.5,11.1-8.5C837.3,1285.5,841.2,1286.8,844,1288.7z"/>
	<path id="XMLID_116_" class="st0" d="M879.4,1285.7c6.3,0,10.2,2.9,10.2,7.6c0,3.4-2,6-5.3,6.8c4.1,0.7,6.5,3.6,6.5,7.7
		c0,5.2-4.2,8.3-11.1,8.3h-13.5v-30.4H879.4z M871.4,1298.3h7.8c3.3,0,5.2-1.5,5.2-4.1c0-2.6-2-4-5.2-4h-7.8V1298.3z M871.4,1311.6
		h7.8c4,0,6.4-1.6,6.4-4.4c0-2.7-2.4-4.3-6.4-4.3h-7.8V1311.6z"/>
	<path id="XMLID_114_" class="st0" d="M917.9,1290.3v8.2h14.9v4.6h-14.9v8.4H935v4.6h-22.2v-30.4h21.7v4.6H917.9z"/>
	<path id="XMLID_111_" class="st0" d="M970.8,1306.9c-0.4,0-0.9,0-1.4,0h-7.2v9.2h-5.1v-30.4h12.3c7.8,0,12.2,3.8,12.2,10.4
		c0,4.9-2.3,8.3-6.3,9.9l6.8,10.2h-5.8L970.8,1306.9z M969.4,1302.4c4.7,0,7.4-2,7.4-6.1c0-4-2.7-5.9-7.4-5.9h-7.2v12H969.4z"/>
	<path id="XMLID_109_" class="st0" d="M1029.6,1301.2v11.2c-3.1,2.3-7.6,4-11.8,4c-9,0-16-6.7-16-15.4s7.1-15.3,16.3-15.3
		c4.3,0,8.7,1.7,11.7,4.3l-2.9,3.8c-2.3-2.2-5.6-3.5-8.8-3.5c-6.2,0-11.1,4.7-11.1,10.8c0,6.1,4.9,10.8,11.1,10.8
		c2.3,0,4.8-0.8,7-2.1v-8.5H1029.6z"/>
</g>
<g id="XMLID_51_">
	<path id="XMLID_105_" class="st0" d="M67.5,1374.5l-1.7,4.1h-3.2l8.1-18.2h3.2l8,18.2h-3.3l-1.7-4.1H67.5z M72,1363.6l-3.4,8.1h6.9
		L72,1363.6z"/>
	<path id="XMLID_103_" class="st0" d="M104.6,1375.8v2.8h-11v-18.2h3.1v15.5H104.6z"/>
	<path id="XMLID_101_" class="st0" d="M128,1375.8v2.8h-11v-18.2h3.1v15.5H128z"/>
	<path id="XMLID_99_" class="st0" d="M143.6,1363.1v4.9h8.9v2.8h-8.9v5h10.3v2.8h-13.3v-18.2h13v2.8H143.6z"/>
	<path id="XMLID_96_" class="st0" d="M175.3,1373.1c-0.3,0-0.5,0-0.8,0h-4.3v5.5h-3.1v-18.2h7.4c4.7,0,7.3,2.3,7.3,6.2
		c0,2.9-1.4,5-3.8,5.9l4.1,6.1h-3.5L175.3,1373.1z M174.5,1370.3c2.8,0,4.4-1.2,4.4-3.7c0-2.4-1.6-3.5-4.4-3.5h-4.3v7.2H174.5z"/>
	<path id="XMLID_94_" class="st0" d="M210.6,1369.6v6.7c-1.9,1.4-4.6,2.4-7.1,2.4c-5.4,0-9.6-4-9.6-9.3c0-5.2,4.2-9.2,9.8-9.2
		c2.6,0,5.2,1,7,2.6l-1.7,2.3c-1.4-1.3-3.4-2.1-5.3-2.1c-3.7,0-6.6,2.8-6.6,6.5c0,3.6,2.9,6.5,6.7,6.5c1.4,0,2.9-0.5,4.2-1.3v-5.1
		H210.6z"/>
	<path id="XMLID_92_" class="st0" d="M227.5,1363.1v4.9h8.9v2.8h-8.9v5h10.3v2.8h-13.3v-18.2h13v2.8H227.5z"/>
	<path id="XMLID_90_" class="st0" d="M263.9,1378.6l-9.7-13.1v13.1h-3.1v-18.2h3l9.8,13.1v-13.1h3v18.2H263.9z"/>
	<path id="XMLID_88_" class="st0" d="M284.3,1363.1v4.9h8.9v2.8h-8.9v5h10.3v2.8h-13.3v-18.2h13v2.8H284.3z"/>
	<path id="XMLID_85_" class="st0" d="M316.1,1373.1c-0.3,0-0.5,0-0.8,0h-4.3v5.5h-3.1v-18.2h7.4c4.7,0,7.3,2.3,7.3,6.2
		c0,2.9-1.4,5-3.8,5.9l4.1,6.1h-3.5L316.1,1373.1z M315.2,1370.3c2.8,0,4.4-1.2,4.4-3.7c0-2.4-1.6-3.5-4.4-3.5h-4.3v7.2H315.2z"/>
	<path id="XMLID_82_" class="st0" d="M338.3,1369.3c0,1-0.7,1.7-1.6,1.7c-0.9,0-1.6-0.7-1.6-1.7c0-1,0.7-1.7,1.6-1.7
		C337.6,1367.7,338.3,1368.4,338.3,1369.3z M338.3,1377.1c0,1-0.7,1.7-1.6,1.7c-0.9,0-1.6-0.7-1.6-1.7c0-1,0.7-1.7,1.6-1.7
		C337.6,1375.4,338.3,1376.1,338.3,1377.1z"/>
	<path id="XMLID_80_" class="st0" d="M383.9,1378.6l0-13.6l-5.8,11.7h-2l-5.8-11.7v13.6h-2.9v-18.2h3.6l6,12.1l6-12.1h3.6v18.2
		H383.9z"/>
	<path id="XMLID_78_" class="st0" d="M404.1,1363.1v4.9h8.9v2.8h-8.9v5h10.3v2.8h-13.3v-18.2h13v2.8H404.1z"/>
	<path id="XMLID_76_" class="st0" d="M438.6,1375.8v2.8h-11v-18.2h3.1v15.5H438.6z"/>
	<path id="XMLID_74_" class="st0" d="M457.3,1370.5l-3.1,3.4v4.6h-3.1v-18.2h3.1v9.4l8.7-9.4h3.6l-7.1,7.8l7.5,10.4h-3.7
		L457.3,1370.5z"/>
	<path id="XMLID_72_" class="st0" d="M481.4,1377.1c0,0.5-0.2,1-0.5,1.4l-1.5,2.2h-1.5l1-2.3c-0.5-0.3-0.7-0.8-0.7-1.4
		c0-1,0.7-1.7,1.6-1.7C480.6,1375.4,481.4,1376.1,481.4,1377.1z"/>
	<path id="XMLID_70_" class="st0" d="M525.8,1369.6v6.7c-1.8,1.4-4.6,2.4-7.1,2.4c-5.4,0-9.6-4-9.6-9.3c0-5.2,4.2-9.2,9.8-9.2
		c2.6,0,5.2,1,7,2.6l-1.7,2.3c-1.4-1.3-3.4-2.1-5.3-2.1c-3.7,0-6.6,2.8-6.6,6.5c0,3.6,2.9,6.5,6.7,6.5c1.4,0,2.9-0.5,4.2-1.3v-5.1
		H525.8z"/>
	<path id="XMLID_68_" class="st0" d="M550.6,1375.8v2.8h-11v-18.2h3.1v15.5H550.6z"/>
	<path id="XMLID_66_" class="st0" d="M578.6,1371c0,4.8-3,7.7-7.9,7.7c-4.9,0-7.9-2.9-7.9-7.7v-10.7h3.1v10.7c0,3.1,1.9,4.9,4.9,4.9
		c3,0,4.8-1.8,4.8-4.9v-10.7h3.1V1371z"/>
	<path id="XMLID_64_" class="st0" d="M599.2,1363.1v15.5h-3.1v-15.5h-5.8v-2.8H605v2.8H599.2z"/>
	<path id="XMLID_62_" class="st0" d="M620.2,1363.1v4.9h8.9v2.8h-8.9v5h10.3v2.8h-13.3v-18.2h13v2.8H620.2z"/>
	<path id="XMLID_60_" class="st0" d="M656.5,1378.6l-9.7-13.1v13.1h-3.1v-18.2h3l9.8,13.1v-13.1h3v18.2H656.5z"/>
	<path id="XMLID_58_" class="st0" d="M675.9,1377.1c0,0.5-0.2,1-0.5,1.4l-1.5,2.2h-1.5l1-2.3c-0.5-0.3-0.7-0.8-0.7-1.4
		c0-1,0.7-1.7,1.6-1.7C675.2,1375.4,675.9,1376.1,675.9,1377.1z"/>
	<path id="XMLID_56_" class="st0" d="M708.3,1363.1v4.9h8.9v2.8h-8.9v5h10.3v2.8h-13.3v-18.2h13v2.8H708.3z"/>
	<path id="XMLID_54_" class="st0" d="M747,1369.6v6.7c-1.9,1.4-4.6,2.4-7.1,2.4c-5.4,0-9.6-4-9.6-9.3c0-5.2,4.2-9.2,9.8-9.2
		c2.6,0,5.2,1,7,2.6l-1.7,2.3c-1.4-1.3-3.4-2.1-5.3-2.1c-3.7,0-6.6,2.8-6.6,6.5c0,3.6,2.9,6.5,6.7,6.5c1.4,0,2.9-0.5,4.2-1.3v-5.1
		H747z"/>
	<path id="XMLID_52_" class="st0" d="M776,1369.6v6.7c-1.8,1.4-4.6,2.4-7.1,2.4c-5.4,0-9.6-4-9.6-9.3c0-5.2,4.2-9.2,9.8-9.2
		c2.6,0,5.2,1,7,2.6l-1.7,2.3c-1.4-1.3-3.4-2.1-5.3-2.1c-3.7,0-6.6,2.8-6.6,6.5c0,3.6,2.9,6.5,6.7,6.5c1.4,0,2.9-0.5,4.2-1.3v-5.1
		H776z"/>
</g>
<g id="XMLID_30_">
	<path id="XMLID_49_" class="st0" d="M482.4,774.4c-3.2,5-5.1,11.6-5.1,18.8s2,13.9,5.1,18.8h-4.5c-3.4-5-5.3-11.6-5.3-18.8
		s1.9-13.9,5.3-18.8H482.4z"/>
	<path id="XMLID_47_" class="st0" d="M511.2,806.6l-12.1-30.4h5.5l9.4,24.7l9.5-24.7h5.3l-12.3,30.4H511.2z"/>
	<path id="XMLID_45_" class="st0" d="M553.9,780.8v8.2h14.9v4.6h-14.9v8.4H571v4.6h-22.2v-30.4h21.7v4.6H553.9z"/>
	<path id="XMLID_43_" class="st0" d="M618.4,791.6v11.2c-3.1,2.3-7.6,4-11.8,4c-9,0-16-6.7-16-15.4c0-8.7,7.1-15.3,16.3-15.3
		c4.3,0,8.7,1.7,11.7,4.3l-2.9,3.8c-2.3-2.2-5.6-3.5-8.8-3.5c-6.2,0-11.1,4.7-11.1,10.8c0,6.1,4.9,10.8,11.1,10.8
		c2.3,0,4.8-0.8,7-2.1v-8.5H618.4z"/>
	<path id="XMLID_41_" class="st0" d="M646.6,780.8v8.2h14.9v4.6h-14.9v8.4h17.1v4.6h-22.2v-30.4h21.7v4.6H646.6z"/>
	<path id="XMLID_39_" class="st0" d="M697,780.8v25.8h-5.1v-25.8h-9.6v-4.6h24.4v4.6H697z"/>
	<path id="XMLID_36_" class="st0" d="M728.1,799.7l-2.9,6.9h-5.3l13.4-30.4h5.3l13.3,30.4h-5.5l-2.9-6.9H728.1z M735.8,781.7
		l-5.7,13.5h11.5L735.8,781.7z"/>
	<path id="XMLID_33_" class="st0" d="M785.5,797.4c-0.4,0-0.9,0-1.4,0h-7.2v9.2h-5.1v-30.4h12.3c7.8,0,12.3,3.8,12.3,10.4
		c0,4.9-2.3,8.3-6.3,9.9l6.8,10.2H791L785.5,797.4z M784.1,792.8c4.7,0,7.4-2,7.4-6.1c0-4-2.7-5.9-7.4-5.9h-7.2v12H784.1z"/>
	<path id="XMLID_31_" class="st0" d="M824.7,774.4c3.4,5,5.3,11.6,5.3,18.8s-1.9,13.9-5.3,18.8h-4.5c3.2-5,5.1-11.6,5.1-18.8
		s-2-13.9-5.1-18.8H824.7z"/>
</g>
</svg>
