<?xml version="1.0" encoding="utf-8"?>
<!-- Generator: Adobe Illustrator 19.0.0, SVG Export Plug-In . SVG Version: 6.00 Build 0)  -->
<svg version="1.1" id="Layer_1" xmlns="http://www.w3.org/2000/svg" xmlns:xlink="http://www.w3.org/1999/xlink" x="0px" y="0px"
	 viewBox="0 0 1699 1658" style="enable-background:new 0 0 1699 1658;" xml:space="preserve">
<style type="text/css">
	.st0{fill:#FFFFFF;}
	.st1{fill:none;stroke:#FFFFFF;stroke-width:6.3935;stroke-miterlimit:10;}
	.st2{fill:none;stroke:#FFFFFF;stroke-width:6.3935;stroke-linecap:round;stroke-miterlimit:10;}
	.st3{fill:#FFFFFF;stroke:#FFFFFF;stroke-width:0.9402;stroke-miterlimit:10;}
</style>
<symbol  id="New_Symbol" viewBox="-548.3 -185.4 1096.6 370.7">
	<g>
		<path class="st0" d="M-328.3,185.3V-83.6h-6.1v252l-86.4-224.8h-7.7L-515,168.4v-252h-6.2v268.9h6.5l89.9-234l89.9,234H-328.3z"/>
		<path class="st0" d="M298-77.5v-6.1H140.5v268.9h6.5V-77.5H298z"/>
		<path class="st0" d="M521.8,185.4v-6.2h-74.1V-83.6h-6.1v262.8h-74.1v6.2H521.8z"/>
		<g>
			<g>
				<g>
					<g>
						<path class="st0" d="M11.8,149.6h-211.4v35.2H11.8V149.6z M-193.4,156H5.6v22.4h-199.1V156z"/>
					</g>
				</g>
				<g>
					<path class="st1" d="M8.7,49"/>
				</g>
				<g>
					<path class="st1" d="M-196.5,49"/>
				</g>
				<g>
					<g>
						<path class="st0" d="M11.8-83.8h-211.4v35.2H11.8V-83.8z M-193.4-77.4H5.6V-55h-199.1V-77.4z"/>
					</g>
				</g>
			</g>
			<path class="st2" d="M-197.2,49.3c0,0,45.9,34.7,101.4-3.1C-40.3,8.4,9.4,49.3,9.4,49.3"/>
		</g>
	</g>
	<g>
		<path class="st3" d="M-521.3-170.4v-10.7c-2.9-2.2-7.3-3.8-11.3-3.8c-8.6,0-15.3,6.4-15.3,14.7c0,8.3,6.8,14.6,15.6,14.6
			c4.1,0,8.3-1.6,11.2-4.1l-2.8-3.6c-2.2,2.1-5.3,3.3-8.4,3.3c-5.9,0-10.6-4.5-10.6-10.3c0-5.8,4.7-10.3,10.6-10.3
			c2.2,0,4.6,0.7,6.7,2v8.1H-521.3z"/>
		<path class="st3" d="M-486.2-175.9c-0.4,0-0.9,0-1.3,0h-6.9v-8.8h-4.9v29h11.8c7.4,0,11.7-3.6,11.7-9.9c0-4.6-2.2-7.9-6-9.4
			l6.5-9.7h-5.6L-486.2-175.9z M-487.5-171.5c4.5,0,7.1,1.9,7.1,5.8c0,3.8-2.6,5.6-7.1,5.6h-6.9v-11.5H-487.5z"/>
		<path class="st3" d="M-454.2-184.7v29h4.9v-29H-454.2z"/>
		<path class="st3" d="M-409.1-180.3v-4.4h-17.5v29h4.9v-24.6H-409.1z"/>
		<path class="st3" d="M-371.8-180.3v-4.4h-17.5v29h4.9v-24.6H-371.8z"/>
		<path class="st3" d="M-347.2-160.1v-7.8h14.2v-4.4h-14.2v-8h16.3v-4.4h-21.2v29h20.7v-4.4H-347.2z"/>
		<path class="st3" d="M-297.8-155.7c8.7,0,15-6.1,15-14.5c0-8.4-6.3-14.5-15.1-14.5h-11.8v29H-297.8z M-304.9-180.3h7.1
			c5.6,0,10,4.2,10,10.1c0,5.9-4.4,10.2-10.2,10.2h-6.9V-180.3z"/>
		<path class="st3" d="M-212.8-160l-2.9-3.6c-2.1,2.3-5.1,3.7-8.1,3.7c-5.8,0-10.4-4.5-10.4-10.2c0-5.7,4.6-10.2,10.4-10.2
			c2.9,0,5.9,1.3,8.1,3.4l2.9-3.2c-2.9-2.9-7.1-4.8-11.2-4.8c-8.5,0-15.1,6.4-15.1,14.8c0,8.3,6.7,14.6,15.3,14.6
			C-219.7-155.5-215.6-157.2-212.8-160z"/>
		<path class="st3" d="M-172.4-184.7v12h-15.4v-12h-4.9v29h4.9v-12.6h15.4v12.6h4.9v-29H-172.4z"/>
		<path class="st3" d="M-139.9-160.1v-7.8h14.2v-4.4h-14.2v-8h16.3v-4.4h-21.2v29h20.7v-4.4H-139.9z"/>
		<path class="st3" d="M-97.6-160.1v-7.8h14.2v-4.4h-14.2v-8h16.3v-4.4h-21.2v29h20.7v-4.4H-97.6z"/>
		<path class="st3" d="M-40.5-158.4l-2-4.3c-3.2,1.9-6.3,2.7-8.5,2.7c-2.9,0-4.7-1.1-4.7-3c0-6.3,15.7-2.9,15.6-13.4
			c0-5.2-4.6-8.4-10.9-8.4c-4.6,0-8.9,1.9-11.9,4.6l2.1,4.2c3-2.7,6.7-4.2,9.8-4.2c3.4,0,5.4,1.3,5.4,3.5c0,6.5-15.7,2.9-15.7,13.2
			c0,5,4.3,8.1,10.6,8.1C-46.9-155.5-43.2-156.7-40.5-158.4z"/>
		<path class="st3" d="M-14.4-160.1v-7.8h14.2v-4.4h-14.2v-8H1.9v-4.4h-21.2v29H1.5v-4.4H-14.4z"/>
		<path class="st3" d="M68.5-158.4l-2-4.3c-3.2,1.9-6.3,2.7-8.5,2.7c-2.9,0-4.7-1.1-4.7-3c0-6.3,15.7-2.9,15.6-13.4
			c0-5.2-4.6-8.4-10.9-8.4c-4.6,0-8.9,1.9-11.9,4.6l2.1,4.2c3-2.7,6.7-4.2,9.8-4.2c3.4,0,5.4,1.3,5.4,3.5c0,6.5-15.7,2.9-15.7,13.2
			c0,5,4.3,8.1,10.6,8.1C62.1-155.5,65.8-156.7,68.5-158.4z"/>
		<path class="st3" d="M93.6-178.1l-2.8-6.6h-5.1l12.8,29h5l12.7-29H111l-2.8,6.6H93.6z M100.9-160.9l-5.5-12.9h10.9L100.9-160.9z"
			/>
		<path class="st3" d="M155.5-184.7l-15.5,20.8v-20.8h-4.9v29h4.8l15.6-20.9v20.9h4.8v-29H155.5z"/>
		<path class="st3" d="M195-155.7c8.7,0,15-6.1,15-14.5c0-8.4-6.3-14.5-15.1-14.5h-11.8v29H195z M188-180.3h7.1
			c5.6,0,10,4.2,10,10.1c0,5.9-4.4,10.2-10.2,10.2H188V-180.3z"/>
		<path class="st3" d="M254.8-184.7l-6.9,22.6l-7-22.6h-5.1l-9.6,29h5.3l7.1-23.6l7,23.6l4.8,0l7.1-23.6l7,23.6h5.1l-9.7-29H254.8z"
			/>
		<path class="st3" d="M288-184.7v29h4.9v-29H288z"/>
		<path class="st3" d="M339.5-160l-2.9-3.6c-2.1,2.3-5.1,3.7-8.1,3.7c-5.8,0-10.4-4.5-10.4-10.2c0-5.7,4.6-10.2,10.4-10.2
			c2.9,0,5.9,1.3,8.1,3.4l2.9-3.2c-2.9-2.9-7.1-4.8-11.2-4.8c-8.5,0-15.1,6.4-15.1,14.8c0,8.3,6.7,14.6,15.3,14.6
			C332.6-155.5,336.7-157.2,339.5-160z"/>
		<path class="st3" d="M379.9-184.7v12h-15.4v-12h-4.9v29h4.9v-12.6h15.4v12.6h4.9v-29H379.9z"/>
		<path class="st3" d="M446-155.7c6,0,9.7-2.7,9.7-7.3c0-3.3-1.9-5.7-5.1-6.5c3.9-0.7,6.2-3.4,6.2-7.3c0-5-4-8-10.6-8h-12.9v29H446z
			 M438.2-167.7h7.5c3.1,0,5,1.5,5,3.9c0,2.4-1.9,3.8-5,3.8h-7.5V-167.7z M438.2-180.3h7.5c3.8,0,6.1,1.5,6.1,4.2
			c0,2.6-2.3,4.1-6.1,4.1h-7.5V-180.3z"/>
		<path class="st3" d="M481.8-178.1l-2.8-6.6H474l12.8,29h5l12.7-29h-5.2l-2.8,6.6H481.8z M489.1-160.9l-5.5-12.9h10.9L489.1-160.9z
			"/>
		<path class="st3" d="M536.5-175.9c-0.4,0-0.9,0-1.3,0h-6.9v-8.8h-4.9v29h11.8c7.4,0,11.7-3.6,11.7-9.9c0-4.6-2.2-7.9-6-9.4
			l6.5-9.7h-5.6L536.5-175.9z M535.2-171.5c4.5,0,7.1,1.9,7.1,5.8c0,3.8-2.6,5.6-7.1,5.6h-6.9v-11.5H535.2z"/>
	</g>
</symbol>
<g id="XMLID_199_">
	<path id="XMLID_211_" class="st0" d="M107,86.2c19.1,0,32.9,13.4,32.9,31.8c0,18.4-13.9,31.8-33.2,31.8H80.9V86.2H107z M91.6,140.2
		h15.7c12.4,0,21.8-9.2,21.8-22.1c0-13-9.7-22.3-22.3-22.3H91.6V140.2z"/>
	<path id="XMLID_208_" class="st0" d="M213.4,130.6c-0.9,0.1-1.9,0.1-2.9,0.1h-15.1v19.2h-10.7V86.2h25.8c16.3,0,25.7,7.9,25.7,21.7
		c0,10.2-4.7,17.4-13.2,20.7l14.3,21.3H225L213.4,130.6z M210.4,121c9.8,0,15.5-4.2,15.5-12.8c0-8.4-5.6-12.4-15.5-12.4h-15.1V121
		H210.4z"/>
	<path id="XMLID_206_" class="st0" d="M283.6,149.9V86.2h10.7v63.7H283.6z"/>
	<path id="XMLID_204_" class="st0" d="M365.9,121.8L355,133.7v16.2h-10.7V86.2H355v32.9l30.4-32.9h12.6l-24.7,27.2l26.3,36.5h-12.9
		L365.9,121.8z"/>
	<path id="XMLID_202_" class="st0" d="M464.4,121.8l-10.8,11.9v16.2h-10.7V86.2h10.7v32.9L484,86.2h12.6L472,113.4l26.3,36.5h-12.9
		L464.4,121.8z"/>
	<path id="XMLID_200_" class="st0" d="M552.1,95.8V113h31.1v9.6h-31.1v17.6H588v9.6h-46.6V86.2h45.5v9.6H552.1z"/>
</g>
<g id="XMLID_187_">
	<path id="XMLID_195_" class="st0" d="M92.4,500.5c7.3,0,11.9,3.3,11.9,8.8c0,4-2.4,7-6.2,7.9c4.8,0.8,7.6,4.2,7.6,8.9
		c0,6.1-4.9,9.7-12.9,9.7H77.1v-35.4H92.4z M83,515.1h9.1c3.8,0,6.1-1.8,6.1-4.7c0-3-2.3-4.6-6.1-4.6H83V515.1z M83,530.6h9.1
		c4.6,0,7.4-1.8,7.4-5.2c0-3.1-2.8-5-7.4-5H83V530.6z"/>
	<path id="XMLID_192_" class="st0" d="M147.1,525.1c-0.5,0.1-1.1,0.1-1.6,0.1h-8.4v10.7h-6v-35.4h14.3c9,0,14.2,4.4,14.2,12.1
		c0,5.7-2.6,9.7-7.3,11.5l7.9,11.8h-6.8L147.1,525.1z M145.5,519.8c5.5,0,8.6-2.3,8.6-7.1c0-4.6-3.1-6.9-8.6-6.9h-8.4v14H145.5z"/>
	<path id="XMLID_190_" class="st0" d="M216.2,521.2c0,9.2-5.8,14.9-15.4,14.9s-15.4-5.7-15.4-14.9v-20.7h6v20.7c0,6,3.7,9.5,9.5,9.5
		c5.8,0,9.3-3.5,9.3-9.5v-20.7h6V521.2z"/>
	<path id="XMLID_188_" class="st0" d="M267.2,503.9l-2.5,5.3c-3.8-2.3-7.7-3.3-10.4-3.3c-3.5,0-5.8,1.3-5.8,3.7
		c0,7.7,19.1,3.6,19,16.3c0,6.3-5.6,10.2-13.3,10.2c-5.6,0-10.8-2.3-14.5-5.6l2.6-5.2c3.6,3.3,8.2,5.2,12,5.2c4.1,0,6.6-1.6,6.6-4.3
		c0-7.9-19.1-3.5-19.1-16.1c0-6.1,5.2-9.9,12.9-9.9C259.4,500.2,263.9,501.7,267.2,503.9z"/>
</g>
<g id="XMLID_157_">
	<path id="XMLID_185_" class="st0" d="M83,212.3v9.5h17.3v5.4H83v9.8h19.9v5.4H77.1V207h25.3v5.4H83z"/>
	<path id="XMLID_183_" class="st0" d="M128.6,242.3V207h6v35.4H128.6z"/>
	<path id="XMLID_180_" class="st0" d="M178.3,231.6c-0.5,0-1.1,0-1.6,0h-8.4v10.7h-6V207h14.3c9,0,14.2,4.4,14.2,12.1
		c0,5.7-2.6,9.7-7.3,11.5l7.9,11.8h-6.8L178.3,231.6z M176.7,226.3c5.5,0,8.6-2.3,8.6-7.1c0-4.6-3.1-6.9-8.6-6.9h-8.4v14H176.7z"/>
	<path id="XMLID_177_" class="st0" d="M222.3,234.4l-3.4,8h-6.2l15.6-35.4h6.1l15.5,35.4h-6.4l-3.4-8H222.3z M231.2,213.3l-6.7,15.7
		h13.3L231.2,213.3z"/>
	<path id="XMLID_175_" class="st0" d="M328.5,210.4l-2.5,5.3c-3.8-2.3-7.7-3.3-10.4-3.3c-3.5,0-5.8,1.3-5.8,3.7
		c0,7.7,19.1,3.6,19,16.3c0,6.3-5.6,10.2-13.3,10.2c-5.6,0-10.8-2.3-14.4-5.6l2.6-5.2c3.6,3.3,8.2,5.2,12,5.2c4.1,0,6.6-1.6,6.6-4.3
		c0-7.9-19.1-3.5-19.1-16.1c0-6.1,5.2-9.9,12.9-9.9C320.7,206.7,325.2,208.2,328.5,210.4z"/>
	<path id="XMLID_173_" class="st0" d="M367.3,212.3v30h-6v-30h-11.2V207h28.3v5.4H367.3z"/>
	<path id="XMLID_171_" class="st0" d="M402,242.3V207h6v35.4H402z"/>
	<path id="XMLID_169_" class="st0" d="M457,236.9v5.4h-21.3V207h6v30H457z"/>
	<path id="XMLID_167_" class="st0" d="M502.4,236.9v5.4h-21.3V207h6v30H502.4z"/>
	<path id="XMLID_165_" class="st0" d="M567.6,242.3L553.5,207h6.4l10.9,28.7l11-28.7h6.2l-14.3,35.4H567.6z"/>
	<path id="XMLID_162_" class="st0" d="M613.9,234.4l-3.4,8h-6.2l15.6-35.4h6.1l15.5,35.4h-6.4l-3.4-8H613.9z M622.8,213.3l-6.7,15.7
		h13.3L622.8,213.3z"/>
	<path id="XMLID_160_" class="st0" d="M689.4,242.3L670.6,217v25.4h-6V207h5.9l18.9,25.4V207h5.9v35.4H689.4z"/>
	<path id="XMLID_158_" class="st0" d="M747.8,242.3L729,217v25.4h-6V207h5.9l18.9,25.4V207h5.9v35.4H747.8z"/>
</g>
<g id="XMLID_116_">
	<path id="XMLID_155_" class="st0" d="M83,357v9.5h17.3v5.4H83v9.8h19.9v5.4H77.1v-35.4h25.3v5.4H83z"/>
	<path id="XMLID_153_" class="st0" d="M128.6,387v-35.4h6V387H128.6z"/>
	<path id="XMLID_150_" class="st0" d="M178.3,376.3c-0.5,0.1-1.1,0.1-1.6,0.1h-8.4V387h-6v-35.4h14.3c9,0,14.2,4.4,14.2,12.1
		c0,5.7-2.6,9.7-7.3,11.5l7.9,11.8h-6.8L178.3,376.3z M176.7,371c5.5,0,8.6-2.3,8.6-7.1c0-4.6-3.1-6.9-8.6-6.9h-8.4v14H176.7z"/>
	<path id="XMLID_147_" class="st0" d="M222.3,379l-3.4,8h-6.2l15.6-35.4h6.1l15.5,35.4h-6.4l-3.4-8H222.3z M231.2,358l-6.7,15.7
		h13.3L231.2,358z"/>
	<path id="XMLID_145_" class="st0" d="M328.5,355l-2.5,5.3c-3.8-2.3-7.7-3.3-10.4-3.3c-3.5,0-5.8,1.3-5.8,3.7
		c0,7.7,19.1,3.6,19,16.3c0,6.3-5.6,10.2-13.3,10.2c-5.6,0-10.8-2.3-14.4-5.6l2.6-5.2c3.6,3.3,8.2,5.2,12,5.2c4.1,0,6.6-1.6,6.6-4.3
		c0-7.9-19.1-3.5-19.1-16.1c0-6.1,5.2-9.9,12.9-9.9C320.7,351.4,325.2,352.9,328.5,355z"/>
	<path id="XMLID_142_" class="st0" d="M368.4,351.7c8.9,0,14,4.4,14,12.1c0,8-5.1,12.6-14,12.6h-8.1V387h-6v-35.4H368.4z M360.3,371
		h7.9c5.5,0,8.5-2.3,8.5-7.1c0-4.6-3.1-6.9-8.5-6.9h-7.9V371z"/>
	<path id="XMLID_139_" class="st0" d="M409.6,379l-3.4,8H400l15.6-35.4h6.1l15.5,35.4h-6.4l-3.4-8H409.6z M418.5,358l-6.7,15.7h13.3
		L418.5,358z"/>
	<path id="XMLID_136_" class="st0" d="M476.3,376.3c-0.5,0.1-1.1,0.1-1.6,0.1h-8.4V387h-6v-35.4h14.3c9,0,14.2,4.4,14.2,12.1
		c0,5.7-2.6,9.7-7.3,11.5l7.9,11.8h-6.8L476.3,376.3z M474.6,371c5.5,0,8.6-2.3,8.6-7.1c0-4.6-3.1-6.9-8.6-6.9h-8.4v14H474.6z"/>
	<path id="XMLID_134_" class="st0" d="M527.2,371.4l-6,6.6v9h-6v-35.4h6v18.3l16.9-18.3h7l-13.7,15.1L546,387h-7.2L527.2,371.4z"/>
	<path id="XMLID_132_" class="st0" d="M591.2,381.6v5.4H570v-35.4h6v30H591.2z"/>
	<path id="XMLID_130_" class="st0" d="M615.4,387v-35.4h6V387H615.4z"/>
	<path id="XMLID_128_" class="st0" d="M673.9,387L655,361.7V387h-6v-35.4h5.9l18.9,25.4v-25.4h5.9V387H673.9z"/>
	<path id="XMLID_126_" class="st0" d="M736.9,369.6v13c-3.6,2.7-8.9,4.6-13.7,4.6c-10.5,0-18.6-7.8-18.6-17.9s8.2-17.8,18.9-17.8
		c5.1,0,10.1,1.9,13.6,5l-3.4,4.4c-2.7-2.5-6.5-4-10.2-4c-7.2,0-12.9,5.5-12.9,12.5c0,7.1,5.7,12.6,12.9,12.6c2.6,0,5.6-0.9,8.1-2.4
		v-9.9H736.9z"/>
	<path id="XMLID_124_" class="st0" d="M804.9,387l-14.1-35.4h6.4l10.9,28.7l11-28.7h6.2L811,387H804.9z"/>
	<path id="XMLID_121_" class="st0" d="M851.1,379l-3.4,8h-6.2l15.6-35.4h6.1l15.5,35.4h-6.4l-3.4-8H851.1z M860,358l-6.7,15.7h13.3
		L860,358z"/>
	<path id="XMLID_119_" class="st0" d="M926.6,387l-18.8-25.4V387h-6v-35.4h5.9l18.9,25.4v-25.4h5.9V387H926.6z"/>
	<path id="XMLID_117_" class="st0" d="M985.1,387l-18.8-25.4V387h-6v-35.4h5.9l18.9,25.4v-25.4h5.9V387H985.1z"/>
</g>
<g id="XMLID_105_">
	<path id="XMLID_114_" class="st0" d="M93.8,669.3c0,7.1-4.2,11.2-11,11.2c-4.2,0-7.8-1.9-10.4-5.1l2.8-4.5c2.3,2.5,5.1,3.9,7.5,3.9
		c3.2,0,5.1-2,5.1-5.6v-18.9H75.6v-5.4h18.2V669.3z"/>
	<path id="XMLID_112_" class="st0" d="M150.9,665.6c0,9.2-5.8,14.9-15.4,14.9c-9.5,0-15.4-5.7-15.4-14.9v-20.7h6v20.7
		c0,6,3.7,9.5,9.5,9.5c5.8,0,9.3-3.5,9.3-9.5v-20.7h6V665.6z"/>
	<path id="XMLID_110_" class="st0" d="M177.8,680.2v-35.4h6v35.4H177.8z"/>
	<path id="XMLID_108_" class="st0" d="M240.6,650.2l-3.5,4.3c-2.6-2.8-6.3-4.5-9.9-4.5c-7.1,0-12.6,5.5-12.6,12.4
		c0,7,5.6,12.5,12.6,12.5c3.5,0,7.2-1.6,9.9-4.2l3.5,3.9c-3.6,3.5-8.7,5.8-13.7,5.8c-10.4,0-18.4-7.8-18.4-18
		c0-10.1,8.1-17.8,18.6-17.8C232.2,644.7,237.2,646.8,240.6,650.2z"/>
	<path id="XMLID_106_" class="st0" d="M271.1,650.2v9.5h17.3v5.4h-17.3v9.8h19.9v5.4h-25.9v-35.4h25.3v5.4H271.1z"/>
</g>
<g id="XMLID_96_">
	<path id="XMLID_103_" class="st0" d="M1192.1,232.1c12.7,0.6,21.3,7.5,21.3,18.8c0,13-9.6,22.1-24.8,22.1c-8.2,0-16.6-2.9-22.4-7.2
		l3.5-6.8c5.1,4.1,11.7,6.7,18.3,6.7c11,0,17.5-6,17.5-14.5c0-8.9-6.6-13.4-17.6-13.4h-8.7v-5.2l20.7-22.9h-30.6V202h40.7v5.5
		l-21.9,24.3L1192.1,232.1z"/>
	<path id="XMLID_101_" class="st0" d="M1234.6,209.7v19.9c3.6-0.6,8.7-1,11.9-1c14.9,0,24.3,8.8,24.3,20.9c0,14.1-9.8,23.3-25,23.3
		c-7.8,0-17.2-3-23.8-7.7l3.3-6.9c5.9,4.4,13.3,7.1,19.7,7.1c10.6,0,17.2-5.9,17.2-15.4c0-8.4-6.6-13.6-17-13.6
		c-4.6,0-13.1,0.7-18.2,1.7v-36.2h41v7.8H1234.6z"/>
	<path id="XMLID_99_" class="st0" d="M1290.8,268.3c0,1.6-0.6,2.9-1.5,4.3l-4.7,7.3h-4.4l3.3-7.4c-1.5-0.9-2.2-2.5-2.2-4.3
		c0-2.9,2-5.1,4.7-5.1C1288.6,263.1,1290.8,265.1,1290.8,268.3z"/>
	<path id="XMLID_97_" class="st0" d="M1302.2,245v-5.9h23.7v5.9H1302.2z"/>
</g>
<g id="XMLID_87_">
	<path id="XMLID_94_" class="st0" d="M1193.2,377.4c12.7,0.6,21.3,7.5,21.3,18.8c0,13-9.6,22.1-24.8,22.1c-8.2,0-16.6-2.9-22.4-7.2
		l3.5-6.8c5.1,4.1,11.7,6.7,18.3,6.7c11,0,17.5-6,17.5-14.5c0-8.9-6.6-13.4-17.6-13.4h-8.7v-5.2l20.7-22.9h-30.6v-7.7h40.7v5.5
		l-21.9,24.3L1193.2,377.4z"/>
	<path id="XMLID_92_" class="st0" d="M1243.5,417.9h-8.6L1264,355h-32.9v10.3h-7.3v-18.1h49.1v6.8L1243.5,417.9z"/>
	<path id="XMLID_90_" class="st0" d="M1290.8,413.6c0,1.6-0.6,2.9-1.5,4.3l-4.7,7.3h-4.4l3.3-7.4c-1.5-0.9-2.2-2.5-2.2-4.3
		c0-2.9,2-5.1,4.7-5.1C1288.6,408.4,1290.8,410.3,1290.8,413.6z"/>
	<path id="XMLID_88_" class="st0" d="M1302.2,390.2v-5.9h23.7v5.9H1302.2z"/>
</g>
<g id="XMLID_78_">
	<path id="XMLID_85_" class="st0" d="M1195.9,536.8v-18.7h7.6v18.7h10.7v7.8h-10.7v18.6h-7.6v-18.6H1162v-6.7l25.4-45.5h8
		l-24.6,44.3H1195.9z"/>
	<path id="XMLID_83_" class="st0" d="M1266.5,509.6c0,6.8-5.1,15-12.5,22.9l-21.7,23h38.3v7.7H1222v-6.7l26.5-28.8
		c6-6,9.7-12.5,9.7-17.1c0-6.9-5.3-11-14.1-11c-6.5,0-13.6,3.3-19.3,8.8l-3.5-6.5c6.9-6.2,15.5-9.8,23.8-9.8
		C1258.1,492.2,1266.5,498.9,1266.5,509.6z"/>
	<path id="XMLID_81_" class="st0" d="M1290.8,558.9c0,1.6-0.6,2.9-1.5,4.3l-4.7,7.3h-4.4l3.3-7.4c-1.5-0.9-2.2-2.5-2.2-4.3
		c0-2.9,2-5.1,4.7-5.1C1288.6,553.7,1290.8,555.6,1290.8,558.9z"/>
	<path id="XMLID_79_" class="st0" d="M1302.2,535.5v-5.9h23.7v5.9H1302.2z"/>
</g>
<g id="XMLID_68_">
	<path id="XMLID_76_" class="st0" d="M1165.5,645.5v19.9c3.6-0.6,8.7-1,11.9-1c14.9,0,24.3,8.8,24.3,20.9c0,14.1-9.8,23.3-25,23.3
		c-7.8,0-17.2-3-23.8-7.7l3.3-6.9c5.9,4.4,13.3,7.1,19.7,7.1c10.6,0,17.2-5.9,17.2-15.4c0-8.4-6.6-13.6-17-13.6
		c-4.6,0-13.1,0.7-18.2,1.7v-36.2h41v7.8H1165.5z"/>
	<path id="XMLID_73_" class="st0" d="M1270.5,673.1c0,22.8-10.4,35.6-29.2,35.6c-18.8,0-29.2-12.7-29.2-35.6
		c0-22.8,10.4-35.6,29.2-35.6C1260.1,637.6,1270.5,650.3,1270.5,673.1z M1220.3,673.1c0,19.1,7.3,28.7,21,28.7
		c13.7,0,21-9.6,21-28.7c0-19.2-7.3-28.7-21-28.7C1227.6,644.4,1220.3,653.9,1220.3,673.1z"/>
	<path id="XMLID_71_" class="st0" d="M1290.8,704.1c0,1.6-0.6,2.9-1.5,4.3l-4.7,7.3h-4.4l3.3-7.4c-1.5-0.9-2.2-2.5-2.2-4.3
		c0-2.9,2-5.1,4.7-5.1C1288.6,699,1290.8,700.9,1290.8,704.1z"/>
	<path id="XMLID_69_" class="st0" d="M1302.2,680.8v-5.9h23.7v5.9H1302.2z"/>
</g>
<g id="XMLID_58_">
	<path id="XMLID_66_" class="st0" d="M1489.8,232.1c12.7,0.6,21.3,7.5,21.3,18.8c0,13-9.6,22.1-24.8,22.1c-8.2,0-16.6-2.9-22.4-7.2
		l3.5-6.8c5.1,4.1,11.7,6.7,18.3,6.7c11,0,17.5-6,17.5-14.5c0-8.9-6.6-13.4-17.6-13.4h-8.7v-5.2l20.7-22.9h-30.6V202h40.7v5.5
		l-21.9,24.3L1489.8,232.1z"/>
	<path id="XMLID_63_" class="st0" d="M1523.9,267.9l3.2-6.5c4.6,2.7,10.8,4.3,16.3,4.3c15.2,0,22.7-12.4,21.6-31.5
		c-3.1,8.3-10.7,12.9-21.1,12.9c-13.8,0-22.4-8.6-22.4-22.2c0-14.4,9.4-23.4,23.9-23.4c17.2,0,27.6,12.4,27.6,34.1
		c0,22.5-11.1,37.3-29.1,37.3C1537.4,272.9,1529.6,270.9,1523.9,267.9z M1563.2,224.4c0-6.8-5.2-15.5-17.3-15.5
		c-10,0-16.9,6-16.9,16.1c0,9.4,6.3,15.3,16.3,15.3C1556.5,240.3,1563.2,232.8,1563.2,224.4z"/>
	<path id="XMLID_61_" class="st0" d="M1592.5,268.3c0,1.6-0.6,2.9-1.5,4.3l-4.7,7.3h-4.4l3.3-7.4c-1.5-0.9-2.2-2.5-2.2-4.3
		c0-2.9,2-5.1,4.7-5.1C1590.2,263.1,1592.5,265.1,1592.5,268.3z"/>
	<path id="XMLID_59_" class="st0" d="M1603.9,245v-5.9h23.7v5.9H1603.9z"/>
</g>
<g id="XMLID_49_">
	<path id="XMLID_56_" class="st0" d="M1518.8,391.5v-18.7h7.6v18.7h10.7v7.8h-10.7v18.6h-7.6v-18.6h-33.9v-6.7l25.4-45.5h8
		l-24.6,44.3H1518.8z"/>
	<path id="XMLID_54_" class="st0" d="M1556.1,417.9v-63h-14.3v-7.7h22.3v70.7H1556.1z"/>
	<path id="XMLID_52_" class="st0" d="M1592.5,413.6c0,1.6-0.6,2.9-1.5,4.3l-4.7,7.3h-4.4l3.3-7.4c-1.5-0.9-2.2-2.5-2.2-4.3
		c0-2.9,2-5.1,4.7-5.1C1590.2,408.4,1592.5,410.3,1592.5,413.6z"/>
	<path id="XMLID_50_" class="st0" d="M1603.9,390.2v-5.9h23.7v5.9H1603.9z"/>
</g>
<g id="XMLID_40_">
	<path id="XMLID_47_" class="st0" d="M1500.3,536.8v-18.7h7.6v18.7h10.7v7.8h-10.7v18.6h-7.6v-18.6h-33.9v-6.7l25.4-45.5h8
		l-24.6,44.3H1500.3z"/>
	<path id="XMLID_45_" class="st0" d="M1545.2,563.2h-8.6l29.1-62.9h-32.9v10.3h-7.3v-18.1h49.1v6.8L1545.2,563.2z"/>
	<path id="XMLID_43_" class="st0" d="M1592.5,558.9c0,1.6-0.6,2.9-1.5,4.3l-4.7,7.3h-4.4l3.3-7.4c-1.5-0.9-2.2-2.5-2.2-4.3
		c0-2.9,2-5.1,4.7-5.1C1590.2,553.7,1592.5,555.6,1592.5,558.9z"/>
	<path id="XMLID_41_" class="st0" d="M1603.9,535.5v-5.9h23.7v5.9H1603.9z"/>
</g>
<g id="XMLID_31_">
	<path id="XMLID_38_" class="st0" d="M1479.2,645.5v19.9c3.6-0.6,8.7-1,11.9-1c14.9,0,24.3,8.8,24.3,20.9c0,14.1-9.8,23.3-25,23.3
		c-7.8,0-17.2-3-23.8-7.7l3.3-6.9c5.9,4.4,13.3,7.1,19.7,7.1c10.6,0,17.2-5.9,17.2-15.4c0-8.4-6.6-13.6-17-13.6
		c-4.6,0-13.1,0.7-18.2,1.7v-36.2h41v7.8H1479.2z"/>
	<path id="XMLID_36_" class="st0" d="M1536.3,645.5v19.9c3.6-0.6,8.7-1,11.9-1c14.9,0,24.3,8.8,24.3,20.9c0,14.1-9.8,23.3-25,23.3
		c-7.8,0-17.2-3-23.8-7.7l3.3-6.9c5.9,4.4,13.3,7.1,19.7,7.1c10.6,0,17.2-5.9,17.2-15.4c0-8.4-6.6-13.6-17-13.6
		c-4.6,0-13.1,0.7-18.2,1.7v-36.2h41v7.8H1536.3z"/>
	<path id="XMLID_34_" class="st0" d="M1592.5,704.1c0,1.6-0.6,2.9-1.5,4.3l-4.7,7.3h-4.4l3.3-7.4c-1.5-0.9-2.2-2.5-2.2-4.3
		c0-2.9,2-5.1,4.7-5.1C1590.2,699,1592.5,700.9,1592.5,704.1z"/>
	<path id="XMLID_32_" class="st0" d="M1603.9,680.8v-5.9h23.7v5.9H1603.9z"/>
</g>
<use xlink:href="#New_Symbol"  width="1096.6" height="370.7" id="XMLID_5_" x="-548.3" y="-185.4" transform="matrix(1.4135 0 0 -1.4135 849.6758 1335.2455)" style="overflow:visible;"/>
</svg>
