<?xml version="1.0" encoding="utf-8"?>
<!-- Generator: Adobe Illustrator 19.0.0, SVG Export Plug-In . SVG Version: 6.00 Build 0)  -->
<svg version="1.1" id="Layer_1" xmlns="http://www.w3.org/2000/svg" xmlns:xlink="http://www.w3.org/1999/xlink" x="0px" y="0px"
	 viewBox="0 0 961 561" style="enable-background:new 0 0 961 561;" xml:space="preserve">
<style type="text/css">
	.st0{fill:#FFFFFF;}
</style>
<g id="XMLID_1261_">
	<path id="XMLID_558_" class="st0" d="M763.3,125.9V123h-3.7v2.9h-1.2v-7h1.2v3h3.7v-3h1.2v7H763.3z"/>
	<path id="XMLID_557_" class="st0" d="M771.2,120v1.9h3.4v1.1h-3.4v1.9h3.9v1.1H770v-7h5v1.1L771.2,120L771.2,120z"/>
	<path id="XMLID_556_" class="st0" d="M784.4,124.9v1.1h-4.2v-7h1.2v5.9H784.4z"/>
</g>
<g id="XMLID_1252_">
	<path id="XMLID_1258_" class="st0" d="M765.9,32.1l-1.1,2.1c-1.5-0.9-3.6-1.4-5.4-1.4c-5,0-7.5,4.1-7.2,10.4c1-2.7,3.5-4.3,7-4.3
		c4.6,0,7.4,2.8,7.4,7.3c0,4.8-3.1,7.8-7.9,7.8c-5.7,0-9.1-4.1-9.1-11.3c0-7.4,3.7-12.3,9.6-12.3C761.4,30.4,764,31.1,765.9,32.1z
		 M752.9,46.4c0,2.2,1.7,5.1,5.7,5.1c3.3,0,5.6-2,5.6-5.3c0-3.1-2.1-5.1-5.4-5.1C755.1,41.2,752.9,43.7,752.9,46.4z"/>
	<path id="XMLID_1255_" class="st0" d="M789.1,42.2c0,7.5-3.4,11.8-9.7,11.8s-9.7-4.2-9.7-11.8s3.4-11.8,9.7-11.8
		C785.7,30.4,789.1,34.6,789.1,42.2z M772.5,42.2c0,6.3,2.4,9.5,6.9,9.5s6.9-3.2,6.9-9.5c0-6.3-2.4-9.5-6.9-9.5
		S772.5,35.8,772.5,42.2z"/>
	<path id="XMLID_551_" class="st0" d="M795.8,52.4c0,0.5-0.2,1-0.5,1.4l-1.6,2.4h-1.5l1.1-2.4c-0.5-0.3-0.7-0.8-0.7-1.4
		c0-1,0.7-1.7,1.6-1.7C795.1,50.7,795.8,51.4,795.8,52.4z"/>
	<path id="XMLID_550_" class="st0" d="M799.6,44.7v-1.9h7.8v1.9H799.6z"/>
</g>
<g id="XMLID_1244_">
	<path id="XMLID_549_" class="st0" d="M748,107.9V87.1h-4.8v-2.5h7.4v23.4L748,107.9L748,107.9z"/>
	<path id="XMLID_548_" class="st0" d="M760.4,107.9V87.1h-4.8v-2.5h7.4v23.4L760.4,107.9L760.4,107.9z"/>
	<path id="XMLID_1247_" class="st0" d="M788.5,96.2c0,7.5-3.4,11.8-9.7,11.8c-6.2,0-9.7-4.2-9.7-11.8c0-7.5,3.4-11.8,9.7-11.8
		C785.1,84.5,788.5,88.7,788.5,96.2z M771.9,96.2c0,6.3,2.4,9.5,6.9,9.5s6.9-3.2,6.9-9.5c0-6.3-2.4-9.5-6.9-9.5
		S771.9,89.9,771.9,96.2z"/>
	<path id="XMLID_545_" class="st0" d="M795.2,106.5c0,0.5-0.2,1-0.5,1.4l-1.6,2.4h-1.5l1.1-2.4c-0.5-0.3-0.7-0.8-0.7-1.4
		c0-1,0.7-1.7,1.6-1.7C794.5,104.8,795.2,105.4,795.2,106.5z"/>
	<path id="XMLID_544_" class="st0" d="M799,98.8v-1.9h7.8v1.9H799z"/>
</g>
<g id="XMLID_1237_">
	<path id="XMLID_543_" class="st0" d="M751.9,70.5v-2.9h-3.7v2.9H747v-7h1.2v3h3.7v-3h1.2v7L751.9,70.5L751.9,70.5z"/>
	<path id="XMLID_1240_" class="st0" d="M759.6,69l-0.7,1.6h-1.2l3.1-7h1.2l3.1,7h-1.3l-0.7-1.6H759.6z M761.4,64.8l-1.3,3.1h2.6
		L761.4,64.8z"/>
	<path id="XMLID_540_" class="st0" d="M773.9,69.5v1.1h-4.2v-7h1.2v6L773.9,69.5L773.9,69.5z"/>
	<path id="XMLID_539_" class="st0" d="M780.5,70.5l-2.8-7h1.3l2.2,5.7l2.2-5.7h1.2l-2.8,7H780.5z"/>
</g>
<g id="XMLID_1233_">
	<path id="XMLID_538_" class="st0" d="M763.3,261.1v-2.9h-3.7v2.9h-1.2v-7h1.2v3h3.7v-3h1.2v7H763.3z"/>
	<path id="XMLID_537_" class="st0" d="M771.2,255.2v1.9h3.4v1.1h-3.4v1.9h3.9v1.1H770v-7h5v1.1L771.2,255.2L771.2,255.2z"/>
	<path id="XMLID_536_" class="st0" d="M784.4,260.1v1.1h-4.2v-7h1.2v6L784.4,260.1L784.4,260.1z"/>
</g>
<g id="XMLID_1228_">
	<path id="XMLID_535_" class="st0" d="M758.5,168.3v6.6c1.2-0.2,2.9-0.3,3.9-0.3c4.9,0,8.1,2.9,8.1,6.9c0,4.7-3.2,7.7-8.2,7.7
		c-2.6,0-5.7-1-7.9-2.5l1.1-2.3c1.9,1.5,4.4,2.3,6.5,2.3c3.5,0,5.7-1.9,5.7-5.1c0-2.8-2.2-4.5-5.6-4.5c-1.5,0-4.3,0.2-6,0.6v-12
		h13.6v2.6L758.5,168.3L758.5,168.3z"/>
	<path id="XMLID_534_" class="st0" d="M788.4,171.3c0,2.2-1.7,4.9-4.1,7.6l-7.2,7.6h12.7v2.5h-16.1v-2.2l8.7-9.5
		c2-2,3.2-4.1,3.2-5.7c0-2.3-1.7-3.6-4.7-3.6c-2.1,0-4.5,1.1-6.4,2.9l-1.2-2.1c2.3-2,5.1-3.2,7.9-3.2
		C785.6,165.6,788.4,167.8,788.4,171.3z"/>
	<path id="XMLID_533_" class="st0" d="M796.4,187.6c0,0.5-0.2,1-0.5,1.4l-1.6,2.4h-1.5l1.1-2.4c-0.5-0.3-0.7-0.8-0.7-1.4
		c0-1,0.7-1.7,1.6-1.7C795.7,185.9,796.4,186.6,796.4,187.6z"/>
	<path id="XMLID_532_" class="st0" d="M800.2,179.9V178h7.8v1.9H800.2z"/>
</g>
<g id="XMLID_1221_">
	<path id="XMLID_1225_" class="st0" d="M756.1,241.5l1.1-2.1c1.5,0.9,3.6,1.4,5.4,1.4c5,0,7.5-4.1,7.2-10.4c-1,2.7-3.5,4.3-7,4.3
		c-4.6,0-7.4-2.8-7.4-7.3c0-4.8,3.1-7.8,7.9-7.8c5.7,0,9.1,4.1,9.1,11.3c0,7.5-3.7,12.3-9.6,12.3C760.6,243.2,758,242.5,756.1,241.5
		z M769.1,227.2c0-2.2-1.7-5.1-5.7-5.1c-3.3,0-5.6,2-5.6,5.3c0,3.1,2.1,5.1,5.4,5.1C766.9,232.4,769.1,230,769.1,227.2z"/>
	<path id="XMLID_529_" class="st0" d="M779.1,222.3v6.6c1.2-0.2,2.9-0.3,3.9-0.3c4.9,0,8.1,2.9,8.1,6.9c0,4.7-3.2,7.7-8.2,7.7
		c-2.6,0-5.7-1-7.9-2.5l1.1-2.3c1.9,1.5,4.4,2.3,6.5,2.3c3.5,0,5.7-1.9,5.7-5.1c0-2.8-2.2-4.5-5.6-4.5c-1.5,0-4.3,0.2-6,0.6v-12
		h13.6v2.6L779.1,222.3L779.1,222.3z"/>
	<path id="XMLID_528_" class="st0" d="M797.7,241.7c0,0.5-0.2,1-0.5,1.4l-1.6,2.4h-1.5l1.1-2.4c-0.5-0.3-0.7-0.8-0.7-1.4
		c0-1,0.7-1.7,1.6-1.7C796.9,240,797.7,240.6,797.7,241.7z"/>
	<path id="XMLID_527_" class="st0" d="M801.4,234V232h7.8v1.9H801.4z"/>
</g>
<g id="XMLID_1214_">
	<path id="XMLID_526_" class="st0" d="M751.9,205.7v-2.9h-3.7v2.9H747v-7h1.2v3h3.7v-3h1.2v7H751.9z"/>
	<path id="XMLID_1217_" class="st0" d="M759.6,204.1l-0.7,1.6h-1.2l3.1-7h1.2l3.1,7h-1.3l-0.7-1.6H759.6z M761.4,200l-1.3,3.1h2.6
		L761.4,200z"/>
	<path id="XMLID_523_" class="st0" d="M773.9,204.7v1.1h-4.2v-7h1.2v6L773.9,204.7L773.9,204.7z"/>
	<path id="XMLID_522_" class="st0" d="M780.5,205.7l-2.8-7h1.3l2.2,5.7l2.2-5.7h1.2l-2.8,7H780.5z"/>
</g>
<g id="XMLID_1210_">
	<path id="XMLID_521_" class="st0" d="M762.4,396v-2.9h-3.7v2.9h-1.2v-7h1.2v3h3.7v-3h1.2v7H762.4z"/>
	<path id="XMLID_520_" class="st0" d="M770.3,390.1v1.9h3.4v1.1h-3.4v1.9h3.9v1.1h-5.1v-7h5v1.1L770.3,390.1L770.3,390.1z"/>
	<path id="XMLID_519_" class="st0" d="M783.5,395v1.1h-4.2v-7h1.2v6L783.5,395L783.5,395z"/>
</g>
<g id="XMLID_1200_">
	<path id="XMLID_1207_" class="st0" d="M768.5,302.2l-1.1,2.1c-1.5-0.9-3.6-1.4-5.4-1.4c-5,0-7.5,4.1-7.2,10.4c1-2.7,3.5-4.3,7-4.3
		c4.6,0,7.4,2.8,7.4,7.3c0,4.8-3.1,7.8-7.9,7.8c-5.7,0-9.1-4.1-9.1-11.3c0-7.4,3.7-12.3,9.6-12.3C764,300.5,766.6,301.2,768.5,302.2
		z M755.5,316.5c0,2.2,1.7,5.1,5.7,5.1c3.3,0,5.6-2,5.6-5.3c0-3.1-2.1-5.1-5.4-5.1C757.7,311.3,755.5,313.7,755.5,316.5z"/>
	<path id="XMLID_1203_" class="st0" d="M788.4,306.4c0,2.4-1.4,4.2-3.8,5.1c3,0.9,4.9,3,4.9,6c0,4.2-3.3,6.7-8.6,6.7
		c-5.4,0-8.7-2.5-8.7-6.6c0-3,1.9-5.1,5.1-6c-2.4-1-3.9-2.8-3.9-5.2c0-3.6,2.9-5.8,7.5-5.8C785.5,300.5,788.4,302.7,788.4,306.4z
		 M774.8,317.2c0,2.9,2.3,4.6,6.1,4.6c3.8,0,6.1-1.7,6.1-4.6c0-2.8-2.3-4.4-6.1-4.4C777.1,312.7,774.8,314.4,774.8,317.2z
		 M775.7,306.5c0,2.5,1.9,4,5.2,4c3.2,0,5.2-1.5,5.2-4c0-2.5-1.9-4-5.2-4C777.7,302.5,775.7,304,775.7,306.5z"/>
	<path id="XMLID_513_" class="st0" d="M796.1,322.5c0,0.5-0.2,1-0.5,1.4l-1.6,2.4h-1.5l1.1-2.4c-0.5-0.3-0.7-0.8-0.7-1.4
		c0-1,0.7-1.7,1.6-1.7C795.4,320.8,796.1,321.5,796.1,322.5z"/>
	<path id="XMLID_512_" class="st0" d="M799.9,314.8v-1.9h7.8v1.9H799.9z"/>
</g>
<g id="XMLID_1194_">
	<path id="XMLID_511_" class="st0" d="M747.1,378v-20.8h-4.8v-2.5h7.4V378L747.1,378L747.1,378z"/>
	<path id="XMLID_510_" class="st0" d="M770.5,360.3c0,2.2-1.7,4.9-4.1,7.6l-7.2,7.6h12.7v2.5h-16.1v-2.2l8.7-9.5
		c2-2,3.2-4.1,3.2-5.7c0-2.3-1.7-3.6-4.7-3.6c-2.1,0-4.5,1.1-6.4,2.9l-1.2-2.1c2.3-2,5.1-3.2,7.9-3.2
		C767.7,354.5,770.5,356.8,770.5,360.3z"/>
	<path id="XMLID_509_" class="st0" d="M778.8,357.2v6.6c1.2-0.2,2.9-0.3,3.9-0.3c4.9,0,8.1,2.9,8.1,6.9c0,4.7-3.2,7.7-8.2,7.7
		c-2.6,0-5.7-1-7.9-2.5l1.1-2.3c1.9,1.5,4.4,2.3,6.5,2.3c3.5,0,5.7-1.9,5.7-5.1c0-2.8-2.2-4.5-5.6-4.5c-1.5,0-4.3,0.2-6,0.6v-12
		h13.6v2.6L778.8,357.2L778.8,357.2z"/>
	<path id="XMLID_508_" class="st0" d="M797.4,376.6c0,0.5-0.2,1-0.5,1.4l-1.6,2.4h-1.5l1.1-2.4c-0.5-0.3-0.7-0.8-0.7-1.4
		c0-1,0.7-1.7,1.6-1.7C796.6,374.9,797.4,375.5,797.4,376.6z"/>
	<path id="XMLID_507_" class="st0" d="M801.1,368.9v-1.9h7.8v1.9H801.1z"/>
</g>
<g id="XMLID_1187_">
	<path id="XMLID_506_" class="st0" d="M751,340.6v-2.9h-3.7v2.9h-1.2v-7h1.2v3h3.7v-3h1.2v7H751z"/>
	<path id="XMLID_1190_" class="st0" d="M758.7,339l-0.7,1.6h-1.2l3.1-7h1.2l3.1,7h-1.3l-0.7-1.6H758.7z M760.5,334.9l-1.3,3.1h2.6
		L760.5,334.9z"/>
	<path id="XMLID_503_" class="st0" d="M773,339.6v1.1h-4.2v-7h1.2v6L773,339.6L773,339.6z"/>
	<path id="XMLID_502_" class="st0" d="M779.6,340.6l-2.8-7h1.3l2.2,5.7l2.2-5.7h1.2l-2.8,7H779.6z"/>
</g>
<g id="XMLID_1183_">
	<path id="XMLID_501_" class="st0" d="M762.4,530.8v-2.9h-3.7v2.9h-1.2v-7h1.2v3h3.7v-3h1.2v7H762.4z"/>
	<path id="XMLID_500_" class="st0" d="M770.3,524.8v1.9h3.4v1.1h-3.4v1.9h3.9v1.1h-5.1v-7h5v1.1L770.3,524.8L770.3,524.8z"/>
	<path id="XMLID_499_" class="st0" d="M783.5,529.7v1.1h-4.2v-7h1.2v6L783.5,529.7L783.5,529.7z"/>
</g>
<g id="XMLID_1173_">
	<path id="XMLID_1180_" class="st0" d="M768.5,436.9l-1.1,2.1c-1.5-0.9-3.6-1.4-5.4-1.4c-5,0-7.5,4.1-7.2,10.4c1-2.7,3.5-4.3,7-4.3
		c4.6,0,7.4,2.8,7.4,7.3c0,4.8-3.1,7.8-7.9,7.8c-5.7,0-9.1-4.1-9.1-11.3c0-7.4,3.7-12.3,9.6-12.3C764,435.2,766.6,435.9,768.5,436.9
		z M755.5,451.3c0,2.2,1.7,5.1,5.7,5.1c3.3,0,5.6-2,5.6-5.3c0-3.1-2.1-5.1-5.4-5.1C757.7,446,755.5,448.5,755.5,451.3z"/>
	<path id="XMLID_1176_" class="st0" d="M788.4,441.1c0,2.4-1.4,4.2-3.8,5.1c3,0.9,4.9,3,4.9,6c0,4.2-3.3,6.7-8.6,6.7
		c-5.4,0-8.7-2.5-8.7-6.6c0-3,1.9-5.1,5.1-6c-2.4-1-3.9-2.8-3.9-5.2c0-3.6,2.9-5.8,7.5-5.8C785.5,435.2,788.4,437.5,788.4,441.1z
		 M774.8,451.9c0,2.9,2.3,4.6,6.1,4.6c3.8,0,6.1-1.7,6.1-4.6c0-2.8-2.3-4.4-6.1-4.4C777.1,447.5,774.8,449.2,774.8,451.9z
		 M775.7,441.3c0,2.5,1.9,4,5.2,4c3.2,0,5.2-1.5,5.2-4c0-2.5-1.9-4-5.2-4C777.7,437.3,775.7,438.8,775.7,441.3z"/>
	<path id="XMLID_493_" class="st0" d="M796.1,457.3c0,0.5-0.2,1-0.5,1.4l-1.6,2.4h-1.5l1.1-2.4c-0.5-0.3-0.7-0.8-0.7-1.4
		c0-1,0.7-1.7,1.6-1.7C795.4,455.6,796.1,456.2,796.1,457.3z"/>
	<path id="XMLID_492_" class="st0" d="M799.9,449.6v-1.9h7.8v1.9H799.9z"/>
</g>
<g id="XMLID_1167_">
	<path id="XMLID_491_" class="st0" d="M747.1,512.8v-20.8h-4.8v-2.5h7.4v23.4L747.1,512.8L747.1,512.8z"/>
	<path id="XMLID_490_" class="st0" d="M770.5,495c0,2.2-1.7,4.9-4.1,7.6l-7.2,7.6h12.7v2.5h-16.1v-2.2l8.7-9.5c2-2,3.2-4.1,3.2-5.7
		c0-2.3-1.7-3.6-4.7-3.6c-2.1,0-4.5,1.1-6.4,2.9l-1.2-2.1c2.3-2,5.1-3.2,7.9-3.2C767.7,489.3,770.5,491.6,770.5,495z"/>
	<path id="XMLID_489_" class="st0" d="M778.8,492v6.6c1.2-0.2,2.9-0.3,3.9-0.3c4.9,0,8.1,2.9,8.1,6.9c0,4.7-3.2,7.7-8.2,7.7
		c-2.6,0-5.7-1-7.9-2.5l1.1-2.3c1.9,1.5,4.4,2.3,6.5,2.3c3.5,0,5.7-1.9,5.7-5.1c0-2.8-2.2-4.5-5.6-4.5c-1.5,0-4.3,0.2-6,0.6v-12
		h13.6v2.6H778.8z"/>
	<path id="XMLID_488_" class="st0" d="M797.4,511.3c0,0.5-0.2,1-0.5,1.4l-1.6,2.4h-1.5l1.1-2.4c-0.5-0.3-0.7-0.8-0.7-1.4
		c0-1,0.7-1.7,1.6-1.7C796.6,509.6,797.4,510.3,797.4,511.3z"/>
	<path id="XMLID_487_" class="st0" d="M801.1,503.6v-1.9h7.8v1.9H801.1z"/>
</g>
<g id="XMLID_1160_">
	<path id="XMLID_486_" class="st0" d="M751,475.4v-2.9h-3.7v2.9h-1.2v-7h1.2v3h3.7v-3h1.2v7H751z"/>
	<path id="XMLID_1163_" class="st0" d="M758.7,473.8l-0.7,1.6h-1.2l3.1-7h1.2l3.1,7h-1.3l-0.7-1.6H758.7z M760.5,469.6l-1.3,3.1h2.6
		L760.5,469.6z"/>
	<path id="XMLID_483_" class="st0" d="M773,474.3v1.1h-4.2v-7h1.2v6L773,474.3L773,474.3z"/>
	<path id="XMLID_482_" class="st0" d="M779.6,475.4l-2.8-7h1.3l2.2,5.7l2.2-5.7h1.2l-2.8,7H779.6z"/>
</g>
<g id="XMLID_1156_">
	<path id="XMLID_481_" class="st0" d="M875.5,125.9V123h-3.7v2.9h-1.2v-7h1.2v3h3.7v-3h1.2v7H875.5z"/>
	<path id="XMLID_480_" class="st0" d="M883.4,120v1.9h3.4v1.1h-3.4v1.9h3.9v1.1h-5.1v-7h5v1.1L883.4,120L883.4,120z"/>
	<path id="XMLID_479_" class="st0" d="M896.6,124.9v1.1h-4.2v-7h1.2v5.9H896.6z"/>
</g>
<g id="XMLID_1147_">
	<path id="XMLID_1153_" class="st0" d="M880.8,32.1l-1.1,2.1c-1.5-0.9-3.6-1.4-5.4-1.4c-5,0-7.5,4.1-7.2,10.4c1-2.7,3.5-4.3,7-4.3
		c4.6,0,7.4,2.8,7.4,7.3c0,4.8-3.1,7.8-7.9,7.8c-5.7,0-9.1-4.1-9.1-11.3c0-7.4,3.7-12.3,9.6-12.3C876.4,30.4,878.9,31.1,880.8,32.1z
		 M867.9,46.4c0,2.2,1.7,5.1,5.7,5.1c3.3,0,5.6-2,5.6-5.3c0-3.1-2.1-5.1-5.4-5.1C870,41.2,867.8,43.7,867.9,46.4z"/>
	<path id="XMLID_1150_" class="st0" d="M901,32.1l-1.1,2.1c-1.5-0.9-3.6-1.4-5.4-1.4c-5,0-7.5,4.1-7.2,10.4c1-2.7,3.5-4.3,7-4.3
		c4.6,0,7.4,2.8,7.4,7.3c0,4.8-3.1,7.8-7.9,7.8c-5.7,0-9.1-4.1-9.1-11.3c0-7.4,3.7-12.3,9.6-12.3C896.5,30.4,899.1,31.1,901,32.1z
		 M888,46.4c0,2.2,1.7,5.1,5.7,5.1c3.3,0,5.6-2,5.6-5.3c0-3.1-2.1-5.1-5.4-5.1C890.2,41.2,888,43.7,888,46.4z"/>
	<path id="XMLID_474_" class="st0" d="M908.1,52.4c0,0.5-0.2,1-0.5,1.4l-1.6,2.4h-1.5l1.1-2.4c-0.5-0.3-0.7-0.8-0.7-1.4
		c0-1,0.7-1.7,1.6-1.7C907.4,50.7,908.1,51.4,908.1,52.4z"/>
	<path id="XMLID_473_" class="st0" d="M911.9,44.7v-1.9h7.8v1.9H911.9z"/>
</g>
<g id="XMLID_1141_">
	<path id="XMLID_472_" class="st0" d="M864.3,107.9V87.1h-4.8v-2.5h7.4v23.4L864.3,107.9L864.3,107.9z"/>
	<path id="XMLID_471_" class="st0" d="M887.7,90.2c0,2.2-1.7,4.9-4.1,7.6l-7.2,7.6H889v2.5H873v-2.2l8.7-9.5c2-2,3.2-4.1,3.2-5.7
		c0-2.3-1.7-3.6-4.7-3.6c-2.1,0-4.5,1.1-6.4,2.9l-1.2-2.1c2.3-2,5.1-3.2,7.9-3.2C884.9,84.5,887.7,86.7,887.7,90.2z"/>
	<path id="XMLID_470_" class="st0" d="M896.1,107.9V87.1h-4.8v-2.5h7.4v23.4L896.1,107.9L896.1,107.9z"/>
	<path id="XMLID_469_" class="st0" d="M908.1,106.5c0,0.5-0.2,1-0.5,1.4l-1.6,2.4h-1.5l1.1-2.4c-0.5-0.3-0.7-0.8-0.7-1.4
		c0-1,0.7-1.7,1.6-1.7C907.4,104.8,908.1,105.4,908.1,106.5z"/>
	<path id="XMLID_468_" class="st0" d="M911.9,98.8v-1.9h7.8v1.9H911.9z"/>
</g>
<g id="XMLID_1134_">
	<path id="XMLID_467_" class="st0" d="M864.1,70.5v-2.9h-3.7v2.9h-1.2v-7h1.2v3h3.7v-3h1.2v7L864.1,70.5L864.1,70.5z"/>
	<path id="XMLID_1137_" class="st0" d="M871.8,69l-0.7,1.6h-1.2l3.1-7h1.2l3.1,7H876l-0.7-1.6H871.8z M873.6,64.8l-1.3,3.1h2.6
		L873.6,64.8z"/>
	<path id="XMLID_464_" class="st0" d="M886.1,69.5v1.1h-4.2v-7h1.2v6L886.1,69.5L886.1,69.5z"/>
	<path id="XMLID_463_" class="st0" d="M892.8,70.5l-2.8-7h1.3l2.2,5.7l2.2-5.7h1.2l-2.8,7H892.8z"/>
</g>
<g id="XMLID_1130_">
	<path id="XMLID_462_" class="st0" d="M875.5,261.1v-2.9h-3.7v2.9h-1.2v-7h1.2v3h3.7v-3h1.2v7H875.5z"/>
	<path id="XMLID_461_" class="st0" d="M883.4,255.2v1.9h3.4v1.1h-3.4v1.9h3.9v1.1h-5.1v-7h5v1.1L883.4,255.2L883.4,255.2z"/>
	<path id="XMLID_460_" class="st0" d="M896.6,260.1v1.1h-4.2v-7h1.2v6L896.6,260.1L896.6,260.1z"/>
</g>
<g id="XMLID_1122_">
	<path id="XMLID_459_" class="st0" d="M869,168.3v6.6c1.2-0.2,2.9-0.3,3.9-0.3c4.9,0,8.1,2.9,8.1,6.9c0,4.7-3.2,7.7-8.2,7.7
		c-2.6,0-5.7-1-7.9-2.5l1.1-2.3c1.9,1.5,4.4,2.3,6.5,2.3c3.5,0,5.7-1.9,5.7-5.1c0-2.8-2.2-4.5-5.6-4.5c-1.5,0-4.3,0.2-6,0.6v-12
		h13.6v2.6L869,168.3L869,168.3z"/>
	<path id="XMLID_1125_" class="st0" d="M900.4,171.5c0,2.4-1.4,4.2-3.8,5.1c3,0.9,4.9,3,4.9,6c0,4.2-3.3,6.7-8.6,6.7
		c-5.4,0-8.7-2.5-8.7-6.6c0-3,1.9-5.1,5.1-6c-2.4-1-3.9-2.8-3.9-5.2c0-3.6,2.9-5.8,7.5-5.8C897.5,165.6,900.4,167.8,900.4,171.5z
		 M886.8,182.3c0,2.9,2.3,4.6,6.1,4.6c3.8,0,6.1-1.7,6.1-4.6c0-2.8-2.3-4.4-6.1-4.4C889,177.8,886.8,179.5,886.8,182.3z
		 M887.7,171.6c0,2.5,1.9,4,5.2,4c3.2,0,5.2-1.5,5.2-4s-1.9-4-5.2-4C889.6,167.7,887.7,169.1,887.7,171.6z"/>
	<path id="XMLID_455_" class="st0" d="M908.1,187.6c0,0.5-0.2,1-0.5,1.4l-1.6,2.4h-1.5l1.1-2.4c-0.5-0.3-0.7-0.8-0.7-1.4
		c0-1,0.7-1.7,1.6-1.7C907.4,185.9,908.1,186.6,908.1,187.6z"/>
	<path id="XMLID_454_" class="st0" d="M911.9,179.9V178h7.8v1.9H911.9z"/>
</g>
<g id="XMLID_1114_">
	<path id="XMLID_453_" class="st0" d="M854.4,243.1v-20.8h-4.8v-2.5h7.4v23.4H854.4z"/>
	<path id="XMLID_1118_" class="st0" d="M882.5,231.4c0,7.5-3.4,11.8-9.7,11.8s-9.7-4.2-9.7-11.8s3.4-11.8,9.7-11.8
		S882.5,223.9,882.5,231.4z M866,231.4c0,6.3,2.4,9.5,6.9,9.5s6.9-3.2,6.9-9.5c0-6.3-2.4-9.5-6.9-9.5S866,225.1,866,231.4z"/>
	<path id="XMLID_450_" class="st0" d="M889.6,222.3v6.6c1.2-0.2,2.9-0.3,3.9-0.3c4.9,0,8.1,2.9,8.1,6.9c0,4.7-3.2,7.7-8.2,7.7
		c-2.6,0-5.7-1-7.9-2.5l1.1-2.3c1.9,1.5,4.4,2.3,6.5,2.3c3.5,0,5.7-1.9,5.7-5.1c0-2.8-2.2-4.5-5.6-4.5c-1.5,0-4.3,0.2-6,0.6v-12
		h13.6v2.6L889.6,222.3L889.6,222.3z"/>
	<path id="XMLID_449_" class="st0" d="M908.1,241.7c0,0.5-0.2,1-0.5,1.4l-1.6,2.4h-1.5l1.1-2.4c-0.5-0.3-0.7-0.8-0.7-1.4
		c0-1,0.7-1.7,1.6-1.7C907.4,240,908.1,240.6,908.1,241.7z"/>
	<path id="XMLID_448_" class="st0" d="M911.9,234V232h7.8v1.9H911.9z"/>
</g>
<g id="XMLID_1107_">
	<path id="XMLID_447_" class="st0" d="M864.1,205.7v-2.9h-3.7v2.9h-1.2v-7h1.2v3h3.7v-3h1.2v7H864.1z"/>
	<path id="XMLID_1110_" class="st0" d="M871.8,204.1l-0.7,1.6h-1.2l3.1-7h1.2l3.1,7H876l-0.7-1.6H871.8z M873.6,200l-1.3,3.1h2.6
		L873.6,200z"/>
	<path id="XMLID_444_" class="st0" d="M886.1,204.7v1.1h-4.2v-7h1.2v6L886.1,204.7L886.1,204.7z"/>
	<path id="XMLID_443_" class="st0" d="M892.8,205.7l-2.8-7h1.3l2.2,5.7l2.2-5.7h1.2l-2.8,7H892.8z"/>
</g>
<g id="XMLID_1103_">
	<path id="XMLID_442_" class="st0" d="M874.6,396v-2.9h-3.7v2.9h-1.2v-7h1.2v3h3.7v-3h1.2v7H874.6z"/>
	<path id="XMLID_441_" class="st0" d="M882.5,390.1v1.9h3.4v1.1h-3.4v1.9h3.9v1.1h-5.1v-7h5v1.1L882.5,390.1L882.5,390.1z"/>
	<path id="XMLID_440_" class="st0" d="M895.7,395v1.1h-4.2v-7h1.2v6L895.7,395L895.7,395z"/>
</g>
<g id="XMLID_1098_">
	<path id="XMLID_439_" class="st0" d="M873.6,323.9h-2.8l9.6-20.8h-10.9v3.4h-2.4v-6h16.2v2.2L873.6,323.9z"/>
	<path id="XMLID_438_" class="st0" d="M889.6,303.1v6.6c1.2-0.2,2.9-0.3,3.9-0.3c4.9,0,8.1,2.9,8.1,6.9c0,4.7-3.2,7.7-8.2,7.7
		c-2.6,0-5.7-1-7.9-2.5l1.1-2.3c1.9,1.5,4.4,2.3,6.5,2.3c3.5,0,5.7-1.9,5.7-5.1c0-2.8-2.2-4.5-5.6-4.5c-1.5,0-4.3,0.2-6,0.6v-12
		h13.6v2.6L889.6,303.1L889.6,303.1z"/>
	<path id="XMLID_437_" class="st0" d="M908.1,322.5c0,0.5-0.2,1-0.5,1.4l-1.6,2.4h-1.5l1.1-2.4c-0.5-0.3-0.7-0.8-0.7-1.4
		c0-1,0.7-1.7,1.6-1.7C907.4,320.8,908.1,321.5,908.1,322.5z"/>
	<path id="XMLID_436_" class="st0" d="M911.9,314.8v-1.9h7.8v1.9H911.9z"/>
</g>
<g id="XMLID_1089_">
	<path id="XMLID_435_" class="st0" d="M857.9,378v-20.8h-4.8v-2.5h7.4V378L857.9,378L857.9,378z"/>
	<path id="XMLID_434_" class="st0" d="M873.8,364.6c4.2,0.2,7,2.5,7,6.2c0,4.3-3.2,7.3-8.2,7.3c-2.7,0-5.5-1-7.4-2.4l1.2-2.2
		c1.7,1.4,3.9,2.2,6,2.2c3.6,0,5.8-2,5.8-4.8c0-2.9-2.2-4.4-5.8-4.4h-2.9v-1.7l6.9-7.6h-10.1v-2.5h13.4v1.8l-7.2,8.1L873.8,364.6z"
		/>
	<path id="XMLID_1092_" class="st0" d="M900.4,360.4c0,2.4-1.4,4.2-3.8,5.1c3,0.9,4.9,3,4.9,6c0,4.2-3.3,6.7-8.6,6.7
		c-5.4,0-8.7-2.5-8.7-6.6c0-3,1.9-5.1,5.1-6c-2.4-1-3.9-2.8-3.9-5.2c0-3.6,2.9-5.8,7.5-5.8C897.5,354.5,900.4,356.7,900.4,360.4z
		 M886.8,371.2c0,2.9,2.3,4.6,6.1,4.6c3.8,0,6.1-1.7,6.1-4.6c0-2.8-2.3-4.4-6.1-4.4C889,366.8,886.8,368.4,886.8,371.2z
		 M887.7,360.6c0,2.5,1.9,4,5.2,4c3.2,0,5.2-1.5,5.2-4s-1.9-4-5.2-4C889.6,356.6,887.7,358.1,887.7,360.6z"/>
	<path id="XMLID_430_" class="st0" d="M908.1,376.6c0,0.5-0.2,1-0.5,1.4l-1.6,2.4h-1.5l1.1-2.4c-0.5-0.3-0.7-0.8-0.7-1.4
		c0-1,0.7-1.7,1.6-1.7C907.4,374.9,908.1,375.5,908.1,376.6z"/>
	<path id="XMLID_429_" class="st0" d="M911.9,368.9v-1.9h7.8v1.9H911.9z"/>
</g>
<g id="XMLID_1082_">
	<path id="XMLID_428_" class="st0" d="M863.2,340.6v-2.9h-3.7v2.9h-1.2v-7h1.2v3h3.7v-3h1.2v7H863.2z"/>
	<path id="XMLID_1085_" class="st0" d="M870.9,339l-0.7,1.6H869l3.1-7h1.2l3.1,7h-1.3l-0.7-1.6H870.9z M872.7,334.9l-1.3,3.1h2.6
		L872.7,334.9z"/>
	<path id="XMLID_425_" class="st0" d="M885.2,339.6v1.1H881v-7h1.2v6L885.2,339.6L885.2,339.6z"/>
	<path id="XMLID_424_" class="st0" d="M891.9,340.6l-2.8-7h1.3l2.2,5.7l2.2-5.7h1.2l-2.8,7H891.9z"/>
</g>
<g id="XMLID_1078_">
	<path id="XMLID_423_" class="st0" d="M874.6,530.8v-2.9h-3.7v2.9h-1.2v-7h1.2v3h3.7v-3h1.2v7H874.6z"/>
	<path id="XMLID_422_" class="st0" d="M882.5,524.8v1.9h3.4v1.1h-3.4v1.9h3.9v1.1h-5.1v-7h5v1.1L882.5,524.8L882.5,524.8z"/>
	<path id="XMLID_421_" class="st0" d="M895.7,529.7v1.1h-4.2v-7h1.2v6L895.7,529.7L895.7,529.7z"/>
</g>
<g id="XMLID_1073_">
	<path id="XMLID_420_" class="st0" d="M873.6,458.7h-2.8l9.6-20.8h-10.9v3.4h-2.4v-6h16.2v2.2L873.6,458.7z"/>
	<path id="XMLID_419_" class="st0" d="M889.6,437.9v6.6c1.2-0.2,2.9-0.3,3.9-0.3c4.9,0,8.1,2.9,8.1,6.9c0,4.7-3.2,7.7-8.2,7.7
		c-2.6,0-5.7-1-7.9-2.5l1.1-2.3c1.9,1.5,4.4,2.3,6.5,2.3c3.5,0,5.7-1.9,5.7-5.1c0-2.8-2.2-4.5-5.6-4.5c-1.5,0-4.3,0.2-6,0.6v-12
		h13.6v2.6L889.6,437.9L889.6,437.9z"/>
	<path id="XMLID_418_" class="st0" d="M908.1,457.3c0,0.5-0.2,1-0.5,1.4l-1.6,2.4h-1.5l1.1-2.4c-0.5-0.3-0.7-0.8-0.7-1.4
		c0-1,0.7-1.7,1.6-1.7C907.4,455.6,908.1,456.2,908.1,457.3z"/>
	<path id="XMLID_417_" class="st0" d="M911.9,449.6v-1.9h7.8v1.9H911.9z"/>
</g>
<g id="XMLID_1064_">
	<path id="XMLID_416_" class="st0" d="M857.9,512.8v-20.8h-4.8v-2.5h7.4v23.4L857.9,512.8L857.9,512.8z"/>
	<path id="XMLID_415_" class="st0" d="M873.8,499.4c4.2,0.2,7,2.5,7,6.2c0,4.3-3.2,7.3-8.2,7.3c-2.7,0-5.5-1-7.4-2.4l1.2-2.2
		c1.7,1.4,3.9,2.2,6,2.2c3.6,0,5.8-2,5.8-4.8c0-2.9-2.2-4.4-5.8-4.4h-2.9v-1.7l6.9-7.6h-10.1v-2.5h13.4v1.8l-7.2,8.1L873.8,499.4z"
		/>
	<path id="XMLID_1067_" class="st0" d="M900.4,495.2c0,2.4-1.4,4.2-3.8,5.1c3,0.9,4.9,3,4.9,6c0,4.2-3.3,6.7-8.6,6.7
		c-5.4,0-8.7-2.5-8.7-6.6c0-3,1.9-5.1,5.1-6c-2.4-1-3.9-2.8-3.9-5.2c0-3.6,2.9-5.8,7.5-5.8C897.5,489.3,900.4,491.5,900.4,495.2z
		 M886.8,506c0,2.9,2.3,4.6,6.1,4.6c3.8,0,6.1-1.7,6.1-4.6c0-2.8-2.3-4.4-6.1-4.4C889,501.6,886.8,503.2,886.8,506z M887.7,495.3
		c0,2.5,1.9,4,5.2,4c3.2,0,5.2-1.5,5.2-4c0-2.5-1.9-4-5.2-4C889.6,491.4,887.7,492.9,887.7,495.3z"/>
	<path id="XMLID_411_" class="st0" d="M908.1,511.3c0,0.5-0.2,1-0.5,1.4l-1.6,2.4h-1.5l1.1-2.4c-0.5-0.3-0.7-0.8-0.7-1.4
		c0-1,0.7-1.7,1.6-1.7C907.4,509.6,908.1,510.3,908.1,511.3z"/>
	<path id="XMLID_410_" class="st0" d="M911.9,503.6v-1.9h7.8v1.9H911.9z"/>
</g>
<g id="XMLID_1057_">
	<path id="XMLID_409_" class="st0" d="M863.2,475.4v-2.9h-3.7v2.9h-1.2v-7h1.2v3h3.7v-3h1.2v7H863.2z"/>
	<path id="XMLID_1060_" class="st0" d="M870.9,473.8l-0.7,1.6H869l3.1-7h1.2l3.1,7h-1.3l-0.7-1.6H870.9z M872.7,469.6l-1.3,3.1h2.6
		L872.7,469.6z"/>
	<path id="XMLID_406_" class="st0" d="M885.2,474.3v1.1H881v-7h1.2v6L885.2,474.3L885.2,474.3z"/>
	<path id="XMLID_405_" class="st0" d="M891.9,475.4l-2.8-7h1.3l2.2,5.7l2.2-5.7h1.2l-2.8,7H891.9z"/>
</g>
<g id="XMLID_1052_">
	<path id="XMLID_404_" class="st0" d="M54,53.5l0-17.5l-7.4,15H44l-7.4-15v17.5h-3.7V30.1h4.7l7.7,15.5L53,30.1h4.6v23.4H54z"/>
	<path id="XMLID_403_" class="st0" d="M79.9,33.6v6.3h11.4v3.5H79.9v6.4h13.1v3.5H76V30.1h16.7v3.5L79.9,33.6L79.9,33.6z"/>
	<path id="XMLID_402_" class="st0" d="M124.1,49.9v3.6H110V30.1h3.9v19.8H124.1z"/>
	<path id="XMLID_401_" class="st0" d="M148.6,33.6v19.8h-3.9V33.6h-7.4v-3.5H156v3.5H148.6z"/>
</g>
<g id="XMLID_982_">
	<path id="XMLID_400_" class="st0" d="M44.1,76.8v4.3c-1.2,0.9-2.9,1.5-4.5,1.5c-3.5,0-6.1-2.6-6.1-5.9c0-3.3,2.7-5.9,6.3-5.9
		c1.7,0,3.3,0.6,4.5,1.6L43,73.9c-0.9-0.8-2.2-1.3-3.4-1.3c-2.4,0-4.3,1.8-4.3,4.1c0,2.3,1.9,4.1,4.3,4.1c0.9,0,1.9-0.3,2.7-0.8
		v-3.2L44.1,76.8L44.1,76.8z"/>
	<path id="XMLID_1048_" class="st0" d="M58.2,79c-0.2,0-0.4,0-0.5,0h-2.8v3.5h-2V70.8h4.8c3,0,4.7,1.4,4.7,4c0,1.9-0.9,3.2-2.4,3.8
		l2.6,3.9h-2.2L58.2,79z M57.7,77.2c1.8,0,2.8-0.8,2.8-2.3c0-1.5-1-2.3-2.8-2.3h-2.8v4.6L57.7,77.2L57.7,77.2z"/>
	<path id="XMLID_397_" class="st0" d="M71.1,82.5V70.8h2v11.7H71.1z"/>
	<path id="XMLID_396_" class="st0" d="M89.3,80.7v1.8h-7V70.8h2v9.9L89.3,80.7L89.3,80.7z"/>
	<path id="XMLID_395_" class="st0" d="M104.3,80.7v1.8h-7V70.8h2v9.9L104.3,80.7L104.3,80.7z"/>
	<path id="XMLID_394_" class="st0" d="M114.3,72.6v3.2h5.7v1.8h-5.7v3.2h6.6v1.8h-8.5V70.8h8.4v1.8H114.3z"/>
	<path id="XMLID_393_" class="st0" d="M133.6,72.6v9.9h-2v-9.9h-3.7v-1.8h9.3v1.8H133.6z"/>
	<path id="XMLID_392_" class="st0" d="M163.4,72l-0.8,1.7c-1.3-0.8-2.5-1.1-3.4-1.1c-1.1,0-1.9,0.4-1.9,1.2c0,2.6,6.3,1.2,6.3,5.4
		c0,2.1-1.8,3.4-4.4,3.4c-1.8,0-3.6-0.8-4.8-1.9l0.8-1.7c1.2,1.1,2.7,1.7,4,1.7c1.4,0,2.2-0.5,2.2-1.4c0-2.6-6.3-1.1-6.3-5.3
		c0-2,1.7-3.2,4.3-3.2C160.8,70.8,162.3,71.2,163.4,72z"/>
	<path id="XMLID_391_" class="st0" d="M181.9,77.7c0,3.1-1.9,4.9-5.1,4.9s-5.1-1.9-5.1-4.9v-6.9h2v6.9c0,2,1.2,3.2,3.1,3.2
		c1.9,0,3.1-1.2,3.1-3.2v-6.9h2L181.9,77.7L181.9,77.7z"/>
	<path id="XMLID_1038_" class="st0" d="M196.1,79c-0.2,0-0.4,0-0.5,0h-2.8v3.5h-2V70.8h4.8c3,0,4.7,1.4,4.7,4c0,1.9-0.9,3.2-2.4,3.8
		l2.6,3.9h-2.2L196.1,79z M195.5,77.2c1.8,0,2.8-0.8,2.8-2.3c0-1.5-1-2.3-2.8-2.3h-2.8v4.6L195.5,77.2L195.5,77.2z"/>
	<path id="XMLID_1035_" class="st0" d="M213.7,70.8c3.5,0,6,2.5,6,5.8c0,3.4-2.6,5.8-6.1,5.8H209V70.8L213.7,70.8L213.7,70.8z
		 M210.9,80.7h2.9c2.3,0,4-1.7,4-4.1s-1.8-4.1-4.1-4.1h-2.8L210.9,80.7L210.9,80.7z"/>
	<path id="XMLID_386_" class="st0" d="M229.9,72.6v3.2h5.7v1.8h-5.7v3.2h6.6v1.8H228V70.8h8.3v1.8H229.9z"/>
	<path id="XMLID_385_" class="st0" d="M245,82.5V70.8h2v11.7H245z"/>
	<path id="XMLID_384_" class="st0" d="M265.9,76.8v4.3c-1.2,0.9-2.9,1.5-4.5,1.5c-3.5,0-6.1-2.6-6.1-5.9c0-3.3,2.7-5.9,6.3-5.9
		c1.7,0,3.3,0.6,4.5,1.6l-1.1,1.4c-0.9-0.8-2.2-1.3-3.4-1.3c-2.4,0-4.3,1.8-4.3,4.1c0,2.3,1.9,4.1,4.3,4.1c0.9,0,1.9-0.3,2.7-0.8
		v-3.2L265.9,76.8L265.9,76.8z"/>
	<path id="XMLID_383_" class="st0" d="M282.7,72l-0.8,1.7c-1.3-0.8-2.5-1.1-3.4-1.1c-1.1,0-1.9,0.4-1.9,1.2c0,2.6,6.3,1.2,6.3,5.4
		c0,2.1-1.8,3.4-4.4,3.4c-1.8,0-3.6-0.8-4.8-1.9l0.8-1.7c1.2,1.1,2.7,1.7,4,1.7c1.4,0,2.2-0.5,2.2-1.4c0-2.6-6.3-1.1-6.3-5.3
		c0-2,1.7-3.2,4.3-3.2C280.1,70.8,281.6,71.2,282.7,72z"/>
	<path id="XMLID_1027_" class="st0" d="M296.3,70.8c2.4,0,3.9,1.1,3.9,2.9c0,1.3-0.8,2.3-2,2.6c1.6,0.3,2.5,1.4,2.5,2.9
		c0,2-1.6,3.2-4.3,3.2h-5.2V70.8L296.3,70.8L296.3,70.8z M293.2,75.7h3c1.3,0,2-0.6,2-1.6c0-1-0.8-1.5-2-1.5h-3V75.7z M293.2,80.8h3
		c1.5,0,2.5-0.6,2.5-1.7c0-1-0.9-1.7-2.5-1.7h-3V80.8z"/>
	<path id="XMLID_1024_" class="st0" d="M314.4,79c-0.2,0-0.4,0-0.5,0h-2.8v3.5h-2V70.8h4.8c3,0,4.7,1.4,4.7,4c0,1.9-0.9,3.2-2.4,3.8
		l2.6,3.9h-2.2L314.4,79z M313.8,77.2c1.8,0,2.8-0.8,2.8-2.3c0-1.5-1-2.3-2.8-2.3h-2.8v4.6L313.8,77.2L313.8,77.2z"/>
	<path id="XMLID_1020_" class="st0" d="M334.7,71.1c2.3,0.8,4,2.9,4,5.5c0,3.3-2.7,5.9-6.2,5.9c-0.5,0-1.1-0.1-1.6-0.2l-0.7,2.1H329
		l0.8-2.5c-2.1-0.9-3.5-3-3.5-5.4c0-3.4,2.7-5.9,6.2-5.9c0.4,0,0.8,0,1.1,0.1l0.6-1.9h1.2L334.7,71.1z M330.4,80.3l2.6-7.7
		c-0.2,0-0.4,0-0.5,0c-2.3,0-4.2,1.8-4.2,4.1C328.3,78.2,329.2,79.6,330.4,80.3z M336.6,76.7c0-1.7-1.1-3.2-2.6-3.8l-2.6,7.8
		c0.3,0.1,0.7,0.1,1.1,0.1C334.8,80.8,336.6,79,336.6,76.7z"/>
	<path id="XMLID_1017_" class="st0" d="M351.6,70.8c3.5,0,6,2.5,6,5.8c0,3.4-2.6,5.8-6.1,5.8h-4.8V70.8L351.6,70.8L351.6,70.8z
		 M348.8,80.7h2.9c2.3,0,4-1.7,4-4.1s-1.8-4.1-4.1-4.1h-2.8L348.8,80.7L348.8,80.7z"/>
	<path id="XMLID_372_" class="st0" d="M386.8,82.5l0-8.7l-3.7,7.5h-1.3l-3.7-7.5v8.7h-1.9V70.8h2.3l3.8,7.8l3.8-7.8h2.3v11.7H386.8z
		"/>
	<path id="XMLID_371_" class="st0" d="M399.8,72.6v3.2h5.7v1.8h-5.7v3.2h6.6v1.8h-8.5V70.8h8.4v1.8H399.8z"/>
	<path id="XMLID_1012_" class="st0" d="M419.6,70.8c3.5,0,6,2.5,6,5.8c0,3.4-2.6,5.8-6.1,5.8h-4.8V70.8L419.6,70.8L419.6,70.8z
		 M416.8,80.7h2.9c2.3,0,4-1.7,4-4.1s-1.8-4.1-4.1-4.1h-2.8L416.8,80.7L416.8,80.7z"/>
	<path id="XMLID_368_" class="st0" d="M41.4,100.8v1.8h-7V90.8h2v9.9L41.4,100.8L41.4,100.8z"/>
	<path id="XMLID_1008_" class="st0" d="M51.2,99.9l-1.1,2.6h-2l5.2-11.7h2l5.1,11.7h-2.1l-1.1-2.6H51.2z M54.1,93l-2.2,5.2h4.4
		L54.1,93z"/>
	<path id="XMLID_365_" class="st0" d="M75.7,92l-0.8,1.7c-1.3-0.8-2.5-1.1-3.4-1.1c-1.1,0-1.9,0.4-1.9,1.2c0,2.6,6.3,1.2,6.3,5.4
		c0,2.1-1.8,3.4-4.4,3.4c-1.8,0-3.6-0.8-4.8-1.9l0.8-1.7c1.2,1.1,2.7,1.7,4,1.7c1.4,0,2.2-0.5,2.2-1.4c0-2.6-6.3-1.1-6.3-5.3
		c0-2,1.7-3.2,4.3-3.2C73.2,90.8,74.6,91.3,75.7,92z"/>
	<path id="XMLID_1004_" class="st0" d="M85.8,99.9l-1.1,2.6h-2l5.2-11.7h2l5.1,11.7h-2.1l-1.1-2.6H85.8z M88.8,93l-2.2,5.2H91
		L88.8,93z"/>
	<path id="XMLID_362_" class="st0" d="M112,96.8v4.3c-1.2,0.9-2.9,1.5-4.5,1.5c-3.5,0-6.1-2.6-6.1-5.9c0-3.3,2.7-5.9,6.3-5.9
		c1.7,0,3.3,0.6,4.5,1.6l-1.1,1.4c-0.9-0.8-2.2-1.3-3.4-1.3c-2.4,0-4.3,1.8-4.3,4.1c0,2.3,1.9,4.1,4.3,4.1c0.9,0,1.9-0.3,2.7-0.8
		v-3.2L112,96.8L112,96.8z"/>
	<path id="XMLID_361_" class="st0" d="M129.1,102.5l-6.2-8.4v8.4h-2V90.8h1.9l6.3,8.4v-8.4h1.9v11.7H129.1z"/>
	<path id="XMLID_360_" class="st0" d="M142.2,92.6v3.2h5.7v1.8h-5.7v3.2h6.6v1.8h-8.5V90.9h8.3v1.8H142.2z"/>
	<path id="XMLID_998_" class="st0" d="M179,96.7c0,3.3-2.7,5.9-6.2,5.9c-3.5,0-6.2-2.6-6.2-5.9c0-3.4,2.7-5.9,6.2-5.9
		C176.3,90.8,179,93.4,179,96.7z M168.7,96.7c0,2.3,1.9,4.1,4.2,4.1s4.1-1.8,4.1-4.1c0-2.3-1.9-4.1-4.1-4.1
		C170.6,92.6,168.7,94.4,168.7,96.7z"/>
	<path id="XMLID_357_" class="st0" d="M196.5,96.8v4.3c-1.2,0.9-2.9,1.5-4.5,1.5c-3.5,0-6.1-2.6-6.1-5.9c0-3.3,2.7-5.9,6.3-5.9
		c1.7,0,3.3,0.6,4.5,1.6l-1.1,1.4c-0.9-0.8-2.2-1.3-3.4-1.3c-2.4,0-4.3,1.8-4.3,4.1c0,2.3,1.9,4.1,4.3,4.1c0.9,0,1.9-0.3,2.7-0.8
		v-3.2L196.5,96.8L196.5,96.8z"/>
	<path id="XMLID_356_" class="st0" d="M224,102.5l-6.2-8.4v8.4h-2V90.8h1.9l6.3,8.4v-8.4h1.9v11.7H224z"/>
	<path id="XMLID_993_" class="st0" d="M246.5,96.7c0,3.3-2.7,5.9-6.2,5.9c-3.5,0-6.2-2.6-6.2-5.9c0-3.4,2.7-5.9,6.2-5.9
		C243.8,90.8,246.5,93.4,246.5,96.7z M236.1,96.7c0,2.3,1.9,4.1,4.2,4.1s4.1-1.8,4.1-4.1c0-2.3-1.9-4.1-4.1-4.1
		C238,92.6,236.1,94.4,236.1,96.7z"/>
	<path id="XMLID_990_" class="st0" d="M259.9,99c-0.2,0-0.4,0-0.5,0h-2.8v3.5h-2V90.8h4.8c3,0,4.7,1.4,4.7,4c0,1.9-0.9,3.2-2.4,3.8
		l2.6,3.9h-2.2L259.9,99z M259.4,97.2c1.8,0,2.8-0.8,2.8-2.3c0-1.5-1-2.3-2.8-2.3h-2.8v4.6L259.4,97.2L259.4,97.2z"/>
	<path id="XMLID_351_" class="st0" d="M275.9,102.5l-4.7-11.7h2.1l3.6,9.5l3.6-9.5h2l-4.7,11.7H275.9z"/>
	<path id="XMLID_350_" class="st0" d="M292.3,92.6v3.2h5.7v1.8h-5.7v3.2h6.6v1.8h-8.5V90.9h8.4v1.8H292.3z"/>
	<path id="XMLID_349_" class="st0" d="M317.1,96.8v4.3c-1.2,0.9-2.9,1.5-4.5,1.5c-3.5,0-6.1-2.6-6.1-5.9c0-3.3,2.7-5.9,6.3-5.9
		c1.7,0,3.3,0.6,4.5,1.6l-1.1,1.4c-0.9-0.8-2.2-1.3-3.4-1.3c-2.4,0-4.3,1.8-4.3,4.1c0,2.3,1.9,4.1,4.3,4.1c0.9,0,1.9-0.3,2.7-0.8
		v-3.2L317.1,96.8L317.1,96.8z"/>
	<path id="XMLID_348_" class="st0" d="M325.9,102.5V90.8h2v11.7H325.9z"/>
	<path id="XMLID_983_" class="st0" d="M338.7,99.9l-1.1,2.6h-2l5.2-11.7h2l5.1,11.7h-2.1l-1.1-2.6H338.7z M341.7,93l-2.2,5.2h4.4
		L341.7,93z"/>
</g>
<g id="XMLID_947_">
	<path id="XMLID_979_" class="st0" d="M34.8,125.3l-0.7,1.6h-1.2l3.1-7h1.2l3.1,7H39l-0.7-1.6H34.8z M36.5,121.1l-1.3,3.1h2.6
		L36.5,121.1z"/>
	<path id="XMLID_343_" class="st0" d="M49,125.8v1.1h-4.2v-7H46v6L49,125.8L49,125.8z"/>
	<path id="XMLID_342_" class="st0" d="M58,125.8v1.1h-4.2v-7H55v6L58,125.8L58,125.8z"/>
	<path id="XMLID_341_" class="st0" d="M64,120.9v1.9h3.4v1.1H64v1.9H68v1.1h-5.1v-7h5v1.1L64,120.9L64,120.9z"/>
	<path id="XMLID_973_" class="st0" d="M76.2,124.8c-0.1,0-0.2,0-0.3,0h-1.7v2.1h-1.2v-7h2.9c1.8,0,2.8,0.9,2.8,2.4
		c0,1.1-0.5,1.9-1.4,2.3l1.6,2.3h-1.4L76.2,124.8z M75.9,123.7c1.1,0,1.7-0.5,1.7-1.4c0-0.9-0.6-1.4-1.7-1.4h-1.7v2.8H75.9z"/>
	<path id="XMLID_338_" class="st0" d="M89.8,123.4v2.6c-0.7,0.5-1.8,0.9-2.7,0.9c-2.1,0-3.7-1.6-3.7-3.5c0-2,1.6-3.5,3.8-3.5
		c1,0,2,0.4,2.7,1l-0.7,0.9c-0.5-0.5-1.3-0.8-2-0.8c-1.4,0-2.6,1.1-2.6,2.5c0,1.4,1.1,2.5,2.6,2.5c0.5,0,1.1-0.2,1.6-0.5v-2
		L89.8,123.4L89.8,123.4z"/>
	<path id="XMLID_337_" class="st0" d="M96.3,120.9v1.9h3.4v1.1h-3.4v1.9h3.9v1.1h-5.1v-7h5v1.1L96.3,120.9L96.3,120.9z"/>
	<path id="XMLID_336_" class="st0" d="M110.2,126.9l-3.7-5v5h-1.2v-7h1.2l3.8,5.1v-5.1h1.2v7H110.2z"/>
	<path id="XMLID_335_" class="st0" d="M118.1,120.9v1.9h3.4v1.1h-3.4v1.9h3.9v1.1h-5.1v-7h5v1.1L118.1,120.9L118.1,120.9z"/>
	<path id="XMLID_966_" class="st0" d="M130.3,124.8c-0.1,0-0.2,0-0.3,0h-1.7v2.1h-1.2v-7h2.9c1.8,0,2.8,0.9,2.8,2.4
		c0,1.1-0.5,1.9-1.4,2.3l1.6,2.3h-1.4L130.3,124.8z M130,123.7c1.1,0,1.7-0.5,1.7-1.4c0-0.9-0.6-1.4-1.7-1.4h-1.7v2.8H130z"/>
	<path id="XMLID_963_" class="st0" d="M138.8,123.3c0,0.4-0.3,0.7-0.6,0.7c-0.4,0-0.6-0.3-0.6-0.7c0-0.4,0.3-0.7,0.6-0.7
		C138.5,122.6,138.8,123,138.8,123.3z M138.8,126.3c0,0.4-0.3,0.7-0.6,0.7c-0.4,0-0.6-0.3-0.6-0.7c0-0.4,0.3-0.7,0.6-0.7
		C138.5,125.6,138.8,125.9,138.8,126.3z"/>
	<path id="XMLID_330_" class="st0" d="M156.4,126.9v-5.2l-2.2,4.5h-0.8l-2.2-4.5v5.2H150v-7h1.4l2.3,4.7l2.3-4.7h1.4v7H156.4z"/>
	<path id="XMLID_329_" class="st0" d="M164.2,120.9v1.9h3.4v1.1h-3.4v1.9h3.9v1.1H163v-7h5v1.1L164.2,120.9L164.2,120.9z"/>
	<path id="XMLID_328_" class="st0" d="M177.4,125.8v1.1h-4.2v-7h1.2v6L177.4,125.8L177.4,125.8z"/>
	<path id="XMLID_327_" class="st0" d="M184.6,123.8l-1.2,1.3v1.8h-1.2v-7h1.2v3.6l3.3-3.6h1.4l-2.7,3l2.9,4h-1.4L184.6,123.8z"/>
	<path id="XMLID_326_" class="st0" d="M193.8,126.3c0,0.2-0.1,0.4-0.2,0.5l-0.6,0.9h-0.6l0.4-0.9c-0.2-0.1-0.3-0.3-0.3-0.5
		c0-0.4,0.3-0.6,0.6-0.6C193.5,125.7,193.8,125.9,193.8,126.3z"/>
	<path id="XMLID_325_" class="st0" d="M210.9,123.4v2.6c-0.7,0.5-1.8,0.9-2.7,0.9c-2.1,0-3.7-1.6-3.7-3.5c0-2,1.6-3.5,3.8-3.5
		c1,0,2,0.4,2.7,1l-0.7,0.9c-0.5-0.5-1.3-0.8-2-0.8c-1.4,0-2.6,1.1-2.6,2.5c0,1.4,1.1,2.5,2.6,2.5c0.5,0,1.1-0.2,1.6-0.5v-2
		L210.9,123.4L210.9,123.4z"/>
	<path id="XMLID_324_" class="st0" d="M220.4,125.8v1.1h-4.2v-7h1.2v6L220.4,125.8L220.4,125.8z"/>
	<path id="XMLID_323_" class="st0" d="M231.2,124c0,1.8-1.1,2.9-3,2.9s-3.1-1.1-3.1-2.9v-4.1h1.2v4.1c0,1.2,0.7,1.9,1.9,1.9
		c1.1,0,1.9-0.7,1.9-1.9v-4.1h1.2L231.2,124L231.2,124z"/>
	<path id="XMLID_322_" class="st0" d="M239.1,120.9v6h-1.2v-6h-2.2v-1.1h5.6v1.1H239.1z"/>
	<path id="XMLID_321_" class="st0" d="M247.2,120.9v1.9h3.4v1.1h-3.4v1.9h3.9v1.1H246v-7h5v1.1L247.2,120.9L247.2,120.9z"/>
	<path id="XMLID_320_" class="st0" d="M261.2,126.9l-3.7-5v5h-1.2v-7h1.2l3.8,5.1v-5.1h1.2v7H261.2z"/>
	<path id="XMLID_319_" class="st0" d="M268.6,126.3c0,0.2-0.1,0.4-0.2,0.5l-0.6,0.9h-0.6l0.4-0.9c-0.2-0.1-0.3-0.3-0.3-0.5
		c0-0.4,0.3-0.6,0.6-0.6C268.3,125.7,268.6,125.9,268.6,126.3z"/>
	<path id="XMLID_318_" class="st0" d="M281,120.9v1.9h3.4v1.1H281v1.9h3.9v1.1h-5.1v-7h5v1.1L281,120.9L281,120.9z"/>
	<path id="XMLID_317_" class="st0" d="M295.9,123.4v2.6c-0.7,0.5-1.8,0.9-2.7,0.9c-2.1,0-3.7-1.6-3.7-3.5c0-2,1.6-3.5,3.8-3.5
		c1,0,2,0.4,2.7,1l-0.7,0.9c-0.5-0.5-1.3-0.8-2-0.8c-1.4,0-2.6,1.1-2.6,2.5c0,1.4,1.1,2.5,2.6,2.5c0.5,0,1.1-0.2,1.6-0.5v-2
		L295.9,123.4L295.9,123.4z"/>
	<path id="XMLID_316_" class="st0" d="M307.1,123.4v2.6c-0.7,0.5-1.8,0.9-2.7,0.9c-2.1,0-3.7-1.6-3.7-3.5c0-2,1.6-3.5,3.8-3.5
		c1,0,2,0.4,2.7,1l-0.7,0.9c-0.5-0.5-1.3-0.8-2-0.8c-1.4,0-2.6,1.1-2.6,2.5c0,1.4,1.1,2.5,2.6,2.5c0.5,0,1.1-0.2,1.6-0.5v-2
		L307.1,123.4L307.1,123.4z"/>
</g>
<g id="XMLID_932_">
	<path id="XMLID_944_" class="st0" d="M55.8,176.6c0,6.7-5.4,11.8-12.4,11.8S31,183.3,31,176.6c0-6.7,5.4-11.8,12.4-11.8
		S55.8,170,55.8,176.6z M35,176.6c0,4.6,3.8,8.3,8.4,8.3s8.3-3.7,8.3-8.3c0-4.6-3.7-8.2-8.3-8.2C38.8,168.4,35,172,35,176.6z"/>
	<path id="XMLID_941_" class="st0" d="M82.7,181.2c-0.3,0-0.7,0-1.1,0h-5.5v7h-3.9V165h9.5c6,0,9.4,2.9,9.4,8c0,3.7-1.7,6.4-4.8,7.6
		l5.2,7.8h-4.5L82.7,181.2z M81.6,177.8c3.6,0,5.7-1.5,5.7-4.7c0-3.1-2.1-4.5-5.7-4.5h-5.5v9.3H81.6z"/>
	<path id="XMLID_311_" class="st0" d="M108.5,188.3V165h3.9v23.4H108.5z"/>
	<path id="XMLID_310_" class="st0" d="M150.2,176.9v8.6c-2.4,1.8-5.9,3-9.1,3c-6.9,0-12.3-5.2-12.3-11.8c0-6.7,5.4-11.8,12.5-11.8
		c3.3,0,6.7,1.3,9,3.3l-2.2,2.9c-1.8-1.7-4.3-2.7-6.7-2.7c-4.8,0-8.5,3.6-8.5,8.3c0,4.7,3.8,8.3,8.5,8.3c1.7,0,3.7-0.6,5.4-1.6v-6.5
		L150.2,176.9L150.2,176.9z"/>
	<path id="XMLID_309_" class="st0" d="M167.9,188.3V165h3.9v23.4H167.9z"/>
	<path id="XMLID_308_" class="st0" d="M206.6,188.3l-12.4-16.7v16.7h-3.9V165h3.9l12.5,16.8V165h3.9v23.4H206.6z"/>
	<path id="XMLID_934_" class="st0" d="M232.1,183l-2.2,5.3h-4.1l10.3-23.4h4l10.2,23.4h-4.2l-2.2-5.3H232.1z M238,169.2l-4.4,10.4
		h8.8L238,169.2z"/>
	<path id="XMLID_305_" class="st0" d="M279.7,184.8v3.6h-14V165h3.9v19.8H279.7z"/>
</g>
<g id="XMLID_857_">
	<path id="XMLID_304_" class="st0" d="M44.1,211.3v4.3c-1.2,0.9-2.9,1.5-4.5,1.5c-3.5,0-6.1-2.6-6.1-5.9c0-3.3,2.7-5.9,6.3-5.9
		c1.7,0,3.3,0.6,4.5,1.6l-1.1,1.4c-0.9-0.8-2.2-1.3-3.4-1.3c-2.4,0-4.3,1.8-4.3,4.1c0,2.3,1.9,4.1,4.3,4.1c0.9,0,1.9-0.3,2.7-0.8
		v-3.2L44.1,211.3L44.1,211.3z"/>
	<path id="XMLID_928_" class="st0" d="M58.2,213.5c-0.2,0-0.4,0-0.5,0h-2.8v3.5h-2v-11.7h4.8c3,0,4.7,1.4,4.7,4
		c0,1.9-0.9,3.2-2.4,3.8l2.6,3.9h-2.2L58.2,213.5z M57.7,211.8c1.8,0,2.8-0.8,2.8-2.3c0-1.5-1-2.3-2.8-2.3h-2.8v4.6L57.7,211.8
		L57.7,211.8z"/>
	<path id="XMLID_301_" class="st0" d="M71.1,217.1v-11.7h2v11.7H71.1z"/>
	<path id="XMLID_300_" class="st0" d="M89.3,215.3v1.8h-7v-11.7h2v9.9H89.3z"/>
	<path id="XMLID_299_" class="st0" d="M104.3,215.3v1.8h-7v-11.7h2v9.9H104.3z"/>
	<path id="XMLID_298_" class="st0" d="M114.3,207.1v3.2h5.7v1.8h-5.7v3.2h6.6v1.8h-8.5v-11.7h8.4v1.8H114.3z"/>
	<path id="XMLID_297_" class="st0" d="M133.6,207.1v9.9h-2v-9.9h-3.7v-1.8h9.3v1.8H133.6z"/>
	<path id="XMLID_296_" class="st0" d="M163.4,206.5l-0.8,1.7c-1.3-0.8-2.5-1.1-3.4-1.1c-1.1,0-1.9,0.4-1.9,1.2
		c0,2.6,6.3,1.2,6.3,5.4c0,2.1-1.8,3.4-4.4,3.4c-1.8,0-3.6-0.8-4.8-1.9l0.8-1.7c1.2,1.1,2.7,1.7,4,1.7c1.4,0,2.2-0.5,2.2-1.4
		c0-2.6-6.3-1.1-6.3-5.3c0-2,1.7-3.2,4.3-3.2C160.8,205.3,162.3,205.8,163.4,206.5z"/>
	<path id="XMLID_295_" class="st0" d="M181.9,212.2c0,3.1-1.9,4.9-5.1,4.9s-5.1-1.9-5.1-4.9v-6.9h2v6.9c0,2,1.2,3.2,3.1,3.2
		c1.9,0,3.1-1.2,3.1-3.2v-6.9h2L181.9,212.2L181.9,212.2z"/>
	<path id="XMLID_918_" class="st0" d="M196.1,213.5c-0.2,0-0.4,0-0.5,0h-2.8v3.5h-2v-11.7h4.8c3,0,4.7,1.4,4.7,4
		c0,1.9-0.9,3.2-2.4,3.8l2.6,3.9h-2.2L196.1,213.5z M195.5,211.8c1.8,0,2.8-0.8,2.8-2.3c0-1.5-1-2.3-2.8-2.3h-2.8v4.6L195.5,211.8
		L195.5,211.8z"/>
	<path id="XMLID_915_" class="st0" d="M213.7,205.4c3.5,0,6,2.5,6,5.8s-2.6,5.8-6.1,5.8H209v-11.7L213.7,205.4L213.7,205.4z
		 M210.9,215.3h2.9c2.3,0,4-1.7,4-4.1c0-2.4-1.8-4.1-4.1-4.1h-2.8L210.9,215.3L210.9,215.3z"/>
	<path id="XMLID_290_" class="st0" d="M229.9,207.1v3.2h5.7v1.8h-5.7v3.2h6.6v1.8H228v-11.7h8.3v1.8H229.9z"/>
	<path id="XMLID_289_" class="st0" d="M245,217.1v-11.7h2v11.7H245z"/>
	<path id="XMLID_288_" class="st0" d="M265.9,211.3v4.3c-1.2,0.9-2.9,1.5-4.5,1.5c-3.5,0-6.1-2.6-6.1-5.9c0-3.3,2.7-5.9,6.3-5.9
		c1.7,0,3.3,0.6,4.5,1.6l-1.1,1.4c-0.9-0.8-2.2-1.3-3.4-1.3c-2.4,0-4.3,1.8-4.3,4.1c0,2.3,1.9,4.1,4.3,4.1c0.9,0,1.9-0.3,2.7-0.8
		v-3.2L265.9,211.3L265.9,211.3z"/>
	<path id="XMLID_287_" class="st0" d="M282.7,206.5l-0.8,1.7c-1.3-0.8-2.5-1.1-3.4-1.1c-1.1,0-1.9,0.4-1.9,1.2
		c0,2.6,6.3,1.2,6.3,5.4c0,2.1-1.8,3.4-4.4,3.4c-1.8,0-3.6-0.8-4.8-1.9l0.8-1.7c1.2,1.1,2.7,1.7,4,1.7c1.4,0,2.2-0.5,2.2-1.4
		c0-2.6-6.3-1.1-6.3-5.3c0-2,1.7-3.2,4.3-3.2C280.1,205.3,281.6,205.8,282.7,206.5z"/>
	<path id="XMLID_907_" class="st0" d="M296.3,205.4c2.4,0,3.9,1.1,3.9,2.9c0,1.3-0.8,2.3-2,2.6c1.6,0.3,2.5,1.4,2.5,2.9
		c0,2-1.6,3.2-4.3,3.2h-5.2v-11.7H296.3z M293.2,210.2h3c1.3,0,2-0.6,2-1.6c0-1-0.8-1.5-2-1.5h-3V210.2z M293.2,215.3h3
		c1.5,0,2.5-0.6,2.5-1.7c0-1-0.9-1.7-2.5-1.7h-3V215.3z"/>
	<path id="XMLID_904_" class="st0" d="M314.4,213.5c-0.2,0-0.4,0-0.5,0h-2.8v3.5h-2v-11.7h4.8c3,0,4.7,1.4,4.7,4
		c0,1.9-0.9,3.2-2.4,3.8l2.6,3.9h-2.2L314.4,213.5z M313.8,211.8c1.8,0,2.8-0.8,2.8-2.3c0-1.5-1-2.3-2.8-2.3h-2.8v4.6L313.8,211.8
		L313.8,211.8z"/>
	<path id="XMLID_900_" class="st0" d="M334.7,205.7c2.3,0.8,4,2.9,4,5.5c0,3.3-2.7,5.9-6.2,5.9c-0.5,0-1.1-0.1-1.6-0.2l-0.7,2.1H329
		l0.8-2.5c-2.1-0.9-3.5-3-3.5-5.4c0-3.4,2.7-5.9,6.2-5.9c0.4,0,0.8,0,1.1,0.1l0.6-1.9h1.2L334.7,205.7z M330.4,214.8l2.6-7.7
		c-0.2,0-0.4,0-0.5,0c-2.3,0-4.2,1.8-4.2,4.1C328.3,212.8,329.2,214.1,330.4,214.8z M336.6,211.2c0-1.7-1.1-3.2-2.6-3.8l-2.6,7.8
		c0.3,0.1,0.7,0.1,1.1,0.1C334.8,215.4,336.6,213.5,336.6,211.2z"/>
	<path id="XMLID_897_" class="st0" d="M351.6,205.4c3.5,0,6,2.5,6,5.8s-2.6,5.8-6.1,5.8h-4.8v-11.7L351.6,205.4L351.6,205.4z
		 M348.8,215.3h2.9c2.3,0,4-1.7,4-4.1c0-2.4-1.8-4.1-4.1-4.1h-2.8L348.8,215.3L348.8,215.3z"/>
	<path id="XMLID_276_" class="st0" d="M386.8,217.1l0-8.7l-3.7,7.5h-1.3l-3.7-7.5v8.7h-1.9v-11.7h2.3l3.8,7.8l3.8-7.8h2.3v11.7
		H386.8z"/>
	<path id="XMLID_275_" class="st0" d="M399.8,207.1v3.2h5.7v1.8h-5.7v3.2h6.6v1.8h-8.5v-11.7h8.4v1.8H399.8z"/>
	<path id="XMLID_892_" class="st0" d="M419.6,205.4c3.5,0,6,2.5,6,5.8s-2.6,5.8-6.1,5.8h-4.8v-11.7L419.6,205.4L419.6,205.4z
		 M416.8,215.3h2.9c2.3,0,4-1.7,4-4.1c0-2.4-1.8-4.1-4.1-4.1h-2.8L416.8,215.3L416.8,215.3z"/>
	<path id="XMLID_272_" class="st0" d="M42.3,226.5l-0.8,1.7c-1.3-0.8-2.5-1.1-3.4-1.1c-1.1,0-1.9,0.4-1.9,1.2c0,2.6,6.3,1.2,6.3,5.4
		c0,2.1-1.8,3.4-4.4,3.4c-1.8,0-3.6-0.8-4.8-1.9l0.8-1.7c1.2,1.1,2.7,1.7,4,1.7c1.4,0,2.2-0.5,2.2-1.4c0-2.6-6.3-1.1-6.3-5.3
		c0-2,1.7-3.2,4.3-3.2C39.8,225.3,41.2,225.8,42.3,226.5z"/>
	<path id="XMLID_271_" class="st0" d="M54.8,231.9l-2,2.2v3h-2v-11.7h2v6l5.6-6h2.3l-4.5,5l4.8,6.7h-2.4L54.8,231.9z"/>
	<path id="XMLID_270_" class="st0" d="M68.9,237.1v-11.7h2v11.7H68.9z"/>
	<path id="XMLID_269_" class="st0" d="M88.3,237.1l-6.2-8.4v8.4h-2v-11.7H82l6.3,8.4v-8.4h1.9v11.7H88.3z"/>
	<path id="XMLID_268_" class="st0" d="M103.3,231.9l-2,2.2v3h-2v-11.7h2v6l5.6-6h2.3l-4.5,5l4.8,6.7h-2.4L103.3,231.9z"/>
	<path id="XMLID_267_" class="st0" d="M119.4,227.2v3.1h5.7v1.8h-5.7v3.2h6.6v1.8h-8.5v-11.7h8.4v1.8L119.4,227.2L119.4,227.2z"/>
	<path id="XMLID_266_" class="st0" d="M135.8,236.1c0,0.3-0.1,0.6-0.3,0.9l-1,1.4h-1l0.6-1.4c-0.3-0.2-0.5-0.5-0.5-0.9
		c0-0.6,0.4-1.1,1-1.1C135.3,235.1,135.8,235.5,135.8,236.1z"/>
	<path id="XMLID_265_" class="st0" d="M164.2,227.2l-1.1,1.4c-0.8-0.9-2.1-1.5-3.2-1.5c-2.3,0-4.2,1.8-4.2,4.1s1.8,4.1,4.2,4.1
		c1.2,0,2.4-0.5,3.2-1.4l1.2,1.3c-1.2,1.2-2.9,1.9-4.5,1.9c-3.4,0-6.1-2.6-6.1-6c0-3.3,2.7-5.9,6.1-5.9
		C161.4,225.3,163,226,164.2,227.2z"/>
	<path id="XMLID_264_" class="st0" d="M180.5,237.1v-4.8h-6.2v4.8h-2v-11.7h2v5.1h6.2v-5.1h2v11.7H180.5z"/>
	<path id="XMLID_263_" class="st0" d="M193.5,227.2v3.1h5.7v1.8h-5.7v3.2h6.6v1.8h-8.5v-11.7h8.4v1.8L193.5,227.2L193.5,227.2z"/>
	<path id="XMLID_879_" class="st0" d="M213.4,225.4c3.5,0,6,2.5,6,5.8c0,3.4-2.6,5.8-6.1,5.8h-4.8v-11.7L213.4,225.4L213.4,225.4z
		 M210.6,235.3h2.9c2.3,0,4-1.7,4-4.1c0-2.4-1.8-4.1-4.1-4.1h-2.8L210.6,235.3L210.6,235.3z"/>
	<path id="XMLID_876_" class="st0" d="M232.4,225.4c3.5,0,6,2.5,6,5.8c0,3.4-2.6,5.8-6.1,5.8h-4.8v-11.7L232.4,225.4L232.4,225.4z
		 M229.6,235.3h2.9c2.3,0,4-1.7,4-4.1c0-2.4-1.8-4.1-4.1-4.1h-2.8L229.6,235.3L229.6,235.3z"/>
	<path id="XMLID_873_" class="st0" d="M248,234.5l-1.1,2.6h-2l5.2-11.7h2l5.1,11.7H255l-1.1-2.6H248z M251,227.5l-2.2,5.2h4.4
		L251,227.5z"/>
	<path id="XMLID_870_" class="st0" d="M270,233.6c-0.2,0-0.4,0-0.5,0h-2.8v3.5h-2v-11.7h4.8c3,0,4.7,1.4,4.7,4
		c0,1.9-0.9,3.2-2.4,3.8l2.6,3.9h-2.2L270,233.6z M269.5,231.8c1.8,0,2.8-0.8,2.8-2.3c0-1.5-1-2.3-2.8-2.3h-2.8v4.6L269.5,231.8
		L269.5,231.8z"/>
	<path id="XMLID_867_" class="st0" d="M304.7,231.2c0,3.3-2.7,5.9-6.2,5.9c-3.5,0-6.2-2.6-6.2-5.9c0-3.4,2.7-5.9,6.2-5.9
		C302,225.3,304.7,227.9,304.7,231.2z M294.4,231.2c0,2.3,1.9,4.1,4.2,4.1c2.3,0,4.1-1.8,4.1-4.1s-1.9-4.1-4.1-4.1
		C296.3,227.1,294.4,228.9,294.4,231.2z"/>
	<path id="XMLID_252_" class="st0" d="M322.2,231.3v4.3c-1.2,0.9-2.9,1.5-4.5,1.5c-3.5,0-6.1-2.6-6.1-5.9c0-3.3,2.7-5.9,6.3-5.9
		c1.7,0,3.3,0.6,4.5,1.6l-1.1,1.4c-0.9-0.8-2.2-1.3-3.4-1.3c-2.4,0-4.3,1.8-4.3,4.1c0,2.3,1.9,4.1,4.3,4.1c0.9,0,1.9-0.3,2.7-0.8
		v-3.2L322.2,231.3L322.2,231.3z"/>
	<path id="XMLID_251_" class="st0" d="M349.4,226.5l-0.8,1.7c-1.3-0.8-2.5-1.1-3.4-1.1c-1.1,0-1.9,0.4-1.9,1.2
		c0,2.6,6.3,1.2,6.3,5.4c0,2.1-1.8,3.4-4.4,3.4c-1.8,0-3.6-0.8-4.8-1.9l0.8-1.7c1.2,1.1,2.7,1.7,4,1.7c1.4,0,2.2-0.5,2.2-1.4
		c0-2.6-6.3-1.1-6.3-5.3c0-2,1.7-3.2,4.3-3.2C346.8,225.3,348.3,225.8,349.4,226.5z"/>
	<path id="XMLID_250_" class="st0" d="M359.9,227.2v3.1h5.7v1.8h-5.7v3.2h6.6v1.8H358v-11.7h8.4v1.8L359.9,227.2L359.9,227.2z"/>
	<path id="XMLID_249_" class="st0" d="M383.2,237.1l-6.2-8.4v8.4h-2v-11.7h1.9l6.3,8.4v-8.4h1.9v11.7H383.2z"/>
	<path id="XMLID_248_" class="st0" d="M402.5,237.1l-6.2-8.4v8.4h-2v-11.7h1.9l6.3,8.4v-8.4h1.9v11.7H402.5z"/>
	<path id="XMLID_247_" class="st0" d="M415.6,227.2v3.1h5.7v1.8h-5.7v3.2h6.6v1.8h-8.5v-11.7h8.4v1.8L415.6,227.2L415.6,227.2z"/>
	<path id="XMLID_858_" class="st0" d="M435.3,225.4c2.9,0,4.6,1.4,4.6,4c0,2.6-1.7,4.2-4.6,4.2h-2.7v3.5h-2v-11.7H435.3z
		 M432.6,231.8h2.6c1.8,0,2.8-0.8,2.8-2.3c0-1.5-1-2.3-2.8-2.3h-2.6V231.8z"/>
</g>
<g id="XMLID_817_">
	<path id="XMLID_854_" class="st0" d="M34.8,260.8l-0.7,1.6h-1.2l3.1-7h1.2l3.1,7H39l-0.7-1.6H34.8z M36.5,256.7l-1.3,3.1h2.6
		L36.5,256.7z"/>
	<path id="XMLID_242_" class="st0" d="M49,261.3v1.1h-4.2v-7H46v6L49,261.3L49,261.3z"/>
	<path id="XMLID_241_" class="st0" d="M58,261.3v1.1h-4.2v-7H55v6L58,261.3L58,261.3z"/>
	<path id="XMLID_240_" class="st0" d="M64,256.5v1.9h3.4v1.1H64v1.9H68v1.1h-5.1v-7h5v1.1L64,256.5L64,256.5z"/>
	<path id="XMLID_848_" class="st0" d="M76.2,260.3c-0.1,0-0.2,0-0.3,0h-1.7v2.1h-1.2v-7h2.9c1.8,0,2.8,0.9,2.8,2.4
		c0,1.1-0.5,1.9-1.4,2.3l1.6,2.3h-1.4L76.2,260.3z M75.9,259.2c1.1,0,1.7-0.5,1.7-1.4c0-0.9-0.6-1.4-1.7-1.4h-1.7v2.8H75.9z"/>
	<path id="XMLID_237_" class="st0" d="M89.8,259v2.6c-0.7,0.5-1.8,0.9-2.7,0.9c-2.1,0-3.7-1.6-3.7-3.5c0-2,1.6-3.5,3.8-3.5
		c1,0,2,0.4,2.7,1l-0.7,0.9c-0.5-0.5-1.3-0.8-2-0.8c-1.4,0-2.6,1.1-2.6,2.5s1.1,2.5,2.6,2.5c0.5,0,1.1-0.2,1.6-0.5v-2H89.8z"/>
	<path id="XMLID_236_" class="st0" d="M96.3,256.5v1.9h3.4v1.1h-3.4v1.9h3.9v1.1h-5.1v-7h5v1.1L96.3,256.5L96.3,256.5z"/>
	<path id="XMLID_235_" class="st0" d="M110.2,262.4l-3.7-5v5h-1.2v-7h1.2l3.8,5.1v-5.1h1.2v7H110.2z"/>
	<path id="XMLID_234_" class="st0" d="M118.1,256.5v1.9h3.4v1.1h-3.4v1.9h3.9v1.1h-5.1v-7h5v1.1L118.1,256.5L118.1,256.5z"/>
	<path id="XMLID_841_" class="st0" d="M130.3,260.3c-0.1,0-0.2,0-0.3,0h-1.7v2.1h-1.2v-7h2.9c1.8,0,2.8,0.9,2.8,2.4
		c0,1.1-0.5,1.9-1.4,2.3l1.6,2.3h-1.4L130.3,260.3z M130,259.2c1.1,0,1.7-0.5,1.7-1.4c0-0.9-0.6-1.4-1.7-1.4h-1.7v2.8H130z"/>
	<path id="XMLID_838_" class="st0" d="M138.8,258.9c0,0.4-0.3,0.7-0.6,0.7c-0.4,0-0.6-0.3-0.6-0.7s0.3-0.7,0.6-0.7
		C138.5,258.2,138.8,258.5,138.8,258.9z M138.8,261.8c0,0.4-0.3,0.7-0.6,0.7c-0.4,0-0.6-0.3-0.6-0.7s0.3-0.7,0.6-0.7
		C138.5,261.2,138.8,261.5,138.8,261.8z"/>
	<path id="XMLID_229_" class="st0" d="M156.4,262.4v-5.2l-2.2,4.5h-0.8l-2.2-4.5v5.2H150v-7h1.4l2.3,4.7l2.3-4.7h1.4v7H156.4z"/>
	<path id="XMLID_228_" class="st0" d="M164.2,256.5v1.9h3.4v1.1h-3.4v1.9h3.9v1.1H163v-7h5v1.1L164.2,256.5L164.2,256.5z"/>
	<path id="XMLID_227_" class="st0" d="M177.4,261.3v1.1h-4.2v-7h1.2v6L177.4,261.3L177.4,261.3z"/>
	<path id="XMLID_226_" class="st0" d="M184.6,259.3l-1.2,1.3v1.8h-1.2v-7h1.2v3.6l3.3-3.6h1.4l-2.7,3l2.9,4h-1.4L184.6,259.3z"/>
	<path id="XMLID_225_" class="st0" d="M193.8,261.8c0,0.2-0.1,0.4-0.2,0.5l-0.6,0.9h-0.6l0.4-0.9c-0.2-0.1-0.3-0.3-0.3-0.5
		c0-0.4,0.3-0.6,0.6-0.6C193.5,261.2,193.8,261.5,193.8,261.8z"/>
	<path id="XMLID_224_" class="st0" d="M210.9,259v2.6c-0.7,0.5-1.8,0.9-2.7,0.9c-2.1,0-3.7-1.6-3.7-3.5c0-2,1.6-3.5,3.8-3.5
		c1,0,2,0.4,2.7,1l-0.7,0.9c-0.5-0.5-1.3-0.8-2-0.8c-1.4,0-2.6,1.1-2.6,2.5s1.1,2.5,2.6,2.5c0.5,0,1.1-0.2,1.6-0.5v-2H210.9z"/>
	<path id="XMLID_223_" class="st0" d="M220.4,261.3v1.1h-4.2v-7h1.2v6L220.4,261.3L220.4,261.3z"/>
	<path id="XMLID_222_" class="st0" d="M231.2,259.5c0,1.8-1.1,2.9-3,2.9s-3.1-1.1-3.1-2.9v-4.1h1.2v4.1c0,1.2,0.7,1.9,1.9,1.9
		c1.1,0,1.9-0.7,1.9-1.9v-4.1h1.2L231.2,259.5L231.2,259.5z"/>
	<path id="XMLID_221_" class="st0" d="M239.1,256.5v6h-1.2v-6h-2.2v-1.1h5.6v1.1H239.1z"/>
	<path id="XMLID_220_" class="st0" d="M247.2,256.5v1.9h3.4v1.1h-3.4v1.9h3.9v1.1H246v-7h5v1.1L247.2,256.5L247.2,256.5z"/>
	<path id="XMLID_219_" class="st0" d="M261.2,262.4l-3.7-5v5h-1.2v-7h1.2l3.8,5.1v-5.1h1.2v7H261.2z"/>
	<path id="XMLID_218_" class="st0" d="M268.6,261.8c0,0.2-0.1,0.4-0.2,0.5l-0.6,0.9h-0.6l0.4-0.9c-0.2-0.1-0.3-0.3-0.3-0.5
		c0-0.4,0.3-0.6,0.6-0.6C268.3,261.2,268.6,261.5,268.6,261.8z"/>
	<path id="XMLID_217_" class="st0" d="M284.6,256.1l-0.5,1.1c-0.8-0.5-1.5-0.7-2-0.7c-0.7,0-1.1,0.3-1.1,0.7c0,1.5,3.8,0.7,3.8,3.2
		c0,1.3-1.1,2-2.6,2c-1.1,0-2.1-0.5-2.9-1.1l0.5-1c0.7,0.7,1.6,1,2.4,1c0.8,0,1.3-0.3,1.3-0.8c0-1.6-3.8-0.7-3.8-3.2
		c0-1.2,1-2,2.6-2C283.1,255.4,283.9,255.7,284.6,256.1z"/>
	<path id="XMLID_216_" class="st0" d="M290.9,256.5v1.9h3.4v1.1h-3.4v1.9h3.9v1.1h-5.1v-7h5v1.1L290.9,256.5L290.9,256.5z"/>
	<path id="XMLID_215_" class="st0" d="M304.9,262.4l-3.7-5v5H300v-7h1.2l3.8,5.1v-5.1h1.2v7H304.9z"/>
	<path id="XMLID_214_" class="st0" d="M316.5,262.4l-3.7-5v5h-1.2v-7h1.2l3.8,5.1v-5.1h1.2v7H316.5z"/>
	<path id="XMLID_213_" class="st0" d="M324.3,256.5v1.9h3.4v1.1h-3.4v1.9h3.9v1.1h-5.1v-7h5v1.1L324.3,256.5L324.3,256.5z"/>
	<path id="XMLID_818_" class="st0" d="M336.1,255.4c1.8,0,2.8,0.9,2.8,2.4c0,1.6-1,2.5-2.8,2.5h-1.6v2.1h-1.2v-7H336.1z
		 M334.5,259.2h1.6c1.1,0,1.7-0.5,1.7-1.4c0-0.9-0.6-1.4-1.7-1.4h-1.6V259.2z"/>
</g>
<g id="XMLID_809_">
	<path id="XMLID_210_" class="st0" d="M52.1,303l-2.3,2.9c-1.7-1.8-4.1-3-6.5-3c-4.7,0-8.4,3.6-8.4,8.2c0,4.6,3.7,8.2,8.4,8.2
		c2.3,0,4.8-1.1,6.5-2.8l2.3,2.6c-2.4,2.3-5.7,3.8-9,3.8c-6.9,0-12.1-5.2-12.1-11.9c0-6.6,5.4-11.8,12.3-11.8
		C46.6,299.4,49.9,300.8,52.1,303z"/>
	<path id="XMLID_209_" class="st0" d="M82.4,319.3v3.6h-14v-23.4h3.9v19.8L82.4,319.3L82.4,319.3z"/>
	<path id="XMLID_208_" class="st0" d="M118.3,313.2c0,6.1-3.8,9.9-10.2,9.9c-6.3,0-10.2-3.7-10.2-9.9v-13.7h3.9v13.7
		c0,3.9,2.4,6.3,6.3,6.3c3.8,0,6.2-2.3,6.2-6.3v-13.7h3.9L118.3,313.2L118.3,313.2z"/>
	<path id="XMLID_810_" class="st0" d="M146.2,299.5c4.8,0,7.8,2.2,7.8,5.8c0,2.6-1.6,4.6-4.1,5.2c3.1,0.5,5,2.8,5,5.9
		c0,4-3.2,6.4-8.5,6.4h-10.4v-23.4L146.2,299.5L146.2,299.5z M140,309.2h6c2.5,0,4-1.2,4-3.1c0-2-1.5-3-4-3h-6V309.2z M140,319.4h6
		c3.1,0,4.9-1.2,4.9-3.4c0-2.1-1.8-3.3-4.9-3.3h-6V319.4z"/>
</g>
<g id="XMLID_730_">
	<path id="XMLID_204_" class="st0" d="M44.1,346.2v4.3c-1.2,0.9-2.9,1.5-4.5,1.5c-3.5,0-6.1-2.6-6.1-5.9s2.7-5.9,6.3-5.9
		c1.7,0,3.3,0.6,4.5,1.6l-1.1,1.4c-0.9-0.8-2.2-1.3-3.4-1.3c-2.4,0-4.3,1.8-4.3,4.1c0,2.3,1.9,4.1,4.3,4.1c0.9,0,1.9-0.3,2.7-0.8
		v-3.2L44.1,346.2L44.1,346.2z"/>
	<path id="XMLID_805_" class="st0" d="M58.2,348.4c-0.2,0-0.4,0-0.5,0h-2.8v3.5h-2v-11.7h4.8c3,0,4.7,1.4,4.7,4
		c0,1.9-0.9,3.2-2.4,3.8l2.6,3.9h-2.2L58.2,348.4z M57.7,346.6c1.8,0,2.8-0.8,2.8-2.3c0-1.5-1-2.3-2.8-2.3h-2.8v4.6L57.7,346.6
		L57.7,346.6z"/>
	<path id="XMLID_201_" class="st0" d="M71.1,351.9v-11.7h2v11.7H71.1z"/>
	<path id="XMLID_200_" class="st0" d="M89.3,350.1v1.8h-7v-11.7h2v9.9L89.3,350.1L89.3,350.1z"/>
	<path id="XMLID_199_" class="st0" d="M104.3,350.1v1.8h-7v-11.7h2v9.9L104.3,350.1L104.3,350.1z"/>
	<path id="XMLID_198_" class="st0" d="M114.3,342v3.2h5.7v1.8h-5.7v3.2h6.6v1.8h-8.5v-11.7h8.4v1.8H114.3z"/>
	<path id="XMLID_197_" class="st0" d="M133.6,342v9.9h-2V342h-3.7v-1.8h9.3v1.8H133.6z"/>
	<path id="XMLID_196_" class="st0" d="M163.4,341.4l-0.8,1.7c-1.3-0.8-2.5-1.1-3.4-1.1c-1.1,0-1.9,0.4-1.9,1.2
		c0,2.6,6.3,1.2,6.3,5.4c0,2.1-1.8,3.4-4.4,3.4c-1.8,0-3.6-0.8-4.8-1.9l0.8-1.7c1.2,1.1,2.7,1.7,4,1.7c1.4,0,2.2-0.5,2.2-1.4
		c0-2.6-6.3-1.1-6.3-5.3c0-2,1.7-3.2,4.3-3.2C160.8,340.2,162.3,340.6,163.4,341.4z"/>
	<path id="XMLID_195_" class="st0" d="M181.9,347.1c0,3.1-1.9,4.9-5.1,4.9s-5.1-1.9-5.1-4.9v-6.9h2v6.9c0,2,1.2,3.2,3.1,3.2
		c1.9,0,3.1-1.2,3.1-3.2v-6.9h2L181.9,347.1L181.9,347.1z"/>
	<path id="XMLID_795_" class="st0" d="M196.1,348.4c-0.2,0-0.4,0-0.5,0h-2.8v3.5h-2v-11.7h4.8c3,0,4.7,1.4,4.7,4
		c0,1.9-0.9,3.2-2.4,3.8l2.6,3.9h-2.2L196.1,348.4z M195.5,346.6c1.8,0,2.8-0.8,2.8-2.3c0-1.5-1-2.3-2.8-2.3h-2.8v4.6L195.5,346.6
		L195.5,346.6z"/>
	<path id="XMLID_792_" class="st0" d="M213.7,340.3c3.5,0,6,2.5,6,5.8c0,3.4-2.6,5.8-6.1,5.8H209v-11.7L213.7,340.3L213.7,340.3z
		 M210.9,350.1h2.9c2.3,0,4-1.7,4-4.1c0-2.4-1.8-4.1-4.1-4.1h-2.8L210.9,350.1L210.9,350.1z"/>
	<path id="XMLID_190_" class="st0" d="M229.9,342v3.2h5.7v1.8h-5.7v3.2h6.6v1.8H228v-11.7h8.3v1.8H229.9z"/>
	<path id="XMLID_189_" class="st0" d="M245,351.9v-11.7h2v11.7H245z"/>
	<path id="XMLID_188_" class="st0" d="M265.9,346.2v4.3c-1.2,0.9-2.9,1.5-4.5,1.5c-3.5,0-6.1-2.6-6.1-5.9s2.7-5.9,6.3-5.9
		c1.7,0,3.3,0.6,4.5,1.6l-1.1,1.4c-0.9-0.8-2.2-1.3-3.4-1.3c-2.4,0-4.3,1.8-4.3,4.1c0,2.3,1.9,4.1,4.3,4.1c0.9,0,1.9-0.3,2.7-0.8
		v-3.2L265.9,346.2L265.9,346.2z"/>
	<path id="XMLID_187_" class="st0" d="M282.7,341.4l-0.8,1.7c-1.3-0.8-2.5-1.1-3.4-1.1c-1.1,0-1.9,0.4-1.9,1.2
		c0,2.6,6.3,1.2,6.3,5.4c0,2.1-1.8,3.4-4.4,3.4c-1.8,0-3.6-0.8-4.8-1.9l0.8-1.7c1.2,1.1,2.7,1.7,4,1.7c1.4,0,2.2-0.5,2.2-1.4
		c0-2.6-6.3-1.1-6.3-5.3c0-2,1.7-3.2,4.3-3.2C280.1,340.2,281.6,340.6,282.7,341.4z"/>
	<path id="XMLID_784_" class="st0" d="M296.3,340.3c2.4,0,3.9,1.1,3.9,2.9c0,1.3-0.8,2.3-2,2.6c1.6,0.3,2.5,1.4,2.5,2.9
		c0,2-1.6,3.2-4.3,3.2h-5.2v-11.7L296.3,340.3L296.3,340.3z M293.2,345.1h3c1.3,0,2-0.6,2-1.6c0-1-0.8-1.5-2-1.5h-3V345.1z
		 M293.2,350.2h3c1.5,0,2.5-0.6,2.5-1.7c0-1-0.9-1.7-2.5-1.7h-3V350.2z"/>
	<path id="XMLID_781_" class="st0" d="M314.4,348.4c-0.2,0-0.4,0-0.5,0h-2.8v3.5h-2v-11.7h4.8c3,0,4.7,1.4,4.7,4
		c0,1.9-0.9,3.2-2.4,3.8l2.6,3.9h-2.2L314.4,348.4z M313.8,346.6c1.8,0,2.8-0.8,2.8-2.3c0-1.5-1-2.3-2.8-2.3h-2.8v4.6L313.8,346.6
		L313.8,346.6z"/>
	<path id="XMLID_777_" class="st0" d="M334.7,340.6c2.3,0.8,4,2.9,4,5.5c0,3.3-2.7,5.9-6.2,5.9c-0.5,0-1.1-0.1-1.6-0.2l-0.7,2.1H329
		l0.8-2.5c-2.1-0.9-3.5-3-3.5-5.4c0-3.4,2.7-5.9,6.2-5.9c0.4,0,0.8,0,1.1,0.1l0.6-1.9h1.2L334.7,340.6z M330.4,349.7l2.6-7.7
		c-0.2,0-0.4,0-0.5,0c-2.3,0-4.2,1.8-4.2,4.1C328.3,347.7,329.2,349,330.4,349.7z M336.6,346.1c0-1.7-1.1-3.2-2.6-3.8l-2.6,7.8
		c0.3,0.1,0.7,0.1,1.1,0.1C334.8,350.2,336.6,348.4,336.6,346.1z"/>
	<path id="XMLID_774_" class="st0" d="M351.6,340.3c3.5,0,6,2.5,6,5.8c0,3.4-2.6,5.8-6.1,5.8h-4.8v-11.7L351.6,340.3L351.6,340.3z
		 M348.8,350.1h2.9c2.3,0,4-1.7,4-4.1c0-2.4-1.8-4.1-4.1-4.1h-2.8L348.8,350.1L348.8,350.1z"/>
	<path id="XMLID_176_" class="st0" d="M386.8,351.9l0-8.7l-3.7,7.5h-1.3l-3.7-7.5v8.7h-1.9v-11.7h2.3l3.8,7.8l3.8-7.8h2.3v11.7
		H386.8z"/>
	<path id="XMLID_175_" class="st0" d="M399.8,342v3.2h5.7v1.8h-5.7v3.2h6.6v1.8h-8.5v-11.7h8.4v1.8H399.8z"/>
	<path id="XMLID_769_" class="st0" d="M419.6,340.3c3.5,0,6,2.5,6,5.8c0,3.4-2.6,5.8-6.1,5.8h-4.8v-11.7L419.6,340.3L419.6,340.3z
		 M416.8,350.1h2.9c2.3,0,4-1.7,4-4.1c0-2.4-1.8-4.1-4.1-4.1h-2.8L416.8,350.1L416.8,350.1z"/>
	<path id="XMLID_172_" class="st0" d="M44,362l-1.1,1.4c-0.8-0.9-2.1-1.5-3.2-1.5c-2.3,0-4.2,1.8-4.2,4.1s1.8,4.1,4.2,4.1
		c1.2,0,2.4-0.5,3.2-1.4l1.2,1.3c-1.2,1.2-2.9,1.9-4.5,1.9c-3.4,0-6.1-2.6-6.1-6c0-3.3,2.7-5.9,6.1-5.9
		C41.2,360.2,42.9,360.9,44,362z"/>
	<path id="XMLID_765_" class="st0" d="M63.3,366.1c0,3.3-2.7,5.9-6.2,5.9c-3.5,0-6.2-2.6-6.2-5.9c0-3.4,2.7-5.9,6.2-5.9
		C60.6,360.2,63.3,362.8,63.3,366.1z M52.9,366.1c0,2.3,1.9,4.1,4.2,4.1s4.1-1.8,4.1-4.1c0-2.3-1.9-4.1-4.1-4.1
		C54.8,362,52.9,363.8,52.9,366.1z"/>
	<path id="XMLID_169_" class="st0" d="M79.7,371.9l-6.2-8.4v8.4h-2v-11.7h1.9l6.3,8.4v-8.4h1.9v11.7H79.7z"/>
	<path id="XMLID_168_" class="st0" d="M92.8,362.1v3.4h5.3v1.7h-5.3v4.8h-2v-11.7h7.8l0,1.8L92.8,362.1L92.8,362.1z"/>
	<path id="XMLID_167_" class="st0" d="M106.5,371.9v-11.7h2v11.7H106.5z"/>
	<path id="XMLID_166_" class="st0" d="M121.9,362.1v9.9h-2v-9.9h-3.7v-1.8h9.3v1.8H121.9z"/>
	<path id="XMLID_165_" class="st0" d="M135.3,362.1v3.2h5.7v1.8h-5.7v3.2h6.6v1.8h-8.5v-11.7h8.4v1.8H135.3z"/>
	<path id="XMLID_757_" class="st0" d="M155.7,368.4c-0.2,0-0.4,0-0.5,0h-2.8v3.5h-2v-11.7h4.8c3,0,4.7,1.4,4.7,4
		c0,1.9-0.9,3.2-2.4,3.8l2.6,3.9h-2.2L155.7,368.4z M155.1,366.7c1.8,0,2.8-0.8,2.8-2.3c0-1.5-1-2.3-2.8-2.3h-2.8v4.6L155.1,366.7
		L155.1,366.7z"/>
	<path id="XMLID_162_" class="st0" d="M172.8,362.1v9.9h-2v-9.9h-3.7v-1.8h9.3v1.8H172.8z"/>
	<path id="XMLID_161_" class="st0" d="M198.7,366.8l-2,2.2v3h-2v-11.7h2v6l5.6-6h2.3l-4.5,5l4.8,6.7h-2.4L198.7,366.8z"/>
	<path id="XMLID_160_" class="st0" d="M217.6,371.9h-2v-3.8l-4.4-7.8h2l3.3,5.7l3.3-5.7h2l-4.3,7.8V371.9z"/>
	<path id="XMLID_159_" class="st0" d="M236.5,370.2v1.8h-7v-11.7h2v9.9L236.5,370.2L236.5,370.2z"/>
	<path id="XMLID_158_" class="st0" d="M251.6,370.2v1.8h-7v-11.7h2v9.9L251.6,370.2L251.6,370.2z"/>
	<path id="XMLID_157_" class="st0" d="M259.5,371.9v-11.7h2v11.7H259.5z"/>
	<path id="XMLID_156_" class="st0" d="M278.9,371.9l-6.2-8.4v8.4h-2v-11.7h1.9l6.3,8.4v-8.4h1.9v11.7H278.9z"/>
	<path id="XMLID_155_" class="st0" d="M299.7,366.2v4.3c-1.2,0.9-2.9,1.5-4.5,1.5c-3.5,0-6.1-2.6-6.1-5.9s2.7-5.9,6.3-5.9
		c1.7,0,3.3,0.6,4.5,1.6l-1.1,1.4c-0.9-0.8-2.2-1.3-3.4-1.3c-2.4,0-4.3,1.8-4.3,4.1c0,2.3,1.9,4.1,4.3,4.1c0.9,0,1.9-0.3,2.7-0.8
		v-3.2H299.7z"/>
	<path id="XMLID_746_" class="st0" d="M330.4,366.1c0,3.3-2.7,5.9-6.2,5.9s-6.2-2.6-6.2-5.9c0-3.4,2.7-5.9,6.2-5.9
		S330.4,362.8,330.4,366.1z M320,366.1c0,2.3,1.9,4.1,4.2,4.1s4.1-1.8,4.1-4.1c0-2.3-1.9-4.1-4.1-4.1S320,363.8,320,366.1z"/>
	<path id="XMLID_152_" class="st0" d="M347.8,366.2v4.3c-1.2,0.9-2.9,1.5-4.5,1.5c-3.5,0-6.1-2.6-6.1-5.9s2.7-5.9,6.3-5.9
		c1.7,0,3.3,0.6,4.5,1.6l-1.1,1.4c-0.9-0.8-2.2-1.3-3.4-1.3c-2.4,0-4.3,1.8-4.3,4.1c0,2.3,1.9,4.1,4.3,4.1c0.9,0,1.9-0.3,2.7-0.8
		v-3.2H347.8z"/>
	<path id="XMLID_151_" class="st0" d="M375.3,371.9l-6.2-8.4v8.4h-2v-11.7h1.9l6.3,8.4v-8.4h1.9v11.7H375.3z"/>
	<path id="XMLID_741_" class="st0" d="M397.8,366.1c0,3.3-2.7,5.9-6.2,5.9c-3.5,0-6.2-2.6-6.2-5.9c0-3.4,2.7-5.9,6.2-5.9
		C395.1,360.2,397.8,362.8,397.8,366.1z M387.5,366.1c0,2.3,1.9,4.1,4.2,4.1c2.3,0,4.1-1.8,4.1-4.1c0-2.3-1.9-4.1-4.1-4.1
		C389.3,362,387.5,363.8,387.5,366.1z"/>
	<path id="XMLID_738_" class="st0" d="M411.3,368.4c-0.2,0-0.4,0-0.5,0H408v3.5h-2v-11.7h4.8c3,0,4.7,1.4,4.7,4
		c0,1.9-0.9,3.2-2.4,3.8l2.6,3.9h-2.2L411.3,368.4z M410.8,366.7c1.8,0,2.8-0.8,2.8-2.3c0-1.5-1-2.3-2.8-2.3H408v4.6L410.8,366.7
		L410.8,366.7z"/>
	<path id="XMLID_146_" class="st0" d="M427.2,371.9l-4.7-11.7h2.1l3.6,9.5l3.6-9.5h2l-4.7,11.7H427.2z"/>
	<path id="XMLID_145_" class="st0" d="M443.6,362.1v3.2h5.7v1.8h-5.7v3.2h6.6v1.8h-8.5v-11.7h8.4v1.8H443.6z"/>
	<path id="XMLID_144_" class="st0" d="M468.4,366.2v4.3c-1.2,0.9-2.9,1.5-4.5,1.5c-3.5,0-6.1-2.6-6.1-5.9s2.7-5.9,6.3-5.9
		c1.7,0,3.3,0.6,4.5,1.6l-1.1,1.4c-0.9-0.8-2.2-1.3-3.4-1.3c-2.4,0-4.3,1.8-4.3,4.1c0,2.3,1.9,4.1,4.3,4.1c0.9,0,1.9-0.3,2.7-0.8
		v-3.2H468.4z"/>
	<path id="XMLID_143_" class="st0" d="M477.3,371.9v-11.7h2v11.7H477.3z"/>
	<path id="XMLID_731_" class="st0" d="M490.1,369.3l-1.1,2.6h-2l5.2-11.7h2l5.1,11.7h-2.1l-1.1-2.6H490.1z M493,362.4l-2.2,5.2h4.4
		L493,362.4z"/>
</g>
<g id="XMLID_686_">
	<path id="XMLID_727_" class="st0" d="M34.8,394.4l-0.7,1.6h-1.2l3.1-7h1.2l3.1,7H39l-0.7-1.6H34.8z M36.5,390.2l-1.3,3.1h2.6
		L36.5,390.2z"/>
	<path id="XMLID_138_" class="st0" d="M49,394.9v1.1h-4.2v-7H46v6L49,394.9L49,394.9z"/>
	<path id="XMLID_137_" class="st0" d="M58,394.9v1.1h-4.2v-7H55v6L58,394.9L58,394.9z"/>
	<path id="XMLID_136_" class="st0" d="M64,390v1.9h3.4v1.1H64v1.9H68v1.1h-5.1v-7h5v1.1L64,390L64,390z"/>
	<path id="XMLID_721_" class="st0" d="M76.2,393.8c-0.1,0-0.2,0-0.3,0h-1.7v2.1h-1.2v-7h2.9c1.8,0,2.8,0.9,2.8,2.4
		c0,1.1-0.5,1.9-1.4,2.3l1.6,2.3h-1.4L76.2,393.8z M75.9,392.8c1.1,0,1.7-0.5,1.7-1.4c0-0.9-0.6-1.4-1.7-1.4h-1.7v2.8H75.9z"/>
	<path id="XMLID_133_" class="st0" d="M89.8,392.5v2.6c-0.7,0.5-1.8,0.9-2.7,0.9c-2.1,0-3.7-1.6-3.7-3.5c0-2,1.6-3.5,3.8-3.5
		c1,0,2,0.4,2.7,1l-0.7,0.9c-0.5-0.5-1.3-0.8-2-0.8c-1.4,0-2.6,1.1-2.6,2.5s1.1,2.5,2.6,2.5c0.5,0,1.1-0.2,1.6-0.5v-2L89.8,392.5
		L89.8,392.5z"/>
	<path id="XMLID_132_" class="st0" d="M96.3,390v1.9h3.4v1.1h-3.4v1.9h3.9v1.1h-5.1v-7h5v1.1L96.3,390L96.3,390z"/>
	<path id="XMLID_131_" class="st0" d="M110.2,396l-3.7-5v5h-1.2v-7h1.2l3.8,5.1V389h1.2v7H110.2z"/>
	<path id="XMLID_130_" class="st0" d="M118.1,390v1.9h3.4v1.1h-3.4v1.9h3.9v1.1h-5.1v-7h5v1.1L118.1,390L118.1,390z"/>
	<path id="XMLID_714_" class="st0" d="M130.3,393.8c-0.1,0-0.2,0-0.3,0h-1.7v2.1h-1.2v-7h2.9c1.8,0,2.8,0.9,2.8,2.4
		c0,1.1-0.5,1.9-1.4,2.3l1.6,2.3h-1.4L130.3,393.8z M130,392.8c1.1,0,1.7-0.5,1.7-1.4c0-0.9-0.6-1.4-1.7-1.4h-1.7v2.8H130z"/>
	<path id="XMLID_711_" class="st0" d="M138.8,392.4c0,0.4-0.3,0.7-0.6,0.7c-0.4,0-0.6-0.3-0.6-0.7c0-0.4,0.3-0.7,0.6-0.7
		C138.5,391.8,138.8,392,138.8,392.4z M138.8,395.4c0,0.4-0.3,0.7-0.6,0.7c-0.4,0-0.6-0.3-0.6-0.7c0-0.4,0.3-0.7,0.6-0.7
		C138.5,394.7,138.8,395,138.8,395.4z"/>
	<path id="XMLID_125_" class="st0" d="M156.4,396v-5.2l-2.2,4.5h-0.8l-2.2-4.5v5.2H150v-7h1.4l2.3,4.7l2.3-4.7h1.4v7H156.4z"/>
	<path id="XMLID_124_" class="st0" d="M164.2,390v1.9h3.4v1.1h-3.4v1.9h3.9v1.1H163v-7h5v1.1L164.2,390L164.2,390z"/>
	<path id="XMLID_123_" class="st0" d="M177.4,394.9v1.1h-4.2v-7h1.2v6L177.4,394.9L177.4,394.9z"/>
	<path id="XMLID_122_" class="st0" d="M184.6,392.9l-1.2,1.3v1.8h-1.2v-7h1.2v3.6l3.3-3.6h1.4l-2.7,3l2.9,4h-1.4L184.6,392.9z"/>
	<path id="XMLID_121_" class="st0" d="M193.8,395.4c0,0.2-0.1,0.4-0.2,0.5l-0.6,0.9h-0.6l0.4-0.9c-0.2-0.1-0.3-0.3-0.3-0.5
		c0-0.4,0.3-0.6,0.6-0.6C193.5,394.7,193.8,395,193.8,395.4z"/>
	<path id="XMLID_120_" class="st0" d="M210.9,392.5v2.6c-0.7,0.5-1.8,0.9-2.7,0.9c-2.1,0-3.7-1.6-3.7-3.5c0-2,1.6-3.5,3.8-3.5
		c1,0,2,0.4,2.7,1l-0.7,0.9c-0.5-0.5-1.3-0.8-2-0.8c-1.4,0-2.6,1.1-2.6,2.5s1.1,2.5,2.6,2.5c0.5,0,1.1-0.2,1.6-0.5v-2L210.9,392.5
		L210.9,392.5z"/>
	<path id="XMLID_119_" class="st0" d="M220.4,394.9v1.1h-4.2v-7h1.2v6L220.4,394.9L220.4,394.9z"/>
	<path id="XMLID_118_" class="st0" d="M231.2,393c0,1.8-1.1,2.9-3,2.9s-3.1-1.1-3.1-2.9v-4.1h1.2v4.1c0,1.2,0.7,1.9,1.9,1.9
		c1.1,0,1.9-0.7,1.9-1.9v-4.1h1.2L231.2,393L231.2,393z"/>
	<path id="XMLID_117_" class="st0" d="M239.1,390v6h-1.2v-6h-2.2V389h5.6v1.1H239.1z"/>
	<path id="XMLID_116_" class="st0" d="M247.2,390v1.9h3.4v1.1h-3.4v1.9h3.9v1.1H246v-7h5v1.1L247.2,390L247.2,390z"/>
	<path id="XMLID_115_" class="st0" d="M261.2,396l-3.7-5v5h-1.2v-7h1.2l3.8,5.1V389h1.2v7H261.2z"/>
	<path id="XMLID_114_" class="st0" d="M268.6,395.4c0,0.2-0.1,0.4-0.2,0.5l-0.6,0.9h-0.6l0.4-0.9c-0.2-0.1-0.3-0.3-0.3-0.5
		c0-0.4,0.3-0.6,0.6-0.6C268.3,394.7,268.6,395,268.6,395.4z"/>
	<path id="XMLID_113_" class="st0" d="M281,390v1.9h3.4v1.1H281v1.9h3.9v1.1h-5.1v-7h5v1.1L281,390L281,390z"/>
	<path id="XMLID_112_" class="st0" d="M295.9,392.5v2.6c-0.7,0.5-1.8,0.9-2.7,0.9c-2.1,0-3.7-1.6-3.7-3.5c0-2,1.6-3.5,3.8-3.5
		c1,0,2,0.4,2.7,1l-0.7,0.9c-0.5-0.5-1.3-0.8-2-0.8c-1.4,0-2.6,1.1-2.6,2.5s1.1,2.5,2.6,2.5c0.5,0,1.1-0.2,1.6-0.5v-2L295.9,392.5
		L295.9,392.5z"/>
	<path id="XMLID_111_" class="st0" d="M307.1,392.5v2.6c-0.7,0.5-1.8,0.9-2.7,0.9c-2.1,0-3.7-1.6-3.7-3.5c0-2,1.6-3.5,3.8-3.5
		c1,0,2,0.4,2.7,1l-0.7,0.9c-0.5-0.5-1.3-0.8-2-0.8c-1.4,0-2.6,1.1-2.6,2.5s1.1,2.5,2.6,2.5c0.5,0,1.1-0.2,1.6-0.5v-2L307.1,392.5
		L307.1,392.5z"/>
	<path id="XMLID_110_" class="st0" d="M313.2,395.4c0,0.2-0.1,0.4-0.2,0.5l-0.6,0.9h-0.6l0.4-0.9c-0.2-0.1-0.3-0.3-0.3-0.5
		c0-0.4,0.3-0.6,0.6-0.6C312.9,394.7,313.2,395,313.2,395.4z"/>
	<path id="XMLID_109_" class="st0" d="M329.2,389.6l-0.5,1.1c-0.8-0.5-1.5-0.7-2-0.7c-0.7,0-1.1,0.3-1.1,0.7c0,1.5,3.8,0.7,3.8,3.2
		c0,1.3-1.1,2-2.6,2c-1.1,0-2.1-0.5-2.9-1.1l0.5-1c0.7,0.7,1.6,1,2.4,1c0.8,0,1.3-0.3,1.3-0.8c0-1.6-3.8-0.7-3.8-3.2
		c0-1.2,1-2,2.6-2C327.6,388.9,328.5,389.2,329.2,389.6z"/>
	<path id="XMLID_108_" class="st0" d="M335.5,390v1.9h3.4v1.1h-3.4v1.9h3.9v1.1h-5.1v-7h5v1.1L335.5,390L335.5,390z"/>
	<path id="XMLID_107_" class="st0" d="M349.4,396l-3.7-5v5h-1.2v-7h1.2l3.8,5.1V389h1.2v7H349.4z"/>
	<path id="XMLID_106_" class="st0" d="M361,396l-3.7-5v5h-1.2v-7h1.2l3.8,5.1V389h1.2v7H361z"/>
	<path id="XMLID_105_" class="st0" d="M368.9,390v1.9h3.4v1.1h-3.4v1.9h3.9v1.1h-5.1v-7h5v1.1L368.9,390L368.9,390z"/>
	<path id="XMLID_687_" class="st0" d="M380.7,389c1.8,0,2.8,0.9,2.8,2.4c0,1.6-1,2.5-2.8,2.5h-1.6v2.1h-1.2v-7H380.7z M379.1,392.8
		h1.6c1.1,0,1.7-0.5,1.7-1.4c0-0.9-0.6-1.4-1.7-1.4h-1.6V392.8z"/>
</g>
<g id="XMLID_672_">
	<path id="XMLID_102_" class="st0" d="M48.8,436.5l-1.6,3.5c-2.5-1.5-5.1-2.2-6.9-2.2c-2.3,0-3.8,0.9-3.8,2.4
		c0,5.1,12.6,2.4,12.6,10.8c0,4.2-3.7,6.7-8.8,6.7c-3.7,0-7.2-1.5-9.6-3.7l1.7-3.4c2.4,2.2,5.4,3.4,7.9,3.4c2.7,0,4.4-1,4.4-2.8
		c0-5.2-12.6-2.3-12.6-10.6c0-4,3.4-6.5,8.5-6.5C43.6,434.1,46.6,435,48.8,436.5z"/>
	<path id="XMLID_682_" class="st0" d="M75.2,434.3c5.9,0,9.3,2.9,9.3,8c0,5.3-3.4,8.4-9.3,8.4h-5.4v7h-3.9v-23.4L75.2,434.3
		L75.2,434.3z M69.8,447H75c3.6,0,5.7-1.5,5.7-4.7c0-3.1-2-4.5-5.7-4.5h-5.2V447z"/>
	<path id="XMLID_679_" class="st0" d="M102.4,452.4l-2.2,5.3H96l10.3-23.4h4l10.2,23.4h-4.2l-2.2-5.3H102.4z M108.2,438.5l-4.4,10.4
		h8.8L108.2,438.5z"/>
	<path id="XMLID_97_" class="st0" d="M152.3,457.6l-12.4-16.7v16.7h-3.9v-23.4h3.9l12.5,16.8v-16.8h3.9v23.4H152.3z"/>
	<path id="XMLID_96_" class="st0" d="M185.5,450.4c0,4.7-2.8,7.4-7.3,7.4c-2.8,0-5.1-1.2-6.9-3.4l1.9-3c1.5,1.7,3.4,2.6,5,2.6
		c2.1,0,3.3-1.3,3.3-3.7v-12.5h-8.1v-3.5h12.1V450.4z"/>
	<path id="XMLID_674_" class="st0" d="M226.2,445.9c0,6.7-5.4,11.8-12.4,11.8s-12.4-5.2-12.4-11.8c0-6.7,5.4-11.8,12.4-11.8
		S226.2,439.3,226.2,445.9z M205.4,445.9c0,4.6,3.8,8.3,8.4,8.3s8.3-3.7,8.3-8.3c0-4.6-3.7-8.2-8.3-8.2
		C209.2,437.7,205.4,441.3,205.4,445.9z"/>
	<path id="XMLID_93_" class="st0" d="M256.6,454v3.6h-14v-23.4h3.9V454L256.6,454L256.6,454z"/>
</g>
<g id="XMLID_591_">
	<path id="XMLID_92_" class="st0" d="M44.1,481v4.3c-1.2,0.9-2.9,1.5-4.5,1.5c-3.5,0-6.1-2.6-6.1-5.9s2.7-5.9,6.3-5.9
		c1.7,0,3.3,0.6,4.5,1.6L43,478c-0.9-0.8-2.2-1.3-3.4-1.3c-2.4,0-4.3,1.8-4.3,4.1c0,2.3,1.9,4.1,4.3,4.1c0.9,0,1.9-0.3,2.7-0.8V481
		L44.1,481L44.1,481z"/>
	<path id="XMLID_668_" class="st0" d="M58.2,483.2c-0.2,0-0.4,0-0.5,0h-2.8v3.5h-2V475h4.8c3,0,4.7,1.4,4.7,4c0,1.9-0.9,3.2-2.4,3.8
		l2.6,3.9h-2.2L58.2,483.2z M57.7,481.4c1.8,0,2.8-0.8,2.8-2.3c0-1.5-1-2.3-2.8-2.3h-2.8v4.6L57.7,481.4L57.7,481.4z"/>
	<path id="XMLID_89_" class="st0" d="M71.1,486.7V475h2v11.7L71.1,486.7L71.1,486.7z"/>
	<path id="XMLID_88_" class="st0" d="M89.3,484.9v1.8h-7V475h2v9.9H89.3z"/>
	<path id="XMLID_87_" class="st0" d="M104.3,484.9v1.8h-7V475h2v9.9H104.3z"/>
	<path id="XMLID_86_" class="st0" d="M114.3,476.8v3.2h5.7v1.8h-5.7v3.2h6.6v1.8h-8.5V475h8.4v1.8L114.3,476.8L114.3,476.8z"/>
	<path id="XMLID_85_" class="st0" d="M133.6,476.8v9.9h-2v-9.9h-3.7V475h9.3v1.8H133.6z"/>
	<path id="XMLID_84_" class="st0" d="M163.4,476.1l-0.8,1.7c-1.3-0.8-2.5-1.1-3.4-1.1c-1.1,0-1.9,0.4-1.9,1.2c0,2.6,6.3,1.2,6.3,5.4
		c0,2.1-1.8,3.4-4.4,3.4c-1.8,0-3.6-0.8-4.8-1.9l0.8-1.7c1.2,1.1,2.7,1.7,4,1.7c1.4,0,2.2-0.5,2.2-1.4c0-2.6-6.3-1.1-6.3-5.3
		c0-2,1.7-3.2,4.3-3.2C160.8,474.9,162.3,475.4,163.4,476.1z"/>
	<path id="XMLID_83_" class="st0" d="M181.9,481.9c0,3.1-1.9,4.9-5.1,4.9s-5.1-1.9-5.1-4.9V475h2v6.9c0,2,1.2,3.2,3.1,3.2
		c1.9,0,3.1-1.2,3.1-3.2V475h2L181.9,481.9L181.9,481.9z"/>
	<path id="XMLID_658_" class="st0" d="M196.1,483.2c-0.2,0-0.4,0-0.5,0h-2.8v3.5h-2V475h4.8c3,0,4.7,1.4,4.7,4
		c0,1.9-0.9,3.2-2.4,3.8l2.6,3.9h-2.2L196.1,483.2z M195.5,481.4c1.8,0,2.8-0.8,2.8-2.3c0-1.5-1-2.3-2.8-2.3h-2.8v4.6L195.5,481.4
		L195.5,481.4z"/>
	<path id="XMLID_655_" class="st0" d="M213.7,475c3.5,0,6,2.5,6,5.8c0,3.4-2.6,5.8-6.1,5.8H209V475H213.7z M210.9,484.9h2.9
		c2.3,0,4-1.7,4-4.1c0-2.4-1.8-4.1-4.1-4.1h-2.8L210.9,484.9L210.9,484.9z"/>
	<path id="XMLID_78_" class="st0" d="M229.9,476.8v3.2h5.7v1.8h-5.7v3.2h6.6v1.8H228V475h8.3v1.8L229.9,476.8L229.9,476.8z"/>
	<path id="XMLID_77_" class="st0" d="M245,486.7V475h2v11.7L245,486.7L245,486.7z"/>
	<path id="XMLID_76_" class="st0" d="M265.9,481v4.3c-1.2,0.9-2.9,1.5-4.5,1.5c-3.5,0-6.1-2.6-6.1-5.9s2.7-5.9,6.3-5.9
		c1.7,0,3.3,0.6,4.5,1.6l-1.1,1.4c-0.9-0.8-2.2-1.3-3.4-1.3c-2.4,0-4.3,1.8-4.3,4.1c0,2.3,1.9,4.1,4.3,4.1c0.9,0,1.9-0.3,2.7-0.8
		V481L265.9,481L265.9,481z"/>
	<path id="XMLID_75_" class="st0" d="M282.7,476.1l-0.8,1.7c-1.3-0.8-2.5-1.1-3.4-1.1c-1.1,0-1.9,0.4-1.9,1.2c0,2.6,6.3,1.2,6.3,5.4
		c0,2.1-1.8,3.4-4.4,3.4c-1.8,0-3.6-0.8-4.8-1.9l0.8-1.7c1.2,1.1,2.7,1.7,4,1.7c1.4,0,2.2-0.5,2.2-1.4c0-2.6-6.3-1.1-6.3-5.3
		c0-2,1.7-3.2,4.3-3.2C280.1,474.9,281.6,475.4,282.7,476.1z"/>
	<path id="XMLID_647_" class="st0" d="M296.3,475c2.4,0,3.9,1.1,3.9,2.9c0,1.3-0.8,2.3-2,2.6c1.6,0.3,2.5,1.4,2.5,2.9
		c0,2-1.6,3.2-4.3,3.2h-5.2V475H296.3z M293.2,479.9h3c1.3,0,2-0.6,2-1.6c0-1-0.8-1.5-2-1.5h-3V479.9z M293.2,485h3
		c1.5,0,2.5-0.6,2.5-1.7c0-1-0.9-1.7-2.5-1.7h-3V485z"/>
	<path id="XMLID_644_" class="st0" d="M314.4,483.2c-0.2,0-0.4,0-0.5,0h-2.8v3.5h-2V475h4.8c3,0,4.7,1.4,4.7,4
		c0,1.9-0.9,3.2-2.4,3.8l2.6,3.9h-2.2L314.4,483.2z M313.8,481.4c1.8,0,2.8-0.8,2.8-2.3c0-1.5-1-2.3-2.8-2.3h-2.8v4.6L313.8,481.4
		L313.8,481.4z"/>
	<path id="XMLID_640_" class="st0" d="M334.7,475.3c2.3,0.8,4,2.9,4,5.5c0,3.3-2.7,5.9-6.2,5.9c-0.5,0-1.1-0.1-1.6-0.2l-0.7,2.1H329
		l0.8-2.5c-2.1-0.9-3.5-3-3.5-5.4c0-3.4,2.7-5.9,6.2-5.9c0.4,0,0.8,0,1.1,0.1l0.6-1.9h1.2L334.7,475.3z M330.4,484.5l2.6-7.7
		c-0.2,0-0.4,0-0.5,0c-2.3,0-4.2,1.8-4.2,4.1C328.3,482.4,329.2,483.8,330.4,484.5z M336.6,480.9c0-1.7-1.1-3.2-2.6-3.8l-2.6,7.8
		c0.3,0.1,0.7,0.1,1.1,0.1C334.8,485,336.6,483.2,336.6,480.9z"/>
	<path id="XMLID_637_" class="st0" d="M351.6,475c3.5,0,6,2.5,6,5.8c0,3.4-2.6,5.8-6.1,5.8h-4.8V475H351.6z M348.8,484.9h2.9
		c2.3,0,4-1.7,4-4.1c0-2.4-1.8-4.1-4.1-4.1h-2.8L348.8,484.9L348.8,484.9z"/>
	<path id="XMLID_64_" class="st0" d="M386.8,486.7l0-8.7l-3.7,7.5h-1.3l-3.7-7.5v8.7h-1.9V475h2.3l3.8,7.8l3.8-7.8h2.3v11.7
		L386.8,486.7L386.8,486.7z"/>
	<path id="XMLID_63_" class="st0" d="M399.8,476.8v3.2h5.7v1.8h-5.7v3.2h6.6v1.8h-8.5V475h8.4v1.8L399.8,476.8L399.8,476.8z"/>
	<path id="XMLID_632_" class="st0" d="M419.6,475c3.5,0,6,2.5,6,5.8c0,3.4-2.6,5.8-6.1,5.8h-4.8V475H419.6z M416.8,484.9h2.9
		c2.3,0,4-1.7,4-4.1c0-2.4-1.8-4.1-4.1-4.1h-2.8L416.8,484.9L416.8,484.9z"/>
	<path id="XMLID_60_" class="st0" d="M44,496.8l-1.1,1.4c-0.8-0.9-2.1-1.5-3.2-1.5c-2.3,0-4.2,1.8-4.2,4.1s1.8,4.1,4.2,4.1
		c1.2,0,2.4-0.5,3.2-1.4l1.2,1.3c-1.2,1.2-2.9,1.9-4.5,1.9c-3.4,0-6.1-2.6-6.1-6c0-3.3,2.7-5.9,6.1-5.9
		C41.2,495,42.9,495.7,44,496.8z"/>
	<path id="XMLID_59_" class="st0" d="M60.3,506.7v-4.8h-6.2v4.8h-2V495h2v5.1h6.2V495h2v11.7H60.3z"/>
	<path id="XMLID_627_" class="st0" d="M82.8,500.9c0,3.3-2.7,5.9-6.2,5.9c-3.5,0-6.2-2.6-6.2-5.9c0-3.4,2.7-5.9,6.2-5.9
		C80.1,495,82.8,497.6,82.8,500.9z M72.4,500.9c0,2.3,1.9,4.1,4.2,4.1c2.3,0,4.1-1.8,4.1-4.1c0-2.3-1.9-4.1-4.1-4.1
		C74.3,496.8,72.4,498.6,72.4,500.9z"/>
	<path id="XMLID_624_" class="st0" d="M96.3,503.2c-0.2,0-0.4,0-0.5,0H93v3.5h-2v-11.7h4.8c3,0,4.7,1.4,4.7,4c0,1.9-0.9,3.2-2.4,3.8
		l2.6,3.9h-2.2L96.3,503.2z M95.8,501.4c1.8,0,2.8-0.8,2.8-2.3c0-1.5-1-2.3-2.8-2.3H93v4.6L95.8,501.4L95.8,501.4z"/>
	<path id="XMLID_54_" class="st0" d="M109.2,506.7V495h2v11.7H109.2z"/>
	<path id="XMLID_53_" class="st0" d="M122.1,504.9h7.2v1.8h-9.9v-1.4l7.1-8.5h-6.9V495h9.6v1.4L122.1,504.9z"/>
	<path id="XMLID_619_" class="st0" d="M148.9,500.9c0,3.3-2.7,5.9-6.2,5.9c-3.5,0-6.2-2.6-6.2-5.9c0-3.4,2.7-5.9,6.2-5.9
		C146.2,495,148.9,497.6,148.9,500.9z M138.5,500.9c0,2.3,1.9,4.1,4.2,4.1s4.1-1.8,4.1-4.1c0-2.3-1.9-4.1-4.1-4.1
		C140.4,496.8,138.5,498.6,138.5,500.9z"/>
	<path id="XMLID_50_" class="st0" d="M158.4,505.8c0,0.3-0.1,0.6-0.3,0.9l-1,1.4h-1l0.6-1.4c-0.3-0.2-0.5-0.5-0.5-0.9
		c0-0.6,0.4-1.1,1-1.1C157.9,504.7,158.4,505.1,158.4,505.8z"/>
	<path id="XMLID_49_" class="st0" d="M179.2,496.8v3.4h5.3v1.7h-5.3v4.8h-2V495h7.8l0,1.8L179.2,496.8L179.2,496.8z"/>
	<path id="XMLID_48_" class="st0" d="M194.9,496.8v3.2h5.7v1.8h-5.7v3.2h6.6v1.8h-8.5v-11.7h8.4v1.8H194.9z"/>
	<path id="XMLID_47_" class="st0" d="M218.1,506.7l-6.2-8.4v8.4h-2V495h1.9l6.3,8.4V495h1.9v11.7H218.1z"/>
	<path id="XMLID_46_" class="st0" d="M237.4,506.7l-6.2-8.4v8.4h-2V495h1.9l6.3,8.4V495h1.9v11.7H237.4z"/>
	<path id="XMLID_45_" class="st0" d="M248.6,506.7V495h2v11.7H248.6z"/>
	<path id="XMLID_44_" class="st0" d="M263.6,501.6l-2,2.2v3h-2v-11.7h2v6l5.6-6h2.3l-4.5,5l4.8,6.7h-2.4L263.6,501.6z"/>
	<path id="XMLID_43_" class="st0" d="M279.7,496.8v3.2h5.7v1.8h-5.7v3.2h6.6v1.8h-8.5v-11.7h8.4v1.8H279.7z"/>
	<path id="XMLID_42_" class="st0" d="M301.8,504.9v1.8h-7V495h2v9.9L301.8,504.9L301.8,504.9z"/>
	<path id="XMLID_607_" class="st0" d="M331.6,500.9c0,3.3-2.7,5.9-6.2,5.9s-6.2-2.6-6.2-5.9c0-3.4,2.7-5.9,6.2-5.9
		S331.6,497.6,331.6,500.9z M321.2,500.9c0,2.3,1.9,4.1,4.2,4.1s4.1-1.8,4.1-4.1c0-2.3-1.9-4.1-4.1-4.1
		C323.1,496.8,321.2,498.6,321.2,500.9z"/>
	<path id="XMLID_39_" class="st0" d="M349.1,501v4.3c-1.2,0.9-2.9,1.5-4.5,1.5c-3.5,0-6.1-2.6-6.1-5.9s2.7-5.9,6.3-5.9
		c1.7,0,3.3,0.6,4.5,1.6l-1.1,1.4c-0.9-0.8-2.2-1.3-3.4-1.3c-2.4,0-4.3,1.8-4.3,4.1c0,2.3,1.9,4.1,4.3,4.1c0.9,0,1.9-0.3,2.7-0.8
		V501L349.1,501L349.1,501z"/>
	<path id="XMLID_38_" class="st0" d="M376.5,506.7l-6.2-8.4v8.4h-2V495h1.9l6.3,8.4V495h1.9v11.7H376.5z"/>
	<path id="XMLID_602_" class="st0" d="M399.1,500.9c0,3.3-2.7,5.9-6.2,5.9c-3.5,0-6.2-2.6-6.2-5.9c0-3.4,2.7-5.9,6.2-5.9
		C396.4,495,399.1,497.6,399.1,500.9z M388.7,500.9c0,2.3,1.9,4.1,4.2,4.1c2.3,0,4.1-1.8,4.1-4.1c0-2.3-1.9-4.1-4.1-4.1
		C390.6,496.8,388.7,498.6,388.7,500.9z"/>
	<path id="XMLID_599_" class="st0" d="M412.5,503.2c-0.2,0-0.4,0-0.5,0h-2.8v3.5h-2v-11.7h4.8c3,0,4.7,1.4,4.7,4
		c0,1.9-0.9,3.2-2.4,3.8l2.6,3.9h-2.2L412.5,503.2z M412,501.4c1.8,0,2.8-0.8,2.8-2.3c0-1.5-1-2.3-2.8-2.3h-2.8v4.6L412,501.4
		L412,501.4z"/>
	<path id="XMLID_33_" class="st0" d="M428.5,506.7l-4.7-11.7h2.1l3.6,9.5l3.6-9.5h2l-4.7,11.7H428.5z"/>
	<path id="XMLID_32_" class="st0" d="M444.8,496.8v3.2h5.7v1.8h-5.7v3.2h6.6v1.8h-8.5v-11.7h8.4v1.8H444.8z"/>
	<path id="XMLID_31_" class="st0" d="M469.6,501v4.3c-1.2,0.9-2.9,1.5-4.5,1.5c-3.5,0-6.1-2.6-6.1-5.9s2.7-5.9,6.3-5.9
		c1.7,0,3.3,0.6,4.5,1.6l-1.1,1.4c-0.9-0.8-2.2-1.3-3.4-1.3c-2.4,0-4.3,1.8-4.3,4.1c0,2.3,1.9,4.1,4.3,4.1c0.9,0,1.9-0.3,2.7-0.8
		V501L469.6,501L469.6,501z"/>
	<path id="XMLID_30_" class="st0" d="M478.5,506.7V495h2v11.7H478.5z"/>
	<path id="XMLID_592_" class="st0" d="M491.3,504.1l-1.1,2.6h-2l5.2-11.7h2l5.1,11.7h-2.1l-1.1-2.6H491.3z M494.2,497.2l-2.2,5.2
		h4.4L494.2,497.2z"/>
</g>
<g id="XMLID_560_">
	<path id="XMLID_588_" class="st0" d="M34.8,529.1l-0.7,1.6h-1.2l3.1-7h1.2l3.1,7H39l-0.7-1.6H34.8z M36.5,525l-1.3,3.1h2.6
		L36.5,525z"/>
	<path id="XMLID_25_" class="st0" d="M49,529.7v1.1h-4.2v-7H46v6L49,529.7L49,529.7z"/>
	<path id="XMLID_24_" class="st0" d="M58,529.7v1.1h-4.2v-7H55v6L58,529.7L58,529.7z"/>
	<path id="XMLID_23_" class="st0" d="M64,524.8v1.9h3.4v1.1H64v1.9H68v1.1h-5.1v-7h5v1.1H64z"/>
	<path id="XMLID_582_" class="st0" d="M76.2,528.6c-0.1,0-0.2,0-0.3,0h-1.7v2.1h-1.2v-7h2.9c1.8,0,2.8,0.9,2.8,2.4
		c0,1.1-0.5,1.9-1.4,2.3l1.6,2.3h-1.4L76.2,528.6z M75.9,527.6c1.1,0,1.7-0.5,1.7-1.4c0-0.9-0.6-1.4-1.7-1.4h-1.7v2.8H75.9z"/>
	<path id="XMLID_20_" class="st0" d="M89.8,527.3v2.6c-0.7,0.5-1.8,0.9-2.7,0.9c-2.1,0-3.7-1.6-3.7-3.5c0-2,1.6-3.5,3.8-3.5
		c1,0,2,0.4,2.7,1l-0.7,0.9c-0.5-0.5-1.3-0.8-2-0.8c-1.4,0-2.6,1.1-2.6,2.5c0,1.4,1.1,2.5,2.6,2.5c0.5,0,1.1-0.2,1.6-0.5v-2H89.8
		L89.8,527.3z"/>
	<path id="XMLID_19_" class="st0" d="M96.3,524.8v1.9h3.4v1.1h-3.4v1.9h3.9v1.1h-5.1v-7h5v1.1H96.3z"/>
	<path id="XMLID_18_" class="st0" d="M110.2,530.7l-3.7-5v5h-1.2v-7h1.2l3.8,5.1v-5.1h1.2v7H110.2z"/>
	<path id="XMLID_17_" class="st0" d="M118.1,524.8v1.9h3.4v1.1h-3.4v1.9h3.9v1.1h-5.1v-7h5v1.1H118.1z"/>
	<path id="XMLID_575_" class="st0" d="M130.3,528.6c-0.1,0-0.2,0-0.3,0h-1.7v2.1h-1.2v-7h2.9c1.8,0,2.8,0.9,2.8,2.4
		c0,1.1-0.5,1.9-1.4,2.3l1.6,2.3h-1.4L130.3,528.6z M130,527.6c1.1,0,1.7-0.5,1.7-1.4c0-0.9-0.6-1.4-1.7-1.4h-1.7v2.8H130z"/>
	<path id="XMLID_572_" class="st0" d="M138.8,527.2c0,0.4-0.3,0.7-0.6,0.7c-0.4,0-0.6-0.3-0.6-0.7s0.3-0.7,0.6-0.7
		C138.5,526.5,138.8,526.8,138.8,527.2z M138.8,530.1c0,0.4-0.3,0.7-0.6,0.7c-0.4,0-0.6-0.3-0.6-0.7c0-0.4,0.3-0.7,0.6-0.7
		C138.5,529.5,138.8,529.8,138.8,530.1z"/>
	<path id="XMLID_12_" class="st0" d="M156.4,530.7v-5.2l-2.2,4.5h-0.8l-2.2-4.5v5.2H150v-7h1.4l2.3,4.7l2.3-4.7h1.4v7H156.4z"/>
	<path id="XMLID_11_" class="st0" d="M164.2,524.8v1.9h3.4v1.1h-3.4v1.9h3.9v1.1H163v-7h5v1.1H164.2z"/>
	<path id="XMLID_10_" class="st0" d="M177.4,529.7v1.1h-4.2v-7h1.2v6L177.4,529.7L177.4,529.7z"/>
	<path id="XMLID_9_" class="st0" d="M184.6,527.6l-1.2,1.3v1.8h-1.2v-7h1.2v3.6l3.3-3.6h1.4l-2.7,3l2.9,4h-1.4L184.6,527.6z"/>
	<path id="XMLID_8_" class="st0" d="M193.8,530.2c0,0.2-0.1,0.4-0.2,0.5l-0.6,0.9h-0.6l0.4-0.9c-0.2-0.1-0.3-0.3-0.3-0.5
		c0-0.4,0.3-0.6,0.6-0.6C193.5,529.5,193.8,529.8,193.8,530.2z"/>
	<path id="XMLID_7_" class="st0" d="M210.9,527.3v2.6c-0.7,0.5-1.8,0.9-2.7,0.9c-2.1,0-3.7-1.6-3.7-3.5c0-2,1.6-3.5,3.8-3.5
		c1,0,2,0.4,2.7,1l-0.7,0.9c-0.5-0.5-1.3-0.8-2-0.8c-1.4,0-2.6,1.1-2.6,2.5c0,1.4,1.1,2.5,2.6,2.5c0.5,0,1.1-0.2,1.6-0.5v-2H210.9
		L210.9,527.3z"/>
	<path id="XMLID_6_" class="st0" d="M220.4,529.7v1.1h-4.2v-7h1.2v6L220.4,529.7L220.4,529.7z"/>
	<path id="XMLID_5_" class="st0" d="M231.2,527.8c0,1.8-1.1,2.9-3,2.9s-3.1-1.1-3.1-2.9v-4.1h1.2v4.1c0,1.2,0.7,1.9,1.9,1.9
		c1.1,0,1.9-0.7,1.9-1.9v-4.1h1.2L231.2,527.8L231.2,527.8z"/>
	<path id="XMLID_4_" class="st0" d="M239.1,524.8v6h-1.2v-6h-2.2v-1.1h5.6v1.1H239.1z"/>
	<path id="XMLID_3_" class="st0" d="M247.2,524.8v1.9h3.4v1.1h-3.4v1.9h3.9v1.1H246v-7h5v1.1H247.2z"/>
	<path id="XMLID_2_" class="st0" d="M261.2,530.7l-3.7-5v5h-1.2v-7h1.2l3.8,5.1v-5.1h1.2v7H261.2z"/>
</g>
</svg>
