<?xml version="1.0" encoding="utf-8"?>
<!-- Generator: Adobe Illustrator 19.0.0, SVG Export Plug-In . SVG Version: 6.00 Build 0)  -->
<svg version="1.1" xmlns="http://www.w3.org/2000/svg" xmlns:xlink="http://www.w3.org/1999/xlink" x="0px" y="0px"
	 viewBox="1483 -712.3 3925.2 1984.3" style="enable-background:new 1483 -712.3 3925.2 1984.3;" xml:space="preserve">
<style type="text/css">
	.st0{fill:#FFFFFF;}
	.st1{fill:none;stroke:#FFFFFF;stroke-width:6.3935;stroke-miterlimit:10;}
	.st2{fill:none;stroke:#FFFFFF;stroke-width:6.3935;stroke-linecap:round;stroke-miterlimit:10;}
	.st3{fill:#FFFFFF;stroke:#FFFFFF;stroke-width:0.9402;stroke-miterlimit:10;}
	.st4{fill:none;stroke:#FFFFFF;stroke-width:11;stroke-miterlimit:10;}
</style>
<symbol  id="New_Symbol" viewBox="-548.3 -185.4 1096.7 370.8">
	<g>
		<path class="st0" d="M-328.3,185.3V-83.6h-6.1v252l-86.4-224.8h-7.7L-515,168.4v-252h-6.2v268.9h6.5l89.9-234l89.9,234
			L-328.3,185.3L-328.3,185.3z"/>
		<path class="st0" d="M298-77.5v-6.1H140.5v268.9h6.5V-77.5H298z"/>
		<path class="st0" d="M521.8,185.4v-6.2h-74.1V-83.6h-6.1v262.8h-74.1v6.2L521.8,185.4L521.8,185.4z"/>
		<g>
			<g>
				<g>
					<g>
						<path class="st0" d="M11.8,149.6h-211.4v35.2H11.8V149.6z M-193.4,156h199v22.4h-199.1V156H-193.4z"/>
					</g>
				</g>
				<g>
					<path class="st1" d="M8.7,49"/>
				</g>
				<g>
					<path class="st1" d="M-196.5,49"/>
				</g>
				<g>
					<g>
						<path class="st0" d="M11.8-83.8h-211.4v35.2H11.8V-83.8z M-193.4-77.4h199V-55h-199.1v-22.4H-193.4z"/>
					</g>
				</g>
			</g>
			<path class="st2" d="M-197.2,49.3c0,0,45.9,34.7,101.4-3.1S9.4,49.3,9.4,49.3"/>
		</g>
	</g>
	<g>
		<path class="st3" d="M-521.3-170.4v-10.7c-2.9-2.2-7.3-3.8-11.3-3.8c-8.6,0-15.3,6.4-15.3,14.7s6.8,14.6,15.6,14.6
			c4.1,0,8.3-1.6,11.2-4.1l-2.8-3.6c-2.2,2.1-5.3,3.3-8.4,3.3c-5.9,0-10.6-4.5-10.6-10.3s4.7-10.3,10.6-10.3c2.2,0,4.6,0.7,6.7,2
			v8.1h4.3V-170.4z"/>
		<path class="st3" d="M-486.2-175.9c-0.4,0-0.9,0-1.3,0h-6.9v-8.8h-4.9v29h11.8c7.4,0,11.7-3.6,11.7-9.9c0-4.6-2.2-7.9-6-9.4
			l6.5-9.7h-5.6L-486.2-175.9z M-487.5-171.5c4.5,0,7.1,1.9,7.1,5.8c0,3.8-2.6,5.6-7.1,5.6h-6.9v-11.5L-487.5-171.5L-487.5-171.5z"
			/>
		<path class="st3" d="M-454.2-184.7v29h4.9v-29H-454.2z"/>
		<path class="st3" d="M-409.1-180.3v-4.4h-17.5v29h4.9v-24.6H-409.1z"/>
		<path class="st3" d="M-371.8-180.3v-4.4h-17.5v29h4.9v-24.6H-371.8z"/>
		<path class="st3" d="M-347.2-160.1v-7.8h14.2v-4.4h-14.2v-8h16.3v-4.4h-21.2v29h20.7v-4.4L-347.2-160.1L-347.2-160.1z"/>
		<path class="st3" d="M-297.8-155.7c8.7,0,15-6.1,15-14.5s-6.3-14.5-15.1-14.5h-11.8v29H-297.8z M-304.9-180.3h7.1
			c5.6,0,10,4.2,10,10.1c0,5.9-4.4,10.2-10.2,10.2h-6.9V-180.3z"/>
		<path class="st3" d="M-212.8-160l-2.9-3.6c-2.1,2.3-5.1,3.7-8.1,3.7c-5.8,0-10.4-4.5-10.4-10.2s4.6-10.2,10.4-10.2
			c2.9,0,5.9,1.3,8.1,3.4l2.9-3.2c-2.9-2.9-7.1-4.8-11.2-4.8c-8.5,0-15.1,6.4-15.1,14.8c0,8.3,6.7,14.6,15.3,14.6
			C-219.7-155.5-215.6-157.2-212.8-160z"/>
		<path class="st3" d="M-172.4-184.7v12h-15.4v-12h-4.9v29h4.9v-12.6h15.4v12.6h4.9v-29H-172.4z"/>
		<path class="st3" d="M-139.9-160.1v-7.8h14.2v-4.4h-14.2v-8h16.3v-4.4h-21.2v29h20.7v-4.4L-139.9-160.1L-139.9-160.1z"/>
		<path class="st3" d="M-97.6-160.1v-7.8h14.2v-4.4h-14.2v-8h16.3v-4.4h-21.2v29h20.7v-4.4L-97.6-160.1L-97.6-160.1z"/>
		<path class="st3" d="M-40.5-158.4l-2-4.3c-3.2,1.9-6.3,2.7-8.5,2.7c-2.9,0-4.7-1.1-4.7-3c0-6.3,15.7-2.9,15.6-13.4
			c0-5.2-4.6-8.4-10.9-8.4c-4.6,0-8.9,1.9-11.9,4.6l2.1,4.2c3-2.7,6.7-4.2,9.8-4.2c3.4,0,5.4,1.3,5.4,3.5c0,6.5-15.7,2.9-15.7,13.2
			c0,5,4.3,8.1,10.6,8.1C-46.9-155.5-43.2-156.7-40.5-158.4z"/>
		<path class="st3" d="M-14.4-160.1v-7.8h14.2v-4.4h-14.2v-8H1.9v-4.4h-21.2v29H1.5v-4.4L-14.4-160.1L-14.4-160.1z"/>
		<path class="st3" d="M68.5-158.4l-2-4.3c-3.2,1.9-6.3,2.7-8.5,2.7c-2.9,0-4.7-1.1-4.7-3c0-6.3,15.7-2.9,15.6-13.4
			c0-5.2-4.6-8.4-10.9-8.4c-4.6,0-8.9,1.9-11.9,4.6l2.1,4.2c3-2.7,6.7-4.2,9.8-4.2c3.4,0,5.4,1.3,5.4,3.5c0,6.5-15.7,2.9-15.7,13.2
			c0,5,4.3,8.1,10.6,8.1C62.1-155.5,65.8-156.7,68.5-158.4z"/>
		<path class="st3" d="M93.6-178.1l-2.8-6.6h-5.1l12.8,29h5l12.7-29H111l-2.8,6.6H93.6z M100.9-160.9l-5.5-12.9h10.9L100.9-160.9z"
			/>
		<path class="st3" d="M155.5-184.7L140-163.9v-20.8h-4.9v29h4.8l15.6-20.9v20.9h4.8v-29H155.5z"/>
		<path class="st3" d="M195-155.7c8.7,0,15-6.1,15-14.5s-6.3-14.5-15.1-14.5h-11.8v29H195z M188-180.3h7.1c5.6,0,10,4.2,10,10.1
			c0,5.9-4.4,10.2-10.2,10.2H188V-180.3z"/>
		<path class="st3" d="M254.8-184.7l-6.9,22.6l-7-22.6h-5.1l-9.6,29h5.3l7.1-23.6l7,23.6h4.8l7.1-23.6l7,23.6h5.1l-9.7-29H254.8z"/>
		<path class="st3" d="M288-184.7v29h4.9v-29H288z"/>
		<path class="st3" d="M339.5-160l-2.9-3.6c-2.1,2.3-5.1,3.7-8.1,3.7c-5.8,0-10.4-4.5-10.4-10.2s4.6-10.2,10.4-10.2
			c2.9,0,5.9,1.3,8.1,3.4l2.9-3.2c-2.9-2.9-7.1-4.8-11.2-4.8c-8.5,0-15.1,6.4-15.1,14.8c0,8.3,6.7,14.6,15.3,14.6
			C332.6-155.5,336.7-157.2,339.5-160z"/>
		<path class="st3" d="M379.9-184.7v12h-15.4v-12h-4.9v29h4.9v-12.6h15.4v12.6h4.9v-29H379.9z"/>
		<path class="st3" d="M446-155.7c6,0,9.7-2.7,9.7-7.3c0-3.3-1.9-5.7-5.1-6.5c3.9-0.7,6.2-3.4,6.2-7.3c0-5-4-8-10.6-8h-12.9v29H446
			V-155.7z M438.2-167.7h7.5c3.1,0,5,1.5,5,3.9s-1.9,3.8-5,3.8h-7.5V-167.7z M438.2-180.3h7.5c3.8,0,6.1,1.5,6.1,4.2
			c0,2.6-2.3,4.1-6.1,4.1h-7.5V-180.3z"/>
		<path class="st3" d="M481.8-178.1l-2.8-6.6h-5l12.8,29h5l12.7-29h-5.2l-2.8,6.6H481.8z M489.1-160.9l-5.5-12.9h10.9L489.1-160.9z"
			/>
		<path class="st3" d="M536.5-175.9c-0.4,0-0.9,0-1.3,0h-6.9v-8.8h-4.9v29h11.8c7.4,0,11.7-3.6,11.7-9.9c0-4.6-2.2-7.9-6-9.4
			l6.5-9.7h-5.6L536.5-175.9z M535.2-171.5c4.5,0,7.1,1.9,7.1,5.8c0,3.8-2.6,5.6-7.1,5.6h-6.9v-11.5L535.2-171.5L535.2-171.5z"/>
	</g>
</symbol>
<g id="Layer_2">
	<rect x="1483" y="-712.3" width="3925.2" height="1984.3"/>
</g>
<g id="Layer_1">
	<g id="Layer_1_1_">
		<g>
			<path class="st0" d="M3603.1-579.5c21,0,36.2,14.7,36.2,35c0,20.2-15.3,35-36.5,35h-28.4v-70H3603.1z M3586.2-520.1h17.2
				c13.6,0,24-10.1,24-24.3c0-14.3-10.7-24.5-24.5-24.5h-16.7V-520.1z"/>
			<path class="st0" d="M3720-530.7c-1,0.1-2.1,0.1-3.2,0.1h-16.6v21.1h-11.8v-70h28.4c17.9,0,28.2,8.7,28.2,23.9
				c0,11.2-5.2,19.1-14.5,22.7l15.7,23.4h-13.4L3720-530.7z M3716.8-541.2c10.8,0,17-4.6,17-14.1c0-9.2-6.2-13.6-17-13.6h-16.6v27.7
				H3716.8L3716.8-541.2z"/>
			<path class="st0" d="M3797.2-509.5v-70h11.8v70H3797.2z"/>
			<path class="st0" d="M3887.6-540.4l-11.9,13.1v17.8h-11.8v-70h11.8v36.2l33.4-36.2h13.9l-27.1,29.9l28.9,40.1h-14.2L3887.6-540.4
				z"/>
			<path class="st0" d="M3995.9-540.4l-11.9,13.1v17.8h-11.8v-70h11.8v36.2l33.4-36.2h13.9l-27.1,29.9l28.9,40.1h-14.2L3995.9-540.4
				z"/>
			<path class="st0" d="M4092.3-568.9v18.9h34.2v10.6h-34.2v19.3h39.4v10.6h-51.2v-70h50v10.6H4092.3L4092.3-568.9z"/>
		</g>
		<g>
			<path class="st0" d="M1687.5,555.1v14.3c-3.9,3-9.8,5.1-15.1,5.1c-11.5,0-20.4-8.6-20.4-19.7s9.1-19.6,20.8-19.6
				c5.6,0,11.1,2.1,14.9,5.4l-3.7,4.8c-3-2.8-7.2-4.4-11.2-4.4c-7.9,0-14.2,6.1-14.2,13.8c0,7.8,6.3,13.8,14.2,13.8
				c2.9,0,6.2-1,8.9-2.7v-10.8L1687.5,555.1L1687.5,555.1z"/>
			<path class="st0" d="M1734.6,562.4c-0.6,0.1-1.2,0.1-1.8,0.1h-9.2v11.7h-6.6v-38.9h15.8c9.9,0,15.7,4.8,15.7,13.3
				c0,6.2-2.9,10.6-8.1,12.6l8.7,13h-7.4L1734.6,562.4z M1732.8,556.6c6,0,9.4-2.6,9.4-7.8c0-5.1-3.4-7.6-9.4-7.6h-9.2v15.4H1732.8z
				"/>
			<path class="st0" d="M1777.5,574.2v-38.9h6.6v38.9H1777.5z"/>
			<path class="st0" d="M1837.9,568.3v5.9h-23.4v-38.9h6.6v32.9L1837.9,568.3L1837.9,568.3z"/>
			<path class="st0" d="M1887.8,568.3v5.9h-23.4v-38.9h6.6v32.9L1887.8,568.3L1887.8,568.3z"/>
			<path class="st0" d="M1920.9,541.2v10.5h19v5.9h-19v10.7h21.9v5.9h-28.4v-38.9h27.8v5.9H1920.9z"/>
			<path class="st0" d="M1985.2,541.2v33h-6.6v-33h-12.3v-5.9h31.2v5.9H1985.2z"/>
			<path class="st0" d="M2084.4,539.1l-2.7,5.8c-4.2-2.6-8.4-3.6-11.4-3.6c-3.8,0-6.3,1.4-6.3,4.1c0,8.5,21,3.9,20.9,17.9
				c0,6.9-6.1,11.2-14.7,11.2c-6.1,0-11.9-2.5-15.9-6.2l2.8-5.7c4,3.7,9,5.7,13.2,5.7c4.6,0,7.3-1.7,7.3-4.7c0-8.7-21-3.8-21-17.7
				c0-6.7,5.7-10.8,14.2-10.8C2075.8,535.1,2080.8,536.7,2084.4,539.1z"/>
			<path class="st0" d="M2112.8,574.2v-38.9h6.6v38.9H2112.8z"/>
			<path class="st0" d="M2164.1,541.2v33h-6.6v-33h-12.3v-5.9h31.2v5.9H2164.1z"/>
			<path class="st0" d="M2219.8,562.4c-0.6,0.1-1.2,0.1-1.8,0.1h-9.2v11.7h-6.6v-38.9h15.8c9.9,0,15.7,4.8,15.7,13.3
				c0,6.2-2.9,10.6-8.1,12.6l8.7,13h-7.4L2219.8,562.4z M2218,556.6c6,0,9.4-2.6,9.4-7.8c0-5.1-3.4-7.6-9.4-7.6h-9.2v15.4H2218z"/>
			<path class="st0" d="M2300.6,554.8c0,11.1-9,19.7-20.6,19.7s-20.6-8.6-20.6-19.7c0-11.2,9-19.6,20.6-19.6
				S2300.6,543.7,2300.6,554.8z M2266.1,554.8c0,7.7,6.4,13.8,14,13.8c7.6,0,13.8-6.1,13.8-13.8c0-7.7-6.2-13.7-13.8-13.7
				C2272.4,541.1,2266.1,547.1,2266.1,554.8z"/>
			<path class="st0" d="M2355.2,574.2l-20.7-27.9v27.9h-6.6v-38.9h6.4l20.8,27.9v-27.9h6.4v38.9H2355.2z"/>
			<path class="st0" d="M2390.4,559.5v-4.4h13.7v4.4H2390.4z"/>
			<path class="st0" d="M1693.2,621.4c0,11.1-9,19.7-20.6,19.7s-20.6-8.6-20.6-19.7c0-11.2,9-19.6,20.6-19.6
				S1693.2,610.3,1693.2,621.4z M1658.7,621.4c0,7.7,6.4,13.8,14,13.8c7.6,0,13.8-6.1,13.8-13.8c0-7.7-6.2-13.7-13.8-13.7
				C1665,607.7,1658.7,613.7,1658.7,621.4z"/>
			<path class="st0" d="M1751.2,621.7V636c-3.9,3-9.8,5.1-15.1,5.1c-11.5,0-20.4-8.6-20.4-19.7s9.1-19.6,20.8-19.6
				c5.6,0,11.1,2.1,14.9,5.4l-3.7,4.8c-3-2.8-7.2-4.4-11.2-4.4c-7.9,0-14.2,6.1-14.2,13.8c0,7.8,6.3,13.8,14.2,13.8
				c2.9,0,6.2-1,8.9-2.7v-10.8H1751.2z"/>
			<path class="st0" d="M1829.6,607.9v33h-6.6v-33h-12.3V602h31.2v5.9H1829.6z"/>
			<path class="st0" d="M1867.7,640.8v-38.9h6.6v38.9H1867.7z"/>
			<path class="st0" d="M1939.8,640.8l-0.1-29l-12.3,25h-4.3l-12.3-25v29h-6.2v-38.9h7.8l12.8,25.8l12.8-25.8h7.7v38.9H1939.8z"/>
			<path class="st0" d="M1976.4,640.8v-38.9h6.6v38.9H1976.4z"/>
			<path class="st0" d="M2018.9,632.1l-3.7,8.8h-6.8l17.2-38.9h6.7l17,38.9h-7l-3.7-8.8H2018.9z M2028.7,609l-7.3,17.3h14.6
				L2028.7,609z"/>
			<path class="st0" d="M2101.9,640.8l-20.7-27.9v27.9h-6.6v-38.9h6.4l20.8,27.9v-27.9h6.4v38.9H2101.9z"/>
			<path class="st0" d="M2173.9,640.8l-0.1-29l-12.3,25h-4.3l-12.3-25v29h-6.2v-38.9h7.8l12.8,25.8l12.8-25.8h7.7v38.9H2173.9z"/>
			<path class="st0" d="M2216,632.1l-3.7,8.8h-6.8l17.2-38.9h6.7l17,38.9h-7l-3.7-8.8H2216z M2225.8,609l-7.3,17.3h14.7L2225.8,609z
				"/>
			<path class="st0" d="M2290.1,628.8c0,7.8-4.6,12.3-12.1,12.3c-4.7,0-8.6-2.1-11.4-5.6l3.1-5c2.6,2.8,5.6,4.3,8.3,4.3
				c3.5,0,5.6-2.2,5.6-6.2v-20.8H2270v-5.9h20v26.9H2290.1z"/>
			<path class="st0" d="M2357.7,621.4c0,11.1-9,19.7-20.6,19.7c-11.6,0-20.6-8.6-20.6-19.7c0-11.2,9-19.6,20.6-19.6
				C2348.7,601.8,2357.7,610.3,2357.7,621.4z M2323.2,621.4c0,7.7,6.4,13.8,14,13.8c7.6,0,13.8-6.1,13.8-13.8
				c0-7.7-6.2-13.7-13.8-13.7C2329.5,607.7,2323.2,613.7,2323.2,621.4z"/>
			<path class="st0" d="M2412.2,640.8l-20.7-27.9v27.9h-6.5v-38.9h6.4l20.8,27.9v-27.9h6.4v38.9H2412.2z"/>
			<path class="st0" d="M2455.8,607.9v10.5h19v5.9h-19V635h21.9v5.9h-28.4V602h27.7v5.9H2455.8z"/>
			<path class="st0" d="M2532.3,605.7l-2.7,5.8c-4.2-2.6-8.4-3.6-11.4-3.6c-3.8,0-6.3,1.4-6.3,4.1c0,8.5,21,3.9,20.9,17.9
				c0,6.9-6.1,11.2-14.7,11.2c-6.1,0-11.9-2.5-15.9-6.2l2.8-5.7c4,3.7,9,5.7,13.2,5.7c4.6,0,7.3-1.7,7.3-4.7c0-8.7-21-3.8-21-17.7
				c0-6.7,5.7-10.8,14.2-10.8C2523.7,601.7,2528.7,603.3,2532.3,605.7z"/>
		</g>
		<g>
			<path class="st0" d="M1670.7,727.5c9.8,0,15.4,4.8,15.4,13.3c0,8.8-5.6,13.9-15.4,13.9h-8.9v11.7h-6.6v-38.9H1670.7z
				 M1661.8,748.8h8.7c6,0,9.4-2.6,9.4-7.8c0-5.1-3.4-7.6-9.4-7.6h-8.7V748.8z"/>
			<path class="st0" d="M1715.9,757.6l-3.7,8.8h-6.8l17.2-38.9h6.7l17,38.9h-7l-3.7-8.8H1715.9z M1725.7,734.5l-7.3,17.3h14.6
				L1725.7,734.5z"/>
			<path class="st0" d="M1787.1,727.5c9.8,0,15.4,4.8,15.4,13.3c0,8.8-5.6,13.9-15.4,13.9h-8.9v11.7h-6.6v-38.9H1787.1z
				 M1778.2,748.8h8.7c6,0,9.4-2.6,9.4-7.8c0-5.1-3.4-7.6-9.4-7.6h-8.7V748.8z"/>
			<path class="st0" d="M1846.8,754.6c-0.6,0.1-1.2,0.1-1.8,0.1h-9.2v11.7h-6.6v-38.9h15.8c9.9,0,15.7,4.8,15.7,13.3
				c0,6.2-2.9,10.6-8.1,12.6l8.7,13h-7.4L1846.8,754.6z M1845,748.8c6,0,9.4-2.6,9.4-7.8c0-5.1-3.4-7.6-9.4-7.6h-9.2v15.4H1845z"/>
			<path class="st0" d="M1889.7,766.4v-38.9h6.6v38.9H1889.7z"/>
			<path class="st0" d="M1939.9,749.2l-6.6,7.3v9.9h-6.6v-38.9h6.6v20.1l18.5-20.1h7.7l-15,16.6l16,22.3h-7.9L1939.9,749.2z"/>
			<path class="st0" d="M1992.3,757.6l-3.7,8.8h-6.8l17.2-38.9h6.7l17,38.9h-7l-3.7-8.8H1992.3z M2002.1,734.5l-7.3,17.3h14.7
				L2002.1,734.5z"/>
			<path class="st0" d="M2083.1,766.4l-0.1-29l-12.3,25h-4.3l-12.3-25v29h-6.2v-38.9h7.8l12.8,25.8l12.8-25.8h7.7v38.9H2083.1z"/>
			<path class="st0" d="M2125.2,757.6l-3.7,8.8h-6.8l17.2-38.9h6.7l17,38.9h-7l-3.7-8.8H2125.2z M2135,734.5l-7.3,17.3h14.7
				L2135,734.5z"/>
			<path class="st0" d="M2199.3,754.4c0,7.8-4.6,12.3-12.1,12.3c-4.7,0-8.6-2.1-11.4-5.6l3.1-5c2.6,2.8,5.6,4.3,8.3,4.3
				c3.5,0,5.6-2.2,5.6-6.2v-20.8h-13.4v-5.9h20L2199.3,754.4L2199.3,754.4z"/>
			<path class="st0" d="M2266.9,746.9c0,11.1-9,19.7-20.6,19.7s-20.6-8.6-20.6-19.7c0-11.2,9-19.6,20.6-19.6
				S2266.9,735.8,2266.9,746.9z M2232.3,746.9c0,7.7,6.4,13.8,14,13.8c7.6,0,13.8-6.1,13.8-13.8c0-7.7-6.2-13.7-13.8-13.7
				C2238.7,733.2,2232.3,739.2,2232.3,746.9z"/>
			<path class="st0" d="M2321.4,766.4l-20.7-27.9v27.9h-6.6v-38.9h6.4l20.8,27.9v-27.9h6.4v38.9H2321.4z"/>
			<path class="st0" d="M2364.9,733.4v10.5h19v5.9h-19v10.7h21.9v5.9h-28.4v-38.9h27.8v5.9H2364.9z"/>
			<path class="st0" d="M2441.4,731.2l-2.7,5.8c-4.2-2.6-8.4-3.6-11.4-3.6c-3.8,0-6.3,1.4-6.3,4.1c0,8.5,21,3.9,20.9,17.9
				c0,6.9-6.1,11.2-14.7,11.2c-6.1,0-11.9-2.5-15.9-6.2l2.8-5.7c4,3.7,9,5.7,13.2,5.7c4.6,0,7.3-1.7,7.3-4.7c0-8.7-21-3.8-21-17.7
				c0-6.7,5.7-10.8,14.2-10.8C2432.9,727.2,2437.8,728.8,2441.4,731.2z"/>
		</g>
		<g>
			<path class="st0" d="M1687.5,906.1v14.3c-3.9,3-9.8,5.1-15.1,5.1c-11.5,0-20.4-8.6-20.4-19.7s9.1-19.6,20.8-19.6
				c5.6,0,11.1,2.1,14.9,5.4l-3.7,4.8c-3-2.8-7.2-4.4-11.2-4.4c-7.9,0-14.2,6.1-14.2,13.8c0,7.8,6.3,13.8,14.2,13.8
				c2.9,0,6.2-1,8.9-2.7v-10.8L1687.5,906.1L1687.5,906.1z"/>
			<path class="st0" d="M1734.6,913.4c-0.6,0.1-1.2,0.1-1.8,0.1h-9.2v11.7h-6.6v-38.9h15.8c9.9,0,15.7,4.8,15.7,13.3
				c0,6.2-2.9,10.6-8.1,12.6l8.7,13h-7.4L1734.6,913.4z M1732.8,907.6c6,0,9.4-2.6,9.4-7.8c0-5.1-3.4-7.6-9.4-7.6h-9.2v15.4H1732.8z
				"/>
			<path class="st0" d="M1784,892.2v10.5h19v5.9h-19v10.7h21.9v5.9h-28.4v-38.9h27.8v5.9H1784z"/>
			<path class="st0" d="M1869.2,925.2l-0.1-29l-12.3,25h-4.3l-12.3-25v29h-6.2v-38.9h7.8l12.8,25.8l12.8-25.8h7.7v38.9H1869.2z"/>
			<path class="st0" d="M1943.8,905.8c0,11.1-9,19.7-20.6,19.7c-11.6,0-20.6-8.6-20.6-19.7c0-11.2,9-19.6,20.6-19.6
				C1934.8,886.2,1943.8,894.7,1943.8,905.8z M1909.2,905.8c0,7.7,6.4,13.8,14,13.8c7.6,0,13.8-6.1,13.8-13.8
				c0-7.7-6.2-13.7-13.8-13.7C1915.6,892.1,1909.2,898.1,1909.2,905.8z"/>
			<path class="st0" d="M1994.4,919.3v5.9H1971v-38.9h6.6v32.9L1994.4,919.3L1994.4,919.3z"/>
			<path class="st0" d="M2026.8,916.4l-3.7,8.8h-6.8l17.2-38.9h6.7l17,38.9h-7l-3.7-8.8H2026.8z M2036.5,893.3l-7.3,17.3h14.7
				L2036.5,893.3z"/>
			<path class="st0" d="M2092.9,892.2v33h-6.6v-33H2074v-5.9h31.2v5.9H2092.9z"/>
			<path class="st0" d="M2132.7,916.4l-3.7,8.8h-6.8l17.2-38.9h6.7l17,38.9h-7l-3.7-8.8H2132.7z M2142.5,893.3l-7.3,17.3h14.7
				L2142.5,893.3z"/>
		</g>
		<g>
			<path class="st0" d="M1670.7,251c9.8,0,15.4,4.8,15.4,13.3c0,8.8-5.6,13.9-15.4,13.9h-8.9v11.7h-6.6V251H1670.7z M1661.8,272.2
				h8.7c6,0,9.4-2.6,9.4-7.8c0-5.1-3.4-7.6-9.4-7.6h-8.7V272.2z"/>
			<path class="st0" d="M1719.4,256.8v10.5h19v5.9h-19v10.7h21.9v5.9h-28.4v-38.9h27.8v5.9L1719.4,256.8L1719.4,256.8z"/>
			<path class="st0" d="M1785,251c9.8,0,15.4,4.8,15.4,13.3c0,8.8-5.6,13.9-15.4,13.9h-8.9v11.7h-6.6V251H1785z M1776.1,272.2h8.7
				c6,0,9.4-2.6,9.4-7.8c0-5.1-3.4-7.6-9.4-7.6h-8.7V272.2z"/>
			<path class="st0" d="M1842.7,251c9.8,0,15.4,4.8,15.4,13.3c0,8.8-5.6,13.9-15.4,13.9h-8.9v11.7h-6.6V251H1842.7z M1833.7,272.2
				h8.7c6,0,9.4-2.6,9.4-7.8c0-5.1-3.4-7.6-9.4-7.6h-8.7V272.2z"/>
			<path class="st0" d="M1891.3,256.8v10.5h19v5.9h-19v10.7h21.9v5.9h-28.4v-38.9h27.8v5.9L1891.3,256.8L1891.3,256.8z"/>
			<path class="st0" d="M1959,278.1c-0.6,0.1-1.2,0.1-1.8,0.1h-9.2v11.7h-6.6V251h15.8c9.9,0,15.7,4.8,15.7,13.3
				c0,6.2-2.9,10.6-8.1,12.6l8.7,13h-7.4L1959,278.1z M1957.2,272.2c6,0,9.4-2.6,9.4-7.8c0-5.1-3.4-7.6-9.4-7.6h-9.2v15.4
				L1957.2,272.2L1957.2,272.2z"/>
			<path class="st0" d="M2019.4,278.1c-0.6,0.1-1.2,0.1-1.8,0.1h-9.2v11.7h-6.6V251h15.8c9.9,0,15.7,4.8,15.7,13.3
				c0,6.2-2.9,10.6-8.1,12.6l8.7,13h-7.4L2019.4,278.1z M2017.7,272.2c6,0,9.4-2.6,9.4-7.8c0-5.1-3.4-7.6-9.4-7.6h-9.2v15.4
				L2017.7,272.2L2017.7,272.2z"/>
			<path class="st0" d="M2100.3,270.4c0,11.1-9,19.7-20.6,19.7c-11.6,0-20.6-8.6-20.6-19.7c0-11.2,9-19.6,20.6-19.6
				C2091.3,250.8,2100.3,259.3,2100.3,270.4z M2065.7,270.4c0,7.7,6.4,13.8,14,13.8c7.6,0,13.8-6.1,13.8-13.8s-6.2-13.7-13.8-13.7
				C2072.1,256.7,2065.7,262.7,2065.7,270.4z"/>
			<path class="st0" d="M2141,256.8v33h-6.6v-33h-12.3v-5.9h31.2v5.9H2141z"/>
			<path class="st0" d="M2196.7,278.1c-0.6,0.1-1.2,0.1-1.8,0.1h-9.2v11.7h-6.6V251h15.8c9.9,0,15.7,4.8,15.7,13.3
				c0,6.2-2.9,10.6-8.1,12.6l8.7,13h-7.4L2196.7,278.1z M2194.9,272.2c6,0,9.4-2.6,9.4-7.8c0-5.1-3.4-7.6-9.4-7.6h-9.2v15.4
				L2194.9,272.2L2194.9,272.2z"/>
			<path class="st0" d="M2264.3,252c7.8,2.7,13.2,9.8,13.2,18.4c0,11.1-9,19.7-20.6,19.7c-1.8,0-3.7-0.2-5.3-0.6l-2.4,7.1h-3.8
				l2.8-8.3c-7.1-3.1-11.8-9.9-11.8-17.9c0-11.2,9-19.6,20.6-19.6c1.3,0,2.6,0.1,3.8,0.3l2.1-6.3h3.9L2264.3,252z M2250.1,282.4
				l8.7-25.7c-0.6-0.1-1.2-0.1-1.8-0.1c-7.7,0-14,6-14,13.7C2243,275.6,2245.9,280.1,2250.1,282.4z M2270.8,270.4
				c0-5.8-3.5-10.6-8.5-12.7l-8.8,26c1.1,0.3,2.3,0.4,3.5,0.4C2264.6,284.2,2270.8,278.1,2270.8,270.4z"/>
			<path class="st0" d="M2339.8,289.8l-0.1-29l-12.3,25h-4.3l-12.3-25v29h-6.2v-38.9h7.8l12.8,25.8l12.8-25.8h7.7v38.9H2339.8z"/>
			<path class="st0" d="M2411.5,289.8l-0.1-29l-12.3,25h-4.3l-12.3-25v29h-6.2v-38.9h7.8l12.8,25.8l12.8-25.8h7.7v38.9H2411.5z"/>
			<path class="st0" d="M2454.6,256.8v10.5h19v5.9h-19v10.7h21.9v5.9H2448v-38.9h27.8v5.9L2454.6,256.8L2454.6,256.8z"/>
		</g>
		<g>
			<path class="st0" d="M1672.1,409.8c8.1,0,13,3.7,13,9.7c0,4.4-2.6,7.7-6.8,8.7c5.2,0.9,8.3,4.6,8.3,9.8c0,6.7-5.4,10.7-14.2,10.7
				h-17.3v-38.9L1672.1,409.8L1672.1,409.8z M1661.8,425.9h10c4.2,0,6.7-1.9,6.7-5.2c0-3.3-2.5-5.1-6.7-5.1h-10V425.9z
				 M1661.8,442.8h10c5.1,0,8.2-2,8.2-5.7c0-3.4-3.1-5.5-8.2-5.5h-10V442.8z"/>
			<path class="st0" d="M1720.2,439.9l-3.7,8.8h-6.8l17.2-38.9h6.7l17,38.9h-7l-3.7-8.8H1720.2z M1730,416.8l-7.3,17.3h14.7
				L1730,416.8z"/>
			<path class="st0" d="M1806.9,415.6l-3.8,4.8c-2.8-3.1-6.9-4.9-10.8-4.9c-7.8,0-13.9,6-13.9,13.7s6.1,13.7,13.9,13.7
				c3.9,0,7.9-1.8,10.8-4.6l3.9,4.3c-3.9,3.9-9.6,6.4-15,6.4c-11.4,0-20.2-8.6-20.2-19.8c0-11,8.9-19.5,20.4-19.5
				C1797.6,409.6,1803.1,411.9,1806.9,415.6z"/>
			<path class="st0" d="M1871,429.2c0,11.1-9,19.7-20.6,19.7s-20.6-8.6-20.6-19.7c0-11.2,9-19.6,20.6-19.6S1871,418.1,1871,429.2z
				 M1836.5,429.2c0,7.7,6.4,13.8,14,13.8s13.8-6.1,13.8-13.8c0-7.7-6.2-13.7-13.8-13.7C1842.8,415.5,1836.5,421.5,1836.5,429.2z"/>
			<path class="st0" d="M1925.5,448.7l-20.7-27.9v27.9h-6.6v-38.9h6.4l20.8,27.9v-27.9h6.4v38.9H1925.5z"/>
			<path class="st0" d="M1997.6,448.7l-0.1-29l-12.3,25h-4.2l-12.3-25v29h-6.2v-38.9h7.8l12.8,25.8l12.8-25.8h7.7v38.9H1997.6z"/>
			<path class="st0" d="M2039.6,439.9l-3.7,8.8h-6.8l17.2-38.9h6.7l17,38.9h-7l-3.7-8.8H2039.6z M2049.4,416.8l-7.3,17.3h14.7
				L2049.4,416.8z"/>
			<path class="st0" d="M2113.7,436.7c0,7.8-4.6,12.3-12.1,12.3c-4.7,0-8.6-2.1-11.4-5.6l3.1-5c2.6,2.8,5.6,4.3,8.3,4.3
				c3.5,0,5.6-2.2,5.6-6.2v-20.8h-13.4v-5.9h20L2113.7,436.7L2113.7,436.7z"/>
			<path class="st0" d="M2181.3,429.2c0,11.1-9,19.7-20.6,19.7c-11.6,0-20.6-8.6-20.6-19.7c0-11.2,9-19.6,20.6-19.6
				C2172.3,409.6,2181.3,418.1,2181.3,429.2z M2146.8,429.2c0,7.7,6.4,13.8,14,13.8c7.6,0,13.8-6.1,13.8-13.8
				c0-7.7-6.2-13.7-13.8-13.7C2153.1,415.5,2146.8,421.5,2146.8,429.2z"/>
			<path class="st0" d="M2235.8,448.7l-20.7-27.9v27.9h-6.6v-38.9h6.4l20.8,27.9v-27.9h6.4v38.9H2235.8z"/>
			<path class="st0" d="M2279.4,415.7v10.5h19v5.9h-19v10.7h21.9v5.9h-28.4v-38.9h27.8v5.9H2279.4z"/>
			<path class="st0" d="M2355.9,413.5l-2.7,5.8c-4.2-2.6-8.4-3.6-11.4-3.6c-3.8,0-6.3,1.4-6.3,4.1c0,8.5,21,3.9,20.9,17.9
				c0,6.9-6.1,11.2-14.7,11.2c-6.1,0-11.9-2.5-15.9-6.2l2.8-5.7c4,3.7,9,5.7,13.2,5.7c4.6,0,7.3-1.7,7.3-4.7c0-8.7-21-3.8-21-17.7
				c0-6.7,5.7-10.8,14.2-10.8C2347.3,409.5,2352.3,411.1,2355.9,413.5z"/>
		</g>
		<g>
			<path class="st0" d="M1660.7,1075.3l-3.7,8.8h-6.8l17.2-38.9h6.7l17,38.9h-7l-3.7-8.8H1660.7z M1670.5,1052.2l-7.3,17.3h14.7
				L1670.5,1052.2z"/>
			<path class="st0" d="M1716.5,1084.1v-38.9h6.6v38.9H1716.5z"/>
			<path class="st0" d="M1791.5,1064.6c0,11.1-9,19.7-20.6,19.7s-20.6-8.6-20.6-19.7c0-11.2,9-19.6,20.6-19.6
				S1791.5,1053.5,1791.5,1064.6z M1756.9,1064.6c0,7.7,6.4,13.8,14,13.8s13.8-6.1,13.8-13.8c0-7.7-6.2-13.7-13.8-13.7
				C1763.3,1050.9,1756.9,1056.9,1756.9,1064.6z"/>
			<path class="st0" d="M1842.1,1078.1v5.9h-23.4v-38.9h6.6v32.9L1842.1,1078.1L1842.1,1078.1z"/>
			<path class="st0" d="M1868.6,1084.1v-38.9h6.6v38.9H1868.6z"/>
		</g>
		<g>
			<path class="st0" d="M3587.1-124.2c8.1,0,13,3.7,13,9.7c0,4.4-2.6,7.7-6.8,8.7c5.2,0.9,8.3,4.6,8.3,9.8c0,6.7-5.4,10.7-14.2,10.7
				h-17.3v-38.9H3587.1z M3576.8-108.1h10c4.2,0,6.7-1.9,6.7-5.2s-2.5-5.1-6.7-5.1h-10V-108.1z M3576.8-91.1h10c5.1,0,8.2-2,8.2-5.7
				c0-3.4-3.1-5.5-8.2-5.5h-10V-91.1z"/>
			<path class="st0" d="M3647.2-97.1c-0.6,0.1-1.2,0.1-1.8,0.1h-9.2v11.7h-6.6v-38.9h15.8c9.9,0,15.7,4.8,15.7,13.3
				c0,6.2-2.9,10.6-8.1,12.6l8.7,13h-7.4L3647.2-97.1z M3645.5-102.9c6,0,9.4-2.6,9.4-7.8c0-5.1-3.4-7.6-9.4-7.6h-9.2v15.4
				L3645.5-102.9L3645.5-102.9z"/>
			<path class="st0" d="M3723.1-101.4c0,10.2-6.4,16.4-16.9,16.4s-16.9-6.2-16.9-16.4v-22.8h6.6v22.8c0,6.6,4.1,10.5,10.4,10.5
				c6.3,0,10.3-3.9,10.3-10.5v-22.8h6.6v22.8H3723.1z"/>
			<path class="st0" d="M3779.2-120.5l-2.7,5.8c-4.2-2.6-8.4-3.6-11.4-3.6c-3.8,0-6.3,1.4-6.3,4.1c0,8.5,21,3.9,20.9,17.9
				c0,6.9-6.1,11.2-14.7,11.2c-6.1,0-11.9-2.5-15.9-6.2l2.8-5.7c4,3.7,9,5.7,13.2,5.7c4.6,0,7.3-1.7,7.3-4.7c0-8.7-21-3.8-21-17.7
				c0-6.7,5.7-10.8,14.2-10.8C3770.6-124.5,3775.6-122.9,3779.2-120.5z"/>
		</g>
		<g>
			<path class="st0" d="M3576.8-440.9v10.5h19v5.9h-19v10.7h21.9v5.9h-28.4v-38.9h27.8v5.9H3576.8z"/>
			<path class="st0" d="M3626.9-407.9v-38.9h6.6v38.9H3626.9z"/>
			<path class="st0" d="M3681.5-419.7c-0.6,0.1-1.2,0.1-1.8,0.1h-9.2v11.7h-6.6v-38.9h15.8c9.9,0,15.7,4.8,15.7,13.3
				c0,6.2-2.9,10.6-8.1,12.6l8.7,13h-7.4L3681.5-419.7z M3679.7-425.5c6,0,9.4-2.6,9.4-7.8c0-5.1-3.4-7.6-9.4-7.6h-9.2v15.4H3679.7z
				"/>
			<path class="st0" d="M3729.9-416.7l-3.7,8.8h-6.8l17.2-38.9h6.7l17,38.9h-7l-3.7-8.8H3729.9z M3739.6-439.8l-7.3,17.3h14.7
				L3739.6-439.8z"/>
			<path class="st0" d="M3846.6-443l-2.7,5.8c-4.2-2.6-8.4-3.6-11.4-3.6c-3.8,0-6.3,1.4-6.3,4.1c0,8.5,21,3.9,20.9,17.9
				c0,6.9-6.1,11.2-14.7,11.2c-6.1,0-11.9-2.5-15.9-6.2l2.8-5.7c4,3.7,9,5.7,13.2,5.7c4.6,0,7.3-1.7,7.3-4.7c0-8.7-21-3.8-21-17.7
				c0-6.7,5.7-10.8,14.2-10.8C3838-447,3842.9-445.4,3846.6-443z"/>
			<path class="st0" d="M3889.2-440.9v33h-6.6v-33h-12.3v-5.9h31.2v5.9H3889.2z"/>
			<path class="st0" d="M3927.4-407.9v-38.9h6.6v38.9H3927.4z"/>
			<path class="st0" d="M3987.8-413.8v5.9h-23.4v-38.9h6.6v32.9h16.8V-413.8z"/>
			<path class="st0" d="M4037.7-413.8v5.9h-23.4v-38.9h6.6v32.9h16.8V-413.8z"/>
			<path class="st0" d="M4109.4-407.9l-15.5-38.9h7.1l12,31.6l12.1-31.6h6.8l-15.7,38.9H4109.4z"/>
			<path class="st0" d="M4160.2-416.7l-3.7,8.8h-6.8l17.2-38.9h6.7l17,38.9h-7l-3.7-8.8H4160.2z M4170-439.8l-7.3,17.3h14.7
				L4170-439.8z"/>
			<path class="st0" d="M4243.2-407.9l-20.7-27.9v27.9h-6.6v-38.9h6.4l20.8,27.9v-27.9h6.4v38.9H4243.2z"/>
			<path class="st0" d="M4307.4-407.9l-20.7-27.9v27.9h-6.6v-38.9h6.4l20.8,27.9v-27.9h6.4v38.9H4307.4z"/>
		</g>
		<g>
			<path class="st0" d="M3576.8-281.9v10.5h19v5.9h-19v10.7h21.9v5.9h-28.4v-38.9h27.8v5.9H3576.8z"/>
			<path class="st0" d="M3626.9-248.9v-38.9h6.6v38.9H3626.9z"/>
			<path class="st0" d="M3681.5-260.7c-0.6,0.1-1.2,0.1-1.8,0.1h-9.2v11.7h-6.6v-38.9h15.8c9.9,0,15.7,4.8,15.7,13.3
				c0,6.2-2.9,10.6-8.1,12.6l8.7,13h-7.4L3681.5-260.7z M3679.7-266.5c6,0,9.4-2.6,9.4-7.8c0-5.1-3.4-7.6-9.4-7.6h-9.2v15.4H3679.7z
				"/>
			<path class="st0" d="M3729.9-257.7l-3.7,8.8h-6.8l17.2-38.9h6.7l17,38.9h-7l-3.7-8.8H3729.9z M3739.6-280.8l-7.3,17.3h14.7
				L3739.6-280.8z"/>
			<path class="st0" d="M3846.6-284l-2.7,5.8c-4.2-2.6-8.4-3.6-11.4-3.6c-3.8,0-6.3,1.4-6.3,4.1c0,8.5,21,3.9,20.9,17.9
				c0,6.9-6.1,11.2-14.7,11.2c-6.1,0-11.9-2.5-15.9-6.2l2.8-5.7c4,3.7,9,5.7,13.2,5.7c4.6,0,7.3-1.7,7.3-4.7c0-8.7-21-3.8-21-17.7
				c0-6.7,5.7-10.8,14.2-10.8C3838-288,3842.9-286.4,3846.6-284z"/>
			<path class="st0" d="M3890.5-287.8c9.8,0,15.4,4.8,15.4,13.3c0,8.8-5.6,13.9-15.4,13.9h-8.9v11.7h-6.6v-38.9H3890.5z
				 M3881.5-266.5h8.7c6,0,9.4-2.6,9.4-7.8c0-5.1-3.4-7.6-9.4-7.6h-8.7V-266.5z"/>
			<path class="st0" d="M3935.7-257.7l-3.7,8.8h-6.8l17.2-38.9h6.7l17,38.9h-7l-3.7-8.8H3935.7z M3945.4-280.8l-7.3,17.3h14.7
				L3945.4-280.8z"/>
			<path class="st0" d="M4009-260.7c-0.6,0.1-1.2,0.1-1.8,0.1h-9.2v11.7h-6.6v-38.9h15.8c9.9,0,15.7,4.8,15.7,13.3
				c0,6.2-2.9,10.6-8.1,12.6l8.7,13h-7.4L4009-260.7z M4007.2-266.5c6,0,9.4-2.6,9.4-7.8c0-5.1-3.4-7.6-9.4-7.6h-9.2v15.4H4007.2z"
				/>
			<path class="st0" d="M4065-266l-6.6,7.3v9.9h-6.6v-38.9h6.6v20.1l18.5-20.1h7.7l-15,16.6l16,22.3h-7.9L4065-266z"/>
			<path class="st0" d="M4135.3-254.8v5.9h-23.4v-38.9h6.6v32.9h16.8V-254.8z"/>
			<path class="st0" d="M4161.9-248.9v-38.9h6.6v38.9H4161.9z"/>
			<path class="st0" d="M4226.1-248.9l-20.7-27.9v27.9h-6.6v-38.9h6.4l20.8,27.9v-27.9h6.4v38.9H4226.1z"/>
			<path class="st0" d="M4295.4-268v14.3c-3.9,3-9.8,5.1-15.1,5.1c-11.5,0-20.4-8.6-20.4-19.7s9.1-19.6,20.8-19.6
				c5.6,0,11.1,2.1,14.9,5.4l-3.7,4.8c-3-2.8-7.2-4.4-11.2-4.4c-7.9,0-14.2,6.1-14.2,13.8c0,7.8,6.3,13.8,14.2,13.8
				c2.9,0,6.2-1,8.9-2.7V-268L4295.4-268L4295.4-268z"/>
			<path class="st0" d="M4370.1-248.9l-15.5-38.9h7.1l12,31.6l12.1-31.6h6.8l-15.7,38.9H4370.1z"/>
			<path class="st0" d="M4420.9-257.7l-3.7,8.8h-6.8l17.2-38.9h6.7l17,38.9h-7l-3.7-8.8H4420.9z M4430.7-280.8l-7.3,17.3h14.7
				L4430.7-280.8z"/>
			<path class="st0" d="M4503.9-248.9l-20.7-27.9v27.9h-6.6v-38.9h6.4l20.8,27.9v-27.9h6.4v38.9H4503.9z"/>
			<path class="st0" d="M4568.1-248.9l-20.7-27.9v27.9h-6.6v-38.9h6.4l20.8,27.9v-27.9h6.4v38.9H4568.1z"/>
		</g>
		<g>
			<path class="st0" d="M3588.7,61.4c0,7.8-4.6,12.3-12.1,12.3c-4.7,0-8.6-2.1-11.4-5.6l3.1-5c2.6,2.8,5.6,4.3,8.3,4.3
				c3.5,0,5.6-2.2,5.6-6.2V40.4h-13.4v-5.9h20v26.9H3588.7z"/>
			<path class="st0" d="M3651.4,57.3c0,10.2-6.4,16.4-16.9,16.4s-16.9-6.2-16.9-16.4V34.5h6.6v22.8c0,6.6,4.1,10.5,10.4,10.5
				c6.3,0,10.3-3.9,10.3-10.5V34.5h6.6v22.8H3651.4z"/>
			<path class="st0" d="M3681,73.4V34.5h6.6v38.9H3681z"/>
			<path class="st0" d="M3750,40.3l-3.8,4.8c-2.8-3.1-6.9-4.9-10.8-4.9c-7.8,0-13.9,6-13.9,13.7s6.1,13.7,13.9,13.7
				c3.9,0,7.9-1.8,10.8-4.6l3.9,4.3c-3.9,3.9-9.6,6.4-15,6.4c-11.4,0-20.2-8.6-20.2-19.8c0-11,8.9-19.5,20.4-19.5
				C3740.7,34.3,3746.2,36.6,3750,40.3z"/>
			<path class="st0" d="M3783.5,40.4v10.5h19v5.9h-19v10.7h21.9v5.9H3777V34.5h27.8v5.9L3783.5,40.4L3783.5,40.4z"/>
		</g>
		<g>
			<path class="st0" d="M1706.8-573.7l-4.9,10.4c-7.6-4.6-15.2-6.5-20.5-6.5c-6.9,0-11.4,2.6-11.4,7.3c0,15.3,37.8,7.1,37.7,32.3
				c0,12.5-11,20.2-26.4,20.2c-11,0-21.4-4.5-28.6-11.1l5.1-10.2c7.2,6.6,16.2,10.2,23.7,10.2c8.2,0,13.1-3.1,13.1-8.5
				c0-15.6-37.8-6.9-37.8-31.8c0-12,10.3-19.5,25.5-19.5C1691.4-580.9,1700.3-578,1706.8-573.7z"/>
			<path class="st0" d="M1758-510.4v-70h11.8v70H1758z"/>
			<path class="st0" d="M1853.4-580.4c21,0,36.2,14.7,36.2,35c0,20.2-15.3,35-36.5,35h-28.4v-70H1853.4z M1836.5-521h17.2
				c13.6,0,24-10.1,24-24.3c0-14.3-10.7-24.5-24.5-24.5h-16.7V-521z"/>
			<path class="st0" d="M1950.5-569.8v18.9h34.2v10.6h-34.2v19.3h39.4v10.6h-51.2v-70h50v10.6H1950.5L1950.5-569.8z"/>
			<path class="st0" d="M2109.2-545.4c0,20-16.2,35.5-37.1,35.5c-20.9,0-37.1-15.5-37.1-35.5c0-20.1,16.2-35.3,37.1-35.3
				S2109.2-565.4,2109.2-545.4z M2047-545.4c0,13.9,11.5,24.9,25.2,24.9s24.9-11,24.9-24.9c0-13.9-11.2-24.7-24.9-24.7
				C2058.4-570.1,2047-559.3,2047-545.4z"/>
			<path class="st0" d="M2189.9-531.6c-1,0.1-2.1,0.1-3.2,0.1h-16.6v21.1h-11.8v-70h28.4c17.9,0,28.2,8.7,28.2,23.9
				c0,11.2-5.2,19.1-14.5,22.7l15.7,23.4h-13.4L2189.9-531.6z M2186.7-542.1c10.8,0,17-4.6,17-14.1c0-9.2-6.2-13.6-17-13.6h-16.6
				v27.7L2186.7-542.1L2186.7-542.1z"/>
			<path class="st0" d="M2295.8-580.4c21,0,36.2,14.7,36.2,35c0,20.2-15.3,35-36.5,35h-28.4v-70H2295.8z M2278.9-521h17.2
				c13.6,0,24-10.1,24-24.3c0-14.3-10.7-24.5-24.5-24.5h-16.7V-521z"/>
			<path class="st0" d="M2392.9-569.8v18.9h34.2v10.6h-34.2v19.3h39.4v10.6h-51.2v-70h50v10.6H2392.9L2392.9-569.8z"/>
			<path class="st0" d="M2514.8-531.6c-1,0.1-2.1,0.1-3.2,0.1H2495v21.1h-11.8v-70h28.4c17.9,0,28.2,8.7,28.2,23.9
				c0,11.2-5.2,19.1-14.5,22.7l15.7,23.4h-13.4L2514.8-531.6z M2511.6-542.1c10.8,0,17-4.6,17-14.1c0-9.2-6.2-13.6-17-13.6H2495
				v27.7L2511.6-542.1L2511.6-542.1z"/>
			<path class="st0" d="M2639.5-573.7l-4.9,10.4c-7.6-4.6-15.2-6.5-20.5-6.5c-6.9,0-11.4,2.6-11.4,7.3c0,15.3,37.8,7.1,37.7,32.3
				c0,12.5-11,20.2-26.4,20.2c-11,0-21.4-4.5-28.6-11.1l5.1-10.2c7.2,6.6,16.2,10.2,23.7,10.2c8.2,0,13.1-3.1,13.1-8.5
				c0-15.6-37.8-6.9-37.8-31.8c0-12,10.3-19.5,25.5-19.5C2624.1-580.9,2633-578,2639.5-573.7z"/>
		</g>
		<g>
			<path class="st0" d="M1688,116c21,0,36.2,14.7,36.2,35c0,20.2-15.3,35-36.5,35h-28.4v-70H1688z M1671.1,175.4h17.2
				c13.6,0,24-10.1,24-24.3c0-14.3-10.7-24.5-24.5-24.5h-16.7V175.4z"/>
			<path class="st0" d="M1773.3,186v-70h11.8v70H1773.3z"/>
			<path class="st0" d="M1867.9,116c17.6,0,27.7,8.7,27.7,23.9c0,15.8-10.1,25-27.7,25h-16.1V186H1840v-70H1867.9z M1851.8,154.3
				h15.6c10.8,0,16.9-4.6,16.9-14.1c0-9.2-6.1-13.6-16.9-13.6h-15.6V154.3z"/>
		</g>
		<g>
			<path class="st0" d="M1670.7-299.1c9.8,0,15.4,4.8,15.4,13.3c0,8.8-5.6,13.9-15.4,13.9h-8.9v11.7h-6.6v-38.9H1670.7z
				 M1661.8-277.8h8.7c6,0,9.4-2.6,9.4-7.8c0-5.1-3.4-7.6-9.4-7.6h-8.7V-277.8z"/>
			<path class="st0" d="M1715.9-269l-3.7,8.8h-6.8l17.2-38.9h6.7l17,38.9h-7l-3.7-8.8H1715.9z M1725.7-292.1l-7.3,17.3h14.6
				L1725.7-292.1z"/>
			<path class="st0" d="M1789.2-272c-0.6,0.1-1.2,0.1-1.8,0.1h-9.2v11.7h-6.6v-38.9h15.8c9.9,0,15.7,4.8,15.7,13.3
				c0,6.2-2.9,10.6-8.1,12.6l8.7,13h-7.4L1789.2-272z M1787.4-277.8c6,0,9.4-2.6,9.4-7.8c0-5.1-3.4-7.6-9.4-7.6h-9.2v15.4H1787.4z"
				/>
			<path class="st0" d="M1867.1-260.2l-0.1-29l-12.3,25h-4.3l-12.3-25v29h-6.2v-38.9h7.8l12.8,25.8l12.8-25.8h7.7v38.9H1867.1z"/>
			<path class="st0" d="M1910.2-293.2v10.5h19v5.9h-19v10.7h21.9v5.9h-28.4v-38.9h27.8v5.9H1910.2z"/>
			<path class="st0" d="M1986.7-295.4l-2.7,5.8c-4.2-2.6-8.4-3.6-11.4-3.6c-3.8,0-6.3,1.4-6.3,4.1c0,8.5,21,3.9,20.9,17.9
				c0,6.9-6.1,11.2-14.7,11.2c-6.1,0-11.9-2.5-15.9-6.2l2.8-5.7c4,3.7,9,5.7,13.2,5.7c4.6,0,7.3-1.7,7.3-4.7c0-8.7-21-3.8-21-17.7
				c0-6.7,5.7-10.8,14.2-10.8C1978.2-299.4,1983.1-297.8,1986.7-295.4z"/>
			<path class="st0" d="M2020.3-269l-3.7,8.8h-6.8l17.2-38.9h6.7l17,38.9h-7l-3.7-8.8H2020.3z M2030.1-292.1l-7.3,17.3h14.7
				L2030.1-292.1z"/>
			<path class="st0" d="M2103.3-260.2l-20.7-27.9v27.9h-6.6v-38.9h6.4l20.8,27.9v-27.9h6.4v38.9H2103.3z"/>
			<path class="st0" d="M2146.8-293.2v11.2h17.7v5.8h-17.7v15.9h-6.6v-38.9h26.1l-0.1,5.9h-19.4V-293.2z"/>
			<path class="st0" d="M2210-272c-0.6,0.1-1.2,0.1-1.8,0.1h-9.2v11.7h-6.6v-38.9h15.8c9.9,0,15.7,4.8,15.7,13.3
				c0,6.2-2.9,10.6-8.1,12.6l8.7,13h-7.4L2210-272z M2208.3-277.8c6,0,9.4-2.6,9.4-7.8c0-5.1-3.4-7.6-9.4-7.6h-9.3v15.4H2208.3z"/>
			<path class="st0" d="M2252.9-260.2v-38.9h6.6v38.9H2252.9z"/>
			<path class="st0" d="M2296.5-293.2v10.5h19v5.9h-19v10.7h21.9v5.9H2290v-38.9h27.8v5.9H2296.5z"/>
			<path class="st0" d="M2373-295.4l-2.7,5.8c-4.2-2.6-8.4-3.6-11.4-3.6c-3.8,0-6.3,1.4-6.3,4.1c0,8.5,21,3.9,20.9,17.9
				c0,6.9-6.1,11.2-14.7,11.2c-6.1,0-11.9-2.5-15.9-6.2l2.8-5.7c4,3.7,9,5.7,13.2,5.7c4.6,0,7.3-1.7,7.3-4.7c0-8.7-21-3.8-21-17.7
				c0-6.7,5.7-10.8,14.2-10.8C2364.4-299.4,2369.4-297.8,2373-295.4z"/>
		</g>
		<g>
			<path class="st0" d="M1681.6-146.8l-2.7,5.8c-4.2-2.6-8.4-3.6-11.4-3.6c-3.8,0-6.3,1.4-6.3,4.1c0,8.5,21,3.9,20.9,17.9
				c0,6.9-6.1,11.2-14.7,11.2c-6.1,0-11.9-2.5-15.9-6.2l2.8-5.7c4,3.7,9,5.7,13.2,5.7c4.6,0,7.3-1.7,7.3-4.7c0-8.7-21-3.8-21-17.7
				c0-6.7,5.7-10.8,14.2-10.8C1673-150.8,1678-149.2,1681.6-146.8z"/>
			<path class="st0" d="M1734.8-149.4c7.8,2.7,13.2,9.8,13.2,18.4c0,11.1-9,19.7-20.6,19.7c-1.8,0-3.7-0.2-5.3-0.6l-2.4,7.1h-3.8
				l2.8-8.3c-7.1-3.1-11.8-9.9-11.8-17.9c0-11.2,9-19.6,20.6-19.6c1.3,0,2.6,0.1,3.8,0.3l2.1-6.3h3.9L1734.8-149.4z M1720.6-119
				l8.7-25.7c-0.6-0.1-1.2-0.1-1.8-0.1c-7.7,0-14,6-14,13.7C1713.5-125.8,1716.3-121.4,1720.6-119z M1741.3-131.1
				c0-5.8-3.5-10.6-8.5-12.7l-8.8,26c1.1,0.3,2.3,0.4,3.5,0.4C1735.1-117.2,1741.3-123.4,1741.3-131.1z"/>
			<path class="st0" d="M1788.7-144.6v33h-6.6v-33h-12.3v-5.9h31.2v5.9H1788.7z"/>
			<path class="st0" d="M1842.4-150.5c9.8,0,15.4,4.8,15.4,13.3c0,8.8-5.6,13.9-15.4,13.9h-8.9v11.7h-6.6v-38.9H1842.4z
				 M1833.4-129.2h8.7c6,0,9.4-2.6,9.4-7.8c0-5.1-3.4-7.6-9.4-7.6h-8.7V-129.2z"/>
			<path class="st0" d="M1922.5-131.1c0,11.1-9,19.7-20.6,19.7s-20.6-8.6-20.6-19.7c0-11.2,9-19.6,20.6-19.6
				C1913.5-150.7,1922.5-142.2,1922.5-131.1z M1888-131.1c0,7.7,6.4,13.8,14,13.8s13.8-6.1,13.8-13.8s-6.2-13.7-13.8-13.7
				C1894.3-144.8,1888-138.8,1888-131.1z"/>
			<path class="st0" d="M1963.2-144.6v33h-6.6v-33h-12.3v-5.9h31.2v5.9H1963.2z"/>
			<path class="st0" d="M2007.9-144.6v10.5h19v5.9h-19v10.7h21.9v5.9h-28.4v-38.9h27.8v5.9L2007.9-144.6L2007.9-144.6z"/>
			<path class="st0" d="M2072.3-144.6v33h-6.6v-33h-12.3v-5.9h31.2v5.9H2072.3z"/>
			<path class="st0" d="M2117-144.6v11.2h17.7v5.8H2117v15.9h-6.6v-38.9h26.1l-0.1,5.9L2117-144.6L2117-144.6z"/>
			<path class="st0" d="M2180.2-123.4c-0.6,0.1-1.2,0.1-1.8,0.1h-9.2v11.7h-6.6v-38.9h15.8c9.9,0,15.7,4.8,15.7,13.3
				c0,6.2-2.9,10.6-8.1,12.6l8.7,13h-7.4L2180.2-123.4z M2178.4-129.2c6,0,9.4-2.6,9.4-7.8c0-5.1-3.4-7.6-9.4-7.6h-9.2v15.4
				L2178.4-129.2L2178.4-129.2z"/>
			<path class="st0" d="M2223.1-111.6v-38.9h6.6v38.9H2223.1z"/>
			<path class="st0" d="M2266.7-144.6v10.5h19v5.9h-19v10.7h21.9v5.9h-28.4v-38.9h27.8v5.9L2266.7-144.6L2266.7-144.6z"/>
			<path class="st0" d="M2343.2-146.8l-2.7,5.8c-4.2-2.6-8.4-3.6-11.4-3.6c-3.8,0-6.3,1.4-6.3,4.1c0,8.5,21,3.9,20.9,17.9
				c0,6.9-6.1,11.2-14.7,11.2c-6.1,0-11.9-2.5-15.9-6.2l2.8-5.7c4,3.7,9,5.7,13.2,5.7c4.6,0,7.3-1.7,7.3-4.7c0-8.7-21-3.8-21-17.7
				c0-6.7,5.7-10.8,14.2-10.8C2334.6-150.8,2339.6-149.2,2343.2-146.8z"/>
		</g>
		<g>
			<path class="st0" d="M1672.1-1.9c8.1,0,13,3.7,13,9.7c0,4.4-2.6,7.7-6.8,8.7c5.2,0.9,8.3,4.6,8.3,9.8c0,6.7-5.4,10.7-14.2,10.7
				h-17.3V-1.9H1672.1z M1661.8,14.2h10c4.2,0,6.7-1.9,6.7-5.2s-2.5-5.1-6.7-5.1h-10V14.2z M1661.8,31.1h10c5.1,0,8.2-2,8.2-5.7
				c0-3.4-3.1-5.5-8.2-5.5h-10V31.1z"/>
			<path class="st0" d="M1747.7,20.9c0,10.2-6.4,16.4-16.9,16.4s-16.9-6.2-16.9-16.4V-1.9h6.6v22.8c0,6.6,4.1,10.5,10.4,10.5
				c6.3,0,10.3-3.9,10.3-10.5V-1.9h6.6v22.8H1747.7z"/>
			<path class="st0" d="M1794.9,25.2c-0.6,0.1-1.2,0.1-1.8,0.1h-9.2V37h-6.6V-1.9h15.8c9.9,0,15.7,4.8,15.7,13.3
				c0,6.2-2.9,10.6-8.1,12.6l8.7,13h-7.4L1794.9,25.2z M1793.1,19.4c6,0,9.4-2.6,9.4-7.8c0-5.1-3.4-7.6-9.4-7.6h-9.2v15.4
				L1793.1,19.4L1793.1,19.4z"/>
			<path class="st0" d="M1855.3,25.2c-0.6,0.1-1.2,0.1-1.8,0.1h-9.2V37h-6.6V-1.9h15.8c9.9,0,15.7,4.8,15.7,13.3
				c0,6.2-2.9,10.6-8.1,12.6l8.7,13h-7.4L1855.3,25.2z M1853.5,19.4c6,0,9.4-2.6,9.4-7.8c0-5.1-3.4-7.6-9.4-7.6h-9.2v15.4
				L1853.5,19.4L1853.5,19.4z"/>
			<path class="st0" d="M1903.7,28.2L1900,37h-6.8l17.2-38.9h6.7l17,38.9h-7l-3.7-8.8H1903.7z M1913.4,5.1l-7.3,17.3h14.7
				L1913.4,5.1z"/>
			<path class="st0" d="M1969.8,4v33h-6.6V4H1951v-5.9h31.2V4H1969.8z"/>
			<path class="st0" d="M2009.7,28.2L2006,37h-6.8l17.2-38.9h6.7l17,38.9h-7l-3.7-8.8H2009.7z M2019.4,5.1l-7.3,17.3h14.7
				L2019.4,5.1z"/>
		</g>
		<g>
			<path class="st0" d="M1661.8-441.8v11.2h17.7v5.8h-17.7v15.9h-6.6v-38.9h26.1l-0.1,5.9h-19.4V-441.8z"/>
			<path class="st0" d="M1725-420.6c-0.6,0.1-1.2,0.1-1.8,0.1h-9.2v11.7h-6.6v-38.9h15.8c9.9,0,15.7,4.8,15.7,13.3
				c0,6.2-2.9,10.6-8.1,12.6l8.7,13h-7.4L1725-420.6z M1723.2-426.4c6,0,9.4-2.6,9.4-7.8c0-5.1-3.4-7.6-9.4-7.6h-9.2v15.4H1723.2z"
				/>
			<path class="st0" d="M1767.8-408.8v-38.9h6.6v38.9H1767.8z"/>
			<path class="st0" d="M1811.4-441.8v10.5h19v5.9h-19v10.7h21.9v5.9h-28.4v-38.9h27.8v5.9H1811.4z"/>
			<path class="st0" d="M1887.9-444l-2.7,5.8c-4.2-2.6-8.4-3.6-11.4-3.6c-3.8,0-6.3,1.4-6.3,4.1c0,8.5,21,3.9,20.9,17.9
				c0,6.9-6.1,11.2-14.7,11.2c-6.1,0-11.9-2.5-15.9-6.2l2.8-5.7c4,3.7,9,5.7,13.2,5.7c4.6,0,7.3-1.7,7.3-4.7c0-8.7-21-3.8-21-17.7
				c0-6.7,5.7-10.8,14.2-10.8C1879.4-448,1884.3-446.4,1887.9-444z"/>
		</g>
		<g>
			<path class="st0" d="M2752.4,279.4c14,0.7,23.4,8.2,23.4,20.6c0,14.3-10.5,24.3-27.2,24.3c-9,0-18.2-3.2-24.6-7.9l3.9-7.4
				c5.6,4.6,12.9,7.3,20.1,7.3c12.1,0,19.2-6.5,19.2-16c0-9.8-7.2-14.8-19.3-14.8h-9.5v-5.7l22.8-25.2h-33.6v-8.4h44.7v6l-24.1,26.8
				L2752.4,279.4z"/>
			<path class="st0" d="M2851.8,285.1c0,25.1-11.4,39.1-32.1,39.1c-20.7,0-32.1-14-32.1-39.1s11.4-39.1,32.1-39.1
				C2840.4,246,2851.8,260,2851.8,285.1z M2796.6,285.1c0,21,8,31.5,23.1,31.5s23.1-10.5,23.1-31.5c0-21.1-8-31.5-23.1-31.5
				S2796.6,264,2796.6,285.1z"/>
			<path class="st0" d="M2874.1,319.2c0,1.8-0.7,3.2-1.7,4.8l-5.2,8h-4.9l3.7-8.1c-1.7-1-2.4-2.8-2.4-4.8c0-3.2,2.2-5.6,5.2-5.6
				C2871.7,313.5,2874.1,315.6,2874.1,319.2z"/>
			<path class="st0" d="M2886.7,293.5v-6.4h26.1v6.4H2886.7z"/>
		</g>
		<g>
			<path class="st0" d="M2752.4,432.1c14,0.7,23.4,8.2,23.4,20.6c0,14.3-10.5,24.3-27.2,24.3c-9,0-18.2-3.2-24.6-7.9l3.9-7.4
				c5.6,4.6,12.9,7.3,20.1,7.3c12.1,0,19.2-6.5,19.2-16c0-9.8-7.2-14.8-19.3-14.8h-9.5v-5.7l22.8-25.2h-33.6v-8.4h44.7v6l-24.1,26.8
				L2752.4,432.1z"/>
			<path class="st0" d="M2851.8,437.7c0,25.1-11.4,39.1-32.1,39.1c-20.7,0-32.1-14-32.1-39.1s11.4-39.1,32.1-39.1
				C2840.4,398.6,2851.8,412.6,2851.8,437.7z M2796.6,437.7c0,21,8,31.5,23.1,31.5s23.1-10.5,23.1-31.5c0-21.1-8-31.5-23.1-31.5
				S2796.6,416.6,2796.6,437.7z"/>
			<path class="st0" d="M2874.1,471.8c0,1.8-0.7,3.2-1.7,4.8l-5.2,8h-4.9l3.7-8.1c-1.7-1-2.4-2.8-2.4-4.8c0-3.2,2.2-5.6,5.2-5.6
				C2871.7,466.2,2874.1,468.3,2874.1,471.8z"/>
			<path class="st0" d="M2886.7,446.2v-6.4h26.1v6.4H2886.7z"/>
		</g>
		<g>
			<path class="st0" d="M2752.4,584.7c14,0.7,23.4,8.2,23.4,20.6c0,14.3-10.5,24.3-27.2,24.3c-9,0-18.2-3.2-24.6-7.9l3.9-7.4
				c5.6,4.6,12.9,7.3,20.1,7.3c12.1,0,19.2-6.5,19.2-16c0-9.8-7.2-14.8-19.3-14.8h-9.5v-5.7l22.8-25.2h-33.6v-8.4h44.7v6l-24.1,26.8
				L2752.4,584.7z"/>
			<path class="st0" d="M2851.8,590.4c0,25.1-11.4,39.1-32.1,39.1c-20.7,0-32.1-14-32.1-39.1s11.4-39.1,32.1-39.1
				C2840.4,551.3,2851.8,565.3,2851.8,590.4z M2796.6,590.4c0,21,8,31.5,23.1,31.5s23.1-10.5,23.1-31.5c0-21.1-8-31.5-23.1-31.5
				S2796.6,569.3,2796.6,590.4z"/>
			<path class="st0" d="M2874.1,624.5c0,1.8-0.7,3.2-1.7,4.8l-5.2,8h-4.9l3.7-8.1c-1.7-1-2.4-2.8-2.4-4.8c0-3.2,2.2-5.6,5.2-5.6
				C2871.7,618.8,2874.1,620.9,2874.1,624.5z"/>
			<path class="st0" d="M2886.7,598.8v-6.4h26.1v6.4H2886.7z"/>
		</g>
		<g>
			<path class="st0" d="M2752.4,737.4c14,0.7,23.4,8.2,23.4,20.6c0,14.3-10.5,24.3-27.2,24.3c-9,0-18.2-3.2-24.6-7.9l3.9-7.4
				c5.6,4.6,12.9,7.3,20.1,7.3c12.1,0,19.2-6.5,19.2-16c0-9.8-7.2-14.8-19.3-14.8h-9.5v-5.7l22.8-25.2h-33.6v-8.4h44.7v6l-24.1,26.8
				L2752.4,737.4z"/>
			<path class="st0" d="M2851.8,743c0,25.1-11.4,39.1-32.1,39.1c-20.7,0-32.1-14-32.1-39.1s11.4-39.1,32.1-39.1
				C2840.4,703.9,2851.8,717.9,2851.8,743z M2796.6,743c0,21,8,31.5,23.1,31.5s23.1-10.5,23.1-31.5c0-21.1-8-31.5-23.1-31.5
				S2796.6,721.9,2796.6,743z"/>
			<path class="st0" d="M2874.1,777.1c0,1.8-0.7,3.2-1.7,4.8l-5.2,8h-4.9l3.7-8.1c-1.7-1-2.4-2.8-2.4-4.8c0-3.2,2.2-5.6,5.2-5.6
				C2871.7,771.5,2874.1,773.6,2874.1,777.1z"/>
			<path class="st0" d="M2886.7,751.5v-6.4h26.1v6.4H2886.7z"/>
		</g>
		<g>
			<path class="st0" d="M2752.4,890c14,0.7,23.4,8.2,23.4,20.7c0,14.3-10.5,24.3-27.2,24.3c-9,0-18.2-3.2-24.6-7.9l3.9-7.4
				c5.6,4.6,12.9,7.3,20.1,7.3c12.1,0,19.2-6.6,19.2-16c0-9.8-7.2-14.8-19.3-14.8h-9.5v-5.7l22.8-25.2h-33.6v-8.4h44.7v6l-24.1,26.8
				L2752.4,890z"/>
			<path class="st0" d="M2851.8,895.7c0,25.1-11.4,39.1-32.1,39.1c-20.7,0-32.1-14-32.1-39.1s11.4-39.1,32.1-39.1
				C2840.4,856.6,2851.8,870.6,2851.8,895.7z M2796.6,895.7c0,21,8,31.5,23.1,31.5s23.1-10.5,23.1-31.5c0-21.1-8-31.5-23.1-31.5
				C2804.6,864.1,2796.6,874.6,2796.6,895.7z"/>
			<path class="st0" d="M2874.1,929.8c0,1.8-0.7,3.2-1.7,4.8l-5.2,8h-4.9l3.7-8.1c-1.7-1-2.4-2.8-2.4-4.8c0-3.2,2.2-5.6,5.2-5.6
				C2871.7,924.1,2874.1,926.2,2874.1,929.8z"/>
			<path class="st0" d="M2886.7,904.1v-6.4h26.1v6.4H2886.7z"/>
		</g>
		<g>
			<path class="st0" d="M2752.4,1042.7c14,0.7,23.4,8.2,23.4,20.7c0,14.3-10.5,24.3-27.2,24.3c-9,0-18.2-3.2-24.6-7.9l3.9-7.4
				c5.6,4.6,12.9,7.3,20.1,7.3c12.1,0,19.2-6.6,19.2-16c0-9.8-7.2-14.8-19.3-14.8h-9.5v-5.7l22.8-25.2h-33.6v-8.4h44.7v6l-24.1,26.8
				L2752.4,1042.7z"/>
			<path class="st0" d="M2851.8,1048.3c0,25.1-11.4,39.1-32.1,39.1c-20.7,0-32.1-14-32.1-39.1s11.4-39.1,32.1-39.1
				C2840.4,1009.2,2851.8,1023.2,2851.8,1048.3z M2796.6,1048.3c0,21,8,31.5,23.1,31.5s23.1-10.5,23.1-31.5c0-21.1-8-31.5-23.1-31.5
				S2796.6,1027.2,2796.6,1048.3z"/>
			<path class="st0" d="M2874.1,1082.4c0,1.8-0.7,3.2-1.7,4.8l-5.2,8h-4.9l3.7-8.1c-1.7-1-2.4-2.8-2.4-4.8c0-3.2,2.2-5.6,5.2-5.6
				C2871.7,1076.7,2874.1,1078.9,2874.1,1082.4z"/>
			<path class="st0" d="M2886.7,1056.8v-6.4h26.1v6.4H2886.7z"/>
		</g>
		<g>
			<path class="st0" d="M2758.4-400.9v-20.5h8.3v20.5h11.8v8.5h-11.8v20.4h-8.3v-20.4h-37.3v-7.3l27.9-50h8.8l-27.1,48.7
				L2758.4-400.9L2758.4-400.9z"/>
			<path class="st0" d="M2851.8-410.8c0,25.1-11.4,39.1-32.1,39.1c-20.7,0-32.1-14-32.1-39.1s11.4-39.1,32.1-39.1
				C2840.4-449.9,2851.8-435.9,2851.8-410.8z M2796.6-410.8c0,21,8,31.5,23.1,31.5s23.1-10.5,23.1-31.5c0-21.1-8-31.5-23.1-31.5
				S2796.6-431.9,2796.6-410.8z"/>
			<path class="st0" d="M2874.1-376.7c0,1.8-0.7,3.2-1.7,4.8l-5.2,8h-4.9l3.7-8.1c-1.7-1-2.4-2.8-2.4-4.8c0-3.2,2.2-5.6,5.2-5.6
				C2871.7-382.4,2874.1-380.3,2874.1-376.7z"/>
			<path class="st0" d="M2886.7-402.4v-6.4h26.1v6.4H2886.7z"/>
		</g>
		<g>
			<path class="st0" d="M2771.6-264.6v-20.5h8.3v20.5h11.8v8.5H2780v20.4h-8.3v-20.4h-37.3v-7.3l27.9-50h8.8l-27.1,48.7
				L2771.6-264.6L2771.6-264.6z"/>
			<path class="st0" d="M2812.4-304.8v21.9c4-0.7,9.5-1.1,13.1-1.1c16.3,0,26.8,9.7,26.8,23c0,15.5-10.8,25.6-27.4,25.6
				c-8.5,0-18.9-3.3-26.2-8.4l3.7-7.5c6.4,4.9,14.7,7.8,21.6,7.8c11.7,0,18.9-6.4,18.9-16.9c0-9.2-7.2-15-18.7-15
				c-5.1,0-14.4,0.8-20,1.9v-39.7h45.1v8.5L2812.4-304.8L2812.4-304.8z"/>
			<path class="st0" d="M2874.1-240.4c0,1.8-0.7,3.2-1.7,4.8l-5.2,8h-4.9l3.7-8.1c-1.7-1-2.4-2.8-2.4-4.8c0-3.2,2.2-5.6,5.2-5.6
				C2871.7-246.1,2874.1-244,2874.1-240.4z"/>
			<path class="st0" d="M2886.7-266.1v-6.4h26.1v6.4H2886.7z"/>
		</g>
		<g>
			<path class="st0" d="M2736.4-168.5v21.9c4-0.7,9.5-1.1,13.1-1.1c16.3,0,26.8,9.7,26.8,23c0,15.5-10.8,25.6-27.4,25.6
				c-8.5,0-18.9-3.3-26.2-8.4l3.7-7.5c6.4,4.9,14.7,7.8,21.6,7.8c11.7,0,18.9-6.4,18.9-16.9c0-9.2-7.2-15-18.7-15
				c-5.1,0-14.4,0.8-20,1.9v-39.7h45.1v8.5L2736.4-168.5L2736.4-168.5z"/>
			<path class="st0" d="M2851.8-138.2c0,25.1-11.4,39.1-32.1,39.1c-20.7,0-32.1-14-32.1-39.1s11.4-39.1,32.1-39.1
				C2840.4-177.3,2851.8-163.3,2851.8-138.2z M2796.6-138.2c0,21,8,31.5,23.1,31.5s23.1-10.5,23.1-31.5c0-21.1-8-31.5-23.1-31.5
				S2796.6-159.3,2796.6-138.2z"/>
			<path class="st0" d="M2874.1-104.1c0,1.8-0.7,3.2-1.7,4.8l-5.2,8h-4.9l3.7-8.1c-1.7-1-2.4-2.8-2.4-4.8c0-3.2,2.2-5.6,5.2-5.6
				C2871.7-109.8,2874.1-107.7,2874.1-104.1z"/>
			<path class="st0" d="M2886.7-129.8v-6.4h26.1v6.4H2886.7z"/>
		</g>
		<g>
			<path class="st0" d="M2736.4-32.2v21.9c4-0.7,9.5-1.1,13.1-1.1c16.3,0,26.8,9.7,26.8,23c0,15.5-10.8,25.6-27.4,25.6
				c-8.5,0-18.9-3.3-26.2-8.4l3.7-7.5c6.4,4.9,14.7,7.8,21.6,7.8c11.7,0,18.9-6.4,18.9-16.9c0-9.2-7.2-15-18.7-15
				c-5.1,0-14.4,0.8-20,1.9v-39.7h45.1v8.5L2736.4-32.2L2736.4-32.2z"/>
			<path class="st0" d="M2851.8-1.9c0,25.1-11.4,39.1-32.1,39.1c-20.7,0-32.1-14-32.1-39.1S2799-41,2819.7-41
				C2840.4-41,2851.8-27,2851.8-1.9z M2796.6-1.9c0,21,8,31.5,23.1,31.5s23.1-10.5,23.1-31.5c0-21.1-8-31.5-23.1-31.5
				S2796.6-23,2796.6-1.9z"/>
			<path class="st0" d="M2874.1,32.2c0,1.8-0.7,3.2-1.7,4.8l-5.2,8h-4.9l3.7-8.1c-1.7-1-2.4-2.8-2.4-4.8c0-3.2,2.2-5.6,5.2-5.6
				C2871.7,26.5,2874.1,28.6,2874.1,32.2z"/>
			<path class="st0" d="M2886.7,6.5V0.1h26.1v6.4H2886.7z"/>
		</g>
		<g>
			<path class="st0" d="M3099.4,279.4c14,0.7,23.4,8.2,23.4,20.6c0,14.3-10.5,24.3-27.2,24.3c-9,0-18.2-3.2-24.6-7.9l3.9-7.4
				c5.6,4.6,12.9,7.3,20.1,7.3c12.1,0,19.2-6.5,19.2-16c0-9.8-7.2-14.8-19.3-14.8h-9.5v-5.7l22.8-25.2h-33.6v-8.4h44.7v6l-24.1,26.8
				L3099.4,279.4z"/>
			<path class="st0" d="M3158,279.4c14,0.7,23.4,8.2,23.4,20.6c0,14.3-10.5,24.3-27.2,24.3c-9,0-18.2-3.2-24.6-7.9l3.9-7.4
				c5.6,4.6,12.9,7.3,20.1,7.3c12.1,0,19.2-6.5,19.2-16c0-9.8-7.2-14.8-19.3-14.8h-9.5v-5.7l22.8-25.2H3133v-8.4h44.7v6l-24.1,26.8
				L3158,279.4z"/>
			<path class="st0" d="M3203.7,319.2c0,1.8-0.7,3.2-1.7,4.8l-5.2,8h-4.9l3.7-8.1c-1.7-1-2.4-2.8-2.4-4.8c0-3.2,2.2-5.6,5.2-5.6
				C3201.3,313.5,3203.7,315.6,3203.7,319.2z"/>
			<path class="st0" d="M3216.3,293.5v-6.4h26.1v6.4H3216.3z"/>
		</g>
		<g>
			<path class="st0" d="M3099.4,432.1c14,0.7,23.4,8.2,23.4,20.6c0,14.3-10.5,24.3-27.2,24.3c-9,0-18.2-3.2-24.6-7.9l3.9-7.4
				c5.6,4.6,12.9,7.3,20.1,7.3c12.1,0,19.2-6.5,19.2-16c0-9.8-7.2-14.8-19.3-14.8h-9.5v-5.7l22.8-25.2h-33.6v-8.4h44.7v6l-24.1,26.8
				L3099.4,432.1z"/>
			<path class="st0" d="M3158,432.1c14,0.7,23.4,8.2,23.4,20.6c0,14.3-10.5,24.3-27.2,24.3c-9,0-18.2-3.2-24.6-7.9l3.9-7.4
				c5.6,4.6,12.9,7.3,20.1,7.3c12.1,0,19.2-6.5,19.2-16c0-9.8-7.2-14.8-19.3-14.8h-9.5v-5.7l22.8-25.2H3133v-8.4h44.7v6l-24.1,26.8
				L3158,432.1z"/>
			<path class="st0" d="M3203.7,471.8c0,1.8-0.7,3.2-1.7,4.8l-5.2,8h-4.9l3.7-8.1c-1.7-1-2.4-2.8-2.4-4.8c0-3.2,2.2-5.6,5.2-5.6
				C3201.3,466.2,3203.7,468.3,3203.7,471.8z"/>
			<path class="st0" d="M3216.3,446.2v-6.4h26.1v6.4H3216.3z"/>
		</g>
		<g>
			<path class="st0" d="M3099.4,584.7c14,0.7,23.4,8.2,23.4,20.6c0,14.3-10.5,24.3-27.2,24.3c-9,0-18.2-3.2-24.6-7.9l3.9-7.4
				c5.6,4.6,12.9,7.3,20.1,7.3c12.1,0,19.2-6.5,19.2-16c0-9.8-7.2-14.8-19.3-14.8h-9.5v-5.7l22.8-25.2h-33.6v-8.4h44.7v6l-24.1,26.8
				L3099.4,584.7z"/>
			<path class="st0" d="M3158,584.7c14,0.7,23.4,8.2,23.4,20.6c0,14.3-10.5,24.3-27.2,24.3c-9,0-18.2-3.2-24.6-7.9l3.9-7.4
				c5.6,4.6,12.9,7.3,20.1,7.3c12.1,0,19.2-6.5,19.2-16c0-9.8-7.2-14.8-19.3-14.8h-9.5v-5.7l22.8-25.2H3133v-8.4h44.7v6l-24.1,26.8
				L3158,584.7z"/>
			<path class="st0" d="M3203.7,624.5c0,1.8-0.7,3.2-1.7,4.8l-5.2,8h-4.9l3.7-8.1c-1.7-1-2.4-2.8-2.4-4.8c0-3.2,2.2-5.6,5.2-5.6
				C3201.3,618.8,3203.7,620.9,3203.7,624.5z"/>
			<path class="st0" d="M3216.3,598.8v-6.4h26.1v6.4H3216.3z"/>
		</g>
		<g>
			<path class="st0" d="M3099.4,737.4c14,0.7,23.4,8.2,23.4,20.6c0,14.3-10.5,24.3-27.2,24.3c-9,0-18.2-3.2-24.6-7.9l3.9-7.4
				c5.6,4.6,12.9,7.3,20.1,7.3c12.1,0,19.2-6.5,19.2-16c0-9.8-7.2-14.8-19.3-14.8h-9.5v-5.7l22.8-25.2h-33.6v-8.4h44.7v6l-24.1,26.8
				L3099.4,737.4z"/>
			<path class="st0" d="M3158,737.4c14,0.7,23.4,8.2,23.4,20.6c0,14.3-10.5,24.3-27.2,24.3c-9,0-18.2-3.2-24.6-7.9l3.9-7.4
				c5.6,4.6,12.9,7.3,20.1,7.3c12.1,0,19.2-6.5,19.2-16c0-9.8-7.2-14.8-19.3-14.8h-9.5v-5.7l22.8-25.2H3133v-8.4h44.7v6l-24.1,26.8
				L3158,737.4z"/>
			<path class="st0" d="M3203.7,777.1c0,1.8-0.7,3.2-1.7,4.8l-5.2,8h-4.9l3.7-8.1c-1.7-1-2.4-2.8-2.4-4.8c0-3.2,2.2-5.6,5.2-5.6
				C3201.3,771.5,3203.7,773.6,3203.7,777.1z"/>
			<path class="st0" d="M3216.3,751.5v-6.4h26.1v6.4H3216.3z"/>
		</g>
		<g>
			<path class="st0" d="M3099.4,890c14,0.7,23.4,8.2,23.4,20.7c0,14.3-10.5,24.3-27.2,24.3c-9,0-18.2-3.2-24.6-7.9l3.9-7.4
				c5.6,4.6,12.9,7.3,20.1,7.3c12.1,0,19.2-6.6,19.2-16c0-9.8-7.2-14.8-19.3-14.8h-9.5v-5.7l22.8-25.2h-33.6v-8.4h44.7v6l-24.1,26.8
				L3099.4,890z"/>
			<path class="st0" d="M3158,890c14,0.7,23.4,8.2,23.4,20.7c0,14.3-10.5,24.3-27.2,24.3c-9,0-18.2-3.2-24.6-7.9l3.9-7.4
				c5.6,4.6,12.9,7.3,20.1,7.3c12.1,0,19.2-6.6,19.2-16c0-9.8-7.2-14.8-19.3-14.8h-9.5v-5.7l22.8-25.2H3133v-8.4h44.7v6l-24.1,26.8
				L3158,890z"/>
			<path class="st0" d="M3203.7,929.8c0,1.8-0.7,3.2-1.7,4.8l-5.2,8h-4.9l3.7-8.1c-1.7-1-2.4-2.8-2.4-4.8c0-3.2,2.2-5.6,5.2-5.6
				C3201.3,924.1,3203.7,926.2,3203.7,929.8z"/>
			<path class="st0" d="M3216.3,904.1v-6.4h26.1v6.4H3216.3z"/>
		</g>
		<g>
			<path class="st0" d="M3099.4,1042.7c14,0.7,23.4,8.2,23.4,20.7c0,14.3-10.5,24.3-27.2,24.3c-9,0-18.2-3.2-24.6-7.9l3.9-7.4
				c5.6,4.6,12.9,7.3,20.1,7.3c12.1,0,19.2-6.6,19.2-16c0-9.8-7.2-14.8-19.3-14.8h-9.5v-5.7l22.8-25.2h-33.6v-8.4h44.7v6l-24.1,26.8
				L3099.4,1042.7z"/>
			<path class="st0" d="M3158,1042.7c14,0.7,23.4,8.2,23.4,20.7c0,14.3-10.5,24.3-27.2,24.3c-9,0-18.2-3.2-24.6-7.9l3.9-7.4
				c5.6,4.6,12.9,7.3,20.1,7.3c12.1,0,19.2-6.6,19.2-16c0-9.8-7.2-14.8-19.3-14.8h-9.5v-5.7l22.8-25.2H3133v-8.4h44.7v6l-24.1,26.8
				L3158,1042.7z"/>
			<path class="st0" d="M3203.7,1082.4c0,1.8-0.7,3.2-1.7,4.8l-5.2,8h-4.9l3.7-8.1c-1.7-1-2.4-2.8-2.4-4.8c0-3.2,2.2-5.6,5.2-5.6
				C3201.3,1076.7,3203.7,1078.9,3203.7,1082.4z"/>
			<path class="st0" d="M3216.3,1056.8v-6.4h26.1v6.4H3216.3z"/>
		</g>
		<g>
			<path class="st0" d="M3110.2-400.9v-20.5h8.3v20.5h11.8v8.5h-11.8v20.4h-8.3v-20.4h-37.3v-7.3l27.9-50h8.8l-27.1,48.7
				L3110.2-400.9L3110.2-400.9z"/>
			<path class="st0" d="M3174.3-400.9v-20.5h8.3v20.5h11.8v8.5h-11.8v20.4h-8.3v-20.4H3137v-7.3l27.9-50h8.8l-27.1,48.7
				L3174.3-400.9L3174.3-400.9z"/>
			<path class="st0" d="M3214-376.7c0,1.8-0.7,3.2-1.7,4.8l-5.2,8h-4.9l3.7-8.1c-1.7-1-2.4-2.8-2.4-4.8c0-3.2,2.2-5.6,5.2-5.6
				C3211.6-382.4,3214-380.3,3214-376.7z"/>
			<path class="st0" d="M3226.6-402.4v-6.4h26.1v6.4H3226.6z"/>
		</g>
		<g>
			<path class="st0" d="M3076.3-304.8v21.9c4-0.7,9.5-1.1,13.1-1.1c16.3,0,26.8,9.7,26.8,23c0,15.5-10.8,25.6-27.4,25.6
				c-8.5,0-18.9-3.3-26.2-8.4l3.7-7.5c6.4,4.9,14.7,7.8,21.6,7.8c11.7,0,18.9-6.4,18.9-16.9c0-9.2-7.2-15-18.7-15
				c-5.1,0-14.4,0.8-20,1.9v-39.7h45.1v8.5L3076.3-304.8L3076.3-304.8z"/>
			<path class="st0" d="M3191.7-274.5c0,25.1-11.4,39.1-32.1,39.1c-20.7,0-32.1-14-32.1-39.1s11.4-39.1,32.1-39.1
				C3180.3-313.6,3191.7-299.6,3191.7-274.5z M3136.5-274.5c0,21,8,31.5,23.1,31.5c15.1,0,23.1-10.5,23.1-31.5
				c0-21.1-8-31.5-23.1-31.5C3144.5-306,3136.5-295.6,3136.5-274.5z"/>
			<path class="st0" d="M3214-240.4c0,1.8-0.7,3.2-1.7,4.8l-5.2,8h-4.9l3.7-8.1c-1.7-1-2.4-2.8-2.4-4.8c0-3.2,2.2-5.6,5.2-5.6
				C3211.6-246.1,3214-244,3214-240.4z"/>
			<path class="st0" d="M3226.6-266.1v-6.4h26.1v6.4H3226.6z"/>
		</g>
		<g>
			<path class="st0" d="M3089.6-168.5v21.9c4-0.7,9.5-1.1,13.1-1.1c16.3,0,26.8,9.7,26.8,23c0,15.5-10.8,25.6-27.4,25.6
				c-8.5,0-18.9-3.3-26.2-8.4l3.7-7.5c6.4,4.9,14.7,7.8,21.6,7.8c11.7,0,18.9-6.4,18.9-16.9c0-9.2-7.2-15-18.7-15
				c-5.1,0-14.4,0.8-20,1.9v-39.7h45.1v8.5L3089.6-168.5L3089.6-168.5z"/>
			<path class="st0" d="M3152.3-168.5v21.9c4-0.7,9.5-1.1,13.1-1.1c16.3,0,26.8,9.7,26.8,23c0,15.5-10.8,25.6-27.4,25.6
				c-8.5,0-18.9-3.3-26.2-8.4l3.7-7.5c6.4,4.9,14.7,7.8,21.6,7.8c11.7,0,18.9-6.4,18.9-16.9c0-9.2-7.2-15-18.7-15
				c-5.1,0-14.4,0.8-20,1.9v-39.7h45.1v8.5L3152.3-168.5L3152.3-168.5z"/>
			<path class="st0" d="M3214-104.1c0,1.8-0.7,3.2-1.7,4.8l-5.2,8h-4.9l3.7-8.1c-1.7-1-2.4-2.8-2.4-4.8c0-3.2,2.2-5.6,5.2-5.6
				C3211.6-109.8,3214-107.7,3214-104.1z"/>
			<path class="st0" d="M3226.6-129.8v-6.4h26.1v6.4H3226.6z"/>
		</g>
		<g>
			<path class="st0" d="M3089.6-32.2v21.9c4-0.7,9.5-1.1,13.1-1.1c16.3,0,26.8,9.7,26.8,23c0,15.5-10.8,25.6-27.4,25.6
				c-8.5,0-18.9-3.3-26.2-8.4l3.7-7.5c6.4,4.9,14.7,7.8,21.6,7.8c11.7,0,18.9-6.4,18.9-16.9c0-9.2-7.2-15-18.7-15
				c-5.1,0-14.4,0.8-20,1.9v-39.7h45.1v8.5L3089.6-32.2L3089.6-32.2z"/>
			<path class="st0" d="M3152.3-32.2v21.9c4-0.7,9.5-1.1,13.1-1.1c16.3,0,26.8,9.7,26.8,23c0,15.5-10.8,25.6-27.4,25.6
				c-8.5,0-18.9-3.3-26.2-8.4l3.7-7.5c6.4,4.9,14.7,7.8,21.6,7.8c11.7,0,18.9-6.4,18.9-16.9c0-9.2-7.2-15-18.7-15
				c-5.1,0-14.4,0.8-20,1.9v-39.7h45.1v8.5L3152.3-32.2L3152.3-32.2z"/>
			<path class="st0" d="M3214,32.2c0,1.8-0.7,3.2-1.7,4.8l-5.2,8h-4.9l3.7-8.1c-1.7-1-2.4-2.8-2.4-4.8c0-3.2,2.2-5.6,5.2-5.6
				C3211.6,26.5,3214,28.6,3214,32.2z"/>
			<path class="st0" d="M3226.6,6.5V0.1h26.1v6.4H3226.6z"/>
		</g>
		<g>
			<path class="st0" d="M4795.6-419.1c14,0.7,23.4,8.2,23.4,20.7c0,14.3-10.5,24.3-27.2,24.3c-9,0-18.2-3.2-24.6-7.9l3.9-7.4
				c5.6,4.6,12.9,7.3,20.1,7.3c12.1,0,19.2-6.6,19.2-16c0-9.8-7.2-14.8-19.3-14.8h-9.5v-5.7l22.8-25.2h-33.6v-8.4h44.7v6l-24.1,26.8
				L4795.6-419.1z"/>
			<path class="st0" d="M4842.4-443.8v21.9c4-0.7,9.5-1.1,13.1-1.1c16.3,0,26.8,9.7,26.8,23c0,15.5-10.8,25.6-27.4,25.6
				c-8.5,0-18.9-3.3-26.2-8.4l3.7-7.5c6.4,4.9,14.7,7.8,21.6,7.8c11.7,0,18.9-6.4,18.9-16.9c0-9.2-7.2-15-18.7-15
				c-5.1,0-14.4,0.8-20,1.9v-39.8h45.1v8.5H4842.4z"/>
			<path class="st0" d="M4904.1-379.4c0,1.8-0.7,3.2-1.7,4.8l-5.2,8h-4.9l3.7-8.1c-1.7-1-2.4-2.8-2.4-4.8c0-3.2,2.2-5.6,5.2-5.6
				C4901.7-385,4904.1-382.9,4904.1-379.4z"/>
			<path class="st0" d="M4916.7-405v-6.4h26.1v6.4H4916.7z"/>
		</g>
		<g>
			<path class="st0" d="M4796.9-259.5c14,0.7,23.4,8.2,23.4,20.6c0,14.3-10.5,24.3-27.2,24.3c-9,0-18.2-3.2-24.6-7.9l3.9-7.4
				c5.6,4.6,12.9,7.3,20.1,7.3c12.1,0,19.2-6.5,19.2-16c0-9.8-7.2-14.8-19.3-14.8h-9.5v-5.7l22.8-25.2h-33.6v-8.4h44.7v6l-24.1,26.8
				L4796.9-259.5z"/>
			<path class="st0" d="M4852.2-214.9h-9.4l32-69.2h-36.2v11.3h-8v-19.9h54v7.4L4852.2-214.9z"/>
			<path class="st0" d="M4904.1-219.7c0,1.8-0.7,3.2-1.7,4.8l-5.2,8h-4.9l3.7-8.1c-1.7-1-2.4-2.8-2.4-4.8c0-3.2,2.2-5.6,5.2-5.6
				C4901.7-225.4,4904.1-223.3,4904.1-219.7z"/>
			<path class="st0" d="M4916.7-245.4v-6.4h26.1v6.4H4916.7z"/>
		</g>
		<g>
			<path class="st0" d="M4799.9-84.2v-20.5h8.3v20.5h11.8v8.5h-11.8v20.4h-8.3v-20.4h-37.3V-83l27.9-50h8.8l-27.1,48.7L4799.9-84.2
				L4799.9-84.2z"/>
			<path class="st0" d="M4877.5-114.2c0,7.4-5.6,16.4-13.8,25.2l-23.9,25.3h42.1v8.4h-53.4v-7.3l29.1-31.6
				c6.6-6.5,10.7-13.8,10.7-18.8c0-7.5-5.8-12.1-15.5-12.1c-7.1,0-15,3.7-21.2,9.7l-3.9-7.1c7.5-6.8,17-10.8,26.2-10.8
				C4868.1-133.3,4877.5-125.9,4877.5-114.2z"/>
			<path class="st0" d="M4904.1-60c0,1.8-0.7,3.2-1.7,4.8l-5.2,8h-4.9l3.7-8.1c-1.7-1-2.4-2.8-2.4-4.8c0-3.2,2.2-5.6,5.2-5.6
				C4901.7-65.7,4904.1-63.6,4904.1-60z"/>
			<path class="st0" d="M4916.7-85.7v-6.4h26.1v6.4H4916.7z"/>
		</g>
		<g>
			<path class="st0" d="M4766.4,35.2v21.9c4-0.7,9.5-1.1,13.1-1.1c16.3,0,26.8,9.7,26.8,23c0,15.5-10.8,25.6-27.4,25.6
				c-8.5,0-18.9-3.3-26.2-8.4l3.7-7.5c6.4,4.9,14.7,7.8,21.6,7.8c11.7,0,18.9-6.4,18.9-16.9c0-9.2-7.2-15-18.7-15
				c-5.1,0-14.4,0.8-20,1.9V26.7h45.1v8.5H4766.4z"/>
			<path class="st0" d="M4881.8,65.5c0,25.1-11.4,39.1-32.1,39.1s-32.1-14-32.1-39.1s11.4-39.1,32.1-39.1S4881.8,40.4,4881.8,65.5z
				 M4826.6,65.5c0,21,8,31.5,23.1,31.5s23.1-10.5,23.1-31.5c0-21.1-8-31.5-23.1-31.5S4826.6,44.4,4826.6,65.5z"/>
			<path class="st0" d="M4904.1,99.6c0,1.8-0.7,3.2-1.7,4.8l-5.2,8h-4.9l3.7-8.1c-1.7-1-2.4-2.8-2.4-4.8c0-3.2,2.2-5.6,5.2-5.6
				C4901.7,94,4904.1,96.1,4904.1,99.6z"/>
			<path class="st0" d="M4916.7,74v-6.4h26.1V74H4916.7z"/>
		</g>
		<g>
			<path class="st0" d="M5122.8-419.1c14,0.7,23.4,8.2,23.4,20.7c0,14.3-10.5,24.3-27.2,24.3c-9,0-18.2-3.2-24.6-7.9l3.9-7.4
				c5.6,4.6,12.9,7.3,20.1,7.3c12.1,0,19.2-6.6,19.2-16c0-9.8-7.2-14.8-19.3-14.8h-9.5v-5.7l22.8-25.2H5098v-8.4h44.7v6l-24.1,26.8
				L5122.8-419.1z"/>
			<path class="st0" d="M5160.3-379.8l3.6-7.1c5.1,3,11.9,4.8,17.9,4.8c16.7,0,25-13.7,23.8-34.6c-3.4,9.1-11.8,14.2-23.2,14.2
				c-15.2,0-24.6-9.4-24.6-24.4c0-15.9,10.3-25.8,26.3-25.8c18.9,0,30.3,13.7,30.3,37.5c0,24.8-12.2,41-32,41
				C5175.1-374.3,5166.6-376.5,5160.3-379.8z M5203.4-427.6c0-7.4-5.7-17-19-17c-11,0-18.5,6.6-18.5,17.7c0,10.3,6.9,16.8,17.9,16.8
				C5196.1-410.1,5203.4-418.3,5203.4-427.6z"/>
			<path class="st0" d="M5235.6-379.4c0,1.8-0.7,3.2-1.7,4.8l-5.2,8h-4.9l3.7-8.1c-1.7-1-2.4-2.8-2.4-4.8c0-3.2,2.2-5.6,5.2-5.6
				C5233.2-385,5235.6-382.9,5235.6-379.4z"/>
			<path class="st0" d="M5248.2-405v-6.4h26.1v6.4H5248.2z"/>
		</g>
		<g>
			<path class="st0" d="M5154.7-243.9v-20.5h8.3v20.5h11.8v8.5H5163v20.4h-8.3v-20.4h-37.3v-7.3l27.9-50h8.8L5127-244L5154.7-243.9
				L5154.7-243.9z"/>
			<path class="st0" d="M5195.7-214.9v-69.3h-15.8v-8.4h24.5v77.7L5195.7-214.9L5195.7-214.9z"/>
			<path class="st0" d="M5235.6-219.7c0,1.8-0.7,3.2-1.7,4.8l-5.2,8h-4.9l3.7-8.1c-1.7-1-2.4-2.8-2.4-4.8c0-3.2,2.2-5.6,5.2-5.6
				C5233.2-225.4,5235.6-223.3,5235.6-219.7z"/>
			<path class="st0" d="M5248.2-245.4v-6.4h26.1v6.4H5248.2z"/>
		</g>
		<g>
			<path class="st0" d="M5134.4-84.2v-20.5h8.3v20.5h11.8v8.5h-11.8v20.4h-8.3v-20.4h-37.3V-83l27.9-50h8.8l-27.1,48.7L5134.4-84.2
				L5134.4-84.2z"/>
			<path class="st0" d="M5183.7-55.3h-9.4l32-69.2H5170v11.3h-8v-19.9h54v7.4L5183.7-55.3z"/>
			<path class="st0" d="M5235.6-60c0,1.8-0.7,3.2-1.7,4.8l-5.2,8h-4.9l3.7-8.1c-1.7-1-2.4-2.8-2.4-4.8c0-3.2,2.2-5.6,5.2-5.6
				C5233.2-65.7,5235.6-63.6,5235.6-60z"/>
			<path class="st0" d="M5248.2-85.7v-6.4h26.1v6.4H5248.2z"/>
		</g>
		<g>
			<path class="st0" d="M5111.2,35.2v21.9c4-0.7,9.5-1.1,13.1-1.1c16.3,0,26.8,9.7,26.8,23c0,15.5-10.8,25.6-27.4,25.6
				c-8.5,0-18.9-3.3-26.2-8.4l3.7-7.5c6.4,4.9,14.7,7.8,21.6,7.8c11.7,0,18.9-6.4,18.9-16.9c0-9.2-7.2-15-18.7-15
				c-5.1,0-14.4,0.8-20,1.9V26.7h45.1v8.5H5111.2z"/>
			<path class="st0" d="M5173.9,35.2v21.9c4-0.7,9.5-1.1,13.1-1.1c16.3,0,26.8,9.7,26.8,23c0,15.5-10.8,25.6-27.4,25.6
				c-8.5,0-18.9-3.3-26.2-8.4l3.7-7.5c6.4,4.9,14.7,7.8,21.6,7.8c11.7,0,18.9-6.4,18.9-16.9c0-9.2-7.2-15-18.7-15
				c-5.1,0-14.4,0.8-20,1.9V26.7h45.1v8.5H5173.9z"/>
			<path class="st0" d="M5235.6,99.6c0,1.8-0.7,3.2-1.7,4.8l-5.2,8h-4.9l3.7-8.1c-1.7-1-2.4-2.8-2.4-4.8c0-3.2,2.2-5.6,5.2-5.6
				C5233.2,94,5235.6,96.1,5235.6,99.6z"/>
			<path class="st0" d="M5248.2,74v-6.4h26.1V74H5248.2z"/>
		</g>
		<line class="st4" x1="3411.2" y1="-659" x2="3411.2" y2="1164.9"/>
		
			<use xlink:href="#New_Symbol"  width="1096.7" height="370.8" id="XMLID_1_" x="-548.3" y="-185.4" transform="matrix(1.5531 0 0 -1.5531 4419.334 793.2751)" style="overflow:visible;"/>
	</g>
</g>
</svg>
