<?xml version="1.0" encoding="utf-8"?>
<!-- Generator: Adobe Illustrator 19.0.0, SVG Export Plug-In . SVG Version: 6.00 Build 0)  -->
<svg version="1.1" id="Layer_1" xmlns="http://www.w3.org/2000/svg" xmlns:xlink="http://www.w3.org/1999/xlink" x="0px" y="0px"
	 viewBox="0 0 1699 1765" style="enable-background:new 0 0 1699 1765;" xml:space="preserve">
<style type="text/css">
	.st0{fill:#FFFFFF;}
</style>
<g id="XMLID_492_">
	<path id="XMLID_556_" class="st0" d="M81.4,1178.9v14.3c-3.9,3-9.8,5.1-15.1,5.1c-11.5,0-20.4-8.6-20.4-19.7
		c0-11.1,9.1-19.6,20.8-19.6c5.6,0,11.1,2.1,14.9,5.4l-3.7,4.8c-3-2.8-7.2-4.4-11.2-4.4c-7.9,0-14.2,6.1-14.2,13.8
		c0,7.8,6.3,13.8,14.2,13.8c2.9,0,6.2-1,8.9-2.7v-10.8H81.4z"/>
	<path id="XMLID_553_" class="st0" d="M128.5,1186.2c-0.6,0.1-1.2,0.1-1.8,0.1h-9.2v11.7H111v-38.9h15.8c9.9,0,15.7,4.8,15.7,13.3
		c0,6.2-2.9,10.6-8.1,12.6l8.7,13h-7.4L128.5,1186.2z M126.7,1180.4c6,0,9.4-2.6,9.4-7.8c0-5.1-3.4-7.6-9.4-7.6h-9.2v15.4H126.7z"/>
	<path id="XMLID_551_" class="st0" d="M171.4,1198v-38.9h6.6v38.9H171.4z"/>
	<path id="XMLID_549_" class="st0" d="M231.8,1192v5.9h-23.4v-38.9h6.6v32.9H231.8z"/>
	<path id="XMLID_547_" class="st0" d="M281.7,1192v5.9h-23.4v-38.9h6.6v32.9H281.7z"/>
	<path id="XMLID_545_" class="st0" d="M314.8,1165v10.5h19v5.9h-19v10.7h21.9v5.9h-28.4v-38.9H336v5.9H314.8z"/>
	<path id="XMLID_543_" class="st0" d="M379.1,1165v33h-6.6v-33h-12.3v-5.9h31.2v5.9H379.1z"/>
	<path id="XMLID_541_" class="st0" d="M478.3,1162.8l-2.7,5.8c-4.2-2.6-8.4-3.6-11.4-3.6c-3.8,0-6.3,1.4-6.3,4.1
		c0,8.5,21,3.9,20.9,17.9c0,6.9-6.1,11.2-14.7,11.2c-6.1,0-11.9-2.5-15.9-6.2l2.8-5.7c4,3.7,9,5.7,13.2,5.7c4.6,0,7.3-1.7,7.3-4.7
		c0-8.7-21-3.8-21-17.7c0-6.7,5.7-10.8,14.2-10.8C469.7,1158.8,474.7,1160.4,478.3,1162.8z"/>
	<path id="XMLID_539_" class="st0" d="M506.7,1198v-38.9h6.6v38.9H506.7z"/>
	<path id="XMLID_537_" class="st0" d="M557.9,1165v33h-6.6v-33h-12.3v-5.9h31.2v5.9H557.9z"/>
	<path id="XMLID_534_" class="st0" d="M613.7,1186.2c-0.6,0.1-1.2,0.1-1.8,0.1h-9.2v11.7h-6.6v-38.9h15.8c9.9,0,15.7,4.8,15.7,13.3
		c0,6.2-2.9,10.6-8.1,12.6l8.7,13h-7.4L613.7,1186.2z M611.9,1180.4c6,0,9.4-2.6,9.4-7.8c0-5.1-3.4-7.6-9.4-7.6h-9.2v15.4H611.9z"/>
	<path id="XMLID_531_" class="st0" d="M694.5,1178.5c0,11.1-9,19.7-20.6,19.7c-11.6,0-20.6-8.6-20.6-19.7c0-11.2,9-19.6,20.6-19.6
		C685.5,1158.9,694.5,1167.4,694.5,1178.5z M660,1178.5c0,7.7,6.4,13.8,14,13.8c7.6,0,13.8-6.1,13.8-13.8c0-7.7-6.2-13.7-13.8-13.7
		C666.3,1164.8,660,1170.8,660,1178.5z"/>
	<path id="XMLID_529_" class="st0" d="M749,1198l-20.7-27.9v27.9h-6.6v-38.9h6.4L749,1187v-27.9h6.4v38.9H749z"/>
	<path id="XMLID_527_" class="st0" d="M784.3,1183.3v-4.4H798v4.4H784.3z"/>
	<path id="XMLID_524_" class="st0" d="M87.1,1245.2c0,11.1-9,19.7-20.6,19.7c-11.6,0-20.6-8.6-20.6-19.7c0-11.2,9-19.6,20.6-19.6
		C78.1,1225.6,87.1,1234.1,87.1,1245.2z M52.6,1245.2c0,7.7,6.4,13.8,14,13.8c7.6,0,13.8-6.1,13.8-13.8c0-7.7-6.2-13.7-13.8-13.7
		C58.9,1231.5,52.6,1237.4,52.6,1245.2z"/>
	<path id="XMLID_522_" class="st0" d="M145.1,1245.5v14.3c-3.9,3-9.8,5.1-15.1,5.1c-11.5,0-20.4-8.6-20.4-19.7s9.1-19.6,20.8-19.6
		c5.6,0,11.1,2.1,14.9,5.4l-3.7,4.8c-3-2.8-7.2-4.4-11.2-4.4c-7.9,0-14.2,6.1-14.2,13.8c0,7.8,6.3,13.8,14.2,13.8
		c2.9,0,6.2-1,8.9-2.7v-10.8H145.1z"/>
	<path id="XMLID_520_" class="st0" d="M223.4,1231.6v33h-6.6v-33h-12.3v-5.9h31.2v5.9H223.4z"/>
	<path id="XMLID_518_" class="st0" d="M261.6,1264.6v-38.9h6.6v38.9H261.6z"/>
	<path id="XMLID_516_" class="st0" d="M333.7,1264.6l-0.1-29l-12.3,25h-4.3l-12.3-25v29h-6.2v-38.9h7.8l12.8,25.8l12.8-25.8h7.7
		v38.9H333.7z"/>
	<path id="XMLID_514_" class="st0" d="M370.3,1264.6v-38.9h6.6v38.9H370.3z"/>
	<path id="XMLID_511_" class="st0" d="M412.8,1255.8l-3.7,8.8h-6.8l17.2-38.9h6.7l17,38.9h-7l-3.7-8.8H412.8z M422.6,1232.7
		l-7.3,17.3h14.7L422.6,1232.7z"/>
	<path id="XMLID_509_" class="st0" d="M495.8,1264.6l-20.7-27.9v27.9h-6.6v-38.9h6.4l20.8,27.9v-27.9h6.4v38.9H495.8z"/>
	<path id="XMLID_507_" class="st0" d="M567.8,1264.6l-0.1-29l-12.3,25h-4.3l-12.3-25v29h-6.2v-38.9h7.8l12.8,25.8l12.8-25.8h7.7
		v38.9H567.8z"/>
	<path id="XMLID_504_" class="st0" d="M609.9,1255.8l-3.7,8.8h-6.8l17.2-38.9h6.7l17,38.9h-7l-3.7-8.8H609.9z M619.7,1232.7
		l-7.3,17.3H627L619.7,1232.7z"/>
	<path id="XMLID_502_" class="st0" d="M684,1252.6c0,7.8-4.6,12.3-12.1,12.3c-4.7,0-8.6-2.1-11.4-5.6l3.1-5c2.6,2.8,5.6,4.3,8.3,4.3
		c3.5,0,5.6-2.2,5.6-6.2v-20.8h-13.4v-5.9h20V1252.6z"/>
	<path id="XMLID_499_" class="st0" d="M751.6,1245.2c0,11.1-9,19.7-20.6,19.7c-11.6,0-20.6-8.6-20.6-19.7c0-11.2,9-19.6,20.6-19.6
		C742.6,1225.6,751.6,1234.1,751.6,1245.2z M717.1,1245.2c0,7.7,6.4,13.8,14,13.8c7.6,0,13.8-6.1,13.8-13.8
		c0-7.7-6.2-13.7-13.8-13.7C723.4,1231.5,717.1,1237.4,717.1,1245.2z"/>
	<path id="XMLID_497_" class="st0" d="M806.1,1264.6l-20.7-27.9v27.9h-6.6v-38.9h6.4l20.8,27.9v-27.9h6.4v38.9H806.1z"/>
	<path id="XMLID_495_" class="st0" d="M849.6,1231.6v10.5h19v5.9h-19v10.7h21.9v5.9h-28.4v-38.9h27.8v5.9H849.6z"/>
	<path id="XMLID_493_" class="st0" d="M926.2,1229.5l-2.7,5.8c-4.2-2.6-8.4-3.6-11.4-3.6c-3.8,0-6.3,1.4-6.3,4.1
		c0,8.5,21,3.9,20.9,17.9c0,6.9-6.1,11.2-14.7,11.2c-6.1,0-11.9-2.5-15.9-6.2l2.8-5.7c4,3.7,9,5.7,13.2,5.7c4.6,0,7.3-1.7,7.3-4.7
		c0-8.7-21-3.8-21-17.7c0-6.7,5.7-10.8,14.2-10.8C917.6,1225.5,922.5,1227.1,926.2,1229.5z"/>
</g>
<g id="XMLID_456_">
	<path id="XMLID_489_" class="st0" d="M64.6,1351.3c9.8,0,15.4,4.8,15.4,13.3c0,8.8-5.6,13.9-15.4,13.9h-8.9v11.7h-6.6v-38.9H64.6z
		 M55.7,1372.5h8.7c6,0,9.4-2.6,9.4-7.8c0-5.1-3.4-7.6-9.4-7.6h-8.7V1372.5z"/>
	<path id="XMLID_486_" class="st0" d="M109.8,1381.4l-3.7,8.8h-6.8l17.2-38.9h6.7l17,38.9h-7l-3.7-8.8H109.8z M119.6,1358.3
		l-7.3,17.3h14.7L119.6,1358.3z"/>
	<path id="XMLID_483_" class="st0" d="M181,1351.3c9.8,0,15.4,4.8,15.4,13.3c0,8.8-5.6,13.9-15.4,13.9h-8.9v11.7h-6.6v-38.9H181z
		 M172.1,1372.5h8.7c6,0,9.4-2.6,9.4-7.8c0-5.1-3.4-7.6-9.4-7.6h-8.7V1372.5z"/>
	<path id="XMLID_480_" class="st0" d="M240.7,1378.4c-0.6,0.1-1.2,0.1-1.8,0.1h-9.2v11.7h-6.6v-38.9h15.8c9.9,0,15.7,4.8,15.7,13.3
		c0,6.2-2.9,10.6-8.1,12.6l8.7,13h-7.4L240.7,1378.4z M238.9,1372.5c6,0,9.4-2.6,9.4-7.8c0-5.1-3.4-7.6-9.4-7.6h-9.2v15.4H238.9z"/>
	<path id="XMLID_478_" class="st0" d="M283.6,1390.1v-38.9h6.6v38.9H283.6z"/>
	<path id="XMLID_476_" class="st0" d="M333.8,1373l-6.6,7.3v9.9h-6.6v-38.9h6.6v20.1l18.5-20.1h7.7l-15,16.6l16,22.3h-7.9
		L333.8,1373z"/>
	<path id="XMLID_473_" class="st0" d="M386.2,1381.4l-3.7,8.8h-6.8l17.2-38.9h6.7l17,38.9h-7l-3.7-8.8H386.2z M396,1358.3l-7.3,17.3
		h14.7L396,1358.3z"/>
	<path id="XMLID_471_" class="st0" d="M477,1390.1l-0.1-29l-12.3,25h-4.3l-12.3-25v29H442v-38.9h7.8l12.8,25.8l12.8-25.8h7.7v38.9
		H477z"/>
	<path id="XMLID_468_" class="st0" d="M519.1,1381.4l-3.7,8.8h-6.8l17.2-38.9h6.7l17,38.9h-7l-3.7-8.8H519.1z M528.9,1358.3
		l-7.3,17.3h14.7L528.9,1358.3z"/>
	<path id="XMLID_466_" class="st0" d="M593.1,1378.1c0,7.8-4.6,12.3-12.1,12.3c-4.7,0-8.6-2.1-11.4-5.6l3.1-5
		c2.6,2.8,5.6,4.3,8.3,4.3c3.5,0,5.6-2.2,5.6-6.2v-20.8h-13.4v-5.9h20V1378.1z"/>
	<path id="XMLID_463_" class="st0" d="M660.8,1370.7c0,11.1-9,19.7-20.6,19.7s-20.6-8.6-20.6-19.7c0-11.2,9-19.6,20.6-19.6
		S660.8,1359.6,660.8,1370.7z M626.2,1370.7c0,7.7,6.4,13.8,14,13.8c7.6,0,13.8-6.1,13.8-13.8s-6.2-13.7-13.8-13.7
		C632.6,1357,626.2,1363,626.2,1370.7z"/>
	<path id="XMLID_461_" class="st0" d="M715.3,1390.1l-20.7-27.9v27.9H688v-38.9h6.4l20.8,27.9v-27.9h6.4v38.9H715.3z"/>
	<path id="XMLID_459_" class="st0" d="M758.8,1357.2v10.5h19v5.9h-19v10.7h21.9v5.9h-28.4v-38.9H780v5.9H758.8z"/>
	<path id="XMLID_457_" class="st0" d="M835.3,1355l-2.7,5.8c-4.2-2.6-8.4-3.6-11.4-3.6c-3.8,0-6.3,1.4-6.3,4.1
		c0,8.5,21,3.9,20.9,17.9c0,6.9-6.1,11.2-14.7,11.2c-6.1,0-11.9-2.5-15.9-6.2l2.8-5.7c4,3.7,9,5.7,13.2,5.7c4.6,0,7.3-1.7,7.3-4.7
		c0-8.7-21-3.8-21-17.7c0-6.7,5.7-10.8,14.2-10.8C826.8,1351,831.7,1352.6,835.3,1355z"/>
</g>
<g id="XMLID_433_">
	<path id="XMLID_454_" class="st0" d="M81.4,1529.9v14.3c-3.9,3-9.8,5.1-15.1,5.1c-11.5,0-20.4-8.6-20.4-19.7
		c0-11.1,9.1-19.6,20.8-19.6c5.6,0,11.1,2.1,14.9,5.4l-3.7,4.8c-3-2.8-7.2-4.4-11.2-4.4c-7.9,0-14.2,6.1-14.2,13.8
		c0,7.8,6.3,13.8,14.2,13.8c2.9,0,6.2-1,8.9-2.7v-10.8H81.4z"/>
	<path id="XMLID_451_" class="st0" d="M128.5,1537.2c-0.6,0.1-1.2,0.1-1.8,0.1h-9.2v11.7H111v-38.9h15.8c9.9,0,15.7,4.8,15.7,13.3
		c0,6.2-2.9,10.6-8.1,12.6l8.7,13h-7.4L128.5,1537.2z M126.7,1531.4c6,0,9.4-2.6,9.4-7.8c0-5.1-3.4-7.6-9.4-7.6h-9.2v15.4H126.7z"/>
	<path id="XMLID_449_" class="st0" d="M177.9,1516v10.5h19v5.9h-19v10.7h21.9v5.9h-28.4v-38.9h27.8v5.9H177.9z"/>
	<path id="XMLID_447_" class="st0" d="M263.1,1549l-0.1-29l-12.3,25h-4.3l-12.3-25v29H228v-38.9h7.8l12.8,25.8l12.8-25.8h7.7v38.9
		H263.1z"/>
	<path id="XMLID_444_" class="st0" d="M337.6,1529.5c0,11.1-9,19.7-20.6,19.7s-20.6-8.6-20.6-19.7c0-11.2,9-19.6,20.6-19.6
		S337.6,1518.4,337.6,1529.5z M303.1,1529.5c0,7.7,6.4,13.8,14,13.8s13.8-6.1,13.8-13.8s-6.2-13.7-13.8-13.7
		C309.4,1515.8,303.1,1521.8,303.1,1529.5z"/>
	<path id="XMLID_442_" class="st0" d="M388.3,1543v5.9h-23.4v-38.9h6.6v32.9H388.3z"/>
	<path id="XMLID_439_" class="st0" d="M420.6,1540.2l-3.7,8.8h-6.8l17.2-38.9h6.7l17,38.9h-7l-3.7-8.8H420.6z M430.4,1517.1
		l-7.3,17.3h14.7L430.4,1517.1z"/>
	<path id="XMLID_437_" class="st0" d="M486.8,1516v33h-6.6v-33h-12.3v-5.9h31.2v5.9H486.8z"/>
	<path id="XMLID_434_" class="st0" d="M526.6,1540.2l-3.7,8.8h-6.8l17.2-38.9h6.7l17,38.9h-7l-3.7-8.8H526.6z M536.4,1517.1
		l-7.3,17.3h14.7L536.4,1517.1z"/>
</g>
<g id="XMLID_395_">
	<path id="XMLID_430_" class="st0" d="M64.6,874.7c9.8,0,15.4,4.8,15.4,13.3c0,8.8-5.6,13.9-15.4,13.9h-8.9v11.7h-6.6v-38.9H64.6z
		 M55.7,896h8.7c6,0,9.4-2.6,9.4-7.8c0-5.1-3.4-7.6-9.4-7.6h-8.7V896z"/>
	<path id="XMLID_428_" class="st0" d="M113.3,880.6v10.5h19v5.9h-19v10.7h21.9v5.9h-28.4v-38.9h27.8v5.9H113.3z"/>
	<path id="XMLID_425_" class="st0" d="M178.9,874.7c9.8,0,15.4,4.8,15.4,13.3c0,8.8-5.6,13.9-15.4,13.9H170v11.7h-6.6v-38.9H178.9z
		 M170,896h8.7c6,0,9.4-2.6,9.4-7.8c0-5.1-3.4-7.6-9.4-7.6H170V896z"/>
	<path id="XMLID_422_" class="st0" d="M236.5,874.7c9.8,0,15.4,4.8,15.4,13.3c0,8.8-5.6,13.9-15.4,13.9h-8.9v11.7h-6.6v-38.9H236.5z
		 M227.6,896h8.7c6,0,9.4-2.6,9.4-7.8c0-5.1-3.4-7.6-9.4-7.6h-8.7V896z"/>
	<path id="XMLID_420_" class="st0" d="M285.2,880.6v10.5h19v5.9h-19v10.7h21.9v5.9h-28.4v-38.9h27.8v5.9H285.2z"/>
	<path id="XMLID_417_" class="st0" d="M352.9,901.8c-0.6,0.1-1.2,0.1-1.8,0.1h-9.2v11.7h-6.6v-38.9h15.8c9.9,0,15.7,4.8,15.7,13.3
		c0,6.2-2.9,10.6-8.1,12.6l8.7,13H360L352.9,901.8z M351.1,896c6,0,9.4-2.6,9.4-7.8c0-5.1-3.4-7.6-9.4-7.6h-9.2V896H351.1z"/>
	<path id="XMLID_414_" class="st0" d="M413.3,901.8c-0.6,0.1-1.2,0.1-1.8,0.1h-9.2v11.7h-6.6v-38.9h15.8c9.9,0,15.7,4.8,15.7,13.3
		c0,6.2-2.9,10.6-8.1,12.6l8.7,13h-7.4L413.3,901.8z M411.5,896c6,0,9.4-2.6,9.4-7.8c0-5.1-3.4-7.6-9.4-7.6h-9.2V896H411.5z"/>
	<path id="XMLID_411_" class="st0" d="M494.2,894.2c0,11.1-9,19.7-20.6,19.7c-11.6,0-20.6-8.6-20.6-19.7c0-11.2,9-19.6,20.6-19.6
		C485.2,874.6,494.2,883.1,494.2,894.2z M459.6,894.2c0,7.7,6.4,13.8,14,13.8c7.6,0,13.8-6.1,13.8-13.8c0-7.7-6.2-13.7-13.8-13.7
		C465.9,880.4,459.6,886.4,459.6,894.2z"/>
	<path id="XMLID_409_" class="st0" d="M534.9,880.6v33h-6.6v-33H516v-5.9h31.2v5.9H534.9z"/>
	<path id="XMLID_406_" class="st0" d="M590.6,901.8c-0.6,0.1-1.2,0.1-1.8,0.1h-9.2v11.7H573v-38.9h15.8c9.9,0,15.7,4.8,15.7,13.3
		c0,6.2-2.9,10.6-8.1,12.6l8.7,13h-7.4L590.6,901.8z M588.8,896c6,0,9.4-2.6,9.4-7.8c0-5.1-3.4-7.6-9.4-7.6h-9.2V896H588.8z"/>
	<path id="XMLID_402_" class="st0" d="M658.2,875.8c7.8,2.7,13.2,9.8,13.2,18.4c0,11.1-9,19.7-20.6,19.7c-1.8,0-3.7-0.2-5.3-0.6
		l-2.4,7.1h-3.8l2.8-8.3c-7.1-3.1-11.8-9.9-11.8-17.9c0-11.2,9-19.6,20.6-19.6c1.3,0,2.6,0.1,3.8,0.3l2.1-6.3h3.9L658.2,875.8z
		 M644,906.2l8.7-25.7c-0.6-0.1-1.2-0.1-1.8-0.1c-7.7,0-14,6-14,13.7C636.9,899.4,639.8,903.8,644,906.2z M664.7,894.2
		c0-5.8-3.5-10.6-8.5-12.7l-8.8,26c1.1,0.3,2.3,0.4,3.5,0.4C658.5,908,664.7,901.9,664.7,894.2z"/>
	<path id="XMLID_400_" class="st0" d="M733.7,913.6l-0.1-29l-12.3,25h-4.3l-12.3-25v29h-6.2v-38.9h7.8l12.8,25.8l12.8-25.8h7.7v38.9
		H733.7z"/>
	<path id="XMLID_398_" class="st0" d="M805.3,913.6l-0.1-29l-12.3,25h-4.3l-12.3-25v29h-6.2v-38.9h7.8l12.8,25.8l12.8-25.8h7.7v38.9
		H805.3z"/>
	<path id="XMLID_396_" class="st0" d="M848.5,880.6v10.5h19v5.9h-19v10.7h21.9v5.9h-28.4v-38.9h27.8v5.9H848.5z"/>
</g>
<g id="XMLID_364_">
	<path id="XMLID_391_" class="st0" d="M66,1033.6c8.1,0,13,3.7,13,9.7c0,4.4-2.6,7.7-6.8,8.7c5.2,0.9,8.3,4.6,8.3,9.8
		c0,6.7-5.4,10.7-14.2,10.7H49.1v-38.9H66z M55.7,1049.7h10c4.2,0,6.7-1.9,6.7-5.2s-2.5-5.1-6.7-5.1h-10V1049.7z M55.7,1066.6h10
		c5.1,0,8.2-2,8.2-5.7c0-3.4-3.1-5.5-8.2-5.5h-10V1066.6z"/>
	<path id="XMLID_388_" class="st0" d="M114.1,1063.7l-3.7,8.8h-6.8l17.2-38.9h6.7l17,38.9h-7l-3.7-8.8H114.1z M123.8,1040.6
		l-7.3,17.3h14.7L123.8,1040.6z"/>
	<path id="XMLID_386_" class="st0" d="M200.8,1039.4l-3.8,4.8c-2.8-3.1-6.9-4.9-10.8-4.9c-7.8,0-13.9,6-13.9,13.7
		c0,7.7,6.1,13.7,13.9,13.7c3.9,0,7.9-1.8,10.8-4.6l3.9,4.3c-3.9,3.9-9.6,6.4-15,6.4c-11.4,0-20.2-8.6-20.2-19.8
		c0-11,8.9-19.5,20.4-19.5C191.5,1033.4,197,1035.7,200.8,1039.4z"/>
	<path id="XMLID_383_" class="st0" d="M264.9,1053c0,11.1-9,19.7-20.6,19.7c-11.6,0-20.6-8.6-20.6-19.7c0-11.2,9-19.6,20.6-19.6
		C255.9,1033.4,264.9,1041.9,264.9,1053z M230.4,1053c0,7.7,6.4,13.8,14,13.8c7.6,0,13.8-6.1,13.8-13.8s-6.2-13.7-13.8-13.7
		C236.7,1039.3,230.4,1045.3,230.4,1053z"/>
	<path id="XMLID_381_" class="st0" d="M319.4,1072.4l-20.7-27.9v27.9h-6.6v-38.9h6.4l20.8,27.9v-27.9h6.4v38.9H319.4z"/>
	<path id="XMLID_379_" class="st0" d="M391.4,1072.4l-0.1-29l-12.3,25h-4.3l-12.3-25v29h-6.2v-38.9h7.8l12.8,25.8l12.8-25.8h7.7
		v38.9H391.4z"/>
	<path id="XMLID_376_" class="st0" d="M433.5,1063.7l-3.7,8.8H423l17.2-38.9h6.7l17,38.9h-7l-3.7-8.8H433.5z M443.3,1040.6
		l-7.3,17.3h14.7L443.3,1040.6z"/>
	<path id="XMLID_374_" class="st0" d="M507.6,1060.4c0,7.8-4.6,12.3-12.1,12.3c-4.7,0-8.6-2.1-11.4-5.6l3.1-5
		c2.6,2.8,5.6,4.3,8.3,4.3c3.5,0,5.6-2.2,5.6-6.2v-20.8h-13.4v-5.9h20V1060.4z"/>
	<path id="XMLID_371_" class="st0" d="M575.2,1053c0,11.1-9,19.7-20.6,19.7c-11.6,0-20.6-8.6-20.6-19.7c0-11.2,9-19.6,20.6-19.6
		C566.2,1033.4,575.2,1041.9,575.2,1053z M540.7,1053c0,7.7,6.4,13.8,14,13.8c7.6,0,13.8-6.1,13.8-13.8s-6.2-13.7-13.8-13.7
		C547,1039.3,540.7,1045.3,540.7,1053z"/>
	<path id="XMLID_369_" class="st0" d="M629.7,1072.4l-20.7-27.9v27.9h-6.6v-38.9h6.4l20.8,27.9v-27.9h6.4v38.9H629.7z"/>
	<path id="XMLID_367_" class="st0" d="M673.3,1039.5v10.5h19v5.9h-19v10.7h21.9v5.9h-28.4v-38.9h27.8v5.9H673.3z"/>
	<path id="XMLID_365_" class="st0" d="M749.8,1037.3l-2.7,5.8c-4.2-2.6-8.4-3.6-11.4-3.6c-3.8,0-6.3,1.4-6.3,4.1
		c0,8.5,21,3.9,20.9,17.9c0,6.9-6.1,11.2-14.7,11.2c-6.1,0-11.9-2.5-15.9-6.2l2.8-5.7c4,3.7,9,5.7,13.2,5.7c4.6,0,7.3-1.7,7.3-4.7
		c0-8.7-21-3.8-21-17.7c0-6.7,5.7-10.8,14.2-10.8C741.2,1033.3,746.2,1034.9,749.8,1037.3z"/>
</g>
<g id="XMLID_351_">
	<path id="XMLID_361_" class="st0" d="M54.6,1699.1l-3.7,8.8h-6.8l17.2-38.9h6.7l17,38.9h-7l-3.7-8.8H54.6z M64.4,1676l-7.3,17.3
		h14.7L64.4,1676z"/>
	<path id="XMLID_359_" class="st0" d="M110.3,1707.8V1669h6.6v38.9H110.3z"/>
	<path id="XMLID_356_" class="st0" d="M185.4,1688.4c0,11.1-9,19.7-20.6,19.7c-11.6,0-20.6-8.6-20.6-19.7c0-11.2,9-19.6,20.6-19.6
		C176.4,1668.8,185.4,1677.3,185.4,1688.4z M150.8,1688.4c0,7.7,6.4,13.8,14,13.8s13.8-6.1,13.8-13.8c0-7.7-6.2-13.7-13.8-13.7
		C157.2,1674.7,150.8,1680.7,150.8,1688.4z"/>
	<path id="XMLID_354_" class="st0" d="M236,1701.9v5.9h-23.4V1669h6.6v32.9H236z"/>
	<path id="XMLID_352_" class="st0" d="M262.5,1707.8V1669h6.6v38.9H262.5z"/>
</g>
<g id="XMLID_325_">
	<path id="XMLID_349_" class="st0" d="M100.7,50l-4.9,10.4c-7.6-4.6-15.2-6.5-20.5-6.5c-6.9,0-11.4,2.6-11.4,7.3
		c0,15.3,37.8,7.1,37.7,32.3c0,12.5-11,20.2-26.4,20.2c-11,0-21.4-4.5-28.6-11.1l5.1-10.2c7.2,6.6,16.2,10.2,23.7,10.2
		c8.2,0,13.1-3.1,13.1-8.5c0-15.6-37.8-6.9-37.8-31.8c0-12,10.3-19.5,25.5-19.5C85.3,42.8,94.2,45.7,100.7,50z"/>
	<path id="XMLID_347_" class="st0" d="M151.9,113.3v-70h11.8v70H151.9z"/>
	<path id="XMLID_344_" class="st0" d="M247.3,43.3c21,0,36.2,14.7,36.2,35c0,20.2-15.3,35-36.5,35h-28.4v-70H247.3z M230.4,102.7
		h17.2c13.6,0,24-10.1,24-24.3c0-14.3-10.7-24.5-24.5-24.5h-16.7V102.7z"/>
	<path id="XMLID_342_" class="st0" d="M344.4,53.9v18.9h34.2v10.6h-34.2v19.3h39.4v10.6h-51.2v-70h50v10.6H344.4z"/>
	<path id="XMLID_339_" class="st0" d="M503.1,78.3c0,20-16.2,35.5-37.1,35.5s-37.1-15.5-37.1-35.5c0-20.1,16.2-35.3,37.1-35.3
		S503.1,58.3,503.1,78.3z M440.9,78.3c0,13.9,11.5,24.9,25.2,24.9c13.7,0,24.9-11,24.9-24.9c0-13.9-11.2-24.7-24.9-24.7
		C452.3,53.6,440.9,64.4,440.9,78.3z"/>
	<path id="XMLID_336_" class="st0" d="M583.8,92.1c-1,0.1-2.1,0.1-3.2,0.1H564v21.1h-11.8v-70h28.4c17.9,0,28.2,8.7,28.2,23.9
		c0,11.2-5.2,19.1-14.5,22.7l15.7,23.4h-13.4L583.8,92.1z M580.6,81.6c10.8,0,17-4.6,17-14.1c0-9.2-6.2-13.6-17-13.6H564v27.7H580.6
		z"/>
	<path id="XMLID_333_" class="st0" d="M689.7,43.3c21,0,36.2,14.7,36.2,35c0,20.2-15.3,35-36.5,35H661v-70H689.7z M672.8,102.7H690
		c13.6,0,24-10.1,24-24.3c0-14.3-10.7-24.5-24.5-24.5h-16.7V102.7z"/>
	<path id="XMLID_331_" class="st0" d="M786.8,53.9v18.9H821v10.6h-34.2v19.3h39.4v10.6H775v-70h50v10.6H786.8z"/>
	<path id="XMLID_328_" class="st0" d="M908.7,92.1c-1,0.1-2.1,0.1-3.2,0.1h-16.6v21.1h-11.8v-70h28.4c17.9,0,28.2,8.7,28.2,23.9
		c0,11.2-5.2,19.1-14.5,22.7l15.7,23.4h-13.4L908.7,92.1z M905.5,81.6c10.8,0,17-4.6,17-14.1c0-9.2-6.2-13.6-17-13.6h-16.6v27.7
		H905.5z"/>
	<path id="XMLID_326_" class="st0" d="M1033.4,50l-4.9,10.4c-7.6-4.6-15.2-6.5-20.5-6.5c-6.9,0-11.4,2.6-11.4,7.3
		c0,15.3,37.8,7.1,37.7,32.3c0,12.5-11,20.2-26.4,20.2c-11,0-21.4-4.5-28.6-11.1l5.1-10.2c7.2,6.6,16.2,10.2,23.7,10.2
		c8.2,0,13.1-3.1,13.1-8.5c0-15.6-37.8-6.9-37.8-31.8c0-12,10.3-19.5,25.5-19.5C1018,42.8,1026.9,45.7,1033.4,50z"/>
</g>
<g id="XMLID_316_">
	<path id="XMLID_322_" class="st0" d="M81.9,739.7c21,0,36.2,14.7,36.2,35c0,20.2-15.3,35-36.5,35H53.2v-70H81.9z M65,799.1h17.2
		c13.6,0,24-10.1,24-24.3c0-14.3-10.7-24.5-24.5-24.5H65V799.1z"/>
	<path id="XMLID_320_" class="st0" d="M167.2,809.7v-70H179v70H167.2z"/>
	<path id="XMLID_317_" class="st0" d="M261.8,739.7c17.6,0,27.7,8.7,27.7,23.9c0,15.8-10.1,25-27.7,25h-16.1v21.1h-11.8v-70H261.8z
		 M245.7,778h15.6c10.8,0,16.9-4.6,16.9-14.1c0-9.2-6.1-13.6-16.9-13.6h-15.6V778z"/>
</g>
<g id="XMLID_284_">
	<path id="XMLID_313_" class="st0" d="M64.6,324.7c9.8,0,15.4,4.8,15.4,13.3c0,8.8-5.6,13.9-15.4,13.9h-8.9v11.7h-6.6v-38.9H64.6z
		 M55.7,345.9h8.7c6,0,9.4-2.6,9.4-7.8c0-5.1-3.4-7.6-9.4-7.6h-8.7V345.9z"/>
	<path id="XMLID_310_" class="st0" d="M109.8,354.8l-3.7,8.8h-6.8l17.2-38.9h6.7l17,38.9h-7l-3.7-8.8H109.8z M119.6,331.7l-7.3,17.3
		h14.7L119.6,331.7z"/>
	<path id="XMLID_307_" class="st0" d="M183.1,351.8c-0.6,0.1-1.2,0.1-1.8,0.1h-9.2v11.7h-6.6v-38.9h15.8c9.9,0,15.7,4.8,15.7,13.3
		c0,6.2-2.9,10.6-8.1,12.6l8.7,13h-7.4L183.1,351.8z M181.3,345.9c6,0,9.4-2.6,9.4-7.8c0-5.1-3.4-7.6-9.4-7.6h-9.2v15.4H181.3z"/>
	<path id="XMLID_305_" class="st0" d="M261,363.5l-0.1-29l-12.3,25h-4.3l-12.3-25v29h-6.2v-38.9h7.8l12.8,25.8l12.8-25.8h7.7v38.9
		H261z"/>
	<path id="XMLID_303_" class="st0" d="M304.1,330.6v10.5h19v5.9h-19v10.7H326v5.9h-28.4v-38.9h27.8v5.9H304.1z"/>
	<path id="XMLID_301_" class="st0" d="M380.6,328.4l-2.7,5.8c-4.2-2.6-8.4-3.6-11.4-3.6c-3.8,0-6.3,1.4-6.3,4.1
		c0,8.5,21,3.9,20.9,17.9c0,6.9-6.1,11.2-14.7,11.2c-6.1,0-11.9-2.5-15.9-6.2l2.8-5.7c4,3.7,9,5.7,13.2,5.7c4.6,0,7.3-1.7,7.3-4.7
		c0-8.7-21-3.8-21-17.7c0-6.7,5.7-10.8,14.2-10.8C372.1,324.4,377,326,380.6,328.4z"/>
	<path id="XMLID_298_" class="st0" d="M414.2,354.8l-3.7,8.8h-6.8l17.2-38.9h6.7l17,38.9h-7l-3.7-8.8H414.2z M424,331.7l-7.3,17.3
		h14.7L424,331.7z"/>
	<path id="XMLID_296_" class="st0" d="M497.2,363.5l-20.7-27.9v27.9h-6.6v-38.9h6.4l20.8,27.9v-27.9h6.4v38.9H497.2z"/>
	<path id="XMLID_294_" class="st0" d="M540.7,330.6v11.2h17.7v5.8h-17.7v15.9h-6.6v-38.9h26.1l-0.1,5.9H540.7z"/>
	<path id="XMLID_291_" class="st0" d="M603.9,351.8c-0.6,0.1-1.2,0.1-1.8,0.1h-9.2v11.7h-6.6v-38.9h15.8c9.9,0,15.7,4.8,15.7,13.3
		c0,6.2-2.9,10.6-8.1,12.6l8.7,13H611L603.9,351.8z M602.1,345.9c6,0,9.4-2.6,9.4-7.8c0-5.1-3.4-7.6-9.4-7.6h-9.2v15.4H602.1z"/>
	<path id="XMLID_289_" class="st0" d="M646.8,363.5v-38.9h6.6v38.9H646.8z"/>
	<path id="XMLID_287_" class="st0" d="M690.4,330.6v10.5h19v5.9h-19v10.7h21.9v5.9h-28.4v-38.9h27.8v5.9H690.4z"/>
	<path id="XMLID_285_" class="st0" d="M766.9,328.4l-2.7,5.8c-4.2-2.6-8.4-3.6-11.4-3.6c-3.8,0-6.3,1.4-6.3,4.1
		c0,8.5,21,3.9,20.9,17.9c0,6.9-6.1,11.2-14.7,11.2c-6.1,0-11.9-2.5-15.9-6.2l2.8-5.7c4,3.7,9,5.7,13.2,5.7c4.6,0,7.3-1.7,7.3-4.7
		c0-8.7-21-3.8-21-17.7c0-6.7,5.7-10.8,14.2-10.8C758.3,324.4,763.3,326,766.9,328.4z"/>
</g>
<g id="XMLID_252_">
	<path id="XMLID_282_" class="st0" d="M75.5,477l-2.7,5.8c-4.2-2.6-8.4-3.6-11.4-3.6c-3.8,0-6.3,1.4-6.3,4.1c0,8.5,21,3.9,20.9,17.9
		c0,6.9-6.1,11.2-14.7,11.2c-6.1,0-11.9-2.5-15.9-6.2l2.8-5.7c4,3.7,9,5.7,13.2,5.7c4.6,0,7.3-1.7,7.3-4.7c0-8.7-21-3.8-21-17.7
		c0-6.7,5.7-10.8,14.2-10.8C66.9,473,71.9,474.6,75.5,477z"/>
	<path id="XMLID_278_" class="st0" d="M128.7,474.3c7.8,2.7,13.2,9.8,13.2,18.4c0,11.1-9,19.7-20.6,19.7c-1.8,0-3.7-0.2-5.3-0.6
		l-2.4,7.1h-3.8l2.8-8.3c-7.1-3.1-11.8-9.9-11.8-17.9c0-11.2,9-19.6,20.6-19.6c1.3,0,2.6,0.1,3.8,0.3l2.1-6.3h3.9L128.7,474.3z
		 M114.5,504.7l8.7-25.7c-0.6-0.1-1.2-0.1-1.8-0.1c-7.7,0-14,6-14,13.7C107.4,497.9,110.2,502.4,114.5,504.7z M135.2,492.7
		c0-5.8-3.5-10.6-8.5-12.7l-8.8,26c1.1,0.3,2.3,0.4,3.5,0.4C128.9,506.5,135.2,500.4,135.2,492.7z"/>
	<path id="XMLID_276_" class="st0" d="M182.6,479.2v33H176v-33h-12.3v-5.9h31.2v5.9H182.6z"/>
	<path id="XMLID_273_" class="st0" d="M236.3,473.3c9.8,0,15.4,4.8,15.4,13.3c0,8.8-5.6,13.9-15.4,13.9h-8.9v11.7h-6.6v-38.9H236.3z
		 M227.3,494.5h8.7c6,0,9.4-2.6,9.4-7.8c0-5.1-3.4-7.6-9.4-7.6h-8.7V494.5z"/>
	<path id="XMLID_270_" class="st0" d="M316.4,492.7c0,11.1-9,19.7-20.6,19.7c-11.6,0-20.6-8.6-20.6-19.7c0-11.2,9-19.6,20.6-19.6
		C307.4,473.1,316.4,481.6,316.4,492.7z M281.8,492.7c0,7.7,6.4,13.8,14,13.8c7.6,0,13.8-6.1,13.8-13.8c0-7.7-6.2-13.7-13.8-13.7
		C288.2,479,281.8,485,281.8,492.7z"/>
	<path id="XMLID_268_" class="st0" d="M357.1,479.2v33h-6.6v-33h-12.3v-5.9h31.2v5.9H357.1z"/>
	<path id="XMLID_266_" class="st0" d="M401.8,479.2v10.5h19v5.9h-19v10.7h21.9v5.9h-28.4v-38.9H423v5.9H401.8z"/>
	<path id="XMLID_264_" class="st0" d="M466.2,479.2v33h-6.6v-33h-12.3v-5.9h31.2v5.9H466.2z"/>
	<path id="XMLID_262_" class="st0" d="M510.9,479.2v11.2h17.7v5.8h-17.7v15.9h-6.6v-38.9h26.1l-0.1,5.9H510.9z"/>
	<path id="XMLID_259_" class="st0" d="M574.1,500.4c-0.6,0.1-1.2,0.1-1.8,0.1h-9.2v11.7h-6.6v-38.9h15.8c9.9,0,15.7,4.8,15.7,13.3
		c0,6.2-2.9,10.6-8.1,12.6l8.7,13h-7.4L574.1,500.4z M572.3,494.5c6,0,9.4-2.6,9.4-7.8c0-5.1-3.4-7.6-9.4-7.6h-9.2v15.4H572.3z"/>
	<path id="XMLID_257_" class="st0" d="M617,512.1v-38.9h6.6v38.9H617z"/>
	<path id="XMLID_255_" class="st0" d="M660.5,479.2v10.5h19v5.9h-19v10.7h21.9v5.9H654v-38.9h27.8v5.9H660.5z"/>
	<path id="XMLID_253_" class="st0" d="M737.1,477l-2.7,5.8c-4.2-2.6-8.4-3.6-11.4-3.6c-3.8,0-6.3,1.4-6.3,4.1
		c0,8.5,21,3.9,20.9,17.9c0,6.9-6.1,11.2-14.7,11.2c-6.1,0-11.9-2.5-15.9-6.2l2.8-5.7c4,3.7,9,5.7,13.2,5.7c4.6,0,7.3-1.7,7.3-4.7
		c0-8.7-21-3.8-21-17.7c0-6.7,5.7-10.8,14.2-10.8C728.5,473,733.4,474.6,737.1,477z"/>
</g>
<g id="XMLID_231_">
	<path id="XMLID_248_" class="st0" d="M66,621.9c8.1,0,13,3.7,13,9.7c0,4.4-2.6,7.7-6.8,8.7c5.2,0.9,8.3,4.6,8.3,9.8
		c0,6.7-5.4,10.7-14.2,10.7H49.1v-38.9H66z M55.7,638h10c4.2,0,6.7-1.9,6.7-5.2c0-3.3-2.5-5.1-6.7-5.1h-10V638z M55.7,654.9h10
		c5.1,0,8.2-2,8.2-5.7c0-3.4-3.1-5.5-8.2-5.5h-10V654.9z"/>
	<path id="XMLID_246_" class="st0" d="M141.6,644.6c0,10.2-6.4,16.4-16.9,16.4c-10.5,0-16.9-6.2-16.9-16.4v-22.8h6.6v22.8
		c0,6.6,4.1,10.5,10.4,10.5c6.3,0,10.3-3.9,10.3-10.5v-22.8h6.6V644.6z"/>
	<path id="XMLID_243_" class="st0" d="M188.8,649c-0.6,0.1-1.2,0.1-1.8,0.1h-9.2v11.7h-6.6v-38.9H187c9.9,0,15.7,4.8,15.7,13.3
		c0,6.2-2.9,10.6-8.1,12.6l8.7,13h-7.4L188.8,649z M187,643.1c6,0,9.4-2.6,9.4-7.8c0-5.1-3.4-7.6-9.4-7.6h-9.2v15.4H187z"/>
	<path id="XMLID_240_" class="st0" d="M249.2,649c-0.6,0.1-1.2,0.1-1.8,0.1h-9.2v11.7h-6.6v-38.9h15.8c9.9,0,15.7,4.8,15.7,13.3
		c0,6.2-2.9,10.6-8.1,12.6l8.7,13h-7.4L249.2,649z M247.4,643.1c6,0,9.4-2.6,9.4-7.8c0-5.1-3.4-7.6-9.4-7.6h-9.2v15.4H247.4z"/>
	<path id="XMLID_237_" class="st0" d="M297.6,652l-3.7,8.8H287l17.2-38.9h6.7l17,38.9h-7l-3.7-8.8H297.6z M307.3,628.9l-7.3,17.3
		h14.7L307.3,628.9z"/>
	<path id="XMLID_235_" class="st0" d="M363.7,627.7v33h-6.6v-33h-12.3v-5.9H376v5.9H363.7z"/>
	<path id="XMLID_232_" class="st0" d="M403.5,652l-3.7,8.8H393l17.2-38.9h6.7l17,38.9h-7l-3.7-8.8H403.5z M413.3,628.9l-7.3,17.3
		h14.7L413.3,628.9z"/>
</g>
<g id="XMLID_219_">
	<path id="XMLID_229_" class="st0" d="M55.7,182v11.2h17.7v5.8H55.7v15.9h-6.6v-38.9h26.1l-0.1,5.9H55.7z"/>
	<path id="XMLID_226_" class="st0" d="M118.8,203.2c-0.6,0.1-1.2,0.1-1.8,0.1h-9.2v11.7h-6.6v-38.9h15.8c9.9,0,15.7,4.8,15.7,13.3
		c0,6.2-2.9,10.6-8.1,12.6l8.7,13H126L118.8,203.2z M117.1,197.3c6,0,9.4-2.6,9.4-7.8c0-5.1-3.4-7.6-9.4-7.6h-9.2v15.4H117.1z"/>
	<path id="XMLID_224_" class="st0" d="M161.7,214.9v-38.9h6.6v38.9H161.7z"/>
	<path id="XMLID_222_" class="st0" d="M205.3,182v10.5h19v5.9h-19v10.7h21.9v5.9h-28.4v-38.9h27.8v5.9H205.3z"/>
	<path id="XMLID_220_" class="st0" d="M281.8,179.8l-2.7,5.8c-4.2-2.6-8.4-3.6-11.4-3.6c-3.8,0-6.3,1.4-6.3,4.1
		c0,8.5,21,3.9,20.9,17.9c0,6.9-6.1,11.2-14.7,11.2c-6.1,0-11.9-2.5-15.9-6.2l2.8-5.7c4,3.7,9,5.7,13.2,5.7c4.6,0,7.3-1.7,7.3-4.7
		c0-8.7-21-3.8-21-17.7c0-6.7,5.7-10.8,14.2-10.8C273.2,175.8,278.2,177.4,281.8,179.8z"/>
</g>
<g id="XMLID_209_">
	<path id="XMLID_217_" class="st0" d="M1146.3,903.2c14,0.7,23.4,8.2,23.4,20.6c0,14.3-10.5,24.3-27.2,24.3c-9,0-18.2-3.2-24.6-7.9
		l3.9-7.4c5.6,4.6,12.9,7.3,20.1,7.3c12.1,0,19.2-6.5,19.2-16c0-9.8-7.2-14.8-19.3-14.8h-9.5v-5.7l22.8-25.2h-33.6v-8.4h44.7v6
		l-24.1,26.8L1146.3,903.2z"/>
	<path id="XMLID_214_" class="st0" d="M1245.7,908.9c0,25.1-11.4,39.1-32.1,39.1s-32.1-14-32.1-39.1c0-25.1,11.4-39.1,32.1-39.1
		S1245.7,883.8,1245.7,908.9z M1190.5,908.9c0,21,8,31.5,23.1,31.5c15.1,0,23.1-10.5,23.1-31.5c0-21.1-8-31.5-23.1-31.5
		C1198.5,877.3,1190.5,887.8,1190.5,908.9z"/>
	<path id="XMLID_212_" class="st0" d="M1268,942.9c0,1.8-0.7,3.2-1.7,4.8l-5.2,8h-4.9l3.7-8.1c-1.7-1-2.4-2.8-2.4-4.8
		c0-3.2,2.2-5.6,5.2-5.6C1265.6,937.3,1268,939.4,1268,942.9z"/>
	<path id="XMLID_210_" class="st0" d="M1280.6,917.3v-6.4h26.1v6.4H1280.6z"/>
</g>
<g id="XMLID_199_">
	<path id="XMLID_207_" class="st0" d="M1146.3,1055.8c14,0.7,23.4,8.2,23.4,20.6c0,14.3-10.5,24.3-27.2,24.3c-9,0-18.2-3.2-24.6-7.9
		l3.9-7.4c5.6,4.6,12.9,7.3,20.1,7.3c12.1,0,19.2-6.5,19.2-16c0-9.8-7.2-14.8-19.3-14.8h-9.5v-5.7l22.8-25.2h-33.6v-8.4h44.7v6
		l-24.1,26.8L1146.3,1055.8z"/>
	<path id="XMLID_204_" class="st0" d="M1245.7,1061.5c0,25.1-11.4,39.1-32.1,39.1s-32.1-14-32.1-39.1c0-25.1,11.4-39.1,32.1-39.1
		S1245.7,1036.4,1245.7,1061.5z M1190.5,1061.5c0,21,8,31.5,23.1,31.5c15.1,0,23.1-10.5,23.1-31.5c0-21.1-8-31.5-23.1-31.5
		C1198.5,1030,1190.5,1040.4,1190.5,1061.5z"/>
	<path id="XMLID_202_" class="st0" d="M1268,1095.6c0,1.8-0.7,3.2-1.7,4.8l-5.2,8h-4.9l3.7-8.1c-1.7-1-2.4-2.8-2.4-4.8
		c0-3.2,2.2-5.6,5.2-5.6C1265.6,1089.9,1268,1092,1268,1095.6z"/>
	<path id="XMLID_200_" class="st0" d="M1280.6,1069.9v-6.4h26.1v6.4H1280.6z"/>
</g>
<g id="XMLID_189_">
	<path id="XMLID_197_" class="st0" d="M1146.3,1208.5c14,0.7,23.4,8.2,23.4,20.6c0,14.3-10.5,24.3-27.2,24.3c-9,0-18.2-3.2-24.6-7.9
		l3.9-7.4c5.6,4.6,12.9,7.3,20.1,7.3c12.1,0,19.2-6.5,19.2-16c0-9.8-7.2-14.8-19.3-14.8h-9.5v-5.7l22.8-25.2h-33.6v-8.4h44.7v6
		l-24.1,26.8L1146.3,1208.5z"/>
	<path id="XMLID_194_" class="st0" d="M1245.7,1214.2c0,25.1-11.4,39.1-32.1,39.1s-32.1-14-32.1-39.1s11.4-39.1,32.1-39.1
		S1245.7,1189.1,1245.7,1214.2z M1190.5,1214.2c0,21,8,31.5,23.1,31.5c15.1,0,23.1-10.5,23.1-31.5c0-21.1-8-31.5-23.1-31.5
		C1198.5,1182.6,1190.5,1193.1,1190.5,1214.2z"/>
	<path id="XMLID_192_" class="st0" d="M1268,1248.2c0,1.8-0.7,3.2-1.7,4.8l-5.2,8h-4.9l3.7-8.1c-1.7-1-2.4-2.8-2.4-4.8
		c0-3.2,2.2-5.6,5.2-5.6C1265.6,1242.6,1268,1244.7,1268,1248.2z"/>
	<path id="XMLID_190_" class="st0" d="M1280.6,1222.6v-6.4h26.1v6.4H1280.6z"/>
</g>
<g id="XMLID_179_">
	<path id="XMLID_187_" class="st0" d="M1146.3,1361.1c14,0.7,23.4,8.2,23.4,20.6c0,14.3-10.5,24.3-27.2,24.3c-9,0-18.2-3.2-24.6-7.9
		l3.9-7.4c5.6,4.6,12.9,7.3,20.1,7.3c12.1,0,19.2-6.5,19.2-16c0-9.8-7.2-14.8-19.3-14.8h-9.5v-5.7l22.8-25.2h-33.6v-8.4h44.7v6
		l-24.1,26.8L1146.3,1361.1z"/>
	<path id="XMLID_184_" class="st0" d="M1245.7,1366.8c0,25.1-11.4,39.1-32.1,39.1s-32.1-14-32.1-39.1s11.4-39.1,32.1-39.1
		S1245.7,1341.7,1245.7,1366.8z M1190.5,1366.8c0,21,8,31.5,23.1,31.5c15.1,0,23.1-10.5,23.1-31.5c0-21.1-8-31.5-23.1-31.5
		C1198.5,1335.3,1190.5,1345.7,1190.5,1366.8z"/>
	<path id="XMLID_182_" class="st0" d="M1268,1400.9c0,1.8-0.7,3.2-1.7,4.8l-5.2,8h-4.9l3.7-8.1c-1.7-1-2.4-2.8-2.4-4.8
		c0-3.2,2.2-5.6,5.2-5.6C1265.6,1395.2,1268,1397.3,1268,1400.9z"/>
	<path id="XMLID_180_" class="st0" d="M1280.6,1375.2v-6.4h26.1v6.4H1280.6z"/>
</g>
<g id="XMLID_169_">
	<path id="XMLID_177_" class="st0" d="M1146.3,1513.8c14,0.7,23.4,8.2,23.4,20.7c0,14.3-10.5,24.3-27.2,24.3c-9,0-18.2-3.2-24.6-7.9
		l3.9-7.4c5.6,4.6,12.9,7.3,20.1,7.3c12.1,0,19.2-6.6,19.2-16c0-9.8-7.2-14.8-19.3-14.8h-9.5v-5.7l22.8-25.2h-33.6v-8.4h44.7v6
		l-24.1,26.8L1146.3,1513.8z"/>
	<path id="XMLID_174_" class="st0" d="M1245.7,1519.4c0,25.1-11.4,39.1-32.1,39.1s-32.1-14-32.1-39.1c0-25.1,11.4-39.1,32.1-39.1
		S1245.7,1494.4,1245.7,1519.4z M1190.5,1519.4c0,21,8,31.5,23.1,31.5c15.1,0,23.1-10.5,23.1-31.5c0-21.1-8-31.5-23.1-31.5
		C1198.5,1487.9,1190.5,1498.4,1190.5,1519.4z"/>
	<path id="XMLID_172_" class="st0" d="M1268,1553.5c0,1.8-0.7,3.2-1.7,4.8l-5.2,8h-4.9l3.7-8.1c-1.7-1-2.4-2.8-2.4-4.8
		c0-3.2,2.2-5.6,5.2-5.6C1265.6,1547.9,1268,1550,1268,1553.5z"/>
	<path id="XMLID_170_" class="st0" d="M1280.6,1527.9v-6.4h26.1v6.4H1280.6z"/>
</g>
<g id="XMLID_159_">
	<path id="XMLID_167_" class="st0" d="M1146.3,1666.4c14,0.7,23.4,8.2,23.4,20.7c0,14.3-10.5,24.3-27.2,24.3c-9,0-18.2-3.2-24.6-7.9
		l3.9-7.4c5.6,4.6,12.9,7.3,20.1,7.3c12.1,0,19.2-6.6,19.2-16c0-9.8-7.2-14.8-19.3-14.8h-9.5v-5.7l22.8-25.2h-33.6v-8.4h44.7v6
		l-24.1,26.8L1146.3,1666.4z"/>
	<path id="XMLID_164_" class="st0" d="M1245.7,1672.1c0,25.1-11.4,39.1-32.1,39.1s-32.1-14-32.1-39.1c0-25.1,11.4-39.1,32.1-39.1
		S1245.7,1647,1245.7,1672.1z M1190.5,1672.1c0,21,8,31.5,23.1,31.5c15.1,0,23.1-10.5,23.1-31.5c0-21.1-8-31.5-23.1-31.5
		C1198.5,1640.6,1190.5,1651,1190.5,1672.1z"/>
	<path id="XMLID_162_" class="st0" d="M1268,1706.2c0,1.8-0.7,3.2-1.7,4.8l-5.2,8h-4.9l3.7-8.1c-1.7-1-2.4-2.8-2.4-4.8
		c0-3.2,2.2-5.6,5.2-5.6C1265.6,1700.5,1268,1702.6,1268,1706.2z"/>
	<path id="XMLID_160_" class="st0" d="M1280.6,1680.5v-6.4h26.1v6.4H1280.6z"/>
</g>
<g id="XMLID_149_">
	<path id="XMLID_157_" class="st0" d="M1152.3,222.8v-20.5h8.3v20.5h11.8v8.5h-11.8v20.4h-8.3v-20.4H1115v-7.3l27.9-50h8.8
		l-27.1,48.7H1152.3z"/>
	<path id="XMLID_154_" class="st0" d="M1245.7,213c0,25.1-11.4,39.1-32.1,39.1s-32.1-14-32.1-39.1c0-25.1,11.4-39.1,32.1-39.1
		S1245.7,187.9,1245.7,213z M1190.5,213c0,21,8,31.5,23.1,31.5c15.1,0,23.1-10.5,23.1-31.5c0-21.1-8-31.5-23.1-31.5
		C1198.5,181.4,1190.5,191.9,1190.5,213z"/>
	<path id="XMLID_152_" class="st0" d="M1268,247c0,1.8-0.7,3.2-1.7,4.8l-5.2,8h-4.9l3.7-8.1c-1.7-1-2.4-2.8-2.4-4.8
		c0-3.2,2.2-5.6,5.2-5.6C1265.6,241.4,1268,243.5,1268,247z"/>
	<path id="XMLID_150_" class="st0" d="M1280.6,221.4V215h26.1v6.4H1280.6z"/>
</g>
<g id="XMLID_140_">
	<path id="XMLID_147_" class="st0" d="M1165.5,359.1v-20.5h8.3v20.5h11.8v8.5h-11.8v20.4h-8.3v-20.4h-37.3v-7.3l27.9-50h8.8
		l-27.1,48.7H1165.5z"/>
	<path id="XMLID_145_" class="st0" d="M1206.3,318.9v21.9c4-0.7,9.5-1.1,13.1-1.1c16.3,0,26.8,9.7,26.8,23
		c0,15.5-10.8,25.6-27.4,25.6c-8.5,0-18.9-3.3-26.2-8.4l3.7-7.5c6.4,4.9,14.7,7.8,21.6,7.8c11.7,0,18.9-6.4,18.9-16.9
		c0-9.2-7.2-15-18.7-15c-5.1,0-14.4,0.8-20,1.9v-39.7h45.1v8.5H1206.3z"/>
	<path id="XMLID_143_" class="st0" d="M1268,383.3c0,1.8-0.7,3.2-1.7,4.8l-5.2,8h-4.9l3.7-8.1c-1.7-1-2.4-2.8-2.4-4.8
		c0-3.2,2.2-5.6,5.2-5.6C1265.6,377.7,1268,379.8,1268,383.3z"/>
	<path id="XMLID_141_" class="st0" d="M1280.6,357.7v-6.4h26.1v6.4H1280.6z"/>
</g>
<g id="XMLID_130_">
	<path id="XMLID_138_" class="st0" d="M1130.3,455.3v21.9c4-0.7,9.5-1.1,13.1-1.1c16.3,0,26.8,9.7,26.8,23
		c0,15.5-10.8,25.6-27.4,25.6c-8.5,0-18.9-3.3-26.2-8.4l3.7-7.5c6.4,4.9,14.7,7.8,21.6,7.8c11.7,0,18.9-6.4,18.9-16.9
		c0-9.2-7.2-15-18.7-15c-5.1,0-14.4,0.8-20,1.9v-39.7h45.1v8.5H1130.3z"/>
	<path id="XMLID_135_" class="st0" d="M1245.7,485.6c0,25.1-11.4,39.1-32.1,39.1s-32.1-14-32.1-39.1s11.4-39.1,32.1-39.1
		S1245.7,460.5,1245.7,485.6z M1190.5,485.6c0,21,8,31.5,23.1,31.5c15.1,0,23.1-10.5,23.1-31.5c0-21.1-8-31.5-23.1-31.5
		C1198.5,454,1190.5,464.5,1190.5,485.6z"/>
	<path id="XMLID_133_" class="st0" d="M1268,519.6c0,1.8-0.7,3.2-1.7,4.8l-5.2,8h-4.9l3.7-8.1c-1.7-1-2.4-2.8-2.4-4.8
		c0-3.2,2.2-5.6,5.2-5.6C1265.6,514,1268,516.1,1268,519.6z"/>
	<path id="XMLID_131_" class="st0" d="M1280.6,494v-6.4h26.1v6.4H1280.6z"/>
</g>
<g id="XMLID_120_">
	<path id="XMLID_128_" class="st0" d="M1130.3,591.6v21.9c4-0.7,9.5-1.1,13.1-1.1c16.3,0,26.8,9.7,26.8,23
		c0,15.5-10.8,25.6-27.4,25.6c-8.5,0-18.9-3.3-26.2-8.4l3.7-7.5c6.4,4.9,14.7,7.8,21.6,7.8c11.7,0,18.9-6.4,18.9-16.9
		c0-9.2-7.2-15-18.7-15c-5.1,0-14.4,0.8-20,1.9V583h45.1v8.5H1130.3z"/>
	<path id="XMLID_125_" class="st0" d="M1245.7,621.9c0,25.1-11.4,39.1-32.1,39.1s-32.1-14-32.1-39.1c0-25.1,11.4-39.1,32.1-39.1
		S1245.7,596.8,1245.7,621.9z M1190.5,621.9c0,21,8,31.5,23.1,31.5c15.1,0,23.1-10.5,23.1-31.5c0-21.1-8-31.5-23.1-31.5
		C1198.5,590.3,1190.5,600.8,1190.5,621.9z"/>
	<path id="XMLID_123_" class="st0" d="M1268,656c0,1.8-0.7,3.2-1.7,4.8l-5.2,8h-4.9l3.7-8.1c-1.7-1-2.4-2.8-2.4-4.8
		c0-3.2,2.2-5.6,5.2-5.6C1265.6,650.3,1268,652.4,1268,656z"/>
	<path id="XMLID_121_" class="st0" d="M1280.6,630.3v-6.4h26.1v6.4H1280.6z"/>
</g>
<g id="XMLID_111_">
	<path id="XMLID_118_" class="st0" d="M1493.3,903.2c14,0.7,23.4,8.2,23.4,20.6c0,14.3-10.5,24.3-27.2,24.3c-9,0-18.2-3.2-24.6-7.9
		l3.9-7.4c5.6,4.6,12.9,7.3,20.1,7.3c12.1,0,19.2-6.5,19.2-16c0-9.8-7.2-14.8-19.3-14.8h-9.5v-5.7l22.8-25.2h-33.6v-8.4h44.7v6
		l-24.1,26.8L1493.3,903.2z"/>
	<path id="XMLID_116_" class="st0" d="M1551.8,903.2c14,0.7,23.4,8.2,23.4,20.6c0,14.3-10.5,24.3-27.2,24.3c-9,0-18.2-3.2-24.6-7.9
		l3.9-7.4c5.6,4.6,12.9,7.3,20.1,7.3c12.1,0,19.2-6.5,19.2-16c0-9.8-7.2-14.8-19.3-14.8h-9.5v-5.7l22.8-25.2h-33.6v-8.4h44.7v6
		l-24.1,26.8L1551.8,903.2z"/>
	<path id="XMLID_114_" class="st0" d="M1597.6,942.9c0,1.8-0.7,3.2-1.7,4.8l-5.2,8h-4.9l3.7-8.1c-1.7-1-2.4-2.8-2.4-4.8
		c0-3.2,2.2-5.6,5.2-5.6C1595.2,937.3,1597.6,939.4,1597.6,942.9z"/>
	<path id="XMLID_112_" class="st0" d="M1610.1,917.3v-6.4h26.1v6.4H1610.1z"/>
</g>
<g id="XMLID_102_">
	<path id="XMLID_109_" class="st0" d="M1493.3,1055.8c14,0.7,23.4,8.2,23.4,20.6c0,14.3-10.5,24.3-27.2,24.3c-9,0-18.2-3.2-24.6-7.9
		l3.9-7.4c5.6,4.6,12.9,7.3,20.1,7.3c12.1,0,19.2-6.5,19.2-16c0-9.8-7.2-14.8-19.3-14.8h-9.5v-5.7l22.8-25.2h-33.6v-8.4h44.7v6
		l-24.1,26.8L1493.3,1055.8z"/>
	<path id="XMLID_107_" class="st0" d="M1551.8,1055.8c14,0.7,23.4,8.2,23.4,20.6c0,14.3-10.5,24.3-27.2,24.3c-9,0-18.2-3.2-24.6-7.9
		l3.9-7.4c5.6,4.6,12.9,7.3,20.1,7.3c12.1,0,19.2-6.5,19.2-16c0-9.8-7.2-14.8-19.3-14.8h-9.5v-5.7l22.8-25.2h-33.6v-8.4h44.7v6
		l-24.1,26.8L1551.8,1055.8z"/>
	<path id="XMLID_105_" class="st0" d="M1597.6,1095.6c0,1.8-0.7,3.2-1.7,4.8l-5.2,8h-4.9l3.7-8.1c-1.7-1-2.4-2.8-2.4-4.8
		c0-3.2,2.2-5.6,5.2-5.6C1595.2,1089.9,1597.6,1092,1597.6,1095.6z"/>
	<path id="XMLID_103_" class="st0" d="M1610.1,1069.9v-6.4h26.1v6.4H1610.1z"/>
</g>
<g id="XMLID_93_">
	<path id="XMLID_100_" class="st0" d="M1493.3,1208.5c14,0.7,23.4,8.2,23.4,20.6c0,14.3-10.5,24.3-27.2,24.3c-9,0-18.2-3.2-24.6-7.9
		l3.9-7.4c5.6,4.6,12.9,7.3,20.1,7.3c12.1,0,19.2-6.5,19.2-16c0-9.8-7.2-14.8-19.3-14.8h-9.5v-5.7l22.8-25.2h-33.6v-8.4h44.7v6
		l-24.1,26.8L1493.3,1208.5z"/>
	<path id="XMLID_98_" class="st0" d="M1551.8,1208.5c14,0.7,23.4,8.2,23.4,20.6c0,14.3-10.5,24.3-27.2,24.3c-9,0-18.2-3.2-24.6-7.9
		l3.9-7.4c5.6,4.6,12.9,7.3,20.1,7.3c12.1,0,19.2-6.5,19.2-16c0-9.8-7.2-14.8-19.3-14.8h-9.5v-5.7l22.8-25.2h-33.6v-8.4h44.7v6
		l-24.1,26.8L1551.8,1208.5z"/>
	<path id="XMLID_96_" class="st0" d="M1597.6,1248.2c0,1.8-0.7,3.2-1.7,4.8l-5.2,8h-4.9l3.7-8.1c-1.7-1-2.4-2.8-2.4-4.8
		c0-3.2,2.2-5.6,5.2-5.6C1595.2,1242.6,1597.6,1244.7,1597.6,1248.2z"/>
	<path id="XMLID_94_" class="st0" d="M1610.1,1222.6v-6.4h26.1v6.4H1610.1z"/>
</g>
<g id="XMLID_84_">
	<path id="XMLID_91_" class="st0" d="M1493.3,1361.1c14,0.7,23.4,8.2,23.4,20.6c0,14.3-10.5,24.3-27.2,24.3c-9,0-18.2-3.2-24.6-7.9
		l3.9-7.4c5.6,4.6,12.9,7.3,20.1,7.3c12.1,0,19.2-6.5,19.2-16c0-9.8-7.2-14.8-19.3-14.8h-9.5v-5.7l22.8-25.2h-33.6v-8.4h44.7v6
		l-24.1,26.8L1493.3,1361.1z"/>
	<path id="XMLID_89_" class="st0" d="M1551.8,1361.1c14,0.7,23.4,8.2,23.4,20.6c0,14.3-10.5,24.3-27.2,24.3c-9,0-18.2-3.2-24.6-7.9
		l3.9-7.4c5.6,4.6,12.9,7.3,20.1,7.3c12.1,0,19.2-6.5,19.2-16c0-9.8-7.2-14.8-19.3-14.8h-9.5v-5.7l22.8-25.2h-33.6v-8.4h44.7v6
		l-24.1,26.8L1551.8,1361.1z"/>
	<path id="XMLID_87_" class="st0" d="M1597.6,1400.9c0,1.8-0.7,3.2-1.7,4.8l-5.2,8h-4.9l3.7-8.1c-1.7-1-2.4-2.8-2.4-4.8
		c0-3.2,2.2-5.6,5.2-5.6C1595.2,1395.2,1597.6,1397.3,1597.6,1400.9z"/>
	<path id="XMLID_85_" class="st0" d="M1610.1,1375.2v-6.4h26.1v6.4H1610.1z"/>
</g>
<g id="XMLID_75_">
	<path id="XMLID_82_" class="st0" d="M1493.3,1513.8c14,0.7,23.4,8.2,23.4,20.7c0,14.3-10.5,24.3-27.2,24.3c-9,0-18.2-3.2-24.6-7.9
		l3.9-7.4c5.6,4.6,12.9,7.3,20.1,7.3c12.1,0,19.2-6.6,19.2-16c0-9.8-7.2-14.8-19.3-14.8h-9.5v-5.7l22.8-25.2h-33.6v-8.4h44.7v6
		l-24.1,26.8L1493.3,1513.8z"/>
	<path id="XMLID_80_" class="st0" d="M1551.8,1513.8c14,0.7,23.4,8.2,23.4,20.7c0,14.3-10.5,24.3-27.2,24.3c-9,0-18.2-3.2-24.6-7.9
		l3.9-7.4c5.6,4.6,12.9,7.3,20.1,7.3c12.1,0,19.2-6.6,19.2-16c0-9.8-7.2-14.8-19.3-14.8h-9.5v-5.7l22.8-25.2h-33.6v-8.4h44.7v6
		l-24.1,26.8L1551.8,1513.8z"/>
	<path id="XMLID_78_" class="st0" d="M1597.6,1553.5c0,1.8-0.7,3.2-1.7,4.8l-5.2,8h-4.9l3.7-8.1c-1.7-1-2.4-2.8-2.4-4.8
		c0-3.2,2.2-5.6,5.2-5.6C1595.2,1547.9,1597.6,1550,1597.6,1553.5z"/>
	<path id="XMLID_76_" class="st0" d="M1610.1,1527.9v-6.4h26.1v6.4H1610.1z"/>
</g>
<g id="XMLID_66_">
	<path id="XMLID_73_" class="st0" d="M1493.3,1666.4c14,0.7,23.4,8.2,23.4,20.7c0,14.3-10.5,24.3-27.2,24.3c-9,0-18.2-3.2-24.6-7.9
		l3.9-7.4c5.6,4.6,12.9,7.3,20.1,7.3c12.1,0,19.2-6.6,19.2-16c0-9.8-7.2-14.8-19.3-14.8h-9.5v-5.7l22.8-25.2h-33.6v-8.4h44.7v6
		l-24.1,26.8L1493.3,1666.4z"/>
	<path id="XMLID_71_" class="st0" d="M1551.8,1666.4c14,0.7,23.4,8.2,23.4,20.7c0,14.3-10.5,24.3-27.2,24.3c-9,0-18.2-3.2-24.6-7.9
		l3.9-7.4c5.6,4.6,12.9,7.3,20.1,7.3c12.1,0,19.2-6.6,19.2-16c0-9.8-7.2-14.8-19.3-14.8h-9.5v-5.7l22.8-25.2h-33.6v-8.4h44.7v6
		l-24.1,26.8L1551.8,1666.4z"/>
	<path id="XMLID_69_" class="st0" d="M1597.6,1706.2c0,1.8-0.7,3.2-1.7,4.8l-5.2,8h-4.9l3.7-8.1c-1.7-1-2.4-2.8-2.4-4.8
		c0-3.2,2.2-5.6,5.2-5.6C1595.2,1700.5,1597.6,1702.6,1597.6,1706.2z"/>
	<path id="XMLID_67_" class="st0" d="M1610.1,1680.5v-6.4h26.1v6.4H1610.1z"/>
</g>
<g id="XMLID_57_">
	<path id="XMLID_64_" class="st0" d="M1504.1,222.8v-20.5h8.3v20.5h11.8v8.5h-11.8v20.4h-8.3v-20.4h-37.3v-7.3l27.9-50h8.8
		l-27.1,48.7H1504.1z"/>
	<path id="XMLID_62_" class="st0" d="M1568.2,222.8v-20.5h8.3v20.5h11.8v8.5h-11.8v20.4h-8.3v-20.4h-37.3v-7.3l27.9-50h8.8
		l-27.1,48.7H1568.2z"/>
	<path id="XMLID_60_" class="st0" d="M1607.9,247c0,1.8-0.7,3.2-1.7,4.8l-5.2,8h-4.9l3.7-8.1c-1.7-1-2.4-2.8-2.4-4.8
		c0-3.2,2.2-5.6,5.2-5.6C1605.5,241.4,1607.9,243.5,1607.9,247z"/>
	<path id="XMLID_58_" class="st0" d="M1620.4,221.4V215h26.1v6.4H1620.4z"/>
</g>
<g id="XMLID_47_">
	<path id="XMLID_55_" class="st0" d="M1470.2,318.9v21.9c4-0.7,9.5-1.1,13.1-1.1c16.3,0,26.8,9.7,26.8,23
		c0,15.5-10.8,25.6-27.4,25.6c-8.5,0-18.9-3.3-26.2-8.4l3.7-7.5c6.4,4.9,14.7,7.8,21.6,7.8c11.7,0,18.9-6.4,18.9-16.9
		c0-9.2-7.2-15-18.7-15c-5.1,0-14.4,0.8-20,1.9v-39.7h45.1v8.5H1470.2z"/>
	<path id="XMLID_52_" class="st0" d="M1585.6,349.3c0,25.1-11.4,39.1-32.1,39.1s-32.1-14-32.1-39.1c0-25.1,11.4-39.1,32.1-39.1
		S1585.6,324.2,1585.6,349.3z M1530.4,349.3c0,21,8,31.5,23.1,31.5c15.1,0,23.1-10.5,23.1-31.5c0-21.1-8-31.5-23.1-31.5
		C1538.4,317.7,1530.4,328.2,1530.4,349.3z"/>
	<path id="XMLID_50_" class="st0" d="M1607.9,383.3c0,1.8-0.7,3.2-1.7,4.8l-5.2,8h-4.9l3.7-8.1c-1.7-1-2.4-2.8-2.4-4.8
		c0-3.2,2.2-5.6,5.2-5.6C1605.5,377.7,1607.9,379.8,1607.9,383.3z"/>
	<path id="XMLID_48_" class="st0" d="M1620.5,357.7v-6.4h26.1v6.4H1620.5z"/>
</g>
<g id="XMLID_38_">
	<path id="XMLID_45_" class="st0" d="M1483.4,455.3v21.9c4-0.7,9.5-1.1,13.1-1.1c16.3,0,26.8,9.7,26.8,23
		c0,15.5-10.8,25.6-27.4,25.6c-8.5,0-18.9-3.3-26.2-8.4l3.7-7.5c6.4,4.9,14.7,7.8,21.6,7.8c11.7,0,18.9-6.4,18.9-16.9
		c0-9.2-7.2-15-18.7-15c-5.1,0-14.4,0.8-20,1.9v-39.7h45.1v8.5H1483.4z"/>
	<path id="XMLID_43_" class="st0" d="M1546.2,455.3v21.9c4-0.7,9.5-1.1,13.1-1.1c16.3,0,26.8,9.7,26.8,23
		c0,15.5-10.8,25.6-27.4,25.6c-8.5,0-18.9-3.3-26.2-8.4l3.7-7.5c6.4,4.9,14.7,7.8,21.6,7.8c11.7,0,18.9-6.4,18.9-16.9
		c0-9.2-7.2-15-18.7-15c-5.1,0-14.4,0.8-20,1.9v-39.7h45.1v8.5H1546.2z"/>
	<path id="XMLID_41_" class="st0" d="M1607.9,519.6c0,1.8-0.7,3.2-1.7,4.8l-5.2,8h-4.9l3.7-8.1c-1.7-1-2.4-2.8-2.4-4.8
		c0-3.2,2.2-5.6,5.2-5.6C1605.5,514,1607.9,516.1,1607.9,519.6z"/>
	<path id="XMLID_39_" class="st0" d="M1620.5,494v-6.4h26.1v6.4H1620.5z"/>
</g>
<g id="XMLID_29_">
	<path id="XMLID_36_" class="st0" d="M1483.4,591.6v21.9c4-0.7,9.5-1.1,13.1-1.1c16.3,0,26.8,9.7,26.8,23
		c0,15.5-10.8,25.6-27.4,25.6c-8.5,0-18.9-3.3-26.2-8.4l3.7-7.5c6.4,4.9,14.7,7.8,21.6,7.8c11.7,0,18.9-6.4,18.9-16.9
		c0-9.2-7.2-15-18.7-15c-5.1,0-14.4,0.8-20,1.9V583h45.1v8.5H1483.4z"/>
	<path id="XMLID_34_" class="st0" d="M1546.2,591.6v21.9c4-0.7,9.5-1.1,13.1-1.1c16.3,0,26.8,9.7,26.8,23
		c0,15.5-10.8,25.6-27.4,25.6c-8.5,0-18.9-3.3-26.2-8.4l3.7-7.5c6.4,4.9,14.7,7.8,21.6,7.8c11.7,0,18.9-6.4,18.9-16.9
		c0-9.2-7.2-15-18.7-15c-5.1,0-14.4,0.8-20,1.9V583h45.1v8.5H1546.2z"/>
	<path id="XMLID_32_" class="st0" d="M1607.9,656c0,1.8-0.7,3.2-1.7,4.8l-5.2,8h-4.9l3.7-8.1c-1.7-1-2.4-2.8-2.4-4.8
		c0-3.2,2.2-5.6,5.2-5.6C1605.5,650.3,1607.9,652.4,1607.9,656z"/>
	<path id="XMLID_30_" class="st0" d="M1620.5,630.3v-6.4h26.1v6.4H1620.5z"/>
</g>
</svg>
