<?xml version="1.0" encoding="utf-8"?>
<!-- Generator: Adobe Illustrator 19.0.0, SVG Export Plug-In . SVG Version: 6.00 Build 0)  -->
<svg version="1.1" id="Layer_1" xmlns="http://www.w3.org/2000/svg" xmlns:xlink="http://www.w3.org/1999/xlink" x="0px" y="0px"
	 viewBox="0 0 416.2 706" enable-background="new 0 0 416.2 706" xml:space="preserve">
<rect x="-0.5" fill="#13110C" width="416.2" height="706"/>
<g>
	<defs>
		<rect id="SVGID_1_" y="-135.9" width="416.2" height="841.9"/>
	</defs>
	<clipPath id="SVGID_2_">
		<use xlink:href="#SVGID_1_"  overflow="visible"/>
	</clipPath>
</g>
<g>
	<defs>
		<rect id="SVGID_3_" y="-135.9" width="416.2" height="841.9"/>
	</defs>
	<clipPath id="SVGID_4_">
		<use xlink:href="#SVGID_3_"  overflow="visible"/>
	</clipPath>
</g>
<polygon fill="#FFFFFF" points="176.7,61.3 176.7,44 173.4,44 167.6,55.5 161.8,44 158.5,44 158.5,61.3 161.1,61.3 161.1,48.3
	166.6,59.5 168.5,59.5 174,48.3 174.1,61.3 "/>
<polygon fill="#FFFFFF" points="202.8,46.7 202.8,44 190.4,44 190.4,61.3 203.1,61.3 203.1,58.7 193.3,58.7 193.3,54 201.7,54
	201.7,51.3 193.3,51.3 193.3,46.7 "/>
<polygon fill="#FFFFFF" points="230.7,61.3 230.7,44 227.8,44 227.8,56.5 218.6,44 215.7,44 215.7,61.3 218.7,61.3 218.7,48.9
	227.8,61.3 "/>
<polygon fill="#FFFFFF" points="251.5,55.5 257.9,44 254.9,44 250.1,52.4 245.1,44 242.1,44 248.6,55.7 248.6,61.3 251.5,61.3 "/>
<line fill="none" stroke="#FFFFFF" stroke-width="1.3223" stroke-miterlimit="10" x1="48.5" y1="84.6" x2="367.8" y2="84.6"/>
<line fill="none" stroke="#FFFFFF" stroke-width="1.3223" stroke-miterlimit="10" x1="48.1" y1="658.4" x2="367.4" y2="658.4"/>
<polygon fill="#FFFFFF" points="72.5,122.7 72.5,108.9 69.7,108.9 65.2,118.1 60.6,108.9 57.8,108.9 57.8,122.7 60,122.7 60,112.4
	64.4,121.2 65.9,121.2 70.3,112.4 70.3,122.7 "/>
<polygon fill="#FFFFFF" points="93.3,110.9 93.3,108.9 83.4,108.9 83.4,122.7 93.5,122.7 93.5,120.6 85.7,120.6 85.7,116.8
	92.6,116.8 92.6,114.8 85.7,114.8 85.7,110.9 "/>
<polygon fill="#FFFFFF" points="106,120.6 106,108.9 103.6,108.9 103.6,122.7 112,122.7 112,120.6 "/>
<polygon fill="#FFFFFF" points="130.9,110.9 130.9,108.9 119.9,108.9 119.9,110.9 124.2,110.9 124.2,122.7 126.6,122.7 126.6,110.9
	"/>
<path fill="#FFFFFF" d="M64.1,187.7c2.6,0,4.9,2,4.9,4.8c0,2.8-2.3,4.9-4.9,4.9c-2.8,0-5-2.2-5-4.9C59,189.7,61.3,187.7,64.1,187.7z
	 M64.1,185.5c-4.2,0-7.5,3-7.5,7c0,4,3.2,7.1,7.5,7.1c4.1,0,7.3-3.1,7.3-7.1C71.4,188.5,68.2,185.5,64.1,185.5z"/>
<path fill="#FFFFFF" d="M83.4,193.2v-5.5h3.4c2,0,3.4,0.8,3.4,2.6c0,1.9-1.3,2.9-3.4,2.9H83.4z M89.9,199.4h2.6l-3.1-4.7
	c1.9-0.7,2.9-2.3,2.9-4.4c0-3-2-4.7-5.5-4.7h-5.6v13.8h2.3v-4.2h3.4c0.1,0,0.4,0,0.6,0L89.9,199.4z"/>
<rect x="102.7" y="185.6" fill="#FFFFFF" width="2.4" height="13.9"/>
<path fill="#FFFFFF" d="M125.4,192.6v3.8c-1,0.6-2.2,1-3.1,1c-2.9,0-5-2.2-5-4.9c0-2.8,2.2-4.9,5-4.9c1.4,0,2.9,0.6,4,1.7l1.3-1.8
	c-1.3-1.2-3.4-1.9-5.3-1.9c-4.2,0-7.5,3-7.5,7c0,4,3.1,7.1,7.2,7.1c1.9,0,4.1-0.7,5.4-1.8v-5.2H125.4z"/>
<rect x="138" y="185.6" fill="#FFFFFF" width="2.4" height="13.9"/>
<polygon fill="#FFFFFF" points="163.3,199.4 163.3,185.6 161,185.6 161,195.6 153.5,185.6 151.2,185.6 151.2,199.4 153.6,199.4
	153.6,189.5 161,199.4 "/>
<path fill="#FFFFFF" d="M182.3,194.3h-5.2l2.5-6.2L182.3,194.3z M183.2,196.3l1.3,3.1h2.5l-6.1-13.8h-2.4l-6.1,13.8h2.4l1.3-3.1
	H183.2z"/>
<polygon fill="#FFFFFF" points="198.5,197.3 198.5,185.6 196.1,185.6 196.1,199.4 204.5,199.4 204.5,197.3 "/>
<path fill="#FFFFFF" d="M64,262.2c-4.1,0-7.3,3-7.3,7c0,4,3.2,7,7.2,7c2,0,4-0.8,5.4-2.3l-1.4-1.4c-1,1-2.4,1.6-3.8,1.6
	c-2.8,0-4.9-2.2-4.9-4.9c0-2.6,2.2-4.8,4.9-4.8c1.4,0,2.9,0.7,3.8,1.8l1.4-1.8C67.9,263,65.9,262.2,64,262.2z"/>
<polygon fill="#FFFFFF" points="81.3,274 81.3,262.2 78.9,262.2 78.9,276.2 87.3,276.2 87.3,274 "/>
<path fill="#FFFFFF" d="M108.6,262.2h-2.4v8.2c0,2.3-1.4,3.7-3.6,3.7c-2.3,0-3.7-1.4-3.7-3.7v-8.2h-2.4v8.2c0,3.6,2.3,5.8,6,5.8
	c3.8,0,6.1-2.2,6.1-5.8V262.2z"/>
<path fill="#FFFFFF" d="M121.4,270.1h3.6c1.8,0,2.9,0.7,2.9,1.9c0,1.3-1.1,2-2.9,2h-3.6V270.1z M121.4,264.3h3.6
	c1.4,0,2.4,0.7,2.4,1.8c0,1.2-1,1.9-2.4,1.9h-3.6V264.3z M119.1,262.2v13.9h6.1c3.1,0,5-1.4,5-3.8c0-1.9-1.1-3.2-3-3.5
	c1.6-0.4,2.5-1.6,2.5-3.1c0-2.2-1.8-3.5-4.7-3.5H119.1z"/>
<path fill="#FFFFFF" d="M58.7,424.3h2c1.4,0,2.2,0.5,2.2,1.7c0,1.2-0.7,1.8-2.2,1.8h-2V424.3z M57.2,422.8v9h1.4v-2.6h2
	c2.3,0,3.6-1.2,3.6-3.2c0-1.9-1.3-3.1-3.6-3.1H57.2z"/>
<path fill="#FFFFFF" d="M75.3,428.5h-3.5l1.8-4L75.3,428.5z M75.9,429.8l0.8,2h1.6l-4-9h-1.4l-4.1,9h1.7l0.8-2H75.9z"/>
<path fill="#FFFFFF" d="M85.7,427.8v-3.5h2.2c1.3,0,2.2,0.5,2.2,1.7c0,1.2-0.8,1.8-2.2,1.8H85.7z M89.9,431.8h1.7l-1.9-3
	c1.2-0.5,1.8-1.4,1.8-2.9c0-1.9-1.3-3.1-3.6-3.1h-3.7v9h1.6v-2.6h2.2c0.1,0,0.2,0,0.4,0L89.9,431.8z"/>
<polygon fill="#FFFFFF" points="107.8,431.8 107.8,422.8 106,422.8 103,428.8 100,422.8 98.2,422.8 98.2,431.8 99.7,431.8
	99.7,425.1 102.5,431 103.5,431 106.4,425.1 106.4,431.8 "/>
<polygon fill="#FFFFFF" points="121.3,424.3 121.3,422.8 114.9,422.8 114.9,431.8 121.4,431.8 121.4,430.5 116.4,430.5 116.4,428
	120.8,428 120.8,426.7 116.4,426.7 116.4,424.3 "/>
<path fill="#FFFFFF" d="M131,422.8c-2,0-3.4,1-3.4,2.5c0,3.1,4.9,2,4.9,4.1c0,0.7-0.6,1.1-1.7,1.1c-1,0-2.2-0.5-3.1-1.3l-0.6,1.3
	c1,0.8,2.3,1.4,3.7,1.4c1.9,0,3.4-1,3.4-2.6c0-3.2-4.9-2.2-4.9-4.1c0-0.7,0.6-1,1.6-1c0.6,0,1.7,0.2,2.6,0.8l0.6-1.3
	C133.3,423.2,132.1,422.8,131,422.8z"/>
<path fill="#FFFFFF" d="M145.9,428.5h-3.4l1.7-4L145.9,428.5z M146.5,429.8l0.8,2h1.6l-3.8-9h-1.6l-4.1,9h1.7l0.8-2H146.5z"/>
<polygon fill="#FFFFFF" points="162.8,431.8 162.8,422.8 161.2,422.8 161.2,429.3 156.4,422.8 155,422.8 155,431.8 156.4,431.8
	156.4,425.5 161.2,431.8 "/>
<polygon fill="#FFFFFF" points="175.9,424.3 175.9,422.8 169.9,422.8 169.9,431.8 171.3,431.8 171.3,428.2 175.4,428.2 175.4,426.8
	171.3,426.8 171.3,424.3 "/>
<path fill="#FFFFFF" d="M183.5,427.8v-3.5h2.2c1.3,0,2.2,0.5,2.2,1.7c0,1.2-0.8,1.8-2.2,1.8H183.5z M187.7,431.8h1.7l-1.9-3
	c1.2-0.5,1.8-1.4,1.8-2.9c0-1.9-1.3-3.1-3.6-3.1h-3.7v9h1.6v-2.6h2.2c0.1,0,0.2,0,0.4,0L187.7,431.8z"/>
<rect x="196" y="422.8" fill="#FFFFFF" width="1.6" height="9.1"/>
<polygon fill="#FFFFFF" points="211,424.3 211,422.8 204.6,422.8 204.6,431.8 211.2,431.8 211.2,430.5 206.1,430.5 206.1,428
	210.5,428 210.5,426.7 206.1,426.7 206.1,424.3 "/>
<path fill="#FFFFFF" d="M220.7,422.8c-1.9,0-3.2,1-3.2,2.5c0,3.1,4.8,2,4.8,4.1c0,0.7-0.6,1.1-1.7,1.1c-1,0-2.2-0.5-3-1.3l-0.7,1.3
	c1,0.8,2.3,1.4,3.7,1.4c1.9,0,3.4-1,3.4-2.6c0-3.2-4.8-2.2-4.8-4.1c0-0.7,0.5-1,1.4-1c0.7,0,1.7,0.2,2.6,0.8l0.6-1.3
	C223,423.2,221.9,422.8,220.7,422.8z"/>
<path fill="#FFFFFF" d="M60.1,449.7c-1.9,0-3.2,1-3.2,2.5c0,3.2,4.8,2,4.8,4.1c0,0.7-0.6,1.1-1.7,1.1c-1,0-2-0.5-3-1.3l-0.7,1.3
	c1,0.8,2.3,1.4,3.7,1.4c2,0,3.4-1,3.4-2.5c0.1-3.2-4.8-2.3-4.8-4.2c0-0.6,0.6-1,1.4-1c0.7,0,1.7,0.2,2.6,0.8l0.6-1.3
	C62.5,450.1,61.3,449.7,60.1,449.7z"/>
<path fill="#FFFFFF" d="M73.9,457.6c-0.2,0-0.6,0-0.8-0.1l2-6c1.2,0.5,2,1.6,2,2.9C77.2,456.1,75.7,457.6,73.9,457.6z M70.7,454.3
	c0-1.8,1.4-3.1,3.2-3.1c0.1,0,0.2,0,0.5,0l-2,6C71.4,456.6,70.7,455.5,70.7,454.3z M76.2,448.4h-1l-0.5,1.4c-0.2,0-0.6-0.1-0.8-0.1
	c-2.6,0-4.8,2-4.8,4.6c0,1.9,1.1,3.5,2.8,4.2l-0.6,1.9h0.8l0.6-1.7c0.4,0.1,0.7,0.1,1.2,0.1c2.6,0,4.8-1.9,4.8-4.6
	c0-1.9-1.3-3.6-3.1-4.2L76.2,448.4z"/>
<polygon fill="#FFFFFF" points="91,451.2 91,449.9 83.8,449.9 83.8,451.2 86.7,451.2 86.7,458.9 88.1,458.9 88.1,451.2 "/>
<path fill="#FFFFFF" d="M98.6,451.2h2c1.3,0,2.2,0.6,2.2,1.8c0,1.2-0.8,1.8-2.2,1.8h-2V451.2z M97,449.9v9h1.6v-2.8h2
	c2.3,0,3.6-1.2,3.6-3.2c0-1.9-1.3-3-3.6-3H97z"/>
<path fill="#FFFFFF" d="M114.5,451.2c1.8,0,3.2,1.3,3.2,3.1s-1.4,3.2-3.2,3.2c-1.8,0-3.2-1.4-3.2-3.2S112.7,451.2,114.5,451.2z
	 M114.5,449.7c-2.6,0-4.8,2-4.8,4.6c0,2.6,2.2,4.6,4.8,4.6c2.6,0,4.8-1.9,4.8-4.6C119.3,451.8,117.1,449.7,114.5,449.7z"/>
<polygon fill="#FFFFFF" points="131.5,451.2 131.5,449.9 124.3,449.9 124.3,451.2 127.2,451.2 127.2,458.9 128.6,458.9 128.6,451.2
	"/>
<polygon fill="#FFFFFF" points="144,451.2 144,449.9 137.5,449.9 137.5,458.9 144.1,458.9 144.1,457.4 139.1,457.4 139.1,455
	143.5,455 143.5,453.6 139.1,453.6 139.1,451.2 "/>
<polygon fill="#FFFFFF" points="156.9,451.2 156.9,449.9 149.7,449.9 149.7,451.2 152.6,451.2 152.6,458.9 154,458.9 154,451.2 "/>
<polygon fill="#FFFFFF" points="168.9,451.2 168.9,449.9 162.9,449.9 162.9,458.9 164.5,458.9 164.5,455.1 168.5,455.1 168.5,453.8
	164.5,453.8 164.5,451.2 "/>
<path fill="#FFFFFF" d="M176.6,454.8v-3.6h2c1.4,0,2.3,0.6,2.3,1.8c0,1.2-0.8,1.8-2.3,1.8H176.6z M180.7,458.9h1.8l-2-3
	c1.2-0.5,1.9-1.6,1.9-3c0-1.9-1.3-3-3.7-3H175v9h1.6v-2.8h2c0.1,0,0.4,0,0.5,0L180.7,458.9z"/>
<rect x="189" y="449.8" fill="#FFFFFF" width="1.6" height="9.1"/>
<polygon fill="#FFFFFF" points="204.1,451.2 204.1,449.9 197.6,449.9 197.6,458.9 204.3,458.9 204.3,457.4 199.2,457.4 199.2,455
	203.5,455 203.5,453.6 199.2,453.6 199.2,451.2 "/>
<path fill="#FFFFFF" d="M213.8,449.7c-1.9,0-3.2,1-3.2,2.5c0,3.2,4.8,2,4.8,4.1c0,0.7-0.6,1.1-1.7,1.1c-1,0-2-0.5-3-1.3l-0.6,1.3
	c0.8,0.8,2.2,1.4,3.6,1.4c2,0,3.5-1,3.5-2.5c0-3.2-4.9-2.3-4.9-4.2c0-0.6,0.6-1,1.4-1c0.7,0,1.7,0.2,2.6,0.8l0.7-1.3
	C216.2,450.1,215,449.7,213.8,449.7z"/>
<path fill="#FFFFFF" d="M58.7,478.1h2.2c1.8,0,3.1,1.3,3.1,3.2c0,1.8-1.3,3.1-3,3.1h-2.3V478.1z M57.2,476.8v9h3.6
	c2.8,0,4.7-1.9,4.7-4.4c0-2.6-1.9-4.6-4.7-4.6H57.2z"/>
<rect x="71.9" y="476.8" fill="#FFFFFF" width="1.6" height="9.1"/>
<path fill="#FFFFFF" d="M82,478.1h2c1.3,0,2.2,0.6,2.2,1.8c0,1.2-0.8,1.8-2.2,1.8h-2V478.1z M80.4,476.8v9H82v-2.6h2
	c2.3,0,3.6-1.2,3.6-3.2c0-2-1.3-3.1-3.6-3.1H80.4z"/>
<polygon fill="#FFFFFF" points="63.2,397.3 63.2,395.9 57.2,395.9 57.2,404.9 58.7,404.9 58.7,401.2 62.8,401.2 62.8,399.9
	58.7,399.9 58.7,397.3 "/>
<path fill="#FFFFFF" d="M70.8,400.9v-3.6H73c1.3,0,2.2,0.6,2.2,1.8c0,1.2-0.8,1.8-2.2,1.8H70.8z M75,404.9h1.7l-1.9-3
	c1.1-0.5,1.8-1.6,1.8-3c0-1.9-1.3-3-3.6-3h-3.7v9h1.6v-2.8H73c0.1,0,0.2,0,0.4,0L75,404.9z"/>
<rect x="83.3" y="395.8" fill="#FFFFFF" width="1.6" height="9.1"/>
<polygon fill="#FFFFFF" points="98.3,397.3 98.3,395.9 92,395.9 92,404.9 98.6,404.9 98.6,403.6 93.4,403.6 93.4,401.1 97.9,401.1
	97.9,399.7 93.4,399.7 93.4,397.3 "/>
<path fill="#FFFFFF" d="M108.1,395.8c-2,0-3.4,1-3.4,2.5c0,3.2,4.9,2.2,4.9,4.1c0,0.7-0.6,1.1-1.7,1.1c-1,0-2.2-0.4-3.1-1.2
	l-0.6,1.2c1,1,2.3,1.4,3.7,1.4c1.9,0,3.4-1,3.4-2.5c0-3.2-4.8-2.3-4.8-4.2c0-0.6,0.5-1,1.4-1c0.6,0,1.7,0.2,2.6,0.8l0.6-1.3
	C110.4,396.2,109.3,395.8,108.1,395.8z"/>
<path fill="#FFFFFF" d="M155.3,510.6h3.4c2.8,0,4.8,2,4.8,4.9c0,2.8-2,4.8-4.7,4.8h-3.5V510.6z M153,508.6v13.8h5.6
	c4.2,0,7.2-2.9,7.2-6.8c0-4.1-3-7-7.2-7H153z"/>
<path fill="#FFFFFF" d="M177.9,516.2v-5.5h3.4c2.2,0,3.4,1,3.4,2.8c0,1.8-1.2,2.8-3.4,2.8H177.9z M184.4,522.4h2.6l-3.1-4.6
	c1.9-0.7,2.9-2.3,2.9-4.6c0-3-2-4.7-5.5-4.7h-5.6v13.8h2.3v-4.2h3.4c0.2,0,0.4,0,0.6,0L184.4,522.4z"/>
<rect x="197.2" y="508.6" fill="#FFFFFF" width="2.4" height="13.9"/>
<polygon fill="#FFFFFF" points="219.8,522.4 222.5,522.4 216.8,514.5 222.2,508.6 219.4,508.6 212.8,515.8 212.8,508.6 210.5,508.6
	210.5,522.4 212.8,522.4 212.8,518.9 215.2,516.3 "/>
<polygon fill="#FFFFFF" points="241.2,522.4 244,522.4 238.3,514.5 243.7,508.6 240.9,508.6 234.3,515.8 234.3,508.6 231.9,508.6
	231.9,522.4 234.3,522.4 234.3,518.9 236.6,516.3 "/>
<polygon fill="#FFFFFF" points="263.4,510.6 263.4,508.6 253.4,508.6 253.4,522.4 263.5,522.4 263.5,520.4 255.7,520.4 255.7,516.5
	262.6,516.5 262.6,514.4 255.7,514.4 255.7,510.6 "/>
<g>
	<defs>
		<rect id="SVGID_5_" x="189.7" y="368.7" width="42.5" height="8"/>
	</defs>
	<clipPath id="SVGID_6_">
		<use xlink:href="#SVGID_5_"  overflow="visible"/>
	</clipPath>
	<path clip-path="url(#SVGID_6_)" fill="#FFFFFF" d="M220.4,376.6c-3,0-6.5-0.8-10.2-3.2c-10.5-7.2-19.2-0.7-19.4-0.7
		c-0.2,0.2-0.6,0.2-0.8-0.1c-0.2-0.2-0.2-0.6,0.1-0.8c0.1-0.1,2.4-1.8,6.1-2.6c3.5-0.7,8.8-0.7,14.7,3.2c4.4,3,9.1,3.8,14.1,2.4
		c3.6-1,6-3,6-3c0.4-0.2,0.7-0.1,1,0.1c0.2,0.2,0.1,0.6-0.1,0.8c-0.1,0.1-2.6,2.2-6.5,3.2C223.9,376.4,222.3,376.6,220.4,376.6z"/>
</g>
<path fill="#FFFFFF" d="M63.5,136.6v1.9c-0.5,0.2-1.1,0.5-1.7,0.5c-1.3,0-2.5-1.1-2.5-2.5c0-1.3,1.1-2.4,2.5-2.4
	c0.7,0,1.4,0.2,2,0.7l0.6-0.8c-0.6-0.6-1.6-1-2.6-1c-2,0-3.7,1.6-3.7,3.5c0,2,1.7,3.5,3.7,3.5c1,0,1.9-0.4,2.6-0.8v-2.5H63.5z"/>
<path fill="#FFFFFF" d="M70.9,136.9v-2.8h1.6c1.1,0,1.7,0.5,1.7,1.3c0,1-0.6,1.4-1.7,1.4H70.9z M74.2,140h1.3l-1.6-2.3
	c0.8-0.4,1.4-1.2,1.4-2.3c0-1.6-1.1-2.4-2.9-2.4h-2.8v7h1.2v-2h1.6c0.1,0,0.2,0,0.4,0L74.2,140z"/>
<rect x="80.5" y="133" fill="#FFFFFF" width="1.2" height="7"/>
<polygon fill="#FFFFFF" points="88.4,138.9 88.4,133 87.2,133 87.2,140 91.4,140 91.4,138.9 "/>
<polygon fill="#FFFFFF" points="97.3,138.9 97.3,133 96.1,133 96.1,140 100.3,140 100.3,138.9 "/>
<polygon fill="#FFFFFF" points="109.9,134.1 109.9,133 105,133 105,140 110,140 110,138.9 106.2,138.9 106.2,137 109.5,137
	109.5,136 106.2,136 106.2,134.1 "/>
<polygon fill="#FFFFFF" points="119.9,134.1 119.9,133 114.3,133 114.3,134.1 116.5,134.1 116.5,140 117.7,140 117.7,134.1 "/>
<path fill="#FFFFFF" d="M133,133c-1.6,0-2.5,0.7-2.5,1.9c0,2.5,3.7,1.6,3.7,3.1c0,0.6-0.5,0.8-1.3,0.8c-0.7,0-1.7-0.4-2.4-1l-0.5,1
	c0.7,0.7,1.8,1.1,2.9,1.1c1.6,0,2.6-0.7,2.6-1.9c0-2.5-3.7-1.7-3.7-3.2c0-0.5,0.4-0.7,1.1-0.7c0.5,0,1.3,0.2,2,0.6l0.5-1
	C134.8,133.2,133.8,133,133,133z"/>
<path fill="#FFFFFF" d="M146.3,133h-1.2v4.1c0,1.2-0.6,1.9-1.8,1.9c-1.1,0-1.8-0.7-1.8-1.9V133h-1.2v4.1c0,1.8,1.2,2.9,3,2.9
	c1.9,0,3-1.1,3-2.9V133z"/>
<path fill="#FFFFFF" d="M152.8,136.9v-2.8h1.7c1.1,0,1.7,0.5,1.7,1.3c0,1-0.6,1.4-1.7,1.4H152.8z M156,140h1.3l-1.6-2.3
	c1-0.4,1.4-1.2,1.4-2.3c0-1.6-1.1-2.4-2.8-2.4h-2.9v7h1.2v-2h1.7c0.1,0,0.2,0,0.2,0L156,140z"/>
<path fill="#FFFFFF" d="M163.6,134.1h1.7c1.3,0,2.4,1,2.4,2.4s-1.1,2.4-2.4,2.4h-1.7V134.1z M162.4,133v7h2.8c2.2,0,3.7-1.4,3.7-3.5
	c0-2-1.6-3.5-3.6-3.5H162.4z"/>
<polygon fill="#FFFFFF" points="178.6,134.1 178.6,133 173.7,133 173.7,140 178.8,140 178.8,138.9 174.9,138.9 174.9,137 178.3,137
	178.3,136 174.9,136 174.9,134.1 "/>
<rect x="183.8" y="133" fill="#FFFFFF" width="1.2" height="7"/>
<path fill="#FFFFFF" d="M195.2,136.6v1.9c-0.5,0.2-1.1,0.5-1.6,0.5c-1.4,0-2.6-1.1-2.6-2.5c0-1.3,1.2-2.4,2.6-2.4
	c0.7,0,1.4,0.2,1.9,0.7l0.7-0.8c-0.7-0.6-1.7-1-2.6-1c-2.2,0-3.7,1.6-3.7,3.5c0,2,1.6,3.5,3.6,3.5c1,0,2-0.4,2.6-0.8v-2.5H195.2z"/>
<path fill="#FFFFFF" d="M203.8,133c-1.4,0-2.5,0.7-2.5,1.9c0,2.5,3.7,1.6,3.7,3.1c0,0.6-0.5,0.8-1.2,0.8c-0.8,0-1.7-0.4-2.4-1
	l-0.5,1c0.7,0.7,1.7,1.1,2.8,1.1c1.6,0,2.6-0.7,2.6-1.9c0-2.5-3.7-1.7-3.7-3.2c0-0.5,0.5-0.7,1.1-0.7c0.6,0,1.3,0.2,2,0.6l0.5-1
	C205.6,133.2,204.7,133,203.8,133z"/>
<path fill="#FFFFFF" d="M212.4,137h1.8c1,0,1.4,0.4,1.4,1c0,0.6-0.5,1-1.4,1h-1.8V137z M212.4,134.1h1.8c0.7,0,1.2,0.4,1.2,0.8
	c0,0.6-0.5,1-1.2,1h-1.8V134.1z M211.4,133v7h3c1.6,0,2.5-0.7,2.5-1.9c0-1-0.5-1.6-1.4-1.7c0.7-0.2,1.2-0.8,1.2-1.6
	c0-1.1-0.8-1.8-2.3-1.8H211.4z"/>
<path fill="#FFFFFF" d="M223.1,136.9v-2.8h1.6c1.1,0,1.8,0.5,1.8,1.3c0,1-0.7,1.4-1.8,1.4H223.1z M226.4,140h1.3l-1.6-2.3
	c0.8-0.4,1.4-1.2,1.4-2.3c0-1.6-1.1-2.4-2.9-2.4h-2.8v7h1.2v-2h1.6c0.1,0,0.2,0,0.4,0L226.4,140z"/>
<path fill="#FFFFFF" d="M235.9,139c-0.2,0-0.5-0.1-0.6-0.1l1.6-4.7c0.8,0.4,1.4,1.3,1.4,2.3C238.3,137.9,237.2,139,235.9,139z
	 M233.3,136.5c0-1.3,1.1-2.4,2.5-2.4c0.1,0,0.2,0,0.2,0l-1.4,4.6C233.8,138.3,233.3,137.5,233.3,136.5z M237.6,131.9h-0.7l-0.4,1.2
	c-0.2-0.1-0.4-0.1-0.6-0.1c-2.2,0-3.7,1.6-3.7,3.5c0,1.4,0.8,2.6,2.2,3.2l-0.6,1.4h0.7l0.5-1.2c0.2,0,0.6,0,1,0c2,0,3.6-1.4,3.6-3.5
	c0-1.6-1-2.8-2.3-3.2L237.6,131.9z"/>
<path fill="#FFFFFF" d="M245.6,134.1h1.6c1.4,0,2.5,1,2.5,2.4s-1.1,2.4-2.4,2.4h-1.7V134.1z M244.4,133v7h2.8c2.2,0,3.6-1.4,3.6-3.5
	c0-2-1.4-3.5-3.6-3.5H244.4z"/>
<polygon fill="#FFFFFF" points="269.2,140 269.2,133 267.9,133 265.6,137.7 263.3,133 261.8,133 261.8,140 262.9,140 262.9,134.8
	265.2,139.3 265.9,139.3 268.1,134.8 268.1,140 "/>
<polygon fill="#FFFFFF" points="279.6,134.1 279.6,133 274.7,133 274.7,140 279.8,140 279.8,138.9 275.8,138.9 275.8,137 279.3,137
	279.3,136 275.8,136 275.8,134.1 "/>
<path fill="#FFFFFF" d="M286,134.1h1.6c1.4,0,2.5,1,2.5,2.4s-1.1,2.4-2.4,2.4H286V134.1z M284.8,133v7h2.8c2.2,0,3.6-1.4,3.6-3.5
	c0-2-1.4-3.5-3.5-3.5H284.8z"/>
<polygon fill="#FFFFFF" points="59.9,150.8 59.9,144.9 58.7,144.9 58.7,151.9 62.9,151.9 62.9,150.8 "/>
<path fill="#FFFFFF" d="M71.7,149.2h-2.5l1.2-3L71.7,149.2z M72.1,150.3l0.7,1.6h1.2l-3-7h-1.2l-3.1,7h1.2l0.7-1.6H72.1z"/>
<path fill="#FFFFFF" d="M80.8,144.9c-1.4,0-2.5,0.7-2.5,1.9c0,2.5,3.7,1.6,3.7,3.1c0,0.6-0.5,0.8-1.2,0.8c-0.8,0-1.7-0.4-2.4-1
	l-0.5,1c0.7,0.7,1.7,1.1,2.8,1.1c1.6,0,2.6-0.7,2.6-1.9c0-2.5-3.7-1.7-3.7-3.2c0-0.5,0.5-0.7,1.2-0.7c0.5,0,1.2,0.2,1.9,0.6l0.5-1
	C82.6,145.1,81.7,144.9,80.8,144.9z"/>
<path fill="#FFFFFF" d="M92.3,149.2h-2.6l1.3-3L92.3,149.2z M92.8,150.3l0.6,1.6h1.2l-3-7h-1.2l-3,7h1.2l0.6-1.6H92.8z"/>
<path fill="#FFFFFF" d="M103.7,148.5v1.9c-0.5,0.2-1.1,0.5-1.6,0.5c-1.4,0-2.5-1.1-2.5-2.5c0-1.3,1.1-2.4,2.5-2.4
	c0.7,0,1.4,0.2,2,0.7l0.6-0.8c-0.7-0.6-1.7-1-2.6-1c-2.2,0-3.7,1.6-3.7,3.5c0,2,1.6,3.5,3.6,3.5c1,0,2-0.4,2.8-0.8v-2.5H103.7z"/>
<polygon fill="#FFFFFF" points="116.1,151.9 116.1,144.9 114.9,144.9 114.9,149.9 111.2,144.9 110.1,144.9 110.1,151.9 111.2,151.9
	111.2,146.9 114.9,151.9 "/>
<polygon fill="#FFFFFF" points="126.5,146 126.5,144.9 121.5,144.9 121.5,151.9 126.6,151.9 126.6,150.8 122.7,150.8 122.7,148.9
	126.1,148.9 126.1,147.9 122.7,147.9 122.7,146 "/>
<path fill="#FFFFFF" d="M141,146c1.3,0,2.4,1.1,2.4,2.4c0,1.4-1.1,2.5-2.4,2.5c-1.4,0-2.5-1.1-2.5-2.5
	C138.5,147.1,139.6,146,141,146z M141,144.9c-2.2,0-3.7,1.6-3.7,3.5c0,2,1.6,3.5,3.7,3.5c2,0,3.6-1.4,3.6-3.5
	C144.6,146.5,143.1,144.9,141,144.9z"/>
<path fill="#FFFFFF" d="M154,148.5v1.9c-0.5,0.2-1.1,0.5-1.6,0.5c-1.4,0-2.5-1.1-2.5-2.5c0-1.3,1.1-2.4,2.5-2.4
	c0.7,0,1.4,0.2,1.9,0.7l0.7-0.8c-0.7-0.6-1.7-1-2.6-1c-2.2,0-3.7,1.6-3.7,3.5c0,2,1.6,3.5,3.6,3.5c1,0,2-0.4,2.6-0.8v-2.5H154z"/>
<polygon fill="#FFFFFF" points="172.5,151.9 172.5,144.9 171.3,144.9 171.3,149.9 167.6,144.9 166.5,144.9 166.5,151.9 167.6,151.9
	167.6,146.9 171.3,151.9 "/>
<path fill="#FFFFFF" d="M181,146c1.3,0,2.5,1.1,2.5,2.4c0,1.4-1.2,2.5-2.5,2.5c-1.3,0-2.5-1.1-2.5-2.5
	C178.5,147.1,179.7,146,181,146z M181,144.9c-2,0-3.7,1.6-3.7,3.5c0,2,1.7,3.5,3.7,3.5c2,0,3.7-1.4,3.7-3.5
	C184.8,146.5,183.1,144.9,181,144.9z"/>
<path fill="#FFFFFF" d="M190.8,148.7V146h1.7c1,0,1.7,0.5,1.7,1.3c0,1-0.7,1.4-1.7,1.4H190.8z M194,151.9h1.3l-1.6-2.3
	c0.8-0.4,1.4-1.2,1.4-2.3c0-1.6-1.1-2.4-2.8-2.4h-2.9v7h1.2v-2h1.7c0,0,0.1,0,0.2,0L194,151.9z"/>
<polygon fill="#FFFFFF" points="203.4,151.9 206.2,144.9 205,144.9 202.8,150.6 200.6,144.9 199.4,144.9 202.2,151.9 "/>
<polygon fill="#FFFFFF" points="215.8,146 215.8,144.9 210.7,144.9 210.7,151.9 215.8,151.9 215.8,150.8 211.9,150.8 211.9,148.9
	215.3,148.9 215.3,147.9 211.9,147.9 211.9,146 "/>
<path fill="#FFFFFF" d="M225.7,148.5v1.9c-0.5,0.2-1.1,0.5-1.6,0.5c-1.4,0-2.5-1.1-2.5-2.5c0-1.3,1.1-2.4,2.5-2.4
	c0.7,0,1.4,0.2,1.9,0.7l0.7-0.8c-0.7-0.6-1.7-1-2.6-1c-2.2,0-3.7,1.6-3.7,3.5c0,2,1.6,3.5,3.6,3.5c1,0,2-0.4,2.8-0.8v-2.5H225.7z"/>
<rect x="232" y="144.9" fill="#FFFFFF" width="1.2" height="7"/>
<path fill="#FFFFFF" d="M242.6,149.2H240l1.3-3L242.6,149.2z M243.1,150.3l0.6,1.6h1.3l-3.1-7h-1.2l-3,7h1.2l0.7-1.6H243.1z"/>
<path fill="#FFFFFF" d="M63.5,213.1v1.9c-0.5,0.2-1.1,0.5-1.7,0.5c-1.3,0-2.5-1.1-2.5-2.5c0-1.3,1.1-2.4,2.5-2.4
	c0.7,0,1.4,0.2,2,0.7l0.6-0.8c-0.6-0.6-1.6-1-2.6-1c-2,0-3.7,1.6-3.7,3.5c0,2,1.7,3.5,3.7,3.5c1,0,1.9-0.4,2.6-0.8v-2.5H63.5z"/>
<path fill="#FFFFFF" d="M70.9,213.4v-2.8h1.6c1.1,0,1.7,0.5,1.7,1.3c0,1-0.6,1.4-1.7,1.4H70.9z M74.2,216.5h1.3l-1.6-2.3
	c0.8-0.4,1.4-1.2,1.4-2.3c0-1.6-1.1-2.4-2.9-2.4h-2.8v7h1.2v-2h1.6c0.1,0,0.2,0,0.4-0.1L74.2,216.5z"/>
<rect x="80.5" y="209.6" fill="#FFFFFF" width="1.2" height="7"/>
<polygon fill="#FFFFFF" points="88.4,215.4 88.4,209.5 87.2,209.5 87.2,216.5 91.4,216.5 91.4,215.4 "/>
<polygon fill="#FFFFFF" points="97.3,215.4 97.3,209.5 96.1,209.5 96.1,216.5 100.3,216.5 100.3,215.4 "/>
<polygon fill="#FFFFFF" points="109.9,210.6 109.9,209.5 105,209.5 105,216.5 110,216.5 110,215.4 106.2,215.4 106.2,213.5
	109.5,213.5 109.5,212.5 106.2,212.5 106.2,210.6 "/>
<polygon fill="#FFFFFF" points="119.9,210.6 119.9,209.5 114.3,209.5 114.3,210.6 116.5,210.6 116.5,216.5 117.7,216.5 117.7,210.6
	"/>
<path fill="#FFFFFF" d="M133,209.5c-1.6,0-2.5,0.7-2.5,1.9c0,2.4,3.7,1.6,3.7,3.1c0,0.6-0.5,0.8-1.3,0.8c-0.7,0-1.7-0.4-2.4-1
	l-0.5,1c0.7,0.7,1.8,1.1,2.9,1.1c1.6,0,2.6-0.7,2.6-1.9c0-2.5-3.7-1.7-3.7-3.2c0-0.5,0.4-0.7,1.1-0.7c0.5,0,1.3,0.2,2,0.6l0.5-1
	C134.8,209.8,133.8,209.5,133,209.5z"/>
<path fill="#FFFFFF" d="M146.3,209.5h-1.2v4.1c0,1.2-0.6,1.9-1.8,1.9c-1.1,0-1.8-0.7-1.8-1.9v-4.1h-1.2v4.1c0,1.8,1.2,2.9,3,2.9
	c1.9,0,3-1.1,3-2.9V209.5z"/>
<path fill="#FFFFFF" d="M152.8,213.4v-2.8h1.7c1.1,0,1.7,0.5,1.7,1.3c0,1-0.6,1.4-1.7,1.4H152.8z M156,216.5h1.3l-1.6-2.3
	c1-0.4,1.4-1.2,1.4-2.3c0-1.6-1.1-2.4-2.8-2.4h-2.9v7h1.2v-2h1.7c0.1,0,0.2,0,0.2-0.1L156,216.5z"/>
<path fill="#FFFFFF" d="M163.6,210.6h1.7c1.3,0,2.4,1,2.4,2.4s-1.1,2.4-2.4,2.4h-1.7V210.6z M162.4,209.5v7h2.8
	c2.2,0,3.7-1.4,3.7-3.5s-1.6-3.5-3.6-3.5H162.4z"/>
<polygon fill="#FFFFFF" points="178.6,210.6 178.6,209.5 173.7,209.5 173.7,216.5 178.8,216.5 178.8,215.4 174.9,215.4 174.9,213.5
	178.3,213.5 178.3,212.5 174.9,212.5 174.9,210.6 "/>
<rect x="183.8" y="209.6" fill="#FFFFFF" width="1.2" height="7"/>
<path fill="#FFFFFF" d="M195.2,213.1v1.9c-0.5,0.2-1.1,0.5-1.6,0.5c-1.4,0-2.6-1.1-2.6-2.5c0-1.3,1.2-2.4,2.6-2.4
	c0.7,0,1.4,0.2,1.9,0.7l0.7-0.8c-0.7-0.6-1.7-1-2.6-1c-2.2,0-3.7,1.6-3.7,3.5c0,2,1.6,3.5,3.6,3.5c1,0,2-0.4,2.6-0.8v-2.5H195.2z"/>
<path fill="#FFFFFF" d="M203.8,209.5c-1.4,0-2.5,0.7-2.5,1.9c0,2.4,3.7,1.6,3.7,3.1c0,0.6-0.5,0.8-1.2,0.8c-0.8,0-1.7-0.4-2.4-1
	l-0.5,1c0.7,0.7,1.7,1.1,2.8,1.1c1.6,0,2.6-0.7,2.6-1.9c0-2.5-3.7-1.7-3.7-3.2c0-0.5,0.5-0.7,1.1-0.7c0.6,0,1.3,0.2,2,0.6l0.5-1
	C205.6,209.8,204.7,209.5,203.8,209.5z"/>
<path fill="#FFFFFF" d="M212.4,213.5h1.8c1,0,1.4,0.4,1.4,1s-0.5,1-1.4,1h-1.8V213.5z M212.4,210.6h1.8c0.7,0,1.2,0.4,1.2,0.8
	c0,0.6-0.5,1-1.2,1h-1.8V210.6z M211.4,209.5v7h3c1.6,0,2.5-0.7,2.5-1.9c0-1-0.5-1.6-1.4-1.7c0.7-0.2,1.2-0.8,1.2-1.6
	c0-1.1-0.8-1.8-2.3-1.8H211.4z"/>
<path fill="#FFFFFF" d="M223.1,213.4v-2.8h1.6c1.1,0,1.8,0.5,1.8,1.3c0,1-0.7,1.4-1.8,1.4H223.1z M226.4,216.5h1.3l-1.6-2.3
	c0.8-0.4,1.4-1.2,1.4-2.3c0-1.6-1.1-2.4-2.9-2.4h-2.8v7h1.2v-2h1.6c0.1,0,0.2,0,0.4-0.1L226.4,216.5z"/>
<path fill="#FFFFFF" d="M235.9,215.5c-0.2,0-0.5-0.1-0.6-0.1l1.6-4.7c0.8,0.4,1.4,1.2,1.4,2.3C238.3,214.4,237.2,215.5,235.9,215.5z
	 M233.3,213c0-1.3,1.1-2.4,2.5-2.4c0.1,0,0.2,0,0.2,0l-1.4,4.6C233.8,214.7,233.3,214,233.3,213z M237.6,208.4h-0.7l-0.4,1.1
	c-0.2,0-0.4,0-0.6,0c-2.2,0-3.7,1.6-3.7,3.5c0,1.4,0.8,2.6,2.2,3.2l-0.6,1.4h0.7l0.5-1.3c0.2,0.1,0.6,0.1,1,0.1c2,0,3.6-1.4,3.6-3.5
	c0-1.6-1-2.8-2.3-3.2L237.6,208.4z"/>
<path fill="#FFFFFF" d="M245.6,210.6h1.6c1.4,0,2.5,1,2.5,2.4s-1.1,2.4-2.4,2.4h-1.7V210.6z M244.4,209.5v7h2.8
	c2.2,0,3.6-1.4,3.6-3.5s-1.4-3.5-3.6-3.5H244.4z"/>
<polygon fill="#FFFFFF" points="269.2,216.5 269.2,209.5 267.9,209.5 265.6,214.2 263.3,209.5 261.8,209.5 261.8,216.5 262.9,216.5
	262.9,211.3 265.2,215.8 265.9,215.8 268.1,211.3 268.1,216.5 "/>
<polygon fill="#FFFFFF" points="279.6,210.6 279.6,209.5 274.7,209.5 274.7,216.5 279.8,216.5 279.8,215.4 275.8,215.4 275.8,213.5
	279.3,213.5 279.3,212.5 275.8,212.5 275.8,210.6 "/>
<path fill="#FFFFFF" d="M286,210.6h1.6c1.4,0,2.5,1,2.5,2.4s-1.1,2.4-2.4,2.4H286V210.6z M284.8,209.5v7h2.8c2.2,0,3.6-1.4,3.6-3.5
	s-1.4-3.5-3.5-3.5H284.8z"/>
<path fill="#FFFFFF" d="M61,221.4c-1.4,0-2.5,0.7-2.5,1.9c0,2.4,3.7,1.6,3.7,3.1c0,0.6-0.5,0.8-1.3,0.8c-0.7,0-1.6-0.4-2.3-1l-0.5,1
	c0.7,0.7,1.7,1.1,2.8,1.1c1.6,0,2.6-0.7,2.6-1.9c0-2.5-3.7-1.7-3.7-3.2c0-0.5,0.5-0.7,1.1-0.7c0.6,0,1.3,0.2,2,0.6l0.5-1
	C62.8,221.6,61.9,221.4,61,221.4z"/>
<polygon fill="#FFFFFF" points="73.1,228.4 74.5,228.4 71.7,224.4 74.3,221.4 73,221.4 69.6,225 69.6,221.4 68.5,221.4 68.5,228.4
	69.6,228.4 69.6,226.6 70.8,225.3 "/>
<rect x="79.2" y="221.4" fill="#FFFFFF" width="1.2" height="7"/>
<polygon fill="#FFFFFF" points="91.9,228.4 91.9,221.4 90.6,221.4 90.6,226.5 86.9,221.4 85.8,221.4 85.8,228.4 87,228.4 87,223.5
	90.6,228.4 "/>
<polygon fill="#FFFFFF" points="101.9,228.4 103.4,228.4 100.5,224.4 103.1,221.4 101.8,221.4 98.5,225 98.5,221.4 97.3,221.4
	97.3,228.4 98.5,228.4 98.5,226.6 99.7,225.3 "/>
<polygon fill="#FFFFFF" points="113,222.5 113,221.4 108.1,221.4 108.1,228.4 113.1,228.4 113.1,227.3 109.2,227.3 109.2,225.4
	112.6,225.4 112.6,224.4 109.2,224.4 109.2,222.5 "/>
<path fill="#FFFFFF" d="M118.3,227.2c-0.4,0-0.6,0.2-0.6,0.6c0,0.2,0.1,0.5,0.2,0.6l-0.4,0.8h0.6l0.6-0.8c0.1-0.2,0.1-0.4,0.1-0.6
	C118.9,227.4,118.7,227.2,118.3,227.2z"/>
<path fill="#FFFFFF" d="M133.2,221.4c-2,0-3.7,1.6-3.7,3.5c0,2,1.6,3.5,3.6,3.5c1.1,0,2-0.4,2.8-1.1l-0.7-0.8
	c-0.5,0.6-1.2,0.8-1.9,0.8c-1.4,0-2.5-1.1-2.5-2.4s1.1-2.4,2.5-2.4c0.7,0,1.4,0.2,1.9,0.8l0.7-0.8
	C135.1,221.8,134.2,221.4,133.2,221.4z"/>
<polygon fill="#FFFFFF" points="146.7,228.4 146.7,221.4 145.5,221.4 145.5,224.4 141.7,224.4 141.7,221.4 140.7,221.4 140.7,228.4
	141.7,228.4 141.7,225.5 145.5,225.5 145.5,228.4 "/>
<polygon fill="#FFFFFF" points="157,222.5 157,221.4 152.1,221.4 152.1,228.4 157.1,228.4 157.1,227.3 153.3,227.3 153.3,225.4
	156.7,225.4 156.7,224.4 153.3,224.4 153.3,222.5 "/>
<path fill="#FFFFFF" d="M163.4,222.5h1.7c1.3,0,2.4,1,2.4,2.4s-1,2.4-2.4,2.4h-1.7V222.5z M162.2,221.4v7h2.9c2,0,3.6-1.4,3.6-3.5
	s-1.6-3.5-3.6-3.5H162.2z"/>
<path fill="#FFFFFF" d="M174.7,222.5h1.7c1.3,0,2.4,1,2.4,2.4s-1,2.4-2.4,2.4h-1.7V222.5z M173.5,221.4v7h2.9c2,0,3.6-1.4,3.6-3.5
	s-1.6-3.5-3.6-3.5H173.5z"/>
<path fill="#FFFFFF" d="M188.7,225.7h-2.6l1.3-3L188.7,225.7z M189.1,226.8l0.7,1.6h1.2l-3-7h-1.2l-3.1,7h1.3l0.6-1.6H189.1z"/>
<path fill="#FFFFFF" d="M196.8,225.3v-2.8h1.6c1.1,0,1.7,0.5,1.7,1.3c0,1-0.6,1.4-1.7,1.4H196.8z M200,228.4h1.3l-1.6-2.3
	c0.8-0.4,1.4-1.2,1.4-2.3c0-1.6-1.1-2.4-2.9-2.4h-2.8v7h1.2v-2h1.6c0.1,0,0.2,0,0.4-0.1L200,228.4z"/>
<path fill="#FFFFFF" d="M215.7,222.5c1.3,0,2.5,1.1,2.5,2.4c0,1.4-1.2,2.5-2.5,2.5c-1.3,0-2.5-1.1-2.5-2.5
	C213.2,223.6,214.4,222.5,215.7,222.5z M215.7,221.4c-2,0-3.7,1.6-3.7,3.5c0,2,1.7,3.5,3.7,3.5c2,0,3.7-1.4,3.7-3.5
	C219.4,223,217.7,221.4,215.7,221.4z"/>
<path fill="#FFFFFF" d="M228.7,225v1.9c-0.5,0.2-1.1,0.5-1.6,0.5c-1.4,0-2.5-1.1-2.5-2.5c0-1.3,1.1-2.4,2.5-2.4c0.7,0,1.4,0.2,2,0.7
	l0.6-0.8c-0.7-0.6-1.7-1-2.6-1c-2.2,0-3.7,1.6-3.7,3.5c0,2,1.6,3.5,3.6,3.5c1,0,2-0.4,2.8-0.8V225H228.7z"/>
<path fill="#FFFFFF" d="M243.5,221.4c-1.4,0-2.5,0.7-2.5,1.9c0,2.4,3.7,1.6,3.7,3.1c0,0.6-0.5,0.8-1.3,0.8c-0.7,0-1.6-0.4-2.3-1
	l-0.5,1c0.7,0.7,1.7,1.1,2.8,1.1c1.6,0,2.6-0.7,2.6-1.9c0-2.5-3.7-1.7-3.7-3.2c0-0.5,0.5-0.7,1.1-0.7c0.6,0,1.3,0.2,2,0.6l0.5-1
	C245.3,221.6,244.4,221.4,243.5,221.4z"/>
<polygon fill="#FFFFFF" points="256,222.5 256,221.4 251,221.4 251,228.4 256.1,228.4 256.1,227.3 252.1,227.3 252.1,225.4
	255.6,225.4 255.6,224.4 252.1,224.4 252.1,222.5 "/>
<polygon fill="#FFFFFF" points="267.1,228.4 267.1,221.4 265.9,221.4 265.9,226.5 262.2,221.4 261.1,221.4 261.1,228.4 262.3,228.4
	262.3,223.5 265.9,228.4 "/>
<polygon fill="#FFFFFF" points="278.5,228.4 278.5,221.4 277.5,221.4 277.5,226.5 273.7,221.4 272.5,221.4 272.5,228.4 273.7,228.4
	273.7,223.5 277.5,228.4 "/>
<polygon fill="#FFFFFF" points="289,222.5 289,221.4 284.1,221.4 284.1,228.4 289.1,228.4 289.1,227.3 285.2,227.3 285.2,225.4
	288.6,225.4 288.6,224.4 285.2,224.4 285.2,222.5 "/>
<path fill="#FFFFFF" d="M295.4,222.5h1.6c1,0,1.6,0.5,1.6,1.3c0,1-0.6,1.4-1.6,1.4h-1.6V222.5z M294.2,221.4v7h1.2v-2h1.6
	c1.7,0,2.8-1,2.8-2.5c0-1.6-1.1-2.4-2.8-2.4H294.2z"/>
<path fill="#FFFFFF" d="M63.5,290v1.9c-0.5,0.2-1.1,0.5-1.7,0.5c-1.3,0-2.5-1.1-2.5-2.5c0-1.3,1.1-2.4,2.5-2.4c0.7,0,1.4,0.2,2,0.7
	l0.6-0.8c-0.6-0.6-1.6-1-2.6-1c-2,0-3.7,1.6-3.7,3.5c0,2,1.7,3.6,3.7,3.6c1,0,1.9-0.4,2.6-1V290H63.5z"/>
<path fill="#FFFFFF" d="M70.9,290.2v-2.8h1.6c1.1,0,1.7,0.5,1.7,1.3c0,1-0.6,1.4-1.7,1.4H70.9z M74.2,293.4h1.3l-1.6-2.3
	c0.8-0.4,1.4-1.2,1.4-2.3c0-1.4-1.1-2.4-2.9-2.4h-2.8v7h1.2v-2h1.6c0.1,0,0.2,0,0.4,0L74.2,293.4z"/>
<rect x="80.5" y="286.4" fill="#FFFFFF" width="1.2" height="7"/>
<polygon fill="#FFFFFF" points="88.4,292.3 88.4,286.4 87.2,286.4 87.2,293.4 91.4,293.4 91.4,292.3 "/>
<polygon fill="#FFFFFF" points="97.3,292.3 97.3,286.4 96.1,286.4 96.1,293.4 100.3,293.4 100.3,292.3 "/>
<polygon fill="#FFFFFF" points="109.9,287.5 109.9,286.4 105,286.4 105,293.4 110,293.4 110,292.3 106.2,292.3 106.2,290.4
	109.5,290.4 109.5,289.4 106.2,289.4 106.2,287.5 "/>
<polygon fill="#FFFFFF" points="119.9,287.5 119.9,286.4 114.3,286.4 114.3,287.5 116.5,287.5 116.5,293.4 117.7,293.4 117.7,287.5
	"/>
<path fill="#FFFFFF" d="M133,286.4c-1.6,0-2.5,0.7-2.5,1.9c0,2.5,3.7,1.6,3.7,3.1c0,0.6-0.5,0.8-1.3,0.8c-0.7,0-1.7-0.4-2.4-1
	l-0.5,1c0.7,0.7,1.8,1.2,2.9,1.2c1.6,0,2.6-0.8,2.6-2c0-2.5-3.7-1.7-3.7-3.2c0-0.5,0.4-0.7,1.1-0.7c0.5,0,1.3,0.2,2,0.7l0.5-1.1
	C134.8,286.6,133.8,286.4,133,286.4z"/>
<path fill="#FFFFFF" d="M146.3,286.4h-1.2v4.1c0,1.2-0.6,1.9-1.8,1.9c-1.1,0-1.8-0.7-1.8-1.9v-4.1h-1.2v4.1c0,1.8,1.2,3,3,3
	c1.9,0,3-1.2,3-3V286.4z"/>
<path fill="#FFFFFF" d="M152.8,290.2v-2.8h1.7c1.1,0,1.7,0.5,1.7,1.3c0,1-0.6,1.4-1.7,1.4H152.8z M156,293.4h1.3l-1.6-2.3
	c1-0.4,1.4-1.2,1.4-2.3c0-1.4-1.1-2.4-2.8-2.4h-2.9v7h1.2v-2h1.7c0.1,0,0.2,0,0.2,0L156,293.4z"/>
<path fill="#FFFFFF" d="M163.6,287.5h1.7c1.3,0,2.4,1.1,2.4,2.4c0,1.4-1.1,2.4-2.4,2.4h-1.7V287.5z M162.4,286.4v7h2.8
	c2.2,0,3.7-1.4,3.7-3.5c0-1.9-1.6-3.5-3.6-3.5H162.4z"/>
<polygon fill="#FFFFFF" points="178.6,287.5 178.6,286.4 173.7,286.4 173.7,293.4 178.8,293.4 178.8,292.3 174.9,292.3 174.9,290.4
	178.3,290.4 178.3,289.4 174.9,289.4 174.9,287.5 "/>
<rect x="183.8" y="286.4" fill="#FFFFFF" width="1.2" height="7"/>
<path fill="#FFFFFF" d="M195.2,290v1.9c-0.5,0.2-1.1,0.5-1.6,0.5c-1.4,0-2.6-1.1-2.6-2.5c0-1.3,1.2-2.4,2.6-2.4
	c0.7,0,1.4,0.2,1.9,0.7l0.7-0.8c-0.7-0.6-1.7-1-2.6-1c-2.2,0-3.7,1.6-3.7,3.5c0,2,1.6,3.6,3.6,3.6c1,0,2-0.4,2.6-1V290H195.2z"/>
<path fill="#FFFFFF" d="M203.8,286.4c-1.4,0-2.5,0.7-2.5,1.9c0,2.5,3.7,1.6,3.7,3.1c0,0.6-0.5,0.8-1.2,0.8c-0.8,0-1.7-0.4-2.4-1
	l-0.5,1c0.7,0.7,1.7,1.2,2.8,1.2c1.6,0,2.6-0.8,2.6-2c0-2.5-3.7-1.7-3.7-3.2c0-0.5,0.5-0.7,1.1-0.7c0.6,0,1.3,0.2,2,0.7l0.5-1.1
	C205.6,286.6,204.7,286.4,203.8,286.4z"/>
<path fill="#FFFFFF" d="M212.4,290.4h1.8c1,0,1.4,0.4,1.4,1c0,0.7-0.5,1.1-1.4,1.1h-1.8V290.4z M212.4,287.5h1.8
	c0.7,0,1.2,0.4,1.2,1c0,0.5-0.5,0.8-1.2,0.8h-1.8V287.5z M211.4,286.4v7h3c1.6,0,2.5-0.7,2.5-1.9c0-0.8-0.5-1.6-1.4-1.7
	c0.7-0.2,1.2-0.8,1.2-1.6c0-1.1-0.8-1.8-2.3-1.8H211.4z"/>
<path fill="#FFFFFF" d="M223.1,290.2v-2.8h1.6c1.1,0,1.8,0.5,1.8,1.3c0,1-0.7,1.4-1.8,1.4H223.1z M226.4,293.4h1.3l-1.6-2.3
	c0.8-0.4,1.4-1.2,1.4-2.3c0-1.4-1.1-2.4-2.9-2.4h-2.8v7h1.2v-2h1.6c0.1,0,0.2,0,0.4,0L226.4,293.4z"/>
<path fill="#FFFFFF" d="M235.9,292.4c-0.2,0-0.5,0-0.6-0.1l1.6-4.6c0.8,0.4,1.4,1.2,1.4,2.2C238.3,291.3,237.2,292.4,235.9,292.4z
	 M233.3,289.9c0-1.3,1.1-2.4,2.5-2.4c0.1,0,0.2,0,0.2,0l-1.4,4.6C233.8,291.7,233.3,290.8,233.3,289.9z M237.6,285.3h-0.7l-0.4,1.2
	c-0.2-0.1-0.4-0.1-0.6-0.1c-2.2,0-3.7,1.6-3.7,3.5c0,1.4,0.8,2.6,2.2,3.2l-0.6,1.4h0.7l0.5-1.2c0.2,0,0.6,0.1,1,0.1
	c2,0,3.6-1.6,3.6-3.6c0-1.4-1-2.8-2.3-3.2L237.6,285.3z"/>
<path fill="#FFFFFF" d="M245.6,287.5h1.6c1.4,0,2.5,1.1,2.5,2.4c0,1.4-1.1,2.4-2.4,2.4h-1.7V287.5z M244.4,286.4v7h2.8
	c2.2,0,3.6-1.4,3.6-3.5c0-1.9-1.4-3.5-3.6-3.5H244.4z"/>
<polygon fill="#FFFFFF" points="269.2,293.4 269.2,286.4 267.9,286.4 265.6,291.1 263.3,286.4 261.8,286.4 261.8,293.4 262.9,293.4
	262.9,288.2 265.2,292.6 265.9,292.6 268.1,288.2 268.1,293.4 "/>
<polygon fill="#FFFFFF" points="279.6,287.5 279.6,286.4 274.7,286.4 274.7,293.4 279.8,293.4 279.8,292.3 275.8,292.3 275.8,290.4
	279.3,290.4 279.3,289.4 275.8,289.4 275.8,287.5 "/>
<path fill="#FFFFFF" d="M286,287.5h1.6c1.4,0,2.5,1.1,2.5,2.4c0,1.4-1.1,2.4-2.4,2.4H286V287.5z M284.8,286.4v7h2.8
	c2.2,0,3.6-1.4,3.6-3.5c0-1.9-1.4-3.5-3.5-3.5H284.8z"/>
<path fill="#FFFFFF" d="M61.8,298.3c-2,0-3.7,1.6-3.7,3.5c0,2,1.6,3.6,3.6,3.6c1.1,0,2-0.5,2.8-1.2l-0.7-0.7
	c-0.5,0.5-1.2,0.8-1.9,0.8c-1.4,0-2.5-1.1-2.5-2.5c0-1.3,1.1-2.4,2.5-2.4c0.7,0,1.4,0.4,1.9,0.8l0.7-0.8
	C63.7,298.8,62.8,298.3,61.8,298.3z"/>
<path fill="#FFFFFF" d="M72.1,299.4c1.4,0,2.5,1.1,2.5,2.4c0,1.4-1.1,2.5-2.5,2.5c-1.3,0-2.4-1.1-2.4-2.5
	C69.7,300.4,70.8,299.4,72.1,299.4z M72.1,298.3c-2,0-3.6,1.6-3.6,3.5c0,2,1.6,3.6,3.6,3.6c2.2,0,3.7-1.6,3.7-3.6
	C75.9,299.8,74.3,298.3,72.1,298.3z"/>
<polygon fill="#FFFFFF" points="86.8,305.3 86.8,298.3 85.6,298.3 85.6,303.3 81.9,298.3 80.8,298.3 80.8,305.3 82,305.3 82,300.3
	85.6,305.3 "/>
<polygon fill="#FFFFFF" points="96.9,299.4 96.9,298.3 92.2,298.3 92.2,305.3 93.4,305.3 93.4,302.5 96.5,302.5 96.5,301.4
	93.4,301.4 93.4,299.4 "/>
<rect x="101.5" y="298.2" fill="#FFFFFF" width="1.2" height="7"/>
<polygon fill="#FFFFFF" points="112.9,299.4 112.9,298.3 107.4,298.3 107.4,299.4 109.5,299.4 109.5,305.3 110.7,305.3 110.7,299.4
	"/>
<polygon fill="#FFFFFF" points="122.5,299.4 122.5,298.3 117.6,298.3 117.6,305.3 122.6,305.3 122.6,304.2 118.7,304.2 118.7,302.3
	122.1,302.3 122.1,301.3 118.7,301.3 118.7,299.4 "/>
<path fill="#FFFFFF" d="M128.8,302.1v-2.8h1.7c1.1,0,1.7,0.5,1.7,1.3c0,1-0.6,1.4-1.7,1.4H128.8z M132,305.3h1.3l-1.6-2.3
	c1-0.4,1.4-1.2,1.4-2.3c0-1.4-1-2.4-2.8-2.4h-2.8v7h1.1v-2h1.7c0.1,0,0.2,0,0.4,0L132,305.3z"/>
<polygon fill="#FFFFFF" points="143.2,299.4 143.2,298.3 137.7,298.3 137.7,299.4 139.8,299.4 139.8,305.3 140.9,305.3 140.9,299.4
	"/>
<polygon fill="#FFFFFF" points="158.6,305.3 160,305.3 157.1,301.3 159.8,298.3 158.5,298.3 155.1,301.9 155.1,298.3 154,298.3
	154,305.3 155.1,305.3 155.1,303.6 156.3,302.2 "/>
<polygon fill="#FFFFFF" points="167.6,303 170.1,298.3 168.9,298.3 167,301.8 164.9,298.3 163.7,298.3 166.4,303 166.4,305.3
	167.6,305.3 "/>
<polygon fill="#FFFFFF" points="175.8,304.2 175.8,298.3 174.7,298.3 174.7,305.3 178.8,305.3 178.8,304.2 "/>
<polygon fill="#FFFFFF" points="184.8,304.2 184.8,298.3 183.6,298.3 183.6,305.3 187.8,305.3 187.8,304.2 "/>
<rect x="192.5" y="298.2" fill="#FFFFFF" width="1.2" height="7"/>
<polygon fill="#FFFFFF" points="205.1,305.3 205.1,298.3 204,298.3 204,303.3 200.3,298.3 199.1,298.3 199.1,305.3 200.3,305.3
	200.3,300.3 204,305.3 "/>
<path fill="#FFFFFF" d="M215.3,301.9v1.9c-0.5,0.2-1.1,0.5-1.6,0.5c-1.4,0-2.5-1.1-2.5-2.5c0-1.3,1.1-2.4,2.5-2.4
	c0.7,0,1.4,0.2,1.9,0.7l0.7-0.8c-0.7-0.6-1.7-1-2.6-1c-2.2,0-3.7,1.6-3.7,3.5c0,2,1.6,3.6,3.6,3.6c1,0,2-0.4,2.8-1v-2.5H215.3z"/>
<path fill="#FFFFFF" d="M230.9,299.4c1.3,0,2.4,1.1,2.4,2.4c0,1.4-1.1,2.5-2.4,2.5c-1.4,0-2.5-1.1-2.5-2.5
	C228.4,300.4,229.5,299.4,230.9,299.4z M230.9,298.3c-2.2,0-3.7,1.6-3.7,3.5c0,2,1.6,3.6,3.7,3.6c2,0,3.6-1.6,3.6-3.6
	C234.6,299.8,233,298.3,230.9,298.3z"/>
<path fill="#FFFFFF" d="M243.9,301.9v1.9c-0.5,0.2-1.1,0.5-1.6,0.5c-1.4,0-2.5-1.1-2.5-2.5c0-1.3,1.1-2.4,2.5-2.4
	c0.7,0,1.4,0.2,1.9,0.7l0.7-0.8c-0.7-0.6-1.7-1-2.6-1c-2.2,0-3.7,1.6-3.7,3.5c0,2,1.6,3.6,3.6,3.6c1,0,2-0.4,2.6-1v-2.5H243.9z"/>
<polygon fill="#FFFFFF" points="262.4,305.3 262.4,298.3 261.2,298.3 261.2,303.3 257.5,298.3 256.4,298.3 256.4,305.3 257.6,305.3
	257.6,300.3 261.2,305.3 "/>
<path fill="#FFFFFF" d="M271,299.4c1.4,0,2.5,1.1,2.5,2.4c0,1.4-1.1,2.5-2.5,2.5c-1.3,0-2.4-1.1-2.4-2.5
	C268.6,300.4,269.6,299.4,271,299.4z M271,298.3c-2,0-3.6,1.6-3.6,3.5c0,2,1.6,3.6,3.6,3.6c2.2,0,3.7-1.6,3.7-3.6
	C274.7,299.8,273.1,298.3,271,298.3z"/>
<path fill="#FFFFFF" d="M280.7,302.1v-2.8h1.7c1.1,0,1.7,0.5,1.7,1.3c0,1-0.6,1.4-1.7,1.4H280.7z M284,305.3h1.3l-1.6-2.3
	c1-0.4,1.4-1.2,1.4-2.3c0-1.4-1.1-2.4-2.8-2.4h-2.9v7h1.2v-2h1.7c0.1,0,0.1,0,0.2,0L284,305.3z"/>
<polygon fill="#FFFFFF" points="293.3,305.3 296.1,298.3 294.9,298.3 292.7,303.9 290.6,298.3 289.4,298.3 292.1,305.3 "/>
<polygon fill="#FFFFFF" points="305.7,299.4 305.7,298.3 300.8,298.3 300.8,305.3 305.8,305.3 305.8,304.2 301.9,304.2 301.9,302.3
	305.4,302.3 305.4,301.3 301.9,301.3 301.9,299.4 "/>
<path fill="#FFFFFF" d="M315.6,301.9v1.9c-0.5,0.2-1.1,0.5-1.6,0.5c-1.4,0-2.5-1.1-2.5-2.5c0-1.3,1.1-2.4,2.5-2.4
	c0.7,0,1.4,0.2,1.9,0.7l0.7-0.8c-0.7-0.6-1.7-1-2.6-1c-2.2,0-3.7,1.6-3.7,3.5c0,2,1.6,3.6,3.6,3.6c1,0,2-0.4,2.8-1v-2.5H315.6z"/>
<rect x="321.8" y="298.2" fill="#FFFFFF" width="1.2" height="7"/>
<path fill="#FFFFFF" d="M332.5,302.6h-2.6l1.3-3L332.5,302.6z M333,303.7l0.6,1.6h1.3l-3.1-7h-1.2l-3,7h1.2l0.7-1.6H333z"/>
<path fill="#FFFFFF" d="M60.7,164.7h-1.6l0.8-1.8L60.7,164.7z M61,165.4l0.5,0.8h0.7l-1.8-4.1h-0.7l-1.8,4.1h0.7l0.4-0.8H61z"/>
<polygon fill="#FFFFFF" points="65.6,165.7 65.6,162.2 64.9,162.2 64.9,166.3 67.4,166.3 67.4,165.7 "/>
<polygon fill="#FFFFFF" points="70.9,165.7 70.9,162.2 70.2,162.2 70.2,166.3 72.7,166.3 72.7,165.7 "/>
<polygon fill="#FFFFFF" points="78.5,162.8 78.5,162.2 75.6,162.2 75.6,166.3 78.6,166.3 78.6,165.7 76.3,165.7 76.3,164.6
	78.3,164.6 78.3,163.9 76.3,163.9 76.3,162.8 "/>
<path fill="#FFFFFF" d="M82.3,164.5v-1.7h1c0.7,0,1.1,0.2,1.1,0.8c0,0.5-0.4,0.8-1.1,0.8H82.3z M84.3,166.3h0.8l-1-1.3
	c0.6-0.2,0.8-0.7,0.8-1.3c0-1-0.6-1.4-1.7-1.4h-1.7v4.1h0.7v-1.2h1c0.1,0,0.1,0,0.2,0L84.3,166.3z"/>
<path fill="#FFFFFF" d="M91,164.2v1.2c-0.4,0.1-0.7,0.2-1,0.2c-0.8,0-1.6-0.6-1.6-1.4c0-0.8,0.7-1.4,1.6-1.4c0.4,0,0.8,0.1,1.2,0.5
	l0.4-0.6c-0.4-0.4-1-0.5-1.6-0.5c-1.3,0-2.3,0.8-2.3,2c0,1.2,1,2.2,2.2,2.2c0.6,0,1.2-0.2,1.7-0.6v-1.6H91z"/>
<polygon fill="#FFFFFF" points="97.7,162.8 97.7,162.2 94.7,162.2 94.7,166.3 97.9,166.3 97.9,165.7 95.5,165.7 95.5,164.6
	97.5,164.6 97.5,163.9 95.5,163.9 95.5,162.8 "/>
<polygon fill="#FFFFFF" points="104.5,166.3 104.5,162.2 103.7,162.2 103.7,165.2 101.6,162.2 100.9,162.2 100.9,166.3 101.6,166.3
	101.6,163.3 103.7,166.3 "/>
<polygon fill="#FFFFFF" points="110.7,162.8 110.7,162.2 107.7,162.2 107.7,166.3 110.7,166.3 110.7,165.7 108.4,165.7 108.4,164.6
	110.5,164.6 110.5,163.9 108.4,163.9 108.4,162.8 "/>
<path fill="#FFFFFF" d="M114.5,164.5v-1.7h1.1c0.6,0,1,0.2,1,0.8c0,0.5-0.4,0.8-1,0.8H114.5z M116.5,166.3h0.7l-1-1.3
	c0.6-0.2,1-0.7,1-1.3c0-1-0.6-1.4-1.7-1.4h-1.7v4.1h0.6v-1.2h1.1h0.1L116.5,166.3z"/>
<path fill="#FFFFFF" d="M120.3,165.6c-0.1,0-0.4,0.2-0.4,0.4c0,0.2,0.2,0.5,0.4,0.5c0.2,0,0.4-0.2,0.4-0.5
	C120.7,165.8,120.6,165.6,120.3,165.6z M120.3,163.9c-0.1,0-0.4,0.1-0.4,0.4s0.2,0.4,0.4,0.4c0.2,0,0.4-0.1,0.4-0.4
	S120.6,163.9,120.3,163.9z"/>
<polygon fill="#FFFFFF" points="124.4,165.7 124.4,162.2 123.7,162.2 123.7,166.3 126.2,166.3 126.2,165.7 "/>
<path fill="#FFFFFF" d="M131.5,164.7H130l0.7-1.8L131.5,164.7z M131.8,165.4l0.5,0.8h0.7l-1.8-4.1h-0.7l-1.9,4.1h0.7l0.5-0.8H131.8z
	"/>
<polygon fill="#FFFFFF" points="138.5,166.3 139.3,166.3 137.5,163.9 139.2,162.2 138.4,162.2 136.3,164.4 136.3,162.2 135.6,162.2
	135.6,166.3 136.3,166.3 136.3,165.3 137.1,164.5 "/>
<polygon fill="#FFFFFF" points="145,162.8 145,162.2 141.6,162.2 141.6,162.8 142.9,162.8 142.9,166.3 143.7,166.3 143.7,162.8 "/>
<path fill="#FFFFFF" d="M149.3,162.8c0.8,0,1.6,0.6,1.6,1.4c0,0.8-0.7,1.4-1.6,1.4c-0.8,0-1.4-0.6-1.4-1.4
	C147.9,163.4,148.5,162.8,149.3,162.8z M149.3,162.2c-1.2,0-2.2,0.8-2.2,2s1,2.2,2.2,2.2c1.3,0,2.3-1,2.3-2.2
	S150.6,162.2,149.3,162.2z"/>
<path fill="#FFFFFF" d="M155.8,162.1c-0.8,0-1.4,0.5-1.4,1.2c0,1.4,2.2,1,2.2,1.9c0,0.4-0.2,0.5-0.7,0.5s-1-0.2-1.4-0.6l-0.2,0.6
	c0.4,0.4,1,0.7,1.7,0.7c0.8,0,1.6-0.5,1.6-1.2c0-1.6-2.3-1.1-2.3-1.9c0-0.4,0.2-0.5,0.7-0.5c0.2,0,0.7,0.1,1.2,0.4l0.2-0.6
	C156.9,162.3,156.4,162.1,155.8,162.1z"/>
<polygon fill="#FFFFFF" points="163.3,162.8 163.3,162.2 160.4,162.2 160.4,166.3 163.4,166.3 163.4,165.7 161.1,165.7 161.1,164.6
	163,164.6 163,163.9 161.1,163.9 161.1,162.8 "/>
<path fill="#FFFFFF" d="M166.5,165.6c-0.2,0-0.4,0.2-0.4,0.5c0,0.1,0,0.1,0.1,0.2l-0.2,0.5h0.4l0.4-0.5c0.1-0.1,0.1-0.2,0.1-0.2
	C166.9,165.8,166.7,165.6,166.5,165.6z"/>
<path fill="#FFFFFF" d="M176.4,164.2v1.2c-0.2,0.1-0.6,0.2-1,0.2c-0.8,0-1.4-0.6-1.4-1.4c0-0.8,0.6-1.4,1.4-1.4c0.5,0,1,0.1,1.2,0.5
	l0.5-0.6c-0.5-0.4-1.1-0.5-1.7-0.5c-1.2,0-2.2,0.8-2.2,2c0,1.2,1,2.2,2.2,2.2c0.6,0,1.2-0.2,1.7-0.6v-1.6H176.4z"/>
<polygon fill="#FFFFFF" points="180.9,165.7 180.9,162.2 180.2,162.2 180.2,166.3 182.7,166.3 182.7,165.7 "/>
<path fill="#FFFFFF" d="M189.1,162.2h-0.7v2.4c0,0.7-0.5,1.1-1.1,1.1c-0.7,0-1.1-0.4-1.1-1.1v-2.4h-0.7v2.4c0,1.1,0.6,1.8,1.8,1.8
	c1.1,0,1.8-0.7,1.8-1.8V162.2z"/>
<polygon fill="#FFFFFF" points="195.1,162.8 195.1,162.2 191.8,162.2 191.8,162.8 193.1,162.8 193.1,166.3 193.8,166.3 193.8,162.8
	"/>
<polygon fill="#FFFFFF" points="200.9,162.8 200.9,162.2 197.9,162.2 197.9,166.3 200.9,166.3 200.9,165.7 198.6,165.7 198.6,164.6
	200.6,164.6 200.6,163.9 198.6,163.9 198.6,162.8 "/>
<polygon fill="#FFFFFF" points="207.6,166.3 207.6,162.2 206.9,162.2 206.9,165.2 204.6,162.2 204,162.2 204,166.3 204.6,166.3
	204.6,163.3 206.9,166.3 "/>
<path fill="#FFFFFF" d="M211,165.6c-0.2,0-0.4,0.2-0.4,0.5c0,0.1,0,0.1,0.1,0.2l-0.2,0.5h0.4l0.4-0.5c0-0.1,0.1-0.2,0.1-0.2
	C211.3,165.8,211.1,165.6,211,165.6z"/>
<polygon fill="#FFFFFF" points="221,162.8 221,162.2 218,162.2 218,166.3 221.1,166.3 221.1,165.7 218.7,165.7 218.7,164.6
	220.7,164.6 220.7,163.9 218.7,163.9 218.7,162.8 "/>
<path fill="#FFFFFF" d="M227,164.2v1.2c-0.4,0.1-0.7,0.2-1,0.2c-0.8,0-1.6-0.6-1.6-1.4c0-0.8,0.6-1.4,1.6-1.4c0.4,0,0.8,0.1,1.2,0.5
	l0.4-0.6c-0.5-0.4-1-0.5-1.6-0.5c-1.3,0-2.3,0.8-2.3,2c0,1.2,1,2.2,2.2,2.2c0.6,0,1.2-0.2,1.7-0.6v-1.6H227z"/>
<path fill="#FFFFFF" d="M233.6,164.2v1.2c-0.4,0.1-0.7,0.2-1,0.2c-0.8,0-1.6-0.6-1.6-1.4c0-0.8,0.7-1.4,1.6-1.4
	c0.4,0,0.8,0.1,1.2,0.5l0.4-0.6c-0.4-0.4-1-0.5-1.6-0.5c-1.3,0-2.3,0.8-2.3,2c0,1.2,1,2.2,2.2,2.2c0.6,0,1.2-0.2,1.7-0.6v-1.6H233.6
	z"/>
<path fill="#FFFFFF" d="M237.4,165.6c-0.2,0-0.4,0.2-0.4,0.5c0,0.1,0,0.1,0.1,0.2l-0.2,0.5h0.4l0.4-0.5c0.1-0.1,0.1-0.2,0.1-0.2
	C237.8,165.8,237.7,165.6,237.4,165.6z"/>
<path fill="#FFFFFF" d="M245.9,162.1c-0.8,0-1.6,0.5-1.6,1.2c0,1.4,2.3,1,2.3,1.9c0,0.4-0.2,0.5-0.7,0.5c-0.5,0-1.1-0.2-1.4-0.6
	l-0.4,0.6c0.5,0.4,1.1,0.7,1.8,0.7c0.8,0,1.6-0.5,1.6-1.2c0-1.6-2.3-1.1-2.3-1.9c0-0.4,0.2-0.5,0.7-0.5c0.2,0,0.7,0.1,1.2,0.4
	l0.2-0.6C246.9,162.3,246.4,162.1,245.9,162.1z"/>
<path fill="#FFFFFF" d="M253.9,162.2h-0.7v2.4c0,0.7-0.4,1.1-1.1,1.1s-1.1-0.4-1.1-1.1v-2.4h-0.7v2.4c0,1.1,0.7,1.8,1.8,1.8
	c1.1,0,1.8-0.7,1.8-1.8V162.2z"/>
<polygon fill="#FFFFFF" points="257.8,165.7 257.8,162.2 257,162.2 257,166.3 259.6,166.3 259.6,165.7 "/>
<polygon fill="#FFFFFF" points="265.2,162.8 265.2,162.2 262.4,162.2 262.4,166.3 263.2,166.3 263.2,164.6 265.1,164.6 265.1,164
	263.2,164 263.2,162.8 "/>
<rect x="268" y="162.2" fill="#FFFFFF" width="0.7" height="4.2"/>
<polygon fill="#FFFFFF" points="274.8,162.8 274.8,162.2 271.5,162.2 271.5,162.8 272.8,162.8 272.8,166.3 273.5,166.3 273.5,162.8
	"/>
<polygon fill="#FFFFFF" points="280.5,162.8 280.5,162.2 277.1,162.2 277.1,162.8 278.4,162.8 278.4,166.3 279.1,166.3 279.1,162.8
	"/>
<path fill="#FFFFFF" d="M60.7,241.8h-1.6L60,240L60.7,241.8z M61,242.4l0.5,1h0.7l-1.8-4.1h-0.7l-1.8,4.1h0.7l0.4-1H61z"/>
<polygon fill="#FFFFFF" points="65.6,242.8 65.6,239.3 64.9,239.3 64.9,243.4 67.4,243.4 67.4,242.8 "/>
<polygon fill="#FFFFFF" points="70.9,242.8 70.9,239.3 70.2,239.3 70.2,243.4 72.7,243.4 72.7,242.8 "/>
<polygon fill="#FFFFFF" points="78.5,239.9 78.5,239.3 75.6,239.3 75.6,243.4 78.6,243.4 78.6,242.8 76.3,242.8 76.3,241.6
	78.3,241.6 78.3,241 76.3,241 76.3,239.9 "/>
<path fill="#FFFFFF" d="M82.3,241.6v-1.7h1c0.7,0,1.1,0.2,1.1,0.8c0,0.5-0.4,0.8-1.1,0.8H82.3z M84.3,243.4h0.8l-1-1.3
	c0.6-0.2,0.8-0.7,0.8-1.4c0-0.8-0.6-1.3-1.7-1.3h-1.7v4.1h0.7v-1.2h1c0.1,0,0.1,0,0.2,0L84.3,243.4z"/>
<path fill="#FFFFFF" d="M91,241.4v1.2c-0.4,0.1-0.7,0.2-1,0.2c-0.8,0-1.6-0.6-1.6-1.4c0-0.8,0.7-1.4,1.6-1.4c0.4,0,0.8,0.1,1.2,0.5
	l0.4-0.6c-0.4-0.4-1-0.6-1.6-0.6c-1.3,0-2.3,1-2.3,2.2c0,1.2,1,2,2.2,2c0.6,0,1.2-0.1,1.7-0.5v-1.6H91z"/>
<polygon fill="#FFFFFF" points="97.7,239.9 97.7,239.3 94.7,239.3 94.7,243.4 97.9,243.4 97.9,242.8 95.5,242.8 95.5,241.6
	97.5,241.6 97.5,241 95.5,241 95.5,239.9 "/>
<polygon fill="#FFFFFF" points="104.5,243.4 104.5,239.3 103.7,239.3 103.7,242.2 101.6,239.3 100.9,239.3 100.9,243.4 101.6,243.4
	101.6,240.4 103.7,243.4 "/>
<polygon fill="#FFFFFF" points="110.7,239.9 110.7,239.3 107.7,239.3 107.7,243.4 110.7,243.4 110.7,242.8 108.4,242.8 108.4,241.6
	110.5,241.6 110.5,241 108.4,241 108.4,239.9 "/>
<path fill="#FFFFFF" d="M114.5,241.6v-1.7h1.1c0.6,0,1,0.2,1,0.8c0,0.5-0.4,0.8-1,0.8H114.5z M116.5,243.4h0.7l-1-1.3
	c0.6-0.2,1-0.7,1-1.4c0-0.8-0.6-1.3-1.7-1.3h-1.7v4.1h0.6v-1.2h1.1h0.1L116.5,243.4z"/>
<path fill="#FFFFFF" d="M120.3,242.7c-0.1,0-0.4,0.1-0.4,0.4c0,0.2,0.2,0.5,0.4,0.5c0.2,0,0.4-0.2,0.4-0.5
	C120.7,242.8,120.6,242.7,120.3,242.7z M120.3,240.9c-0.1,0-0.4,0.2-0.4,0.5s0.2,0.4,0.4,0.4c0.2,0,0.4-0.1,0.4-0.4
	S120.6,240.9,120.3,240.9z"/>
<polygon fill="#FFFFFF" points="124.4,242.8 124.4,239.3 123.7,239.3 123.7,243.4 126.2,243.4 126.2,242.8 "/>
<path fill="#FFFFFF" d="M131.5,241.8H130l0.7-1.8L131.5,241.8z M131.8,242.4l0.5,1h0.7l-1.8-4.1h-0.7l-1.9,4.1h0.7l0.5-1H131.8z"/>
<polygon fill="#FFFFFF" points="138.5,243.4 139.3,243.4 137.5,241 139.2,239.3 138.4,239.3 136.3,241.4 136.3,239.3 135.6,239.3
	135.6,243.4 136.3,243.4 136.3,242.3 137.1,241.6 "/>
<polygon fill="#FFFFFF" points="145,239.9 145,239.3 141.6,239.3 141.6,239.9 142.9,239.9 142.9,243.4 143.7,243.4 143.7,239.9 "/>
<path fill="#FFFFFF" d="M149.3,239.9c0.8,0,1.6,0.6,1.6,1.4s-0.7,1.4-1.6,1.4c-0.8,0-1.4-0.6-1.4-1.4S148.5,239.9,149.3,239.9z
	 M149.3,239.2c-1.2,0-2.2,1-2.2,2.2c0,1.2,1,2,2.2,2c1.3,0,2.3-0.8,2.3-2C151.6,240.2,150.6,239.2,149.3,239.2z"/>
<path fill="#FFFFFF" d="M155.8,239.2c-0.8,0-1.4,0.5-1.4,1.2c0,1.4,2.2,1,2.2,1.9c0,0.2-0.2,0.5-0.7,0.5s-1-0.2-1.4-0.6l-0.2,0.6
	c0.4,0.4,1,0.6,1.7,0.6c0.8,0,1.6-0.4,1.6-1.2c0-1.4-2.3-1-2.3-1.9c0-0.2,0.2-0.4,0.7-0.4c0.2,0,0.7,0.1,1.2,0.4l0.2-0.6
	C156.9,239.4,156.4,239.2,155.8,239.2z"/>
<polygon fill="#FFFFFF" points="163.3,239.9 163.3,239.3 160.4,239.3 160.4,243.4 163.4,243.4 163.4,242.8 161.1,242.8 161.1,241.6
	163,241.6 163,241 161.1,241 161.1,239.9 "/>
<path fill="#FFFFFF" d="M166.5,242.7c-0.2,0-0.4,0.2-0.4,0.4s0,0.2,0.1,0.4l-0.2,0.5h0.4l0.4-0.5c0.1-0.1,0.1-0.2,0.1-0.4
	C166.9,242.8,166.7,242.7,166.5,242.7z"/>
<path fill="#FFFFFF" d="M176.4,241.4v1.2c-0.2,0.1-0.6,0.2-1,0.2c-0.8,0-1.4-0.6-1.4-1.4c0-0.8,0.6-1.4,1.4-1.4c0.5,0,1,0.1,1.2,0.5
	l0.5-0.6c-0.5-0.4-1.1-0.6-1.7-0.6c-1.2,0-2.2,1-2.2,2.2c0,1.2,1,2,2.2,2c0.6,0,1.2-0.1,1.7-0.5v-1.6H176.4z"/>
<polygon fill="#FFFFFF" points="180.9,242.8 180.9,239.3 180.2,239.3 180.2,243.4 182.7,243.4 182.7,242.8 "/>
<path fill="#FFFFFF" d="M189.1,239.3h-0.7v2.4c0,0.7-0.5,1.1-1.1,1.1c-0.7,0-1.1-0.4-1.1-1.1v-2.4h-0.7v2.4c0,1.1,0.6,1.7,1.8,1.7
	c1.1,0,1.8-0.6,1.8-1.7V239.3z"/>
<polygon fill="#FFFFFF" points="195.1,239.9 195.1,239.3 191.8,239.3 191.8,239.9 193.1,239.9 193.1,243.4 193.8,243.4 193.8,239.9
	"/>
<polygon fill="#FFFFFF" points="200.9,239.9 200.9,239.3 197.9,239.3 197.9,243.4 200.9,243.4 200.9,242.8 198.6,242.8 198.6,241.6
	200.6,241.6 200.6,241 198.6,241 198.6,239.9 "/>
<polygon fill="#FFFFFF" points="207.6,243.4 207.6,239.3 206.9,239.3 206.9,242.2 204.6,239.3 204,239.3 204,243.4 204.6,243.4
	204.6,240.4 206.9,243.4 "/>
<path fill="#FFFFFF" d="M211,242.7c-0.2,0-0.4,0.2-0.4,0.4s0,0.2,0.1,0.4l-0.2,0.5h0.4l0.4-0.5c0-0.1,0.1-0.2,0.1-0.4
	C211.3,242.8,211.1,242.7,211,242.7z"/>
<path fill="#FFFFFF" d="M219.4,239.2c-1,0-1.6,0.5-1.6,1.2c0,1.4,2.3,1,2.3,1.9c0,0.2-0.4,0.5-0.8,0.5c-0.4,0-1-0.2-1.3-0.6
	l-0.4,0.6c0.5,0.4,1.1,0.6,1.7,0.6c1,0,1.6-0.4,1.6-1.2c0-1.4-2.2-1-2.2-1.9c0-0.2,0.2-0.4,0.6-0.4c0.4,0,0.8,0.1,1.2,0.4l0.4-0.6
	C220.5,239.4,219.9,239.2,219.4,239.2z"/>
<polygon fill="#FFFFFF" points="226.9,239.9 226.9,239.3 223.9,239.3 223.9,243.4 227,243.4 227,242.8 224.6,242.8 224.6,241.6
	226.6,241.6 226.6,241 224.6,241 224.6,239.9 "/>
<polygon fill="#FFFFFF" points="233.6,243.4 233.6,239.3 232.9,239.3 232.9,242.2 230.7,239.3 230,239.3 230,243.4 230.7,243.4
	230.7,240.4 232.9,243.4 "/>
<polygon fill="#FFFFFF" points="240.4,243.4 240.4,239.3 239.7,239.3 239.7,242.2 237.6,239.3 236.8,239.3 236.8,243.4 237.6,243.4
	237.6,240.4 239.7,243.4 "/>
<polygon fill="#FFFFFF" points="246.7,239.9 246.7,239.3 243.7,239.3 243.7,243.4 246.8,243.4 246.8,242.8 244.4,242.8 244.4,241.6
	246.4,241.6 246.4,241 244.4,241 244.4,239.9 "/>
<path fill="#FFFFFF" d="M250.5,239.9h0.8c0.7,0,1.1,0.2,1.1,0.8c0,0.5-0.4,0.8-1.1,0.8h-0.8V239.9z M249.8,239.3v4.1h0.7v-1.2h1
	c1,0,1.6-0.6,1.6-1.6c0-0.8-0.6-1.3-1.6-1.3H249.8z"/>
<path fill="#FFFFFF" d="M256.1,242.7c-0.2,0-0.4,0.2-0.4,0.4s0,0.2,0.1,0.4l-0.2,0.5h0.4l0.4-0.5c0.1-0.1,0.1-0.2,0.1-0.4
	C256.4,242.8,256.3,242.7,256.1,242.7z"/>
<path fill="#FFFFFF" d="M264.5,239.2c-0.8,0-1.6,0.5-1.6,1.2c0,1.4,2.3,1,2.3,1.9c0,0.2-0.2,0.5-0.7,0.5c-0.5,0-1-0.2-1.4-0.6
	l-0.4,0.6c0.5,0.4,1.1,0.6,1.8,0.6c0.8,0,1.6-0.4,1.6-1.2c0-1.4-2.3-1-2.3-1.9c0-0.2,0.2-0.4,0.7-0.4c0.2,0,0.7,0.1,1.2,0.4l0.2-0.6
	C265.6,239.4,265.1,239.2,264.5,239.2z"/>
<path fill="#FFFFFF" d="M272.5,239.3h-0.7v2.4c0,0.7-0.4,1.1-1.1,1.1c-0.7,0-1.1-0.4-1.1-1.1v-2.4h-0.7v2.4c0,1.1,0.7,1.7,1.8,1.7
	c1.1,0,1.8-0.6,1.8-1.7V239.3z"/>
<polygon fill="#FFFFFF" points="276.4,242.8 276.4,239.3 275.7,239.3 275.7,243.4 278.2,243.4 278.2,242.8 "/>
<polygon fill="#FFFFFF" points="283.8,239.9 283.8,239.3 281.1,239.3 281.1,243.4 281.8,243.4 281.8,241.7 283.7,241.7 283.7,241.1
	281.8,241.1 281.8,239.9 "/>
<rect x="286.6" y="239.2" fill="#FFFFFF" width="0.7" height="4.2"/>
<polygon fill="#FFFFFF" points="293.5,239.9 293.5,239.3 290.1,239.3 290.1,239.9 291.4,239.9 291.4,243.4 292.1,243.4 292.1,239.9
	"/>
<polygon fill="#FFFFFF" points="299.1,239.9 299.1,239.3 295.7,239.3 295.7,239.9 297.1,239.9 297.1,243.4 297.8,243.4 297.8,239.9
	"/>
<path fill="#FFFFFF" d="M60.7,318h-1.6l0.8-1.9L60.7,318z M61,318.6l0.5,1h0.7l-1.8-4.2h-0.7l-1.8,4.2h0.7l0.4-1H61z"/>
<polygon fill="#FFFFFF" points="65.6,318.9 65.6,315.3 64.9,315.3 64.9,319.5 67.4,319.5 67.4,318.9 "/>
<polygon fill="#FFFFFF" points="70.9,318.9 70.9,315.3 70.2,315.3 70.2,319.5 72.7,319.5 72.7,318.9 "/>
<polygon fill="#FFFFFF" points="78.5,315.9 78.5,315.3 75.6,315.3 75.6,319.5 78.6,319.5 78.6,318.9 76.3,318.9 76.3,317.7
	78.3,317.7 78.3,317.1 76.3,317.1 76.3,315.9 "/>
<path fill="#FFFFFF" d="M82.3,317.6v-1.7h1c0.7,0,1.1,0.4,1.1,0.8c0,0.6-0.4,0.8-1.1,0.8H82.3z M84.3,319.5h0.8l-1-1.4
	c0.6-0.2,0.8-0.6,0.8-1.3c0-0.8-0.6-1.4-1.7-1.4h-1.7v4.2h0.7v-1.3h1c0.1,0,0.1,0,0.2,0L84.3,319.5z"/>
<path fill="#FFFFFF" d="M91,317.5v1.1c-0.4,0.2-0.7,0.4-1,0.4c-0.8,0-1.6-0.7-1.6-1.4c0-0.8,0.7-1.6,1.6-1.6c0.4,0,0.8,0.2,1.2,0.5
	l0.4-0.5c-0.4-0.4-1-0.6-1.6-0.6c-1.3,0-2.3,1-2.3,2.2c0,1.1,1,2,2.2,2c0.6,0,1.2-0.2,1.7-0.5v-1.6H91z"/>
<polygon fill="#FFFFFF" points="97.7,315.9 97.7,315.3 94.7,315.3 94.7,319.5 97.9,319.5 97.9,318.9 95.5,318.9 95.5,317.7
	97.5,317.7 97.5,317.1 95.5,317.1 95.5,315.9 "/>
<polygon fill="#FFFFFF" points="104.5,319.5 104.5,315.3 103.7,315.3 103.7,318.3 101.6,315.3 100.9,315.3 100.9,319.5 101.6,319.5
	101.6,316.5 103.7,319.5 "/>
<polygon fill="#FFFFFF" points="110.7,315.9 110.7,315.3 107.7,315.3 107.7,319.5 110.7,319.5 110.7,318.9 108.4,318.9 108.4,317.7
	110.5,317.7 110.5,317.1 108.4,317.1 108.4,315.9 "/>
<path fill="#FFFFFF" d="M114.5,317.6v-1.7h1.1c0.6,0,1,0.4,1,0.8c0,0.6-0.4,0.8-1,0.8H114.5z M116.5,319.5h0.7l-1-1.4
	c0.6-0.2,1-0.6,1-1.3c0-0.8-0.6-1.4-1.7-1.4h-1.7v4.2h0.6v-1.3h1.1h0.1L116.5,319.5z"/>
<path fill="#FFFFFF" d="M120.3,318.8c-0.1,0-0.4,0.1-0.4,0.4c0,0.2,0.2,0.4,0.4,0.4c0.2,0,0.4-0.1,0.4-0.4
	C120.7,318.9,120.6,318.8,120.3,318.8z M120.3,317c-0.1,0-0.4,0.1-0.4,0.4s0.2,0.5,0.4,0.5c0.2,0,0.4-0.2,0.4-0.5
	S120.6,317,120.3,317z"/>
<polygon fill="#FFFFFF" points="124.4,318.9 124.4,315.3 123.7,315.3 123.7,319.5 126.2,319.5 126.2,318.9 "/>
<path fill="#FFFFFF" d="M131.5,318H130l0.7-1.9L131.5,318z M131.8,318.6l0.5,1h0.7l-1.8-4.2h-0.7l-1.9,4.2h0.7l0.5-1H131.8z"/>
<polygon fill="#FFFFFF" points="138.5,319.5 139.3,319.5 137.5,317.1 139.2,315.3 138.4,315.3 136.3,317.5 136.3,315.3 135.6,315.3
	135.6,319.5 136.3,319.5 136.3,318.5 137.1,317.7 "/>
<polygon fill="#FFFFFF" points="145,315.9 145,315.3 141.6,315.3 141.6,315.9 142.9,315.9 142.9,319.5 143.7,319.5 143.7,315.9 "/>
<path fill="#FFFFFF" d="M149.3,315.9c0.8,0,1.6,0.7,1.6,1.6c0,0.7-0.7,1.4-1.6,1.4c-0.8,0-1.4-0.7-1.4-1.4
	C147.9,316.7,148.5,315.9,149.3,315.9z M149.3,315.3c-1.2,0-2.2,1-2.2,2.2c0,1.1,1,2,2.2,2c1.3,0,2.3-1,2.3-2
	C151.6,316.3,150.6,315.3,149.3,315.3z"/>
<path fill="#FFFFFF" d="M155.8,315.3c-0.8,0-1.4,0.5-1.4,1.2c0,1.4,2.2,1,2.2,1.8c0,0.4-0.2,0.6-0.7,0.6s-1-0.2-1.4-0.6l-0.2,0.6
	c0.4,0.4,1,0.6,1.7,0.6c0.8,0,1.6-0.5,1.6-1.2c0-1.4-2.3-1-2.3-1.9c0-0.2,0.2-0.5,0.7-0.5c0.2,0,0.7,0.1,1.2,0.5l0.2-0.6
	C156.9,315.5,156.4,315.3,155.8,315.3z"/>
<polygon fill="#FFFFFF" points="163.3,315.9 163.3,315.3 160.4,315.3 160.4,319.5 163.4,319.5 163.4,318.9 161.1,318.9 161.1,317.7
	163,317.7 163,317.1 161.1,317.1 161.1,315.9 "/>
<path fill="#FFFFFF" d="M166.5,318.8c-0.2,0-0.4,0.1-0.4,0.4c0,0.1,0,0.2,0.1,0.4L166,320h0.4l0.4-0.5c0.1-0.1,0.1-0.2,0.1-0.4
	C166.9,318.9,166.7,318.8,166.5,318.8z"/>
<path fill="#FFFFFF" d="M176.4,317.5v1.1c-0.2,0.2-0.6,0.4-1,0.4c-0.8,0-1.4-0.7-1.4-1.4c0-0.8,0.6-1.6,1.4-1.6c0.5,0,1,0.2,1.2,0.5
	l0.5-0.5c-0.5-0.4-1.1-0.6-1.7-0.6c-1.2,0-2.2,1-2.2,2.2c0,1.1,1,2,2.2,2c0.6,0,1.2-0.2,1.7-0.5v-1.6H176.4z"/>
<polygon fill="#FFFFFF" points="180.9,318.9 180.9,315.3 180.2,315.3 180.2,319.5 182.7,319.5 182.7,318.9 "/>
<path fill="#FFFFFF" d="M189.1,315.3h-0.7v2.4c0,0.7-0.5,1.2-1.1,1.2c-0.7,0-1.1-0.5-1.1-1.2v-2.4h-0.7v2.4c0,1.2,0.6,1.8,1.8,1.8
	c1.1,0,1.8-0.6,1.8-1.8V315.3z"/>
<polygon fill="#FFFFFF" points="195.1,315.9 195.1,315.3 191.8,315.3 191.8,315.9 193.1,315.9 193.1,319.5 193.8,319.5 193.8,315.9
	"/>
<polygon fill="#FFFFFF" points="200.9,315.9 200.9,315.3 197.9,315.3 197.9,319.5 200.9,319.5 200.9,318.9 198.6,318.9 198.6,317.7
	200.6,317.7 200.6,317.1 198.6,317.1 198.6,315.9 "/>
<polygon fill="#FFFFFF" points="207.6,319.5 207.6,315.3 206.9,315.3 206.9,318.3 204.6,315.3 204,315.3 204,319.5 204.6,319.5
	204.6,316.5 206.9,319.5 "/>
<path fill="#FFFFFF" d="M211,318.8c-0.2,0-0.4,0.1-0.4,0.4c0,0.1,0,0.2,0.1,0.4l-0.2,0.5h0.4l0.4-0.5c0-0.1,0.1-0.2,0.1-0.4
	C211.3,318.9,211.1,318.8,211,318.8z"/>
<polygon fill="#FFFFFF" points="221,315.9 221,315.3 218,315.3 218,319.5 221.1,319.5 221.1,318.9 218.7,318.9 218.7,317.7
	220.7,317.7 220.7,317.1 218.7,317.1 218.7,315.9 "/>
<path fill="#FFFFFF" d="M227,317.5v1.1c-0.4,0.2-0.7,0.4-1,0.4c-0.8,0-1.6-0.7-1.6-1.4c0-0.8,0.6-1.6,1.6-1.6c0.4,0,0.8,0.2,1.2,0.5
	l0.4-0.5c-0.5-0.4-1-0.6-1.6-0.6c-1.3,0-2.3,1-2.3,2.2c0,1.1,1,2,2.2,2c0.6,0,1.2-0.2,1.7-0.5v-1.6H227z"/>
<path fill="#FFFFFF" d="M233.6,317.5v1.1c-0.4,0.2-0.7,0.4-1,0.4c-0.8,0-1.6-0.7-1.6-1.4c0-0.8,0.7-1.6,1.6-1.6
	c0.4,0,0.8,0.2,1.2,0.5l0.4-0.5c-0.4-0.4-1-0.6-1.6-0.6c-1.3,0-2.3,1-2.3,2.2c0,1.1,1,2,2.2,2c0.6,0,1.2-0.2,1.7-0.5v-1.6H233.6z"/>
<path fill="#FFFFFF" d="M237.4,318.8c-0.2,0-0.4,0.1-0.4,0.4c0,0.1,0,0.2,0.1,0.4L237,320h0.4l0.4-0.5c0.1-0.1,0.1-0.2,0.1-0.4
	C237.8,318.9,237.7,318.8,237.4,318.8z"/>
<path fill="#FFFFFF" d="M245.9,315.3c-0.8,0-1.6,0.5-1.6,1.2c0,1.4,2.3,1,2.3,1.8c0,0.4-0.2,0.6-0.7,0.6c-0.5,0-1.1-0.2-1.4-0.6
	l-0.4,0.6c0.5,0.4,1.1,0.6,1.8,0.6c0.8,0,1.6-0.5,1.6-1.2c0-1.4-2.3-1-2.3-1.9c0-0.2,0.2-0.5,0.7-0.5c0.2,0,0.7,0.1,1.2,0.5l0.2-0.6
	C246.9,315.5,246.4,315.3,245.9,315.3z"/>
<polygon fill="#FFFFFF" points="253.3,315.9 253.3,315.3 250.4,315.3 250.4,319.5 253.4,319.5 253.4,318.9 251,318.9 251,317.7
	253.1,317.7 253.1,317.1 251,317.1 251,315.9 "/>
<polygon fill="#FFFFFF" points="260,319.5 260,315.3 259.3,315.3 259.3,318.3 257.2,315.3 256.4,315.3 256.4,319.5 257.2,319.5
	257.2,316.5 259.3,319.5 "/>
<polygon fill="#FFFFFF" points="266.9,319.5 266.9,315.3 266.3,315.3 266.3,318.3 264,315.3 263.3,315.3 263.3,319.5 264,319.5
	264,316.5 266.3,319.5 "/>
<polygon fill="#FFFFFF" points="273.1,315.9 273.1,315.3 270.3,315.3 270.3,319.5 273.3,319.5 273.3,318.9 270.9,318.9 270.9,317.7
	272.9,317.7 272.9,317.1 270.9,317.1 270.9,315.9 "/>
<path fill="#FFFFFF" d="M277,315.9h1c0.6,0,1,0.4,1,0.8c0,0.6-0.4,0.8-1,0.8h-1V315.9z M276.3,315.3v4.2h0.7v-1.3h1
	c1.1,0,1.7-0.5,1.7-1.4c0-0.8-0.6-1.4-1.7-1.4H276.3z"/>
<path fill="#FFFFFF" d="M282.5,318.8c-0.1,0-0.4,0.1-0.4,0.4c0,0.1,0.1,0.2,0.2,0.4l-0.2,0.5h0.4l0.4-0.5c0-0.1,0-0.2,0-0.4
	C282.9,318.9,282.8,318.8,282.5,318.8z"/>
<path fill="#FFFFFF" d="M290.9,315.3c-0.8,0-1.4,0.5-1.4,1.2c0,1.4,2.3,1,2.3,1.8c0,0.4-0.4,0.6-0.8,0.6c-0.5,0-1-0.2-1.4-0.6
	l-0.2,0.6c0.4,0.4,1,0.6,1.7,0.6c1,0,1.6-0.5,1.6-1.2c0-1.4-2.3-1-2.3-1.9c0-0.2,0.4-0.5,0.7-0.5c0.4,0,0.7,0.1,1.2,0.5l0.4-0.6
	C292,315.5,291.5,315.3,290.9,315.3z"/>
<path fill="#FFFFFF" d="M299,315.3h-0.6v2.4c0,0.7-0.5,1.2-1.2,1.2c-0.6,0-1.1-0.5-1.1-1.2v-2.4h-0.7v2.4c0,1.2,0.7,1.8,1.8,1.8
	c1.2,0,1.8-0.6,1.8-1.8V315.3z"/>
<polygon fill="#FFFFFF" points="303,318.9 303,315.3 302.2,315.3 302.2,319.5 304.8,319.5 304.8,318.9 "/>
<polygon fill="#FFFFFF" points="310.4,315.9 310.4,315.3 307.5,315.3 307.5,319.5 308.2,319.5 308.2,317.9 310.2,317.9 310.2,317.1
	308.2,317.1 308.2,315.9 "/>
<rect x="313.2" y="315.4" fill="#FFFFFF" width="0.7" height="4.2"/>
<polygon fill="#FFFFFF" points="320,315.9 320,315.3 316.7,315.3 316.7,315.9 318,315.9 318,319.5 318.7,319.5 318.7,315.9 "/>
<polygon fill="#FFFFFF" points="325.6,315.9 325.6,315.3 322.2,315.3 322.2,315.9 323.5,315.9 323.5,319.5 324.2,319.5 324.2,315.9
	"/>
<polygon fill="#FFFFFF" points="357.5,165.6 357.5,161.4 356.8,161.4 356.8,163.2 354.7,163.2 354.7,161.4 353.9,161.4 353.9,165.6
	354.7,165.6 354.7,163.8 356.8,163.8 356.8,165.6 "/>
<polygon fill="#FFFFFF" points="363.8,162 363.8,161.4 360.8,161.4 360.8,165.6 363.9,165.6 363.9,165 361.5,165 361.5,163.8
	363.5,163.8 363.5,163.2 361.5,163.2 361.5,162 "/>
<polygon fill="#FFFFFF" points="367.6,164.8 367.6,161.4 366.9,161.4 366.9,165.6 369.4,165.6 369.4,164.8 "/>
<path fill="#FFFFFF" d="M358.6,115.2c2,0,3.2,1.1,3.2,3c0,1.9-1.3,3.1-3.4,3.1c-2.3,0-3.4-1.7-3.4-3
	C355.1,116.7,356.5,115.2,358.6,115.2z M359,108.7c-3.6,0-5.8,3-5.8,7.3c0,4.3,2,6.7,5.4,6.7c2.9,0,4.7-1.8,4.7-4.6
	c0-2.6-1.7-4.3-4.3-4.3c-2,0-3.6,0.8-4.2,2.5c-0.2-3.8,1.3-6.2,4.3-6.2c1,0,2.3,0.4,3.1,0.8l0.6-1.2
	C361.7,109.2,360.2,108.7,359,108.7z"/>
<path fill="#FFFFFF" d="M371,110.2c2.6,0,4.1,1.8,4.1,5.6c0,3.7-1.4,5.6-4.1,5.6c-2.8,0-4.2-1.9-4.2-5.6
	C366.8,112,368.2,110.2,371,110.2z M371,108.9c-3.7,0-5.8,2.4-5.8,7c0,4.4,2,7,5.8,7c3.6,0,5.6-2.5,5.6-7
	C376.6,111.3,374.6,108.9,371,108.9z"/>
<path fill="#FFFFFF" d="M379.8,120.9c-0.6,0-1,0.4-1,1c0,0.4,0.1,0.7,0.4,0.8l-0.6,1.4h0.8l1-1.4c0.1-0.2,0.2-0.5,0.2-0.8
	C380.6,121.2,380.3,120.9,379.8,120.9z"/>
<rect x="382.9" y="116.1" fill="#FFFFFF" width="4.7" height="1.2"/>
<polygon fill="#FFFFFF" points="355.7,154.9 355.7,140.9 351.3,140.9 351.3,142.5 354.2,142.5 354.2,154.9 "/>
<polygon fill="#FFFFFF" points="363.1,154.9 363.1,140.9 358.7,140.9 358.7,142.5 361.5,142.5 361.5,154.9 "/>
<path fill="#FFFFFF" d="M372.4,142.3c2.8,0,4.2,1.8,4.2,5.6c0,3.7-1.4,5.6-4.2,5.6c-2.6,0-4.1-1.9-4.1-5.6
	C368.4,144.1,369.8,142.3,372.4,142.3z M372.4,140.9c-3.6,0-5.6,2.5-5.6,7c0,4.4,2,7,5.6,7c3.7,0,5.8-2.5,5.8-7
	C378.2,143.5,376.2,140.9,372.4,140.9z"/>
<path fill="#FFFFFF" d="M381.2,152.9c-0.5,0-0.8,0.5-0.8,1c0,0.4,0.1,0.7,0.4,0.8l-0.6,1.4h0.8l1-1.3c0.1-0.4,0.2-0.6,0.2-1
	C382.2,153.3,381.8,152.9,381.2,152.9z"/>
<rect x="384.5" y="148.2" fill="#FFFFFF" width="4.7" height="1.2"/>
<polygon fill="#FFFFFF" points="357.5,132.6 357.5,128.4 356.8,128.4 356.8,130.2 354.7,130.2 354.7,128.4 353.9,128.4 353.9,132.6
	354.7,132.6 354.7,130.8 356.8,130.8 356.8,132.6 "/>
<path fill="#FFFFFF" d="M363.2,131.1h-1.6l0.8-1.9L363.2,131.1z M363.5,131.7l0.4,1h0.7l-1.8-4.2h-0.7l-1.8,4.2h0.7l0.4-1H363.5z"/>
<polygon fill="#FFFFFF" points="368.1,132 368.1,128.4 367.4,128.4 367.4,132.6 369.9,132.6 369.9,132 "/>
<polygon fill="#FFFFFF" points="374.6,132.6 376.3,128.4 375.6,128.4 374.2,131.8 372.9,128.4 372.2,128.4 373.9,132.6 "/>
<polygon fill="#FFFFFF" points="357.5,242.2 357.5,238.1 356.8,238.1 356.8,239.9 354.7,239.9 354.7,238.1 353.9,238.1 353.9,242.2
	354.7,242.2 354.7,240.5 356.8,240.5 356.8,242.2 "/>
<polygon fill="#FFFFFF" points="363.8,238.7 363.8,238.1 360.8,238.1 360.8,242.3 363.9,242.3 363.9,241.7 361.5,241.7 361.5,240.5
	363.5,240.5 363.5,239.9 361.5,239.9 361.5,238.7 "/>
<polygon fill="#FFFFFF" points="367.6,241.6 367.6,238.1 366.9,238.1 366.9,242.2 369.4,242.2 369.4,241.6 "/>
<path fill="#FFFFFF" d="M361.9,187.1v-1.6h-8.1v7.2c1-0.2,2.6-0.4,3.6-0.4c2,0,3.4,1,3.4,2.6c0,1.9-1.3,3-3.4,3
	c-1.3,0-2.8-0.5-4-1.3l-0.6,1.3c1.3,0.8,3.1,1.4,4.7,1.4c3,0,4.9-1.8,4.9-4.6c0-2.4-1.9-4.1-4.8-4.1c-0.6,0-1.7,0.1-2.4,0.2v-4
	H361.9z"/>
<path fill="#FFFFFF" d="M368.8,185.5c-1.6,0-3.2,0.7-4.7,1.9l0.7,1.3c1.1-1.1,2.5-1.8,3.8-1.8c1.7,0,2.8,0.8,2.8,2.2
	c0,1-0.7,2.2-1.9,3.4l-5.2,5.6v1.3h9.5v-1.6h-7.6l4.3-4.4c1.4-1.6,2.4-3.2,2.4-4.6C373,186.8,371.5,185.5,368.8,185.5z"/>
<path fill="#FFFFFF" d="M376.9,197.5c-0.5,0-1,0.5-1,1.1c0,0.4,0.1,0.6,0.5,0.8l-0.6,1.4h0.8l1-1.4c0.1-0.2,0.2-0.6,0.2-0.8
	C377.9,198,377.4,197.5,376.9,197.5z"/>
<rect x="380.2" y="192.9" fill="#FFFFFF" width="4.7" height="1.2"/>
<path fill="#FFFFFF" d="M356.7,225.1c-2,0-3.2-1.1-3.2-3c0-1.9,1.3-3.1,3.4-3.1c2.3,0,3.4,1.7,3.4,3
	C360.2,223.7,358.9,225.1,356.7,225.1z M356.3,231.6c3.6,0,5.8-3,5.8-7.3c0-4.3-2-6.7-5.4-6.7c-2.9,0-4.7,1.8-4.7,4.6
	c0,2.8,1.7,4.4,4.3,4.4c2,0,3.6-1,4.2-2.6c0.2,3.8-1.3,6.2-4.3,6.2c-1,0-2.3-0.4-3.1-0.8l-0.6,1.2
	C353.6,231.1,355.1,231.6,356.3,231.6z"/>
<path fill="#FFFFFF" d="M372.7,219.1v-1.4h-8.1v7.1c1-0.2,2.6-0.4,3.6-0.4c2,0,3.2,1,3.2,2.6c0,1.9-1.2,3-3.4,3
	c-1.2,0-2.6-0.5-3.8-1.3l-0.6,1.3c1.3,0.8,3.1,1.4,4.7,1.4c2.9,0,4.8-1.8,4.8-4.6c0-2.4-1.8-4.1-4.7-4.1c-0.7,0-1.7,0.1-2.4,0.2v-4
	H372.7z"/>
<path fill="#FFFFFF" d="M376.2,229.7c-0.5,0-1,0.4-1,1c0,0.4,0.1,0.6,0.5,0.8l-0.7,1.4h1l0.8-1.4c0.2-0.2,0.4-0.5,0.4-0.8
	C377.1,230.1,376.6,229.7,376.2,229.7z"/>
<rect x="379.3" y="224.9" fill="#FFFFFF" width="4.7" height="1.2"/>
<polygon fill="#FFFFFF" points="357.5,209.3 357.5,205.2 356.8,205.2 356.8,207 354.7,207 354.7,205.2 353.9,205.2 353.9,209.3
	354.7,209.3 354.7,207.6 356.8,207.6 356.8,209.3 "/>
<path fill="#FFFFFF" d="M363.2,207.7h-1.6l0.8-1.8L363.2,207.7z M363.5,208.4l0.4,0.8h0.7l-1.8-4.1h-0.7l-1.8,4.1h0.7l0.4-0.8H363.5
	z"/>
<polygon fill="#FFFFFF" points="368.1,208.7 368.1,205.2 367.4,205.2 367.4,209.3 369.9,209.3 369.9,208.7 "/>
<polygon fill="#FFFFFF" points="374.6,209.3 376.3,205.2 375.6,205.2 374.2,208.6 372.9,205.2 372.2,205.2 373.9,209.3 "/>
<polygon fill="#FFFFFF" points="357.5,318.9 357.5,314.7 356.8,314.7 356.8,316.5 354.7,316.5 354.7,314.7 353.9,314.7 353.9,318.9
	354.7,318.9 354.7,317.1 356.8,317.1 356.8,318.9 "/>
<polygon fill="#FFFFFF" points="363.8,315.3 363.8,314.7 360.8,314.7 360.8,318.9 363.9,318.9 363.9,318.3 361.5,318.3 361.5,317.1
	363.5,317.1 363.5,316.5 361.5,316.5 361.5,315.3 "/>
<polygon fill="#FFFFFF" points="367.6,318.2 367.6,314.7 366.9,314.7 366.9,318.9 369.4,318.9 369.4,318.2 "/>
<path fill="#FFFFFF" d="M358.6,268.6c2,0,3.2,1.1,3.2,3c0,1.9-1.3,3.1-3.4,3.1c-2.3,0-3.4-1.7-3.4-3
	C355.1,270.1,356.5,268.6,358.6,268.6z M359,262.1c-3.6,0-5.8,3-5.8,7.3c0,4.3,2,6.7,5.4,6.7c2.9,0,4.7-1.8,4.7-4.6
	c0-2.6-1.7-4.3-4.3-4.3c-2,0-3.6,0.8-4.2,2.5c-0.2-3.8,1.3-6.2,4.3-6.2c1,0,2.3,0.4,3.1,0.8l0.6-1.2
	C361.7,262.6,360.2,262.1,359,262.1z"/>
<path fill="#FFFFFF" d="M370.3,269.5c2.3,0,3.6,1,3.6,2.6c0,1.7-1.3,2.8-3.6,2.8c-2.3,0-3.6-1.1-3.6-2.8
	C366.7,270.4,368,269.5,370.3,269.5z M370.3,263.5c1.9,0,3.1,0.8,3.1,2.3c0,1.6-1.2,2.4-3.1,2.4c-1.9,0-3.1-0.8-3.1-2.4
	C367.2,264.3,368.4,263.5,370.3,263.5z M370.3,262.1c-2.8,0-4.4,1.3-4.4,3.5c0,1.4,0.8,2.5,2.3,3.1c-1.8,0.5-3,1.8-3,3.5
	c0,2.5,2,4,5.2,4c3.1,0,5.2-1.4,5.2-4c0-1.7-1.2-3-3-3.5c1.4-0.6,2.3-1.7,2.3-3.1C374.7,263.5,373,262.1,370.3,262.1z"/>
<path fill="#FFFFFF" d="M378.3,274.3c-0.5,0-0.8,0.4-0.8,1c0,0.4,0.1,0.7,0.4,0.8l-0.6,1.4h0.8l1-1.4c0.1-0.2,0.2-0.5,0.2-0.8
	C379.3,274.6,378.9,274.3,378.3,274.3z"/>
<rect x="381.6" y="269.4" fill="#FFFFFF" width="4.7" height="1.2"/>
<polygon fill="#FFFFFF" points="355.7,308.3 355.7,294.3 351.3,294.3 351.3,295.9 354.2,295.9 354.2,308.3 "/>
<path fill="#FFFFFF" d="M363.8,294.3c-1.6,0-3.2,0.7-4.7,1.9l0.7,1.2c1.1-1.1,2.5-1.7,3.8-1.7c1.7,0,2.8,0.8,2.8,2.2
	c0,0.8-0.7,2.2-1.9,3.4l-5.2,5.6v1.3h9.5v-1.6h-7.4l4.2-4.6c1.4-1.6,2.4-3.1,2.4-4.4C368,295.6,366.4,294.3,363.8,294.3z"/>
<path fill="#FFFFFF" d="M379.5,295.9v-1.6h-8.1v7.1c1.1-0.1,2.6-0.4,3.6-0.4c2,0,3.4,1.1,3.4,2.8c0,1.8-1.3,3-3.4,3
	c-1.3,0-2.8-0.6-3.8-1.4l-0.7,1.3c1.3,1,3.1,1.6,4.7,1.6c3,0,4.9-1.8,4.9-4.6c0-2.4-1.9-4.1-4.8-4.1c-0.6,0-1.6,0-2.3,0.1v-3.8
	H379.5z"/>
<path fill="#FFFFFF" d="M383,306.3c-0.5,0-0.8,0.5-0.8,1c0,0.4,0.1,0.7,0.4,0.8l-0.6,1.4h0.8l1-1.3c0.1-0.4,0.2-0.6,0.2-0.8
	C384,306.7,383.6,306.3,383,306.3z"/>
<rect x="386.3" y="301.6" fill="#FFFFFF" width="4.7" height="1.2"/>
<polygon fill="#FFFFFF" points="357.5,286 357.5,281.8 356.8,281.8 356.8,283.6 354.7,283.6 354.7,281.8 353.9,281.8 353.9,286
	354.7,286 354.7,284.2 356.8,284.2 356.8,286 "/>
<path fill="#FFFFFF" d="M363.2,284.5h-1.6l0.8-1.9L363.2,284.5z M363.5,285.1l0.4,1h0.7l-1.8-4.2h-0.7l-1.8,4.2h0.7l0.4-1H363.5z"/>
<polygon fill="#FFFFFF" points="368.1,285.4 368.1,281.8 367.4,281.8 367.4,286 369.9,286 369.9,285.4 "/>
<polygon fill="#FFFFFF" points="374.6,286 376.3,281.8 375.6,281.8 374.2,285.2 372.9,281.8 372.2,281.8 373.9,286 "/>
<polygon fill="#FFFFFF" points="354.5,399.8 359.3,391.1 357.8,391.1 352.8,400 352.8,401.3 359.5,401.3 359.5,404.9 360.9,404.9
	360.9,401.3 363.1,401.3 363.1,399.8 360.9,399.8 360.9,396.1 359.5,396.1 359.5,399.8 "/>
<path fill="#FFFFFF" d="M370.4,392.3c2.8,0,4.1,1.9,4.1,5.6c0,3.7-1.3,5.6-4.1,5.6c-2.6,0-4.1-1.9-4.1-5.6
	C366.3,394.3,367.8,392.3,370.4,392.3z M370.4,391c-3.7,0-5.8,2.5-5.8,7c0,4.6,2,7,5.8,7c3.7,0,5.8-2.4,5.8-7
	C376.2,393.5,374.1,391,370.4,391z"/>
<path fill="#FFFFFF" d="M379.2,403c-0.5,0-1,0.5-1,1.1c0,0.4,0.1,0.6,0.5,0.8l-0.7,1.4h1l1-1.4c0.1-0.2,0.2-0.5,0.2-0.8
	C380.1,403.5,379.7,403,379.2,403z"/>
<rect x="382.4" y="398.3" fill="#FFFFFF" width="4.7" height="1.2"/>
<polygon fill="#FFFFFF" points="354.5,426.7 359.3,418 357.8,418 352.8,426.9 352.8,428.3 359.5,428.3 359.5,431.9 360.9,431.9
	360.9,428.3 363.1,428.3 363.1,426.7 360.9,426.7 360.9,423 359.5,423 359.5,426.7 "/>
<path fill="#FFFFFF" d="M373.3,419.6V418h-8v7.1c1.1-0.2,2.8-0.4,3.6-0.4c2,0,3.4,1.1,3.4,2.6c0,1.9-1.3,3.1-3.4,3.1
	c-1.3,0-2.8-0.6-3.8-1.4l-0.7,1.3c1.3,1,3.1,1.6,4.7,1.6c3,0,4.9-1.8,4.9-4.6c0-2.4-1.9-4.2-4.8-4.2c-0.6,0-1.6,0.1-2.3,0.2v-3.8
	H373.3z"/>
<path fill="#FFFFFF" d="M376.8,430c-0.5,0-0.8,0.4-0.8,1c0,0.4,0.1,0.7,0.4,0.8l-0.6,1.4h0.8l1-1.4c0.1-0.2,0.2-0.5,0.2-0.8
	C377.7,430.4,377.4,430,376.8,430z"/>
<rect x="380" y="425.2" fill="#FFFFFF" width="4.7" height="1.2"/>
<path fill="#FFFFFF" d="M361.9,446.5v-1.6h-8.1v7.1c1-0.1,2.6-0.2,3.6-0.2c2,0,3.4,1,3.4,2.6c0,1.8-1.3,3-3.4,3
	c-1.3,0-2.8-0.5-4-1.4l-0.6,1.4c1.3,0.8,3.1,1.4,4.7,1.4c3,0,4.9-1.8,4.9-4.6c0-2.4-1.9-4.1-4.8-4.1c-0.6,0-1.7,0.1-2.4,0.2v-4
	H361.9z"/>
<path fill="#FFFFFF" d="M370.2,446.3c2.8,0,4.1,1.9,4.1,5.6c0,3.7-1.3,5.6-4.1,5.6c-2.6,0-4.1-1.9-4.1-5.6
	C366.1,448.2,367.5,446.3,370.2,446.3z M370.2,444.9c-3.7,0-5.8,2.5-5.8,7c0,4.4,2,7,5.8,7c3.7,0,5.8-2.5,5.8-7
	C375.9,447.5,373.9,444.9,370.2,444.9z"/>
<path fill="#FFFFFF" d="M378.9,457c-0.5,0-1,0.5-1,1.1c0,0.4,0.1,0.6,0.5,0.8l-0.6,1.4h0.8l1-1.4c0.1-0.2,0.2-0.6,0.2-0.8
	C379.9,457.3,379.4,457,378.9,457z"/>
<rect x="382.2" y="452.3" fill="#FFFFFF" width="4.7" height="1.2"/>
<path fill="#FFFFFF" d="M356.6,477.8l4.3-4.8V472H353v1.4h6l-4.1,4.6v1h1.7c2.2,0,3.5,1,3.5,2.6c0,1.7-1.3,2.9-3.5,2.9
	c-1.2,0-2.5-0.5-3.6-1.3l-0.6,1.3c1.1,0.8,2.8,1.4,4.3,1.4c3,0,4.9-1.8,4.9-4.3c0-2.3-1.7-3.6-4.2-3.7H356.6z"/>
<path fill="#FFFFFF" d="M369.4,473.3c2.6,0,4.1,1.8,4.1,5.5c0,3.8-1.4,5.6-4.1,5.6c-2.8,0-4.1-1.8-4.1-5.6
	C365.4,475.1,366.7,473.3,369.4,473.3z M369.4,471.8c-3.7,0-5.8,2.5-5.8,7c0,4.6,2,7.1,5.8,7.1c3.7,0,5.8-2.5,5.8-7.1
	C375.2,474.4,373.2,471.8,369.4,471.8z"/>
<path fill="#FFFFFF" d="M378.2,484c-0.6,0-1,0.4-1,1c0,0.4,0.1,0.7,0.5,0.8l-0.7,1.4h0.8l1-1.4c0.2-0.2,0.4-0.5,0.4-0.8
	C379.2,484.3,378.7,484,378.2,484z"/>
<rect x="381.4" y="479.2" fill="#FFFFFF" width="4.7" height="1.2"/>
<path fill="#FFFFFF" d="M61,346.3h-1.6l0.7-1.9L61,346.3z M61.2,346.9l0.4,1h0.8l-1.8-4.2h-0.7l-1.9,4.2h0.7l0.5-1H61.2z"/>
<polygon fill="#FFFFFF" points="65.8,347.2 65.8,343.7 65,343.7 65,347.9 67.6,347.9 67.6,347.2 "/>
<polygon fill="#FFFFFF" points="71.2,347.2 71.2,343.7 70.4,343.7 70.4,347.9 73,347.9 73,347.2 "/>
<polygon fill="#FFFFFF" points="78.7,344.3 78.7,343.7 75.7,343.7 75.7,347.9 78.9,347.9 78.9,347.3 76.5,347.3 76.5,346.1
	78.5,346.1 78.5,345.5 76.5,345.5 76.5,344.3 "/>
<path fill="#FFFFFF" d="M86.9,343.7c-0.8,0-1.6,0.5-1.6,1.2c0,1.4,2.3,1,2.3,1.8c0,0.4-0.2,0.5-0.7,0.5c-0.5,0-1-0.1-1.4-0.6
	l-0.4,0.6c0.5,0.5,1.1,0.7,1.8,0.7c0.8,0,1.6-0.5,1.6-1.2c0-1.4-2.3-1-2.3-1.9c0-0.2,0.2-0.5,0.7-0.5c0.2,0,0.7,0.1,1.2,0.5l0.2-0.7
	C88,343.8,87.5,343.7,86.9,343.7z"/>
<path fill="#FFFFFF" d="M93.8,346.3h-1.6l0.8-1.9L93.8,346.3z M94.1,346.9l0.4,1h0.7l-1.8-4.2h-0.7l-1.8,4.2h0.7l0.4-1H94.1z"/>
<polygon fill="#FFFFFF" points="101.6,347.9 101.6,343.7 100.9,343.7 100.9,346.7 98.7,343.7 98,343.7 98,347.9 98.7,347.9
	98.7,344.9 100.9,347.9 "/>
<path fill="#FFFFFF" d="M105.6,344.3h1c0.8,0,1.4,0.6,1.4,1.6c0,0.8-0.6,1.4-1.3,1.4h-1.1V344.3z M104.8,343.7v4.2h1.7
	c1.3,0,2.2-1,2.2-2.2s-0.8-2-2.2-2H104.8z"/>
<polygon fill="#FFFFFF" points="115.9,347.9 117.2,343.7 116.5,343.7 115.5,347 114.6,343.7 113.8,343.7 112.8,347 111.8,343.7
	111.1,343.7 112.4,347.9 113.1,347.9 114.2,344.6 115.2,347.9 "/>
<rect x="119.9" y="343.7" fill="#FFFFFF" width="0.7" height="4.2"/>
<path fill="#FFFFFF" d="M125.8,343.7c-1.2,0-2.2,1-2.2,2c0,1.2,0.8,2.2,2.2,2.2c0.6,0,1.2-0.2,1.6-0.7l-0.4-0.5
	c-0.4,0.4-0.8,0.6-1.2,0.6c-0.8,0-1.4-0.7-1.4-1.6c0-0.7,0.6-1.4,1.4-1.4c0.4,0,0.8,0.2,1.2,0.6l0.4-0.6
	C127,343.9,126.4,343.7,125.8,343.7z"/>
<polygon fill="#FFFFFF" points="133.8,347.9 133.8,343.7 133.1,343.7 133.1,345.5 130.9,345.5 130.9,343.7 130.2,343.7 130.2,347.9
	130.9,347.9 130.9,346.1 133.1,346.1 133.1,347.9 "/>
<polygon fill="#FFFFFF" points="140.1,344.3 140.1,343.7 137,343.7 137,347.9 140.2,347.9 140.2,347.3 137.8,347.3 137.8,346.1
	139.8,346.1 139.8,345.5 137.8,345.5 137.8,344.3 "/>
<polygon fill="#FFFFFF" points="146.8,347.9 146.8,343.7 146.1,343.7 146.1,346.7 143.9,343.7 143.2,343.7 143.2,347.9 143.9,347.9
	143.9,344.9 146.1,347.9 "/>
<polygon fill="#FFFFFF" points="153,344.3 153,343.7 150,343.7 150,347.9 153,347.9 153,347.3 150.8,347.3 150.8,346.1 152.8,346.1
	152.8,345.5 150.8,345.5 150.8,344.3 "/>
<path fill="#FFFFFF" d="M160.5,344.3h1c0.6,0,1,0.4,1,0.8c0,0.6-0.4,0.8-1,0.8h-1V344.3z M159.8,343.7v4.2h0.7v-1.3h1
	c1.1,0,1.7-0.5,1.7-1.4c0-0.8-0.6-1.4-1.7-1.4H159.8z"/>
<polygon fill="#FFFFFF" points="169,344.3 169,343.7 166,343.7 166,347.9 169,347.9 169,347.3 166.7,347.3 166.7,346.1 168.8,346.1
	168.8,345.5 166.7,345.5 166.7,344.3 "/>
<polygon fill="#FFFFFF" points="175.6,347.9 175.6,343.7 175,343.7 175,346.7 172.8,343.7 172,343.7 172,347.9 172.8,347.9
	172.8,344.9 175,347.9 "/>
<path fill="#FFFFFF" d="M180.3,343.7c-0.8,0-1.6,0.5-1.6,1.2c0,1.4,2.3,1,2.3,1.8c0,0.4-0.2,0.5-0.7,0.5c-0.5,0-1-0.1-1.4-0.6
	l-0.4,0.6c0.5,0.5,1.1,0.7,1.8,0.7c0.8,0,1.6-0.5,1.6-1.2c0-1.4-2.3-1-2.3-1.9c0-0.2,0.2-0.5,0.7-0.5c0.2,0,0.7,0.1,1.2,0.5l0.2-0.7
	C181.4,343.8,180.9,343.7,180.3,343.7z"/>
<polygon fill="#FFFFFF" points="185.5,347.2 185.5,343.7 184.9,343.7 184.9,347.9 187.3,347.9 187.3,347.2 "/>
<polygon fill="#FFFFFF" points="193.2,344.3 193.2,343.7 190.2,343.7 190.2,347.9 193.2,347.9 193.2,347.3 190.9,347.3 190.9,346.1
	193,346.1 193,345.5 190.9,345.5 190.9,344.3 "/>
<path fill="#FFFFFF" d="M197.6,343.7c-1,0-1.6,0.5-1.6,1.2c0,1.4,2.3,1,2.3,1.8c0,0.4-0.2,0.5-0.7,0.5c-0.5,0-1.1-0.1-1.4-0.6
	l-0.4,0.6c0.5,0.5,1.1,0.7,1.7,0.7c1,0,1.7-0.5,1.7-1.2c0-1.4-2.3-1-2.3-1.9c0-0.2,0.2-0.5,0.7-0.5c0.2,0,0.7,0.1,1.2,0.5l0.2-0.7
	C198.7,343.8,198.1,343.7,197.6,343.7z"/>
<polygon fill="#FFFFFF" points="210.3,347.9 210.3,343.7 209.4,343.7 208.1,346.4 206.7,343.7 205.8,343.7 205.8,347.9 206.5,347.9
	206.5,344.8 207.9,347.4 208.3,347.4 209.5,344.8 209.7,347.9 "/>
<polygon fill="#FFFFFF" points="216.5,344.3 216.5,343.7 213.5,343.7 213.5,347.9 216.5,347.9 216.5,347.3 214.2,347.3 214.2,346.1
	216.3,346.1 216.3,345.5 214.2,345.5 214.2,344.3 "/>
<path fill="#FFFFFF" d="M220.4,344.3h1c0.8,0,1.4,0.6,1.4,1.6c0,0.8-0.6,1.4-1.4,1.4h-1V344.3z M219.6,343.7v4.2h1.7
	c1.2,0,2.2-1,2.2-2.2s-1-2-2.2-2H219.6z"/>
<polygon fill="#FFFFFF" points="233.7,347.9 233.7,343.7 233,343.7 233,346.7 230.8,343.7 230.1,343.7 230.1,347.9 230.8,347.9
	230.8,344.9 233,347.9 "/>
<path fill="#FFFFFF" d="M238.9,347.3c-0.1,0-0.2,0-0.4-0.1l1-2.8c0.5,0.2,0.8,0.7,0.8,1.3C240.3,346.6,239.7,347.3,238.9,347.3z
	 M237.3,345.7c0-0.7,0.7-1.4,1.6-1.4h0.1l-0.8,2.8C237.7,346.8,237.3,346.3,237.3,345.7z M240,343.1h-0.5l-0.2,0.6
	c-0.1,0-0.2,0-0.4,0c-1.3,0-2.3,1-2.3,2c0,1,0.6,1.7,1.3,1.9l-0.4,1h0.5l0.2-0.8c0.1,0.1,0.4,0.1,0.6,0.1c1.2,0,2.2-1,2.2-2.2
	c0-0.8-0.6-1.6-1.4-1.9L240,343.1z"/>
<polygon fill="#FFFFFF" points="246.7,344.3 246.7,343.7 243.4,343.7 243.4,344.3 244.8,344.3 244.8,347.9 245.4,347.9 245.4,344.3
	"/>
<polygon fill="#FFFFFF" points="252.3,344.3 252.3,343.7 249,343.7 249,344.3 250.3,344.3 250.3,347.9 251,347.9 251,344.3 "/>
<polygon fill="#FFFFFF" points="258.1,344.3 258.1,343.7 255.1,343.7 255.1,347.9 258.2,347.9 258.2,347.3 255.8,347.3 255.8,346.1
	257.9,346.1 257.9,345.5 255.8,345.5 255.8,344.3 "/>
<path fill="#FFFFFF" d="M262.6,343.7c-0.8,0-1.6,0.5-1.6,1.2c0,1.4,2.3,1,2.3,1.8c0,0.4-0.2,0.5-0.7,0.5c-0.5,0-1-0.1-1.4-0.6
	l-0.4,0.6c0.5,0.5,1.1,0.7,1.8,0.7c0.8,0,1.6-0.5,1.6-1.2c0-1.4-2.3-1-2.3-1.9c0-0.2,0.2-0.5,0.7-0.5c0.2,0,0.7,0.1,1.2,0.5l0.2-0.7
	C263.6,343.8,263.2,343.7,262.6,343.7z"/>
<polygon fill="#FFFFFF" points="271.5,347.9 271.5,343.7 270.6,343.7 269.3,346.4 268,343.7 267.1,343.7 267.1,347.9 267.7,347.9
	267.7,344.8 269.1,347.4 269.5,347.4 270.9,344.8 270.9,347.9 "/>
<path fill="#FFFFFF" d="M276.6,347.3c-0.1,0-0.2,0-0.4-0.1l1-2.8c0.5,0.2,0.8,0.7,0.8,1.3C278.1,346.6,277.5,347.3,276.6,347.3z
	 M275.2,345.7c0-0.7,0.6-1.4,1.4-1.4c0.1,0,0.1,0,0.2,0l-1,2.8C275.4,346.8,275.2,346.3,275.2,345.7z M277.7,343.1h-0.5l-0.2,0.6
	c-0.1,0-0.2,0-0.4,0c-1.2,0-2.2,1-2.2,2c0,1,0.5,1.7,1.2,1.9l-0.2,1h0.4l0.2-0.8c0.2,0.1,0.4,0.1,0.6,0.1c1.2,0,2.2-1,2.2-2.2
	c0-0.8-0.6-1.6-1.3-1.9L277.7,343.1z"/>
<path fill="#FFFFFF" d="M282.4,346v-1.7h1.1c0.6,0,1,0.4,1,0.8c0,0.6-0.4,0.8-1,0.8H282.4z M284.4,347.9h0.7l-1-1.4
	c0.6-0.2,1-0.6,1-1.3c0-1-0.6-1.4-1.7-1.4h-1.7v4.2h0.6v-1.3h1.1h0.1L284.4,347.9z"/>
<polygon fill="#FFFFFF" points="294.8,344.3 294.8,343.7 291.9,343.7 291.9,347.9 292.6,347.9 292.6,346.2 294.5,346.2 294.5,345.5
	292.6,345.5 292.6,344.3 "/>
<path fill="#FFFFFF" d="M299.3,347.3c-0.1,0-0.2,0-0.4-0.1l1-2.8c0.6,0.2,1,0.7,1,1.3C300.9,346.6,300.2,347.3,299.3,347.3z
	 M297.9,345.7c0-0.7,0.7-1.4,1.4-1.4c0.1,0,0.1,0,0.2,0l-1,2.8C298.1,346.8,297.9,346.3,297.9,345.7z M300.4,343.1h-0.4l-0.2,0.6
	c-0.1,0-0.4,0-0.5,0c-1.2,0-2.2,1-2.2,2c0,1,0.5,1.7,1.3,1.9l-0.4,1h0.4l0.4-0.8c0.1,0.1,0.4,0.1,0.5,0.1c1.3,0,2.3-1,2.3-2.2
	c0-0.8-0.6-1.6-1.4-1.9L300.4,343.1z"/>
<path fill="#FFFFFF" d="M305.2,346v-1.7h1c0.6,0,1,0.4,1,0.8c0,0.6-0.4,0.8-1,0.8H305.2z M307.2,347.9h0.8l-1-1.4
	c0.5-0.2,0.8-0.6,0.8-1.3c0-1-0.6-1.4-1.7-1.4h-1.7v4.2h0.7v-1.3h1c0.1,0,0.1,0,0.2,0L307.2,347.9z"/>
<path fill="#FFFFFF" d="M315.5,344.3h1c0.8,0,1.4,0.6,1.4,1.6c0,0.8-0.6,1.4-1.3,1.4h-1.1V344.3z M314.7,343.7v4.2h1.7
	c1.3,0,2.2-1,2.2-2.2s-0.8-2-2.2-2H314.7z"/>
<polygon fill="#FFFFFF" points="324.5,344.3 324.5,343.7 321.5,343.7 321.5,347.9 324.5,347.9 324.5,347.3 322.2,347.3 322.2,346.1
	324.2,346.1 324.2,345.5 322.2,345.5 322.2,344.3 "/>
<path fill="#FFFFFF" d="M334.1,345.8v1.1c-0.2,0.2-0.6,0.4-1,0.4c-0.8,0-1.4-0.7-1.4-1.6c0-0.7,0.6-1.4,1.4-1.4c0.5,0,1,0.2,1.2,0.5
	l0.5-0.5c-0.5-0.4-1.1-0.6-1.7-0.6c-1.2,0-2.2,1-2.2,2c0,1.2,1,2.2,2.2,2.2c0.6,0,1.2-0.2,1.6-0.5v-1.6H334.1z"/>
<path fill="#FFFFFF" d="M338.7,346v-1.7h1c0.6,0,1,0.4,1,0.8c0,0.6-0.4,0.8-1,0.8H338.7z M340.6,347.9h0.7l-0.8-1.4
	c0.5-0.2,0.8-0.6,0.8-1.3c0-1-0.6-1.4-1.7-1.4h-1.7v4.2h0.7v-1.3h1h0.1L340.6,347.9z"/>
<rect x="344.3" y="343.7" fill="#FFFFFF" width="0.7" height="4.2"/>
<polygon fill="#FFFFFF" points="349,347.2 349,343.7 348.4,343.7 348.4,347.9 350.8,347.9 350.8,347.2 "/>
<polygon fill="#FFFFFF" points="354.4,347.2 354.4,343.7 353.7,343.7 353.7,347.9 356.2,347.9 356.2,347.2 "/>
<polygon fill="#FFFFFF" points="362,344.3 362,343.7 359.1,343.7 359.1,347.9 362.1,347.9 362.1,347.3 359.7,347.3 359.7,346.1
	361.7,346.1 361.7,345.5 359.7,345.5 359.7,344.3 "/>
<path fill="#FFFFFF" d="M366.4,343.7c-0.8,0-1.4,0.5-1.4,1.2c0,1.4,2.3,1,2.3,1.8c0,0.4-0.4,0.5-0.8,0.5c-0.5,0-1-0.1-1.4-0.6
	l-0.2,0.6c0.4,0.5,1.1,0.7,1.7,0.7c1,0,1.6-0.5,1.6-1.2c0-1.4-2.3-1-2.3-1.9c0-0.2,0.4-0.5,0.7-0.5c0.4,0,0.7,0.1,1.2,0.5l0.4-0.7
	C367.5,343.8,367,343.7,366.4,343.7z"/>
<path fill="#FFFFFF" d="M58.7,575.3H61c1.2,0,1.9,0.5,1.9,1.3c0,0.8-0.7,1.3-1.9,1.3h-2.3V575.3z M58.7,571.5H61
	c1.1,0,1.6,0.4,1.6,1.2c0,0.7-0.5,1.2-1.6,1.2h-2.3V571.5z M57.2,570.2v9h4c2,0,3.2-1,3.2-2.5c0-1.2-0.7-2-1.9-2.3
	c1-0.2,1.6-1,1.6-2c0-1.3-1.1-2.2-3-2.2H57.2z"/>
<path fill="#FFFFFF" d="M72.5,575.1v-3.6h2.2c1.3,0,2.2,0.6,2.2,1.8c0,1.2-0.8,1.8-2.2,1.8H72.5z M76.7,579.2h1.7l-1.9-3
	c1.1-0.5,1.8-1.6,1.8-3c0-1.9-1.3-3-3.6-3h-3.7v9h1.6v-2.8h2.2c0.1,0,0.2,0,0.4,0L76.7,579.2z"/>
<path fill="#FFFFFF" d="M92.7,570.2h-1.6v5.3c0,1.4-0.8,2.4-2.4,2.4c-1.4,0-2.4-1-2.4-2.4v-5.3h-1.4v5.3c0,2.3,1.4,3.7,3.8,3.7
	c2.5,0,4-1.4,4-3.7V570.2z"/>
<path fill="#FFFFFF" d="M102.5,570.1c-1.9,0-3.2,1-3.2,2.5c0,3.1,4.8,2,4.8,4.1c0,0.7-0.6,1.1-1.7,1.1c-1,0-2.2-0.5-3-1.3l-0.7,1.3
	c1,0.8,2.3,1.4,3.7,1.4c1.9,0,3.4-1,3.4-2.6c0-3.2-4.8-2.2-4.8-4.1c0-0.7,0.5-1,1.4-1c0.7,0,1.7,0.2,2.6,0.8l0.6-1.3
	C104.8,570.5,103.7,570.1,102.5,570.1z"/>
<polygon fill="#FFFFFF" points="63.6,598.4 63.6,597.1 57.2,597.1 57.2,606.1 63.7,606.1 63.7,604.8 58.7,604.8 58.7,602.3
	63.1,602.3 63.1,601 58.7,601 58.7,598.4 "/>
<rect x="70.3" y="597.2" fill="#FFFFFF" width="1.6" height="9.1"/>
<path fill="#FFFFFF" d="M80.4,602v-3.6h2.2c1.4,0,2.2,0.6,2.2,1.8S84,602,82.6,602H80.4z M84.6,606.1h1.8l-2-3
	c1.2-0.5,1.8-1.4,1.8-2.9c0-2-1.3-3.1-3.6-3.1H79v9h1.4v-2.6h2.2c0.1,0,0.2,0,0.4-0.1L84.6,606.1z"/>
<path fill="#FFFFFF" d="M98.2,602.8h-3.4l1.7-4L98.2,602.8z M98.8,604.1l0.8,2h1.6l-3.8-9h-1.6l-4,9h1.6l0.8-2H98.8z"/>
<polygon fill="#FFFFFF" points="110.6,606.1 114.2,597.1 112.6,597.1 109.9,604.5 107,597.1 105.4,597.1 109,606.1 "/>
<path fill="#FFFFFF" d="M124.8,602.8h-3.4l1.7-4L124.8,602.8z M125.4,604.1l0.8,2h1.6l-3.8-9h-1.6l-4.1,9h1.7l0.8-2H125.4z"/>
<polygon fill="#FFFFFF" points="141.6,606.1 141.6,597.1 140.1,597.1 140.1,603.6 135.2,597.1 133.8,597.1 133.8,606.1 135.2,606.1
	135.2,599.6 140.1,606.1 "/>
<polygon fill="#FFFFFF" points="156.5,606.1 156.5,597.1 155,597.1 155,603.6 150.1,597.1 148.7,597.1 148.7,606.1 150.1,606.1
	150.1,599.6 155,606.1 "/>
<path fill="#FFFFFF" d="M174.6,597.1c-1.9,0-3.2,1-3.2,2.4c0,3.2,4.8,2.2,4.8,4.2c0,0.6-0.6,1.1-1.7,1.1c-1,0-2-0.5-3-1.3l-0.7,1.3
	c1,0.8,2.3,1.4,3.7,1.4c2,0,3.4-1.1,3.4-2.6c0.1-3.2-4.8-2.2-4.8-4.2c0-0.6,0.6-1,1.4-1c0.7,0,1.7,0.2,2.6,0.8l0.6-1.3
	C177,597.5,175.8,597.1,174.6,597.1z"/>
<polygon fill="#FFFFFF" points="190.6,598.4 190.6,597.1 183.2,597.1 183.2,598.4 186.1,598.4 186.1,606.1 187.7,606.1 187.7,598.4
	"/>
<rect x="196.4" y="597.2" fill="#FFFFFF" width="1.6" height="9.1"/>
<polygon fill="#FFFFFF" points="206.7,604.8 206.7,597.1 205.1,597.1 205.1,606.1 210.5,606.1 210.5,604.8 "/>
<polygon fill="#FFFFFF" points="218.2,604.8 218.2,597.1 216.8,597.1 216.8,606.1 222.2,606.1 222.2,604.8 "/>
<polygon fill="#FFFFFF" points="63.6,625.5 63.6,624 57.2,624 57.2,633.2 63.7,633.2 63.7,631.7 58.7,631.7 58.7,629.2 63.1,629.2
	63.1,627.9 58.7,627.9 58.7,625.5 "/>
<rect x="70.3" y="624" fill="#FFFFFF" width="1.6" height="9.1"/>
<path fill="#FFFFFF" d="M80.4,629.1v-3.6h2.2c1.4,0,2.2,0.6,2.2,1.7c0,1.3-0.7,1.9-2.2,1.9H80.4z M84.6,633.2h1.8l-2-3.1
	c1.2-0.4,1.8-1.4,1.8-2.9c0-1.9-1.3-3.1-3.6-3.1H79v9.1h1.4v-2.8h2.2c0.1,0,0.2,0,0.4,0L84.6,633.2z"/>
<path fill="#FFFFFF" d="M98.2,629.7h-3.4l1.7-4L98.2,629.7z M98.8,631.1l0.8,2h1.6l-3.8-9.1h-1.6l-4,9.1h1.6l0.8-2H98.8z"/>
<polygon fill="#FFFFFF" points="110.6,633.2 114.2,624 112.6,624 109.9,631.4 107,624 105.4,624 109,633.2 "/>
<path fill="#FFFFFF" d="M124.8,629.7h-3.4l1.7-4L124.8,629.7z M125.4,631.1l0.8,2h1.6l-3.8-9.1h-1.6l-4.1,9.1h1.7l0.8-2H125.4z"/>
<polygon fill="#FFFFFF" points="141.6,633.2 141.6,624 140.1,624 140.1,630.5 135.2,624 133.8,624 133.8,633.2 135.2,633.2
	135.2,626.7 140.1,633.2 "/>
<polygon fill="#FFFFFF" points="156.5,633.2 156.5,624 155,624 155,630.5 150.1,624 148.7,624 148.7,633.2 150.1,633.2 150.1,626.7
	155,633.2 "/>
<path fill="#FFFFFF" d="M174.6,624c-1.9,0-3.2,1-3.2,2.5c0,3.2,4.8,2,4.8,4.1c0,0.7-0.6,1.1-1.7,1.1c-1,0-2-0.5-3-1.3l-0.7,1.3
	c1,0.8,2.3,1.4,3.7,1.4c2,0,3.4-1,3.4-2.5c0.1-3.2-4.8-2.3-4.8-4.2c0-0.6,0.6-1,1.4-1c0.7,0,1.7,0.2,2.6,0.8l0.6-1.3
	C177,624.4,175.8,624,174.6,624z"/>
<path fill="#FFFFFF" d="M185.9,625.5h2c1.3,0,2.2,0.6,2.2,1.7c0,1.3-0.8,1.9-2.2,1.9h-2V625.5z M184.3,624v9.1h1.6v-2.8h2
	c2.3,0,3.6-1.2,3.6-3.2c0-1.9-1.3-3.1-3.6-3.1H184.3z"/>
<path fill="#FFFFFF" d="M202.5,629.7H199l1.7-4L202.5,629.7z M202.9,631.1l1,2h1.6l-4-9.1h-1.6l-4,9.1h1.6l1-2H202.9z"/>
<path fill="#FFFFFF" d="M212.9,629.1v-3.6h2.2c1.3,0,2.2,0.6,2.2,1.7c0,1.3-0.8,1.9-2.2,1.9H212.9z M217.1,633.2h1.7l-2-3.1
	c1.2-0.4,1.9-1.4,1.9-2.9c0-1.9-1.3-3.1-3.6-3.1h-3.7v9.1h1.6v-2.8h2.2c0.1,0,0.2,0,0.4,0L217.1,633.2z"/>
<polygon fill="#FFFFFF" points="231.4,633.2 233.2,633.2 229.5,628 233,624 231.2,624 227,628.7 227,624 225.4,624 225.4,633.2
	227,633.2 227,630.8 228.4,629.1 "/>
<polygon fill="#FFFFFF" points="240.9,631.7 240.9,624 239.4,624 239.4,633.2 244.8,633.2 244.8,631.7 "/>
<rect x="250.9" y="624" fill="#FFFFFF" width="1.6" height="9.1"/>
<polygon fill="#FFFFFF" points="267.4,633.2 267.4,624 265.9,624 265.9,630.5 261.1,624 259.6,624 259.6,633.2 261.1,633.2
	261.1,626.7 265.9,633.2 "/>
<path fill="#FFFFFF" d="M280.7,628.7v2.5c-0.7,0.4-1.4,0.6-2.2,0.6c-1.8,0-3.2-1.4-3.2-3.2s1.4-3.2,3.2-3.2c1,0,1.9,0.5,2.6,1.1
	l0.8-1.1c-0.8-0.8-2.2-1.3-3.5-1.3c-2.8,0-4.8,2-4.8,4.6s2,4.6,4.7,4.6c1.3,0,2.6-0.5,3.6-1.2v-3.2H280.7z"/>
<path fill="#FFFFFF" d="M61.4,543.2h-4.7v1.4h3.1v4.8c0,0.8-0.5,1.4-1.3,1.4c-0.6,0-1.3-0.4-1.9-1.1l-0.7,1.2
	c0.7,0.8,1.7,1.3,2.8,1.3c1.7,0,2.8-1.1,2.8-2.9V543.2z"/>
<path fill="#FFFFFF" d="M76,543.2h-1.6v5.3c0,1.6-0.8,2.4-2.3,2.4c-1.6,0-2.5-0.8-2.5-2.4v-5.3h-1.4v5.3c0,2.4,1.4,3.8,3.8,3.8
	c2.5,0,4-1.4,4-3.8V543.2z"/>
<rect x="82.8" y="543.2" fill="#FFFFFF" width="1.6" height="9.1"/>
<path fill="#FFFFFF" d="M95.5,543.2c-2.6,0-4.7,1.9-4.7,4.6c0,2.5,2,4.6,4.7,4.6c1.2,0,2.5-0.6,3.5-1.6l-1-1
	c-0.6,0.7-1.6,1.1-2.5,1.1c-1.8,0-3.2-1.4-3.2-3.1c0-1.8,1.4-3.2,3.2-3.2c1,0,1.9,0.5,2.5,1.2l1-1.2C98,543.7,96.8,543.2,95.5,543.2
	z"/>
<polygon fill="#FFFFFF" points="111.6,544.6 111.6,543.2 105.2,543.2 105.2,552.2 111.8,552.2 111.8,550.9 106.6,550.9 106.6,548.4
	111.1,548.4 111.1,547 106.6,547 106.6,544.6 "/>
<path fill="#FFFFFF" d="M361.5,539.9v-1.6h-8.1v7.1c1-0.2,2.6-0.4,3.6-0.4c2,0,3.2,1.1,3.2,2.6c0,1.9-1.2,3-3.4,3
	c-1.2,0-2.6-0.5-3.8-1.3l-0.6,1.3c1.3,1,3.1,1.6,4.7,1.6c2.9,0,4.8-1.8,4.8-4.6c0-2.4-1.8-4.2-4.7-4.2c-0.7,0-1.7,0.1-2.4,0.2v-3.8
	H361.5z"/>
<path fill="#FFFFFF" d="M369.8,539.7c2.6,0,4.1,1.8,4.1,5.6c0,3.7-1.4,5.5-4.1,5.5c-2.8,0-4.1-1.8-4.1-5.5
	C365.7,541.5,367,539.7,369.8,539.7z M369.8,538.4c-3.7,0-5.8,2.4-5.8,7c0,4.4,2,7,5.8,7c3.7,0,5.8-2.5,5.8-7
	C375.6,540.8,373.5,538.4,369.8,538.4z"/>
<path fill="#FFFFFF" d="M378.6,550.4c-0.6,0-1,0.4-1,1c0,0.4,0.1,0.7,0.5,0.8l-0.7,1.4h0.8l1-1.4c0.2-0.2,0.4-0.5,0.4-0.8
	C379.5,550.8,379.1,550.4,378.6,550.4z"/>
<rect x="381.7" y="545.6" fill="#FFFFFF" width="4.7" height="1.2"/>
<polygon fill="#FFFFFF" points="354.1,574.1 359,565.3 357.4,565.3 352.4,574.3 352.4,575.5 359.1,575.5 359.1,579.2 360.5,579.2
	360.5,575.5 362.7,575.5 362.7,574.1 360.5,574.1 360.5,570.3 359.1,570.3 359.1,574.1 "/>
<path fill="#FFFFFF" d="M368.7,565.3c-1.7,0-3.4,0.7-4.7,1.9l0.7,1.2c1.1-1.1,2.5-1.7,3.7-1.7c1.8,0,2.8,0.8,2.8,2.2
	c0,0.8-0.7,2.2-1.8,3.4l-5.3,5.6v1.3h9.6v-1.6h-7.6l4.3-4.4c1.4-1.6,2.4-3.2,2.4-4.6C372.9,566.6,371.2,565.3,368.7,565.3z"/>
<path fill="#FFFFFF" d="M376.8,577.3c-0.6,0-1,0.5-1,1.1c0,0.2,0.1,0.6,0.5,0.8l-0.7,1.4h0.8l1-1.4c0.2-0.4,0.4-0.6,0.4-0.8
	C377.7,577.7,377.3,577.3,376.8,577.3z"/>
<rect x="379.9" y="572.7" fill="#FFFFFF" width="4.7" height="1.2"/>
<path fill="#FFFFFF" d="M356.2,598.2l4.3-4.8v-1.1h-8.1v1.4h6l-4,4.6v1h1.7c2.2,0,3.5,1,3.5,2.6c0,1.7-1.3,2.9-3.5,2.9
	c-1.3,0-2.6-0.5-3.6-1.3l-0.7,1.3c1.2,0.8,2.9,1.4,4.4,1.4c3,0,4.8-1.8,4.8-4.3c0-2.3-1.7-3.6-4.1-3.7H356.2z"/>
<path fill="#FFFFFF" d="M372,593.8v-1.4h-8.1v7.1c1-0.2,2.6-0.4,3.6-0.4c2,0,3.2,1.1,3.2,2.6c0,1.9-1.2,3-3.4,3
	c-1.2,0-2.6-0.5-3.8-1.3l-0.6,1.3c1.2,1,3.1,1.4,4.7,1.4c2.9,0,4.8-1.8,4.8-4.6c0-2.3-1.8-4.1-4.7-4.1c-0.7,0-1.7,0.1-2.4,0.2v-4
	H372z"/>
<path fill="#FFFFFF" d="M375.5,604.3c-0.6,0-1,0.4-1,1c0,0.4,0.1,0.7,0.5,0.8l-0.7,1.4h1l0.8-1.4c0.2-0.2,0.4-0.5,0.4-0.8
	C376.4,604.7,375.9,604.3,375.5,604.3z"/>
<rect x="378.6" y="599.6" fill="#FFFFFF" width="4.7" height="1.2"/>
<path fill="#FFFFFF" d="M356.2,625.1l4.3-4.8v-1.1h-8.1v1.6h6l-4,4.4v1.1h1.7c2.2,0,3.5,0.8,3.5,2.6c0,1.7-1.3,2.8-3.5,2.8
	c-1.3,0-2.6-0.5-3.6-1.3l-0.7,1.4c1.2,0.7,2.9,1.3,4.4,1.3c3,0,4.8-1.8,4.8-4.3c0-2.2-1.7-3.6-4.1-3.7H356.2z"/>
<polygon fill="#FFFFFF" points="372.7,620.5 372.7,619.2 363.1,619.2 363.1,622.8 364.4,622.8 364.4,620.8 370.9,620.8 365.2,633.2
	366.9,633.2 "/>
<path fill="#FFFFFF" d="M375.2,631.2c-0.5,0-1,0.5-1,1c0,0.4,0.1,0.7,0.5,0.8l-0.7,1.4h1l1-1.3c0.1-0.4,0.2-0.6,0.2-1
	C376.2,631.6,375.7,631.2,375.2,631.2z"/>
<rect x="378.5" y="626.6" fill="#FFFFFF" width="4.7" height="1.2"/>
</svg>
